<svg xmlns="http://www.w3.org/2000/svg" width="84" height="38" viewBox="0 0 84 38">
  <g id="ansible" transform="translate(-0.011 -0.434)">
    <rect id="box" width="84" height="38" rx="10" transform="translate(0.011 0.434)" fill="#1a1918"/>
    <g id="ansible-2" data-name="ansible" transform="translate(28.904 3.974)">
      <g id="Group_3" data-name="Group 3" transform="translate(0 27.228)">
        <path id="Path_53" data-name="Path 53" d="M46.71,4.147c-.052,0-.26.053-.3,0l-1.5-2.4v2.4h-.6v-3c0-.111.2,0,.3,0,.061,0-.039-.053,0,0l1.8,2.1v-2.1h.3v2.7c0,.115.1.3,0,.3" transform="translate(-40.115 -1.1)" fill="#fff"/>
        <path id="Path_54" data-name="Path 54" d="M89.1,4.085a3.678,3.678,0,0,1-1.2-.3l.3-.3c.344.111.551.3.9.3.484,0,.9-.356.9-.6,0-.221-.224-.281-.9-.6s-.9-.5-.9-.9c0-.5.176-.6.9-.6a6.029,6.029,0,0,1,1.2,0v.3a6.786,6.786,0,0,0-1.2,0c-.51,0-.6.056-.6.3s.184.268.9.6c.754.35.9.536.9.9,0,.527-.563.9-1.2.9" transform="translate(-79.504 -1.039)" fill="#fff"/>
        <path id="Path_55" data-name="Path 55" d="M130.658,1.481h.3v3h-.3Z" transform="translate(-118.068 -1.431)" fill="#fff"/>
        <path id="Path_56" data-name="Path 56" d="M156.87,2.979h-1.2v1.2h1.2a.62.62,0,0,0,.6-.6.639.639,0,0,0-.6-.6m-.3-1.2h-.9v.9h.9a.643.643,0,0,0,.6-.6c0-.279-.251-.3-.6-.3m.3,2.7h-1.2a.408.408,0,0,1-.3-.3V1.78a.415.415,0,0,1,.3-.3h.9c.6,0,.9.135.9.6a.637.637,0,0,1-.3.6,1.028,1.028,0,0,1,.6.9.881.881,0,0,1-.9.9" transform="translate(-140.384 -1.432)" fill="#fff"/>
        <path id="Path_57" data-name="Path 57" d="M197.5,4.478c-.109,0,0-.194,0-.3v-2.7h.3v2.4h1.5v.6Z" transform="translate(-178.317 -1.432)" fill="#fff"/>
        <path id="Path_58" data-name="Path 58" d="M233.458,4.094c-.811,0-1.2-.293-1.2-.9,0-.288-.014-.471.3-.6-.253-.159-.3-.651-.3-.9,0-.549.406-.6,1.2-.6a3.813,3.813,0,0,1,.9,0v.3a5.081,5.081,0,0,0-.9,0c-.514,0-.9-.041-.9.3a.639.639,0,0,0,.6.6h.9c.1,0,0,.207,0,.3s.1,0,0,0h-.9a.59.59,0,0,0-.6.6c0,.429.4.6.9.6a5.084,5.084,0,0,0,.9-.3v.3a3.368,3.368,0,0,1-.9.3" transform="translate(-209.778 -1.048)" fill="#fff"/>
        <path id="Path_59" data-name="Path 59" d="M1.463,1.782l.9,1.5-1.2-.6Zm1.5,2.1-1.2-2.7c-.03-.075-.226,0-.3,0s.03-.075,0,0l-1.2,3h.3l.6-1.2,1.5,1.2c.056.046-.052,0,0,0a.415.415,0,0,0,.3-.3c0-.019.012.032,0,0Z" transform="translate(-0.264 -1.133)" fill="#fff"/>
      </g>
      <g id="Group_4" data-name="Group 4" transform="translate(0 0)">
        <path id="Path_60" data-name="Path 60" d="M25.469,13.071A12.509,12.509,0,0,1,12.88,25.361a12.29,12.29,0,0,1,0-24.579,12.509,12.509,0,0,1,12.589,12.29" transform="translate(-0.59 -0.782)" fill="#fff"/>
        <path id="Path_61" data-name="Path 61" d="M72.509,53.731l3.3,7.793-4.8-3.9Zm5.7,9.592-4.8-11.69a.974.974,0,0,0-1.8,0l-5.4,12.889h2.1l2.1-5.4,6.295,5.1c.256.207.359.3.6.3a.893.893,0,0,0,.9-.9c0-.085.054-.155,0-.3Z" transform="translate(-59.92 -46.238)" fill="#1a1918"/>
      </g>
    </g>
  </g>
</svg>
