<svg xmlns="http://www.w3.org/2000/svg" width="122" height="55" viewBox="0 0 122 55">
  <g id="ansible" transform="translate(-0.434 -0.47)">
    <rect id="box" width="122" height="55" rx="10" transform="translate(0.434 0.47)" fill="#1a1918"/>
    <g id="ansible-2" data-name="ansible" transform="translate(43.114 6.093)">
      <g id="Group_3" data-name="Group 3" transform="translate(0 39.293)">
        <path id="Path_53" data-name="Path 53" d="M47.773,5.5c-.076,0-.376.077-.433,0L45.177,2.036V5.5h-.865V1.171c0-.16.281,0,.433,0,.088,0-.056-.077,0,0L47.34,4.2V1.171h.433V5.064c0,.166.151.433,0,.433" transform="translate(-38.256 -1.1)" fill="#fff"/>
        <path id="Path_54" data-name="Path 54" d="M89.627,5.429A5.308,5.308,0,0,1,87.9,5l.433-.433c.5.16.795.433,1.3.433.7,0,1.3-.514,1.3-.865,0-.319-.323-.405-1.3-.865s-1.3-.723-1.3-1.3c0-.721.254-.865,1.3-.865a8.7,8.7,0,0,1,1.73,0v.433a9.793,9.793,0,0,0-1.73,0c-.736,0-.865.081-.865.433s.266.386,1.3.865c1.088.5,1.3.774,1.3,1.3,0,.76-.812,1.3-1.73,1.3" transform="translate(-75.785 -1.032)" fill="#fff"/>
        <path id="Path_55" data-name="Path 55" d="M130.658,1.481h.433V5.806h-.433Z" transform="translate(-112.49 -1.41)" fill="#fff"/>
        <path id="Path_56" data-name="Path 56" d="M157.534,3.644H155.8v1.73h1.73a.894.894,0,0,0,.865-.865.923.923,0,0,0-.865-.865m-.433-1.73h-1.3v1.3h1.3a.928.928,0,0,0,.865-.865c0-.4-.362-.433-.865-.433m.433,3.893H155.8a.589.589,0,0,1-.433-.433V1.913a.6.6,0,0,1,.433-.433h1.3c.868,0,1.3.195,1.3.865a.919.919,0,0,1-.433.865,1.483,1.483,0,0,1,.865,1.3,1.271,1.271,0,0,1-1.3,1.3" transform="translate(-133.743 -1.41)" fill="#fff"/>
        <path id="Path_57" data-name="Path 57" d="M197.522,5.806c-.157,0,0-.279,0-.433V1.481h.433V4.941h2.163v.865Z" transform="translate(-169.838 -1.41)" fill="#fff"/>
        <path id="Path_58" data-name="Path 58" d="M233.989,5.437c-1.17,0-1.73-.423-1.73-1.3,0-.415-.02-.68.433-.865-.365-.23-.433-.94-.433-1.3,0-.792.586-.865,1.73-.865a5.5,5.5,0,0,1,1.3,0v.433a7.332,7.332,0,0,0-1.3,0c-.742,0-1.3-.059-1.3.433a.922.922,0,0,0,.865.865h1.3c.138,0,0,.3,0,.433s.138,0,0,0h-1.3a.851.851,0,0,0-.865.865c0,.619.581.865,1.3.865a7.338,7.338,0,0,0,1.3-.433V5a4.861,4.861,0,0,1-1.3.433" transform="translate(-199.816 -1.04)" fill="#fff"/>
        <path id="Path_59" data-name="Path 59" d="M1.994,2.062l1.3,2.163L1.562,3.36ZM4.157,5.09,2.427,1.2c-.044-.109-.326,0-.433,0s.044-.109,0,0L.264,5.523H.7l.865-1.73,2.163,1.73c.08.066-.076,0,0,0a.6.6,0,0,0,.433-.433c0-.027.017.046,0,0Z" transform="translate(-0.264 -1.126)" fill="#fff"/>
      </g>
      <g id="Group_4" data-name="Group 4" transform="translate(0 0)">
        <path id="Path_60" data-name="Path 60" d="M36.494,18.517c0,9.839-8.329,17.735-18.168,17.735a17.735,17.735,0,1,1,0-35.471c9.839,0,18.168,7.9,18.168,17.735" transform="translate(-0.59 -0.782)" fill="#fff"/>
        <path id="Path_61" data-name="Path 61" d="M75.3,54.927l4.758,11.247L73.135,60.55Zm8.219,13.842L76.6,51.9a1.406,1.406,0,0,0-2.6,0L66.214,70.5h3.028l3.028-7.786,9.084,7.354c.37.3.518.433.865.433a1.289,1.289,0,0,0,1.3-1.3c0-.122.078-.224,0-.433Z" transform="translate(-57.13 -44.112)" fill="#1a1918"/>
      </g>
    </g>
  </g>
</svg>
