<svg xmlns="http://www.w3.org/2000/svg" width="281" height="128" viewBox="0 0 281 128">
  <g id="ansible" transform="translate(-232 -163)">
    <rect id="box" width="281" height="128" rx="10" transform="translate(232 163)" fill="#1a1918"/>
    <g id="ansible-2" data-name="ansible" transform="translate(330.736 176.218)">
      <g id="Group_3" data-name="Group 3" transform="translate(0.264 91.477)">
        <path id="Path_53" data-name="Path 53" d="M52.312,11.264c-.175,0-.869.177-1,0l-5-8v8h-2v-10c0-.369.651,0,1,0,.2,0-.13-.177,0,0l6,7v-7h1v9c0,.384.349,1,0,1" transform="translate(-30.312 -0.959)" fill="#fff"/>
        <path id="Path_54" data-name="Path 54" d="M91.9,11.17a12.271,12.271,0,0,1-4-1l1-1c1.149.369,1.837,1,3,1,1.614,0,3-1.188,3-2,0-.738-.746-.937-3-2s-3-1.671-3-3c0-1.668.587-2,3-2a20.112,20.112,0,0,1,4,0v1a22.638,22.638,0,0,0-4,0c-1.7,0-2,.188-2,1,0,.8.615.893,3,2,2.515,1.166,3,1.79,3,3,0,1.757-1.877,3-4,3" transform="translate(-59.897 -0.866)" fill="#fff"/>
        <path id="Path_55" data-name="Path 55" d="M130.658,1.481h1v10h-1Z" transform="translate(-88.658 -1.176)" fill="#fff"/>
        <path id="Path_56" data-name="Path 56" d="M160.372,6.481h-4v4h4a2.067,2.067,0,0,0,2-2,2.133,2.133,0,0,0-2-2m-1-4h-3v3h3a2.145,2.145,0,0,0,2-2c0-.93-.837-1-2-1m1,9h-4a1.361,1.361,0,0,1-1-1v-8a1.384,1.384,0,0,1,1-1h3c2.006,0,3,.45,3,2a2.125,2.125,0,0,1-1,2,3.429,3.429,0,0,1,2,3,2.938,2.938,0,0,1-3,3" transform="translate(-105.372 -1.176)" fill="#fff"/>
        <path id="Path_57" data-name="Path 57" d="M197.614,11.481c-.363,0,0-.646,0-1v-9h1v8h5v2Z" transform="translate(-133.614 -1.176)" fill="#fff"/>
        <path id="Path_58" data-name="Path 58" d="M236.259,11.17c-2.7,0-4-.978-4-3,0-.959-.047-1.572,1-2-.843-.531-1-2.173-1-3,0-1.83,1.354-2,4-2a12.72,12.72,0,0,1,3,0v1a16.95,16.95,0,0,0-3,0c-1.716,0-3-.137-3,1a2.132,2.132,0,0,0,2,2h3c.32,0,0,.69,0,1s.32,0,0,0h-3a1.968,1.968,0,0,0-2,2c0,1.432,1.343,2,3,2,.9,0,2.011-.764,3-1v1c-.945.266-1.91,1-3,1" transform="translate(-157.259 -0.866)" fill="#fff"/>
        <path id="Path_59" data-name="Path 59" d="M4.264,3.26l3,5-4-2Zm5,7-4-9c-.1-.251-.753,0-1,0s.1-.251,0,0l-4,10h1l2-4,5,4c.186.152-.175,0,0,0a1.384,1.384,0,0,0,1-1c0-.062.039.107,0,0Z" transform="translate(-0.264 -0.956)" fill="#fff"/>
      </g>
      <g id="Group_4" data-name="Group 4" transform="translate(0.42 0.302)">
        <path id="Path_60" data-name="Path 60" d="M83.59,41.782c0,22.745-19.255,41-42,41a41,41,0,0,1,0-82c22.745,0,42,18.257,42,41" transform="translate(-0.746 -0.302)" fill="#fff"/>
        <path id="Path_61" data-name="Path 61" d="M87.214,60.034l11,26-16-13Zm19,32-16-39a3.25,3.25,0,0,0-6,0l-18,43h7l7-18,21,17c.855.691,1.2,1,2,1a2.981,2.981,0,0,0,3-3c0-.283.181-.517,0-1Z" transform="translate(-45.37 -34.554)" fill="#1a1918"/>
      </g>
    </g>
  </g>
</svg>
