<svg xmlns="http://www.w3.org/2000/svg" width="281" height="128" viewBox="0 0 281 128">
  <g id="apache" transform="translate(-232 -163)">
    <rect id="box" width="281" height="128" rx="10" transform="translate(232 163)" fill="#c7203a"/>
    <g id="apache-2" data-name="apache" transform="translate(348.402 180.378)">
      <path id="Path_26" data-name="Path 26" d="M188.028.622c-1.449.851-4.1,3.468-7,7h0l2,5h0a64.1,64.1,0,0,1,6-7h0a64.81,64.81,0,0,0-5,7h0s6.812-.457,10-1h0c1.014-5.687-1-8-1-8S191.034-1.135,188.028.622Z" transform="translate(-147.43 0)" fill="#fff"/>
      <path id="Path_27" data-name="Path 27" d="M127.129,58.237c.815-1.5,1.185-2.569,2-4,.851-1.485,2.112-3.605,3-5,.054-.072-.036.091,0,0,.869-1.377,1.112-2.732,2-4l-2-5c-.2.235-.8.746-1,1-.761.96-1.185,1.913-2,3-.924,1.232-2.04,2.623-3,4-.888,1.268-2.112,2.642-3,4-.761,1.177-1.239,1.75-2,3-.036.054.036.946,0,1h0l3,6h0C124.871,60.788,126.368,59.65,127.129,58.237Z" transform="translate(-98.531 -32.615)" fill="#fff"/>
      <path id="Path_28" data-name="Path 28" d="M49.049,159.755c.6-1.558,1.366-2.406,2-4,.616-1.521,1.348-3.46,2-5,.634-1.54,1.33-3.442,2-5,.688-1.576,1.294-2.442,2-4,.706-1.54,1.275-3.479,2-5,.254-.543.728-1.457,1-2,.453-.942.547-1.076,1-2,.018-.054-.018-.946,0-1l-3-6h0c-.8,1.322-2.221,2.623-3,4-.8,1.395-1.239,2.569-2,4-.652,1.214-1.384,2.768-2,4-.127.254.127.746,0,1-.761,1.558-1.384,2.551-2,4-.688,1.63-1.457,3.515-2,5-.362.978-.692,1.094-1,2-.235.761-.783,2.239-1,3-.525,1.811-.638,3.189-1,5h0l3,7h0c.453-1.232,1.511-2.732,2-4C49.176,160.393,48.923,160.117,49.049,159.755Z" transform="translate(-35.452 -102.133)" fill="#fff"/>
      <path id="Path_29" data-name="Path 29" d="M8.6,304.615a62.61,62.61,0,0,0-1,7h0c-1.087-1.739-4-3-4-3,2.083,3.007,3.765,6.066,4,9-1.1.235-3.225-.366-5-1a7.552,7.552,0,0,0,4,2c-1.684.109-3.225,1.678-5,3,2.59-1.051,4.5-1.326,6-1-2.373,6.72-4.609,14.139-7,22,.725-.217.746-1.33,1-2,.417-1.431,3.6-10.7,8-23,.127-.344-.127-.656,0-1,.036-.091.964.091,1,0,.471-1.286.493-2.66,1-4,.109-.308-.109-.692,0-1h0l-3-7C8.6,304.705,8.616,304.542,8.6,304.615Z" transform="translate(0 -248.992)" fill="#fff"/>
      <path id="Path_30" data-name="Path 30" d="M153.3,62.515c-.779,1.2-2.076,2.46-3,4-.054.072.054.928,0,1-.8,1.34-1.112,2.388-2,4-.761,1.377-2.167,2.388-3,4-.725,1.395-1.239,3.424-2,5h0l9-1h0a11.6,11.6,0,0,0,5-4c.29-.417-.29-.547,0-1,.906-1.413,2.221-3.46,3-5,.761-1.485,1.475-2.678,2-4,.326-.851.819-1.312,1-2a18.4,18.4,0,0,0,0-2A83.606,83.606,0,0,1,153.3,62.515Z" transform="translate(-116.705 -49.893)" fill="#fff"/>
      <path id="Path_31" data-name="Path 31" d="M81.2,155.108c-.29.616-.692.366-1,1-.326.688-.674,2.275-1,3-.163.362-.837.638-1,1-.525,1.123-.457,1.8-1,3-.652,1.467-1.33,3.424-2,5-.652,1.521-1.348,2.37-2,4-.634,1.54-1.366,3.37-2,5-.58,1.467-1.42,3.442-2,5h0c-.58,1.54-1.4,3.388-2,5h3c-.054-.018.054-.982,0-1,3.333-.417,7.12-2.921,10-6a27.667,27.667,0,0,0,4-5,29.385,29.385,0,0,0,2-4c.652-1.558,1.4-4.171,2-6a6.279,6.279,0,0,1-2,1c-.163.036-.819-.036-1,0s.163.964,0,1c3.115-1.2,4.569-4.174,6-7a12.631,12.631,0,0,1-4,2c-.217.054.235-.036,0,0h0c1.087-.453,1.2-1.4,2-2,.163-.127.837.145,1,0,.235-.217.783-.783,1-1,.145-.145-.145.163,0,0,.308-.362.728-.565,1-1,.091-.127-.091-.873,0-1,.109-.2-.091.2,0,0,.435-.869.728-2.312,1-3,.145-.344.891-.692,1-1,.036-.109-.054.109,0,0,.109-.326-.072-.728,0-1a4.546,4.546,0,0,0,0-1c-.109.091.145.909,0,1a14.063,14.063,0,0,1-4,1h0c-.181.036.145-.036,0,0,.012-.012-3.178.374-9,1A6.03,6.03,0,0,1,81.2,155.108Z" transform="translate(-54.604 -123.485)" fill="#fff"/>
      <path id="Path_32" data-name="Path 32" d="M53.428,331.626c-.453,1.25-1.547,1.7-2,3h0c-.072.181.072.8,0,1-.308.888-.384,1.189-1,3,1.014.471,2.221,2.605,3,4a6.089,6.089,0,0,0-2-4c5.017.217,8.772-1.341,11-5,.2-.326.837-.638,1-1a5.634,5.634,0,0,1-5,2h0a14.736,14.736,0,0,0,7-6c.362-.6.638-1.294,1-2-3.061,3.133-6.287,4.67-10,4h-3C53.338,330.825,53.519,331.39,53.428,331.626Z" transform="translate(-40.831 -267.004)" fill="#fff"/>
    </g>
  </g>
</svg>
