<svg xmlns="http://www.w3.org/2000/svg" width="121" height="56" viewBox="0 0 121 56">
  <g id="apache" transform="translate(0.056 -0.448)">
    <rect id="box" width="121" height="56" rx="10" transform="translate(-0.056 0.448)" fill="#c7203a"/>
    <g id="apache-2" data-name="apache" transform="translate(50.265 7.961)">
      <path id="Path_26" data-name="Path 26" d="M184.056.4a15.508,15.508,0,0,0-3.028,3.028h0l.865,2.163h0a27.726,27.726,0,0,1,2.6-3.028h0a28.04,28.04,0,0,0-2.163,3.028h0s2.947-.2,4.326-.433h0c.439-2.46-.433-3.461-.433-3.461S185.356-.359,184.056.4Z" transform="translate(-166.753 -0.233)" fill="#fff"/>
      <path id="Path_27" data-name="Path 27" d="M123.718,48.024c.353-.65.513-1.111.865-1.73.368-.642.914-1.56,1.3-2.163.024-.031-.016.039,0,0,.376-.6.481-1.182.865-1.73l-.865-2.163c-.086.1-.346.323-.433.433-.329.415-.513.828-.865,1.3-.4.533-.882,1.135-1.3,1.73-.384.548-.914,1.143-1.3,1.73-.329.509-.536.757-.865,1.3-.016.024.016.409,0,.433h0l1.3,2.6h0C122.742,49.127,123.389,48.635,123.718,48.024Z" transform="translate(-111.606 -37.041)" fill="#fff"/>
      <path id="Path_28" data-name="Path 28" d="M46.212,140.448c.259-.674.591-1.041.865-1.73.266-.658.583-1.5.865-2.163s.575-1.489.865-2.163.56-1.056.865-1.73.552-1.5.865-2.163c.11-.235.315-.63.433-.865.2-.407.237-.466.433-.865.008-.024-.008-.409,0-.433l-1.3-2.6h0c-.345.572-.961,1.135-1.3,1.73s-.536,1.111-.865,1.73c-.282.525-.6,1.2-.865,1.73-.055.11.055.323,0,.433-.329.674-.6,1.1-.865,1.73-.3.705-.63,1.52-.865,2.163-.157.423-.3.473-.433.865-.1.329-.339.969-.433,1.3-.227.784-.276,1.379-.433,2.163h0l1.3,3.028h0c.2-.533.654-1.182.865-1.73C46.267,140.724,46.157,140.6,46.212,140.448Z" transform="translate(-40.589 -115.623)" fill="#fff"/>
      <path id="Path_29" data-name="Path 29" d="M4.058,304.6a27.084,27.084,0,0,0-.433,3.028h0a4.547,4.547,0,0,0-1.73-1.3,8.534,8.534,0,0,1,1.73,3.893,5.182,5.182,0,0,1-2.163-.433,3.267,3.267,0,0,0,1.73.865c-.729.047-1.4.726-2.163,1.3a4.509,4.509,0,0,1,2.6-.433C2.6,314.432,1.632,317.641.6,321.042c.313-.094.323-.575.433-.865.18-.619,1.557-4.629,3.461-9.949.055-.149-.055-.284,0-.433.016-.039.417.039.433,0,.2-.556.213-1.151.433-1.73.047-.133-.047-.3,0-.433h0l-1.3-3.028C4.058,304.643,4.066,304.573,4.058,304.6Z" transform="translate(-0.598 -280.644)" fill="#fff"/>
      <path id="Path_30" data-name="Path 30" d="M147.629,61.947c-.337.517-.9,1.064-1.3,1.73-.024.031.023.4,0,.433-.345.58-.481,1.033-.865,1.73-.329.6-.937,1.033-1.3,1.73-.313.6-.536,1.481-.865,2.163h0L147.2,69.3h0a5.018,5.018,0,0,0,2.163-1.73c.125-.18-.125-.237,0-.433.392-.611.961-1.5,1.3-2.163.329-.642.638-1.158.865-1.73.141-.368.354-.567.433-.865a7.964,7.964,0,0,0,0-.865A36.165,36.165,0,0,1,147.629,61.947Z" transform="translate(-132.056 -56.588)" fill="#fff"/>
      <path id="Path_31" data-name="Path 31" d="M73.255,152.838c-.125.266-.3.158-.433.433-.141.3-.292.984-.433,1.3-.071.157-.362.276-.433.433-.227.486-.2.781-.433,1.3-.282.635-.575,1.481-.865,2.163-.282.658-.583,1.025-.865,1.73-.274.666-.591,1.458-.865,2.163-.251.635-.614,1.489-.865,2.163h0c-.251.666-.607,1.466-.865,2.163h1.3c-.024-.008.023-.425,0-.433a7.968,7.968,0,0,0,4.326-2.6,11.969,11.969,0,0,0,1.73-2.163,12.712,12.712,0,0,0,.865-1.73c.282-.674.607-1.8.865-2.6a2.716,2.716,0,0,1-.865.433c-.071.016-.354-.016-.433,0s.071.417,0,.433c1.348-.517,1.976-1.806,2.6-3.028a5.464,5.464,0,0,1-1.73.865c-.094.023.1-.016,0,0h0c.47-.2.52-.607.865-.865.071-.055.362.063.433,0,.1-.094.339-.339.433-.433.063-.063-.063.071,0,0,.133-.157.315-.245.433-.433.039-.055-.039-.378,0-.433.047-.086-.039.086,0,0,.188-.376.315-1,.433-1.3.063-.149.386-.3.433-.433.016-.047-.024.047,0,0,.047-.141-.031-.315,0-.433a1.967,1.967,0,0,0,0-.433c-.047.039.063.393,0,.433a6.084,6.084,0,0,1-1.73.433h0c-.078.016.063-.016,0,0,.005-.005-1.375.162-3.893.433A2.609,2.609,0,0,1,73.255,152.838Z" transform="translate(-62.008 -139.26)" fill="#fff"/>
      <path id="Path_32" data-name="Path 32" d="M51.726,328.789c-.2.541-.669.734-.865,1.3h0c-.031.078.031.346,0,.433-.133.384-.166.514-.433,1.3a4.876,4.876,0,0,1,1.3,1.73,2.634,2.634,0,0,0-.865-1.73c2.17.094,3.795-.58,4.758-2.163.086-.141.362-.276.433-.433a2.437,2.437,0,0,1-2.163.865h0a6.374,6.374,0,0,0,3.028-2.6c.157-.259.276-.56.433-.865a4.726,4.726,0,0,1-4.326,1.73h-1.3C51.687,328.442,51.765,328.687,51.726,328.789Z" transform="translate(-46.535 -300.936)" fill="#fff"/>
    </g>
  </g>
</svg>
