<svg xmlns="http://www.w3.org/2000/svg" width="85" height="37" viewBox="0 0 85 37">
  <g id="apache" transform="translate(0.058 -0.37)">
    <rect id="box" width="85" height="37" rx="10" transform="translate(-0.058 0.37)" fill="#c7203a"/>
    <g id="apache-2" data-name="apache" transform="translate(35.45 4.633)">
      <path id="Path_26" data-name="Path 26" d="M183.126.35a10.747,10.747,0,0,0-2.1,2.1h0l.6,1.5h0a19.215,19.215,0,0,1,1.8-2.1h0a19.429,19.429,0,0,0-1.5,2.1h0s2.042-.137,3-.3h0a2.956,2.956,0,0,0-.3-2.4S184.027-.177,183.126.35Z" transform="translate(-171.136 -0.233)" fill="#fff"/>
      <path id="Path_27" data-name="Path 27" d="M122.92,45.633c.244-.451.355-.77.6-1.2.255-.445.633-1.081.9-1.5.016-.022-.011.027,0,0,.261-.413.333-.819.6-1.2l-.6-1.5c-.06.071-.24.224-.3.3-.228.288-.355.573-.6.9-.277.369-.611.786-.9,1.2-.266.38-.633.792-.9,1.2-.228.353-.371.525-.6.9-.011.016.011.283,0,.3h0l.9,1.8h0C122.243,46.4,122.692,46.056,122.92,45.633Z" transform="translate(-114.527 -38.022)" fill="#fff"/>
      <path id="Path_28" data-name="Path 28" d="M45.548,135.928c.179-.467.409-.721.6-1.2.185-.456.4-1.037.6-1.5s.4-1.032.6-1.5.388-.732.6-1.2.382-1.043.6-1.5c.076-.163.218-.437.3-.6.136-.282.164-.323.3-.6.005-.016-.005-.283,0-.3l-.9-1.8h0c-.239.4-.666.786-.9,1.2s-.371.77-.6,1.2c-.2.364-.415.83-.6,1.2-.038.076.038.224,0,.3-.228.467-.415.765-.6,1.2-.206.489-.437,1.054-.6,1.5-.109.293-.207.328-.3.6-.071.228-.235.671-.3.9-.157.543-.191.956-.3,1.5h0l.9,2.1h0c.136-.369.453-.819.6-1.2C45.586,136.119,45.51,136.037,45.548,135.928Z" transform="translate(-41.651 -118.726)" fill="#fff"/>
      <path id="Path_29" data-name="Path 29" d="M3,304.6a18.767,18.767,0,0,0-.3,2.1h0a3.151,3.151,0,0,0-1.2-.9,5.914,5.914,0,0,1,1.2,2.7,3.591,3.591,0,0,1-1.5-.3,2.264,2.264,0,0,0,1.2.6c-.5.033-.967.5-1.5.9a3.125,3.125,0,0,1,1.8-.3c-.711,2.014-1.382,4.238-2.1,6.594.217-.065.224-.4.3-.6.125-.429,1.079-3.208,2.4-6.894.038-.1-.038-.2,0-.3.011-.027.289.027.3,0,.141-.385.148-.8.3-1.2.033-.092-.033-.207,0-.3h0L3,304.6C3,304.628,3,304.58,3,304.6Z" transform="translate(-0.598 -287.998)" fill="#fff"/>
      <path id="Path_30" data-name="Path 30" d="M146.3,61.815c-.233.358-.622.738-.9,1.2-.016.022.016.278,0,.3-.239.4-.333.716-.6,1.2-.228.413-.649.716-.9,1.2-.217.418-.371,1.026-.6,1.5h0l2.7-.3h0a3.477,3.477,0,0,0,1.5-1.2c.087-.125-.087-.164,0-.3.271-.423.666-1.037.9-1.5.228-.445.442-.8.6-1.2.1-.255.245-.393.3-.6a5.517,5.517,0,0,0,0-.6A25.06,25.06,0,0,1,146.3,61.815Z" transform="translate(-135.51 -58.101)" fill="#fff"/>
      <path id="Path_31" data-name="Path 31" d="M71.394,152.307c-.087.185-.207.11-.3.3-.1.206-.2.682-.3.9-.049.109-.251.191-.3.3-.157.337-.137.541-.3.9-.2.44-.4,1.026-.6,1.5-.2.456-.4.71-.6,1.2-.19.462-.409,1.01-.6,1.5-.174.44-.426,1.032-.6,1.5h0c-.174.461-.42,1.016-.6,1.5h.9c-.016-.005.016-.294,0-.3a5.522,5.522,0,0,0,3-1.8,8.294,8.294,0,0,0,1.2-1.5,8.807,8.807,0,0,0,.6-1.2c.2-.467.42-1.25.6-1.8a1.883,1.883,0,0,1-.6.3c-.049.011-.245-.011-.3,0s.049.289,0,.3a3.761,3.761,0,0,0,1.8-2.1,3.786,3.786,0,0,1-1.2.6c-.065.016.071-.011,0,0h0c.326-.136.361-.42.6-.6.049-.038.251.043.3,0,.071-.065.235-.235.3-.3.043-.043-.043.049,0,0,.092-.109.218-.169.3-.3.027-.038-.027-.262,0-.3.033-.06-.027.06,0,0,.13-.261.218-.693.3-.9.043-.1.267-.207.3-.3.011-.033-.016.033,0,0,.033-.1-.022-.218,0-.3a1.363,1.363,0,0,0,0-.3c-.033.027.043.273,0,.3a4.216,4.216,0,0,1-1.2.3h0c-.054.011.043-.011,0,0,0,0-.953.112-2.7.3A1.807,1.807,0,0,1,71.394,152.307Z" transform="translate(-63.601 -142.898)" fill="#fff"/>
      <path id="Path_32" data-name="Path 32" d="M51.327,328.125c-.136.375-.464.508-.6.9h0c-.022.054.022.24,0,.3-.092.266-.115.356-.3.9a3.379,3.379,0,0,1,.9,1.2,1.825,1.825,0,0,0-.6-1.2,3.369,3.369,0,0,0,3.3-1.5c.06-.1.251-.191.3-.3a1.689,1.689,0,0,1-1.5.6h0a4.417,4.417,0,0,0,2.1-1.8c.109-.179.191-.388.3-.6a3.275,3.275,0,0,1-3,1.2h-.9C51.3,327.885,51.355,328.054,51.327,328.125Z" transform="translate(-47.73 -308.824)" fill="#fff"/>
    </g>
  </g>
</svg>
