<svg xmlns="http://www.w3.org/2000/svg" width="85" height="38" viewBox="0 0 85 38">
  <g id="arduino" transform="translate(0.087 -0.434)">
    <rect id="box" width="85" height="38" rx="10" transform="translate(-0.087 0.434)" fill="#18979c"/>
    <g id="arduino-2" data-name="arduino" transform="translate(26.947 8.47)">
      <path id="Path_63" data-name="Path 63" d="M2.347,130.288l-1.5,5.4h1.2l.3-1.2h1.8v1.2h1.5l-1.5-5.4Zm.3,3.3.6-1.8.6,1.8Z" transform="translate(-0.848 -114.402)" fill="#fff"/>
      <path id="Path_64" data-name="Path 64" d="M44.477,133.235c-.019-.02.02-.282,0-.3.04-.015-.038.017,0,0a2.568,2.568,0,0,0,.6-.3c.113-.116.238-.14.3-.3a1.958,1.958,0,0,0,0-.6c0-.275-.2-.4-.3-.6s-.117-.477-.3-.6a1.623,1.623,0,0,0-.6-.3,5.555,5.555,0,0,0-.9,0h-1.5v5.4h1.2v-2.1h0c.138,0,.2-.063.3,0a.815.815,0,0,1,.3.3l.6,1.8h1.5l-.9-2.1c-.112-.228-.184-.175-.3-.3Zm-.6-1.2c-.036.069.068.252,0,.3s-.2-.026-.3,0a1.094,1.094,0,0,1-.3,0h-.3v-.9h.3c.289,0,.465-.09.6,0,.117.078.3.107.3.3,0,.093-.264.231-.3.3Z" transform="translate(-36.683 -114.351)" fill="#fff"/>
      <path id="Path_65" data-name="Path 65" d="M79.883,130.888c-.212-.214-.583-.2-.9-.3a4.246,4.246,0,0,0-1.2-.3h-1.5v5.4h1.5a3.338,3.338,0,0,0,1.2-.3,2.476,2.476,0,0,0,.9-.6c.223-.237.2-.565.3-.9s.3-.5.3-.9a3.99,3.99,0,0,0-.3-1.2c-.1-.325-.087-.686-.3-.9Zm-1.2,3.3a1.048,1.048,0,0,1-.9.3h-.3v-3h.3a1.758,1.758,0,0,1,.6,0,1.855,1.855,0,0,1,.6.3c.093.128-.04.411,0,.6a2.837,2.837,0,0,1,0,.6,1.792,1.792,0,0,1-.3,1.2Z" transform="translate(-66.994 -114.402)" fill="#fff"/>
      <path id="Path_66" data-name="Path 66" d="M115.25,133.585a3.587,3.587,0,0,1,0,.6c-.031.115-.241.229-.3.3s.086-.031,0,0a3.578,3.578,0,0,1-.6,0c-.151,0-.205.038-.3,0s-.24.071-.3,0,.025-.193,0-.3a4.351,4.351,0,0,1,0-.6v-3.3h-1.2v3.6c0,.284-.069.369,0,.6a1.35,1.35,0,0,0,.3.6c.162.168.342.511.6.6a3.128,3.128,0,0,0,.9,0,3.14,3.14,0,0,0,.9,0c.255-.088.421-.425.6-.6s.5-.341.6-.6a2.894,2.894,0,0,0,0-.9v-3.3h-1.2v3.3" transform="translate(-98.764 -114.402)" fill="#fff"/>
      <path id="Path_67" data-name="Path 67" d="M150.135,131.487h1.2v3h-1.2v1.2h3.6v-1.2h-1.2v-3h1.2v-1.2h-3.6v1.2" transform="translate(-131.85 -114.402)" fill="#fff"/>
      <path id="Path_68" data-name="Path 68" d="M187.393,133.286l-1.5-3h-1.5v5.4h1.2v-3.3l1.5,3.3h1.5v-5.4h-1.2v3" transform="translate(-161.914 -114.402)" fill="#fff"/>
      <path id="Path_69" data-name="Path 69" d="M222.534,130.374a1.635,1.635,0,0,0-1.5-.6,2.521,2.521,0,0,0-.9,0c-.275.109-.395.373-.6.6a2.8,2.8,0,0,0-.6.9,3.649,3.649,0,0,0-.3,1.2,3.536,3.536,0,0,0,.6,2.1,2.245,2.245,0,0,0,1.8.6,2.653,2.653,0,0,0,.9-.3c.276-.109.4-.074.6-.3a2.807,2.807,0,0,0,.6-.9,4.233,4.233,0,0,0,0-1.2,3.527,3.527,0,0,0-.6-2.1Zm-.6,2.7a2.346,2.346,0,0,1-.3.6.865.865,0,0,1-.3.3c-.11.062-.14,0-.3,0-.315,0-.463-.058-.6-.3a2.334,2.334,0,0,1-.3-1.2,7.164,7.164,0,0,1,0-.9c.036-.194.224-.171.3-.3s-.109-.238,0-.3a1.951,1.951,0,0,1,.6,0c.318,0,.464.059.6.3a2.345,2.345,0,0,1,.3,1.2,3.185,3.185,0,0,1,0,.6Z" transform="translate(-191.959 -113.888)" fill="#fff"/>
      <path id="Path_72" data-name="Path 72" d="M24.127,15a7.9,7.9,0,0,1-5.4-2.1,15.359,15.359,0,0,1-2.4-3,15.359,15.359,0,0,1-2.4,3,7.576,7.576,0,0,1-5.7,2.1A7.525,7.525,0,0,1,.747,7.5,7.247,7.247,0,0,1,8.241.308a8.311,8.311,0,0,1,5.995,2.1,15.909,15.909,0,0,1,2.1,2.7,15.916,15.916,0,0,1,2.1-2.7,8.311,8.311,0,0,1,5.995-2.1A7.247,7.247,0,0,1,31.921,7.5,7.525,7.525,0,0,1,24.427,15c-.152.007-.151,0-.3,0ZM17.833,7.5a17.252,17.252,0,0,0,2.7,3.6,4.952,4.952,0,0,0,3.9,1.2h0a4.993,4.993,0,0,0,5.1-4.8,4.993,4.993,0,0,0-5.1-4.8,6.042,6.042,0,0,0-4.2,1.8,14.86,14.86,0,0,0-2.4,3Zm-9.592-4.8a4.731,4.731,0,0,0-4.8,4.8,4.731,4.731,0,0,0,4.8,4.8h.3a4.309,4.309,0,0,0,3.6-1.2,17.248,17.248,0,0,0,2.7-3.6,14.864,14.864,0,0,0-2.4-3,6.042,6.042,0,0,0-4.2-1.8Z" transform="translate(-0.747 -0.308)" fill="#fff"/>
      <path id="Path_73" data-name="Path 73" d="M176.13,41.953v-1.5h-1.5v1.5h-1.2v1.5h1.2v1.5h1.5v-1.5h1.5v-1.5h-1.5" transform="translate(-152.151 -35.658)" fill="#fff"/>
      <path id="Path_74" data-name="Path 74" d="M45.225,52.161h4.8v1.5h-4.8Z" transform="translate(-39.829 -45.867)" fill="#fff"/>
    </g>
  </g>
</svg>
