<svg xmlns="http://www.w3.org/2000/svg" width="121" height="55" viewBox="0 0 121 55">
  <g id="arduino" transform="translate(-0.378 -0.47)">
    <rect id="box" width="121" height="55" rx="10" transform="translate(0.378 0.47)" fill="#18979c"/>
    <g id="arduino-2" data-name="arduino" transform="translate(38.01 12.582)">
      <path id="Path_63" data-name="Path 63" d="M3.011,130.288.848,138.075h1.73l.433-1.73h2.6v1.73H7.77l-2.163-7.786Zm.433,4.758.865-2.6.865,2.6Z" transform="translate(-0.848 -107.362)" fill="#fff"/>
      <path id="Path_64" data-name="Path 64" d="M45.672,134.573c-.027-.029.029-.407,0-.433.057-.022-.055.025,0,0a3.707,3.707,0,0,0,.865-.433c.163-.168.343-.2.433-.433a2.825,2.825,0,0,0,0-.865c0-.4-.292-.584-.433-.865s-.168-.688-.433-.865a2.342,2.342,0,0,0-.865-.433,8.016,8.016,0,0,0-1.3,0H41.779v7.786h1.73v-3.028h0c.2,0,.29-.09.433,0a1.175,1.175,0,0,1,.433.433l.865,2.6H47.4l-1.3-3.028c-.162-.329-.266-.253-.433-.433Zm-.865-1.73c-.053.1.1.364,0,.433s-.283-.037-.433,0a1.578,1.578,0,0,1-.433,0h-.433v-1.3h.433c.417,0,.671-.129.865,0,.169.113.433.155.433.433,0,.134-.38.333-.433.433Z" transform="translate(-34.425 -107.321)" fill="#fff"/>
      <path id="Path_65" data-name="Path 65" d="M81.477,131.153c-.307-.308-.842-.286-1.3-.433a6.127,6.127,0,0,0-1.73-.433H76.286v7.786h2.163a4.817,4.817,0,0,0,1.73-.433,3.573,3.573,0,0,0,1.3-.865c.321-.342.282-.816.433-1.3s.433-.723.433-1.3a5.758,5.758,0,0,0-.433-1.73c-.151-.469-.126-.989-.433-1.3Zm-1.73,4.758a1.513,1.513,0,0,1-1.3.433h-.433v-4.326h.433a2.537,2.537,0,0,1,.865,0,2.677,2.677,0,0,1,.865.433c.135.185-.058.593,0,.865a4.1,4.1,0,0,1,0,.865,2.586,2.586,0,0,1-.433,1.73Z" transform="translate(-62.876 -107.362)" fill="#fff"/>
      <path id="Path_66" data-name="Path 66" d="M116.459,135.047a5.177,5.177,0,0,1,0,.865c-.045.166-.347.331-.433.433s.124-.044,0,0a5.164,5.164,0,0,1-.865,0c-.217,0-.3.055-.433,0s-.347.1-.433,0,.036-.279,0-.433a6.279,6.279,0,0,1,0-.865v-4.758h-1.73v5.191c0,.41-.1.533,0,.865a1.949,1.949,0,0,0,.433.865c.234.243.494.738.865.865a4.514,4.514,0,0,0,1.3,0,4.531,4.531,0,0,0,1.3,0c.369-.126.607-.613.865-.865s.728-.492.865-.865a4.176,4.176,0,0,0,0-1.3v-4.758h-1.73v4.758" transform="translate(-92.668 -107.362)" fill="#fff"/>
      <path id="Path_67" data-name="Path 67" d="M150.135,132.019h1.73v4.326h-1.73v1.73h5.191v-1.73H153.6v-4.326h1.73v-1.73h-5.191v1.73" transform="translate(-123.748 -107.362)" fill="#fff"/>
      <path id="Path_68" data-name="Path 68" d="M188.721,134.614l-2.163-4.326H184.4v7.786h1.73v-4.758l2.163,4.758h2.163v-7.786h-1.73v4.326" transform="translate(-151.952 -107.362)" fill="#fff"/>
      <path id="Path_69" data-name="Path 69" d="M224.26,130.661a2.359,2.359,0,0,0-2.163-.865,3.638,3.638,0,0,0-1.3,0c-.4.158-.57.538-.865.865a4.042,4.042,0,0,0-.865,1.3,5.265,5.265,0,0,0-.433,1.73,5.1,5.1,0,0,0,.865,3.028,3.239,3.239,0,0,0,2.6.865,3.829,3.829,0,0,0,1.3-.433c.4-.158.57-.106.865-.433a4.051,4.051,0,0,0,.865-1.3,6.108,6.108,0,0,0,0-1.73,5.09,5.09,0,0,0-.865-3.028Zm-.865,3.893a3.385,3.385,0,0,1-.433.865,1.249,1.249,0,0,1-.433.433c-.158.089-.2,0-.433,0-.455,0-.668-.084-.865-.433a3.368,3.368,0,0,1-.433-1.73,10.335,10.335,0,0,1,0-1.3c.052-.28.323-.247.433-.433s-.158-.343,0-.433a2.815,2.815,0,0,1,.865,0c.459,0,.67.085.865.433a3.385,3.385,0,0,1,.433,1.73,4.6,4.6,0,0,1,0,.865Z" transform="translate(-180.138 -106.87)" fill="#fff"/>
      <path id="Path_72" data-name="Path 72" d="M34.488,21.5A11.4,11.4,0,0,1,26.7,18.476a22.165,22.165,0,0,1-3.461-4.326,22.165,22.165,0,0,1-3.461,4.326A10.932,10.932,0,0,1,11.561,21.5,10.859,10.859,0,0,1,.747,10.69C.747,4.816,5.5.308,11.561.308a11.994,11.994,0,0,1,8.651,3.028,22.959,22.959,0,0,1,3.028,3.893,22.968,22.968,0,0,1,3.028-3.893A11.994,11.994,0,0,1,34.92.308c6.066,0,10.814,4.507,10.814,10.382A10.859,10.859,0,0,1,34.92,21.5c-.22.011-.218,0-.433,0ZM25.4,10.69A24.9,24.9,0,0,0,29.3,15.881a7.147,7.147,0,0,0,5.623,1.73h0a7.206,7.206,0,0,0,7.354-6.921A7.206,7.206,0,0,0,34.92,3.769a8.719,8.719,0,0,0-6.056,2.6A21.445,21.445,0,0,0,25.4,10.69ZM11.561,3.769A6.828,6.828,0,0,0,4.64,10.69a6.828,6.828,0,0,0,6.921,6.921h.433a6.219,6.219,0,0,0,5.191-1.73,24.89,24.89,0,0,0,3.893-5.191,21.451,21.451,0,0,0-3.461-4.326,8.719,8.719,0,0,0-6.056-2.6Z" transform="translate(-0.747 -0.308)" fill="#fff"/>
      <path id="Path_73" data-name="Path 73" d="M177.326,42.617V40.454h-2.163v2.163h-1.73V44.78h1.73v2.163h2.163V44.78h2.163V42.617h-2.163" transform="translate(-142.72 -33.533)" fill="#fff"/>
      <path id="Path_74" data-name="Path 74" d="M45.225,52.161h6.921v2.163H45.225Z" transform="translate(-37.439 -43.077)" fill="#fff"/>
    </g>
  </g>
</svg>
