<svg xmlns="http://www.w3.org/2000/svg" width="281" height="128" viewBox="0 0 281 128">
  <g id="arduino" transform="translate(-232 -163)">
    <rect id="box" width="281" height="128" rx="10" transform="translate(232 163)" fill="#18979c"/>
    <g id="arduino-2" data-name="arduino" transform="translate(319.253 191.692)">
      <path id="Path_63" data-name="Path 63" d="M5.848,130.288l-5,18h4l1-4h6v4h5l-5-18Zm1,11,2-6,2,6Z" transform="translate(-0.102 -76.98)" fill="#fff"/>
      <path id="Path_64" data-name="Path 64" d="M50.779,140.288c-.063-.068.066-.94,0-1,.132-.05-.126.058,0,0a8.567,8.567,0,0,0,2-1c.377-.388.793-.466,1-1a6.53,6.53,0,0,0,0-2c0-.919-.674-1.351-1-2s-.389-1.59-1-2a5.415,5.415,0,0,0-2-1,18.534,18.534,0,0,0-3,0h-5v18h4v-7h0c.46,0,.671-.209,1,0a2.718,2.718,0,0,1,1,1l2,6h5l-3-7c-.374-.76-.614-.585-1-1Zm-2-4c-.122.232.226.841,0,1s-.654-.086-1,0a3.649,3.649,0,0,1-1,0h-1v-3h1c.964,0,1.551-.3,2,0,.391.26,1,.358,1,1,0,.311-.879.769-1,1Z" transform="translate(-24.032 -76.98)" fill="#fff"/>
      <path id="Path_65" data-name="Path 65" d="M88.286,132.288c-.709-.712-1.946-.661-3-1a14.163,14.163,0,0,0-4-1h-5v18h5a11.135,11.135,0,0,0,4-1,8.259,8.259,0,0,0,3-2c.743-.791.652-1.886,1-3,.342-1.091,1-1.671,1-3a13.312,13.312,0,0,0-1-4c-.35-1.083-.292-2.287-1-3Zm-4,11c-.731.812-1.55,1-3,1h-1v-10h1a5.864,5.864,0,0,1,2,0,6.19,6.19,0,0,1,2,1c.311.428-.134,1.37,0,2a9.468,9.468,0,0,1,0,2c0,1.826-.265,3.184-1,4Z" transform="translate(-44.539 -76.98)" fill="#fff"/>
      <path id="Path_66" data-name="Path 66" d="M121.624,141.288a11.969,11.969,0,0,1,0,2c-.1.385-.8.765-1,1s.286-.1,0,0a11.941,11.941,0,0,1-2,0c-.5,0-.685.127-1,0s-.8.238-1,0,.082-.645,0-1a14.515,14.515,0,0,1,0-2v-11h-4v12c0,.949-.231,1.231,0,2a4.505,4.505,0,0,0,1,2c.542.561,1.143,1.706,2,2a10.435,10.435,0,0,0,3,0,10.476,10.476,0,0,0,3,0c.852-.292,1.4-1.418,2-2s1.683-1.136,2-2c.311-.848,0-1.889,0-3v-11h-4v11" transform="translate(-65.877 -76.98)" fill="#fff"/>
      <path id="Path_67" data-name="Path 67" d="M150.135,134.288h4v10h-4v4h12v-4h-4v-10h4v-4h-12v4" transform="translate(-88.388 -76.98)" fill="#fff"/>
      <path id="Path_68" data-name="Path 68" d="M194.4,140.288l-5-10h-5v18h4v-11l5,11h5v-18h-4v10" transform="translate(-108.648 -76.98)" fill="#fff"/>
      <path id="Path_69" data-name="Path 69" d="M231.637,131.887c-1.229-1.563-2.6-2-5-2-1.028,0-2.094-.359-3,0s-1.317,1.245-2,2a9.345,9.345,0,0,0-2,3,12.172,12.172,0,0,0-1,4,11.8,11.8,0,0,0,2,7c1.229,1.567,3.6,2,6,2a8.853,8.853,0,0,0,3-1c.919-.365,1.318-.246,2-1a9.364,9.364,0,0,0,2-3c.377-1.135,0-2.449,0-4a11.767,11.767,0,0,0-2-7Zm-2,9a7.825,7.825,0,0,1-1,2,2.887,2.887,0,0,1-1,1c-.365.206-.468,0-1,0-1.052,0-1.544-.2-2-1a7.786,7.786,0,0,1-1-4,23.893,23.893,0,0,1,0-3c.12-.646.746-.57,1-1,.242-.411-.365-.792,0-1a6.509,6.509,0,0,1,2,0c1.06,0,1.548.2,2,1a7.824,7.824,0,0,1,1,4,10.63,10.63,0,0,1,0,2Z" transform="translate(-128.89 -76.579)" fill="#fff"/>
      <path id="Path_72" data-name="Path 72" d="M78.747,49.308a26.355,26.355,0,0,1-18-7,51.241,51.241,0,0,1-8-10,51.241,51.241,0,0,1-8,10,25.273,25.273,0,0,1-19,7,25.1,25.1,0,0,1-25-25c0-13.58,10.977-24,25-24,7.674,0,14.385,1.776,20,7,2.7,2.509,4.923,5.955,7,9,2.077-3.045,4.3-6.491,7-9,5.615-5.224,12.326-7,20-7,14.023,0,25,10.42,25,24a25.1,25.1,0,0,1-25,25c-.508.025-.5,0-1,0Zm-21-25c2.783,4.516,5.71,8.985,9,12,3.714,3.4,7.939,4.268,13,4h0c9.23,0,17-7.213,17-16s-7.77-16-17-16c-5.449,0-10.014,2.292-14,6a49.575,49.575,0,0,0-8,10Zm-32-16a15.784,15.784,0,0,0-16,16,15.784,15.784,0,0,0,16,16h1c5.061.268,8.286-.6,12-4,3.29-3.015,6.217-7.484,9-12a49.59,49.59,0,0,0-8-10c-3.986-3.708-8.551-6-14-6Z" transform="translate(0 0)" fill="#fff"/>
      <path id="Path_73" data-name="Path 73" d="M182.433,45.454v-5h-5v5h-4v5h4v5h5v-5h5v-5h-5" transform="translate(-101.686 -24.146)" fill="#fff"/>
      <path id="Path_74" data-name="Path 74" d="M45.225,52.161h16v5h-16Z" transform="translate(-26.478 -30.853)" fill="#fff"/>
    </g>
  </g>
</svg>
