<svg xmlns="http://www.w3.org/2000/svg" width="85" height="38" viewBox="0 0 85 38">
  <g id="atlassian" transform="translate(0.087 -0.073)">
    <rect id="box" width="85" height="38" rx="10" transform="translate(-0.087 0.073)" fill="#2681ff"/>
    <g id="atlassian-2" data-name="atlassian" transform="translate(30.453 7.087)">
      <path id="Path_208" data-name="Path 208" d="M6.92,115.105a.737.737,0,0,0-1.2.3L-.274,127.4a.54.54,0,0,0,0,.6.664.664,0,0,0,.6.3H8.718c.274.006.783-.052.9-.3C11.421,124.265,10.088,118.49,6.92,115.105Z" transform="translate(0.365 -103.932)" fill="#fff"/>
      <path id="Path_209" data-name="Path 209" d="M97.636.407a15.733,15.733,0,0,0-.9,15.587l3.9,8.093c.122.243.627.3.9.3h8.093a.664.664,0,0,0,.6-.3c.131-.212.411-.377.3-.6,0,0-11.407-22.517-11.69-23.081A.661.661,0,0,0,97.636.407Z" transform="translate(-85.855 -0.025)" fill="#fff"/>
    </g>
  </g>
</svg>
