<svg xmlns="http://www.w3.org/2000/svg" width="121" height="54" viewBox="0 0 121 54">
  <g id="atlassian" transform="translate(-0.378 -0.492)">
    <rect id="box" width="121" height="54" rx="10" transform="translate(0.378 0.492)" fill="#2681ff"/>
    <g id="atlassian-2" data-name="atlassian" transform="translate(43.07 9.265)">
      <path id="Path_208" data-name="Path 208" d="M10.148,115.2a1.064,1.064,0,0,0-1.73.433l-8.651,17.3a.779.779,0,0,0,0,.865.958.958,0,0,0,.865.433H12.743c.4.009,1.129-.075,1.3-.433C16.644,128.417,14.719,120.082,10.148,115.2Z" transform="translate(0.365 -99.073)" fill="#fff"/>
      <path id="Path_209" data-name="Path 209" d="M98.765.577a22.7,22.7,0,0,0-1.3,22.494L103.09,34.75c.176.351.905.433,1.3.433h11.679a.958.958,0,0,0,.865-.433c.189-.306.593-.544.433-.865,0,0-16.462-32.5-16.87-33.308A.953.953,0,0,0,98.765.577Z" transform="translate(-81.763 -0.025)" fill="#fff"/>
    </g>
  </g>
</svg>
