<svg xmlns="http://www.w3.org/2000/svg" xmlns:xlink="http://www.w3.org/1999/xlink" width="85" height="39" viewBox="0 0 85 39">
  <defs>
    <linearGradient id="linear-gradient" x1="0.5" y1="0.04" x2="0.5" y2="1" gradientUnits="objectBoundingBox">
      <stop offset="0" stop-color="#fdfdfd"/>
      <stop offset="1" stop-color="#fff"/>
    </linearGradient>
  </defs>
  <g id="atom" transform="translate(0.058 -0.225)">
    <rect id="box" width="85" height="39" rx="10" transform="translate(-0.058 0.225)" fill="#b2e198"/>
    <g id="atom-2" data-name="atom" transform="translate(27.848 4.802)">
      <ellipse id="Ellipse_1" data-name="Ellipse 1" cx="15" cy="14.5" rx="15" ry="14.5" transform="translate(0.093 0.424)" fill="url(#linear-gradient)"/>
      <ellipse id="Ellipse_2" data-name="Ellipse 2" cx="14.5" cy="13.5" rx="14.5" ry="13.5" transform="translate(0.093 1.424)" fill="#b2e198"/>
      <g id="Group_1" data-name="Group 1" transform="translate(4.9 6.237)">
        <path id="Path_17" data-name="Path 17" d="M6.54,6.728c-.161.249-.149.349-.3.6-.165-.453-.476-.764-.6-1.2.438-.063,1.009-.266,1.5-.3-.166.239-.438.65-.6.9Zm12.29.9a7.306,7.306,0,0,0-2.1-1.5,20.286,20.286,0,0,0-6.594-1.2c-.3-.016-.614.006-.9,0,1.914-2.285,3.719-3.556,4.8-3.6.228-.009.45-.1.6,0,.5.328.569,1.324.3,2.7-.053.271.029.546.3.6s.546-.028.6-.3c.464-2.362.026-3.19-.6-3.6a2.088,2.088,0,0,0-1.2-.3C12.378.5,9.857,2.207,7.739,4.93a22.825,22.825,0,0,0-2.4,0c-.083-.385.043-.541,0-.9-.19-1.565.019-2.7.6-3,.093-.048.183.009.3,0a3.229,3.229,0,0,1,2.1.9c.213.177.423.213.6,0a.765.765,0,0,0,0-.9,3.949,3.949,0,0,0-2.7-1.2,3.136,3.136,0,0,0-.9.3c-.539.275-.712.736-.9,1.5a6.274,6.274,0,0,0-.3,2.4c.046.377.214.8.3,1.2a10.08,10.08,0,0,0-1.5.6C.795,6.6.283,7.505.246,8.227c-.036.689.213,1.725,2.1,2.7.246.127.473-.054.6-.3s.246-.473,0-.6c-1.085-.559-1.827-1.249-1.8-1.8.041-.775,1.385-1.636,3.6-2.1a24.344,24.344,0,0,0,.9,2.4,18.207,18.207,0,0,0-1.8,4.2,7.189,7.189,0,0,0-.3,2.4,2.5,2.5,0,0,0,.9,1.8,2.429,2.429,0,0,0,1.2.3,5.082,5.082,0,0,0,2.7-1.2c.225-.16.46-.374.3-.6s-.674-.46-.9-.3c-1.164.83-2.186,1.232-2.7.9-.546-.355-.653-1.462-.3-3a15.621,15.621,0,0,1,1.2-3.3c.123.263.466.636.6.9a19.562,19.562,0,0,0,3.9,5.4,5.4,5.4,0,0,0,1.8,1.2,3.711,3.711,0,0,0,1.2.3,2.17,2.17,0,0,0,.9-.3,1.492,1.492,0,0,0,.9-1.2,6.714,6.714,0,0,0,.3-2.4,19.775,19.775,0,0,0-2.1-5.995c-.12-.249-.35-.419-.6-.3s-.42.35-.3.6a18,18,0,0,1,1.8,5.7c.149,1.46-.047,2.716-.6,3-.58.3-1.545-.426-2.7-1.5a18.291,18.291,0,0,1-3.6-5.1c-.249-.489-.691-1.013-.9-1.5.259-.463.6-1.037.9-1.5s.589-.783.9-1.2c.082,0,.216,0,.3,0,.43,0,1.018-.025,1.5,0a17.563,17.563,0,0,1,5.995,1.2c1.448.616,2.432,1.448,2.4,2.1-.029.552-.657,1.056-1.8,1.5a.842.842,0,0,0-.3.9c.077.2.1.3.3.3a1.3,1.3,0,0,0,.3,0c1.983-.77,2.362-2.006,2.4-2.7a1.6,1.6,0,0,0-.6-1.5Z" transform="translate(-0.242 0.172)" fill="#fff"/>
        <path id="Path_18" data-name="Path 18" d="M74.094,67.906c0,.6.3,1.2.9,1.2a1.2,1.2,0,0,0,0-2.4c-.6,0-.9.595-.9,1.2" transform="translate(-65.398 -58.908)" fill="#fff"/>
      </g>
    </g>
  </g>
</svg>
