<svg xmlns="http://www.w3.org/2000/svg" xmlns:xlink="http://www.w3.org/1999/xlink" width="281" height="128" viewBox="0 0 281 128">
  <defs>
    <linearGradient id="linear-gradient" x1="0.5" y1="0.04" x2="0.5" y2="1" gradientUnits="objectBoundingBox">
      <stop offset="0" stop-color="#fdfdfd"/>
      <stop offset="1" stop-color="#fff"/>
    </linearGradient>
  </defs>
  <g id="atom" transform="translate(-232 -163)">
    <rect id="box" width="281" height="128" rx="10" transform="translate(232 163)" fill="#b2e198"/>
    <g id="atom-2" data-name="atom" transform="translate(321.858 176.504)">
      <circle id="Ellipse_1" data-name="Ellipse 1" cx="50" cy="50" r="50" transform="translate(0.142 0.496)" fill="url(#linear-gradient)"/>
      <ellipse id="Ellipse_2" data-name="Ellipse 2" cx="46" cy="45.5" rx="46" ry="45.5" transform="translate(4.142 4.496)" fill="#b2e198"/>
      <g id="Group_1" data-name="Group 1" transform="translate(17.901 20.699)">
        <path id="Path_17" data-name="Path 17" d="M21.253,22.848c-.538.83-.5,1.165-1,2-.549-1.512-1.589-2.548-2-4,1.46-.209,3.365-.886,5-1-.555.8-1.46,2.167-2,3Zm41,3a24.374,24.374,0,0,0-7-5c-5.841-2.487-13.635-3.561-22-4-1.009-.053-2.048.019-3,0,6.387-7.623,12.408-11.864,16-12,.761-.029,1.5-.325,2,0,1.681,1.093,1.9,4.416,1,9-.178.9.1,1.822,1,2s1.822-.1,2-1c1.547-7.88.088-10.643-2-12a6.966,6.966,0,0,0-4-1c-5.526.21-13.935,5.917-21,15-2.8.1-5.478-.377-8,0-.277-1.286.145-1.806,0-3-.634-5.222.065-9.013,2-10,.311-.159.612.029,1,0,1.729-.13,4.3.761,7,3,.709.589,1.411.71,2,0s.709-2.411,0-3c-3.463-2.876-6.326-4.2-9-4a10.463,10.463,0,0,0-3,1c-1.8.917-2.375,2.455-3,5-.535,2.179-1.386,4.821-1,8,.152,1.257.712,2.653,1,4-1.972.416-3.362,1.408-5,2-7.168,2.589-8.874,5.593-9,8-.12,2.3.709,5.756,7,9,.82.423,1.577-.181,2-1s.82-1.577,0-2c-3.619-1.866-6.1-4.166-6-6,.135-2.585,4.62-5.459,12-7a81.217,81.217,0,0,0,3,8c-2.652,4.979-5,9.635-6,14-.717,3.119-1.3,5.778-1,8,.355,2.595,1.308,4.9,3,6a8.1,8.1,0,0,0,4,1c2.214,0,5.06-1.19,9-4,.751-.535,1.536-1.249,1-2s-2.249-1.535-3-1c-3.884,2.77-7.293,4.109-9,3-1.82-1.183-2.177-4.879-1-10a52.114,52.114,0,0,1,4-11c.41.878,1.554,2.123,2,3a65.262,65.262,0,0,0,13,18,18.028,18.028,0,0,0,6,4,12.382,12.382,0,0,0,4,1,7.24,7.24,0,0,0,3-1c1.734-.884,2.356-1.6,3-4a22.4,22.4,0,0,0,1-8c-.6-5.913-3.547-12.818-7-20-.4-.831-1.169-1.4-2-1s-1.4,1.169-1,2c3.29,6.842,5.435,13.462,6,19,.5,4.871-.158,9.061-2,10-1.934.986-5.156-1.42-9-5-4.371-4.071-8.37-9.87-12-17-.83-1.63-2.3-3.379-3-5,.863-1.544,2-3.461,3-5,1.018-1.569,1.966-2.613,3-4,.274,0,.722,0,1,0,1.434,0,3.4-.084,5,0,7.985.419,14.51,1.662,20,4,4.829,2.057,8.114,4.83,8,7-.1,1.843-2.193,3.522-6,5-.86.334-1.334,2.14-1,3,.257.661.331,1,1,1a4.336,4.336,0,0,0,1,0c6.615-2.569,7.879-6.693,8-9a5.353,5.353,0,0,0-2-5Z" transform="translate(-0.012 -0.051)" fill="#fff"/>
        <path id="Path_18" data-name="Path 18" d="M74.094,70.707c0,2.017.985,4,3,4a4,4,0,0,0,0-8c-2.015,0-3,1.983-3,4" transform="translate(-44.853 -40.91)" fill="#fff"/>
      </g>
    </g>
  </g>
</svg>
