<svg xmlns="http://www.w3.org/2000/svg" xmlns:xlink="http://www.w3.org/1999/xlink" width="121" height="56" viewBox="0 0 121 56">
  <defs>
    <linearGradient id="linear-gradient" x1="0.5" y1="0.04" x2="0.5" y2="1" gradientUnits="objectBoundingBox">
      <stop offset="0" stop-color="#fdfdfd"/>
      <stop offset="1" stop-color="#fff"/>
    </linearGradient>
  </defs>
  <g id="atom" transform="translate(0.056 -0.426)">
    <rect id="box" width="121" height="56" rx="10" transform="translate(-0.056 0.426)" fill="#b2e198"/>
    <g id="atom-2" data-name="atom" transform="translate(38.799 6.466)">
      <circle id="Ellipse_1" data-name="Ellipse 1" cx="21.5" cy="21.5" r="21.5" transform="translate(0.145 -0.04)" fill="url(#linear-gradient)"/>
      <circle id="Ellipse_2" data-name="Ellipse 2" cx="20" cy="20" r="20" transform="translate(1.145 1.96)" fill="#b2e198"/>
      <g id="Group_1" data-name="Group 1" transform="translate(7.569 8.882)">
        <path id="Path_17" data-name="Path 17" d="M9.331,9.786c-.233.359-.215.5-.433.865-.238-.654-.688-1.1-.865-1.73.631-.09,1.455-.383,2.163-.433-.24.344-.631.938-.865,1.3Zm17.735,1.3A10.544,10.544,0,0,0,24.038,8.92a29.276,29.276,0,0,0-9.517-1.73c-.436-.023-.886.008-1.3,0,2.763-3.3,5.367-5.132,6.921-5.191.329-.013.649-.141.865,0,.727.473.822,1.91.433,3.893-.077.391.041.788.433.865s.788-.041.865-.433c.669-3.409.038-4.6-.865-5.191A3.013,3.013,0,0,0,20.145.7c-2.39.091-6.028,2.559-9.084,6.489a32.939,32.939,0,0,0-3.461,0c-.12-.556.063-.781,0-1.3-.274-2.259.028-3.9.865-4.326.134-.069.265.013.433,0a4.66,4.66,0,0,1,3.028,1.3c.307.255.61.307.865,0a1.1,1.1,0,0,0,0-1.3C11.294.323,10.055-.25,8.9-.164A4.526,4.526,0,0,0,7.6.269c-.778.4-1.027,1.062-1.3,2.163A9.054,9.054,0,0,0,5.87,5.892c.066.544.308,1.148.433,1.73a14.547,14.547,0,0,0-2.163.865C1.04,9.608.3,10.907.247,11.948c-.052.995.307,2.49,3.028,3.893.355.183.682-.078.865-.433s.355-.682,0-.865c-1.565-.807-2.637-1.8-2.6-2.6.059-1.118,2-2.361,5.191-3.028a35.132,35.132,0,0,0,1.3,3.461,26.274,26.274,0,0,0-2.6,6.056A10.375,10.375,0,0,0,5.005,21.9a3.609,3.609,0,0,0,1.3,2.6,3.5,3.5,0,0,0,1.73.433c.958,0,2.189-.515,3.893-1.73.325-.232.664-.54.433-.865s-.973-.664-1.3-.433c-1.68,1.2-3.155,1.778-3.893,1.3-.787-.512-.942-2.11-.433-4.326a22.543,22.543,0,0,1,1.73-4.758c.177.38.672.918.865,1.3A28.23,28.23,0,0,0,14.954,23.2a7.8,7.8,0,0,0,2.6,1.73,5.356,5.356,0,0,0,1.73.433,3.132,3.132,0,0,0,1.3-.433,2.153,2.153,0,0,0,1.3-1.73,9.689,9.689,0,0,0,.433-3.461c-.261-2.558-1.534-5.545-3.028-8.651-.173-.36-.506-.605-.865-.433s-.605.506-.433.865a25.98,25.98,0,0,1,2.6,8.219c.215,2.107-.069,3.919-.865,4.326-.837.427-2.23-.614-3.893-2.163a26.4,26.4,0,0,1-5.191-7.354c-.359-.705-1-1.462-1.3-2.163.373-.668.866-1.5,1.3-2.163s.851-1.13,1.3-1.73c.119,0,.312,0,.433,0,.62,0,1.469-.036,2.163,0a25.345,25.345,0,0,1,8.651,1.73c2.089.89,3.51,2.089,3.461,3.028-.042.8-.949,1.523-2.6,2.163a1.215,1.215,0,0,0-.433,1.3c.111.286.143.433.433.433a1.876,1.876,0,0,0,.433,0c2.862-1.111,3.408-2.9,3.461-3.893a2.316,2.316,0,0,0-.865-2.163Z" transform="translate(-0.242 0.172)" fill="#fff"/>
        <path id="Path_18" data-name="Path 18" d="M74.094,68.437c0,.872.426,1.73,1.3,1.73a1.73,1.73,0,1,0,0-3.461c-.872,0-1.3.858-1.3,1.73" transform="translate(-61.545 -55.452)" fill="#fff"/>
      </g>
    </g>
  </g>
</svg>
