<svg xmlns="http://www.w3.org/2000/svg" width="281" height="128" viewBox="0 0 281 128">
  <g id="aws" transform="translate(-232 -163)">
    <rect id="box" width="281" height="128" rx="10" transform="translate(232 163)" fill="#fd9900"/>
    <g id="aws-2" data-name="aws" transform="translate(305.434 187.267)">
      <path id="Path_2" data-name="Path 2" d="M42.638,28.733a12.314,12.314,0,0,0,1,4,17.1,17.1,0,0,0,1,3c.22.352,0,.692,0,1,0,.44.572.56,0,1l-3,2c-.4.264-.648,1-1,1a4.759,4.759,0,0,1-2-1c-.616-.66-.56-1.3-1-2-.44-.748-1.516-1.989-2-3-3.43,4.045-6.811,7-12,7a13.119,13.119,0,0,1-9-4c-2.155-2.111-4-4.482-4-8a11.2,11.2,0,0,1,4-9,16.89,16.89,0,0,1,11-4c1.5,0,3.373.78,5,1s3.241.6,5,1v-3c0-3.342-.637-6.637-2-8-1.407-1.363-3.614-2-7-2a23.428,23.428,0,0,0-5,1,40.867,40.867,0,0,0-5,2c-.7.308-.692-.088-1,0a3.77,3.77,0,0,1-1,0c-.616,0-1-.077-1-1v-2c0-.7-.22-1.692,0-2a9.318,9.318,0,0,1,2-1,20.412,20.412,0,0,1,5-2,27.733,27.733,0,0,1,7-1c5.233,0,9.538,1.626,12,4,2.418,2.374,3,6.163,3,11v14Zm-18,7a17.7,17.7,0,0,0,5-1,9.73,9.73,0,0,0,4-3,8.973,8.973,0,0,0,2-3c.264-1.055,0-1.5,0-3v-2a35.443,35.443,0,0,0-4-1,30.353,30.353,0,0,0-4,0c-2.946,0-5.549-.187-7,1s-2,2.8-2,5a7.15,7.15,0,0,0,2,5A4.958,4.958,0,0,0,24.638,35.733Zm36,4c-.792,0-1.648.308-2,0a4.926,4.926,0,0,1-1-2l-10-34c-.264-.879-1-.692-1-1,0-.7.3-2,1-2h5c.835,0,.692.692,1,1a4.926,4.926,0,0,1,1,2l8,29,7-29c.22-.879-.352-1.736,0-2a3.9,3.9,0,0,1,2-1h4c.835,0,.648.692,1,1a4.032,4.032,0,0,1,1,2l7,29,8-29a5.192,5.192,0,0,1,1-2c.352-.264.209-1,1-1h5c.7,0,1,1.252,1,2,0,.22.044-.264,0,0s-.824.516-1,1l-10,34a4.64,4.64,0,0,1-1,2,4.089,4.089,0,0,1-2,1h-4c-.835,0-.648-.692-1-1a4.032,4.032,0,0,1-1-2l-7-28-7,28a4.431,4.431,0,0,1-1,2c-.352.308-1.209,0-2,0Zm56,2a31.265,31.265,0,0,1-7-1,18.575,18.575,0,0,1-5-2c-.7-.4-.824-.6-1-1s0-.6,0-1v-3c0-.923.34-1,1-1a3.807,3.807,0,0,1,1,0c.264.088.56.824,1,1,1.5.66,3.285.648,5,1,1.759.352,3.241,1,5,1a10.231,10.231,0,0,0,6-2,4.217,4.217,0,0,0,2-4,3.966,3.966,0,0,0-1-3c-.791-.835-1.845-1.3-4-2l-7-2a13.9,13.9,0,0,1-7-5,9.239,9.239,0,0,1-2-6,10.2,10.2,0,0,1,1-5,15.721,15.721,0,0,1,4-4,10.7,10.7,0,0,1,4-2,22.549,22.549,0,0,1,6-1c.967,0,2.033.868,3,1,1.011.132,1.077-.176,2,0,.879.22,2.209.736,3,1a10.506,10.506,0,0,1,2,1,2.4,2.4,0,0,1,1,1c.264.352,1,.384,1,1v2c0,.923-.34,2-1,2a11.778,11.778,0,0,1-2-1,22.89,22.89,0,0,0-9-2c-2.506,0-3.637,1.165-5,2s-2,1.2-2,3c0,1.231.121,3.165,1,4s2.669,1.252,5,2l6,2c3.166,1.011,5.637,2.2,7,4a9.491,9.491,0,0,1,2,6,10.83,10.83,0,0,1-1,5,15.047,15.047,0,0,1-4,4c-1.363,1.1-2.109,2.428-4,3A25.883,25.883,0,0,1,116.638,41.733Z" transform="translate(-5.072 0)" fill="#fff"/>
      <path id="Path_3" data-name="Path 3" d="M120.566,108.463c-14.467,10.685-35.928,16-54,16a95.966,95.966,0,0,1-65-25c-1.363-1.231-.627-1.967,1-1,18.644,10.817,42.211,17,66,17a125.878,125.878,0,0,0,49-10C119.985,104.363,122.941,106.7,120.566,108.463Zm6-7c-1.847-2.374-12.295-.572-17,0-1.407.176-2.275-1.077-1-2,8.267-5.8,22.417-4.935,24-3,1.583,1.979-.261,16.492-8,23-1.187,1.011-2.528.319-2-1C124.325,114.109,128.413,103.793,126.566,101.463Z" transform="translate(0 -45.729)" fill="#fff"/>
    </g>
  </g>
</svg>
