<svg xmlns="http://www.w3.org/2000/svg" width="122" height="54" viewBox="0 0 122 54">
  <g id="aws" transform="translate(-0.434 0.443)">
    <rect id="box" width="122" height="54" rx="10" transform="translate(0.434 -0.443)" fill="#fd9900"/>
    <g id="aws-2" data-name="aws" transform="translate(32.424 9.49)">
      <path id="Path_2" data-name="Path 2" d="M24.48,12.278a5.327,5.327,0,0,0,.433,1.73,7.4,7.4,0,0,0,.433,1.3c.1.152,0,.3,0,.433,0,.19.247.242,0,.433l-1.3.865c-.171.114-.28.433-.433.433a2.058,2.058,0,0,1-.865-.433c-.266-.285-.242-.561-.433-.865-.19-.323-.656-.86-.865-1.3-1.484,1.75-2.946,3.028-5.191,3.028a5.675,5.675,0,0,1-3.893-1.73,4.717,4.717,0,0,1-1.73-3.461,4.845,4.845,0,0,1,1.73-3.893,7.306,7.306,0,0,1,4.758-1.73,19.763,19.763,0,0,1,2.163.433c.7.1,1.4.261,2.163.433v-1.3a5.479,5.479,0,0,0-.865-3.461,4.177,4.177,0,0,0-3.028-.865,10.134,10.134,0,0,0-2.163.433,17.678,17.678,0,0,0-2.163.865c-.3.133-.3-.038-.433,0a1.631,1.631,0,0,1-.433,0c-.266,0-.433-.033-.433-.433V2.329c0-.3-.1-.732,0-.865a4.031,4.031,0,0,1,.865-.433A8.83,8.83,0,0,1,14.964.166a12,12,0,0,1,3.028-.433,7.542,7.542,0,0,1,5.191,1.73c1.046,1.027,1.3,2.666,1.3,4.758v6.056Zm-7.786,3.028a7.658,7.658,0,0,0,2.163-.433,4.209,4.209,0,0,0,1.73-1.3,3.882,3.882,0,0,0,.865-1.3,4.881,4.881,0,0,0,0-1.3v-.865a15.331,15.331,0,0,0-1.73-.433,13.13,13.13,0,0,0-1.73,0c-1.274,0-2.4-.081-3.028.433a2.56,2.56,0,0,0-.865,2.163,3.093,3.093,0,0,0,.865,2.163A2.144,2.144,0,0,0,16.694,15.306Zm15.573,1.73c-.342,0-.713.133-.865,0a2.131,2.131,0,0,1-.433-.865L26.643,1.463c-.114-.38-.433-.3-.433-.433,0-.3.128-.865.433-.865h2.163c.361,0,.3.3.433.433a2.131,2.131,0,0,1,.433.865l3.461,12.545L36.16,1.463c.1-.38-.152-.751,0-.865a1.688,1.688,0,0,1,.865-.433h1.73c.361,0,.28.3.433.433a1.744,1.744,0,0,1,.433.865l3.028,12.545L46.109,1.463A2.246,2.246,0,0,1,46.541.6c.152-.114.09-.433.433-.433h2.163c.3,0,.433.542.433.865,0,.1.019-.114,0,0s-.356.223-.433.433L44.811,16.171a2.007,2.007,0,0,1-.433.865,1.769,1.769,0,0,1-.865.433h-1.73c-.361,0-.28-.3-.433-.433a1.744,1.744,0,0,1-.433-.865L37.89,4.059,34.862,16.171a1.917,1.917,0,0,1-.433.865c-.152.133-.523,0-.865,0Zm24.224.865a13.524,13.524,0,0,1-3.028-.433A8.035,8.035,0,0,1,51.3,16.6c-.3-.171-.356-.261-.433-.433s0-.261,0-.433v-1.3c0-.4.147-.433.433-.433a1.647,1.647,0,0,1,.433,0c.114.038.242.356.433.433a10.891,10.891,0,0,0,2.163.433,10.9,10.9,0,0,0,2.163.433,4.426,4.426,0,0,0,2.6-.865,1.824,1.824,0,0,0,.865-1.73,1.716,1.716,0,0,0-.433-1.3,3.877,3.877,0,0,0-1.73-.865L54.76,9.682a6.011,6.011,0,0,1-3.028-2.163,4,4,0,0,1-.865-2.6A4.41,4.41,0,0,1,51.3,2.761a6.8,6.8,0,0,1,1.73-1.73A4.63,4.63,0,0,1,54.76.166a9.754,9.754,0,0,1,2.6-.433c.418,0,.879.376,1.3.433.437.057.466-.076.865,0,.38.1.955.318,1.3.433a4.545,4.545,0,0,1,.865.433,1.04,1.04,0,0,1,.433.433c.114.152.433.166.433.433v.865c0,.4-.147.865-.433.865a5.1,5.1,0,0,1-.865-.433,9.9,9.9,0,0,0-3.893-.865,3.545,3.545,0,0,0-2.163.865c-.59.361-.865.518-.865,1.3a2.657,2.657,0,0,0,.433,1.73,6.566,6.566,0,0,0,2.163.865l2.6.865a5.986,5.986,0,0,1,3.028,1.73,4.106,4.106,0,0,1,.865,2.6,4.685,4.685,0,0,1-.433,2.163,6.509,6.509,0,0,1-1.73,1.73c-.59.476-.912,1.05-1.73,1.3A11.2,11.2,0,0,1,56.491,17.9Z" transform="translate(-8.6 0.267)" fill="#fff"/>
      <path id="Path_3" data-name="Path 3" d="M52.638,100.825c-6.258,4.622-15.541,6.921-23.359,6.921A41.512,41.512,0,0,1,1.162,96.932c-.59-.533-.271-.851.433-.433a57.879,57.879,0,0,0,28.55,7.354,54.451,54.451,0,0,0,21.2-4.326C52.386,99.052,53.665,100.065,52.638,100.825Zm2.6-3.028c-.8-1.027-5.318-.247-7.354,0-.609.076-.984-.466-.433-.865,3.576-2.511,9.7-2.135,10.382-1.3.685.856-.113,7.134-3.461,9.949-.514.437-1.093.138-.865-.433C54.264,103.268,56.032,98.806,55.233,97.8Z" transform="translate(-0.854 -73.573)" fill="#fff"/>
    </g>
  </g>
</svg>
