<svg xmlns="http://www.w3.org/2000/svg" width="84" height="37" viewBox="0 0 84 37">
  <g id="aws" transform="translate(-0.011 -0.2)">
    <rect id="box" width="84" height="37" rx="10" transform="translate(0.011 0.2)" fill="#fd9900"/>
    <g id="aws-2" data-name="aws" transform="translate(21.497 6.664)">
      <path id="Path_2" data-name="Path 2" d="M20.23,8.426a3.691,3.691,0,0,0,.3,1.2,5.125,5.125,0,0,0,.3.9c.066.105,0,.207,0,.3,0,.132.171.168,0,.3l-.9.6c-.119.079-.194.3-.3.3a1.426,1.426,0,0,1-.6-.3c-.185-.2-.168-.389-.3-.6s-.455-.6-.6-.9c-1.028,1.213-2.042,2.1-3.6,2.1a3.932,3.932,0,0,1-2.7-1.2,3.269,3.269,0,0,1-1.2-2.4,3.358,3.358,0,0,1,1.2-2.7,5.063,5.063,0,0,1,3.3-1.2,13.7,13.7,0,0,1,1.5.3c.488.066.972.181,1.5.3v-.9a3.8,3.8,0,0,0-.6-2.4,2.894,2.894,0,0,0-2.1-.6,7.022,7.022,0,0,0-1.5.3,12.25,12.25,0,0,0-1.5.6c-.211.092-.207-.026-.3,0a1.13,1.13,0,0,1-.3,0c-.185,0-.3-.023-.3-.3v-.6c0-.211-.066-.507,0-.6a2.793,2.793,0,0,1,.6-.3,6.118,6.118,0,0,1,1.5-.6,8.313,8.313,0,0,1,2.1-.3,5.226,5.226,0,0,1,3.6,1.2c.725.712.9,1.847.9,3.3v4.2Zm-5.4,2.1a5.306,5.306,0,0,0,1.5-.3,2.916,2.916,0,0,0,1.2-.9,2.69,2.69,0,0,0,.6-.9,3.383,3.383,0,0,0,0-.9v-.6a10.624,10.624,0,0,0-1.2-.3,9.1,9.1,0,0,0-1.2,0,3.614,3.614,0,0,0-2.1.3,1.774,1.774,0,0,0-.6,1.5,2.143,2.143,0,0,0,.6,1.5A1.486,1.486,0,0,0,14.834,10.524Zm10.791,1.2c-.237,0-.494.092-.6,0a1.477,1.477,0,0,1-.3-.6l-3-10.191c-.079-.264-.3-.207-.3-.3,0-.211.089-.6.3-.6h1.5c.25,0,.207.207.3.3a1.477,1.477,0,0,1,.3.6l2.4,8.693,2.1-8.693c.066-.264-.105-.52,0-.6a1.17,1.17,0,0,1,.6-.3h1.2c.25,0,.194.207.3.3a1.208,1.208,0,0,1,.3.6l2.1,8.693,2.4-8.693a1.556,1.556,0,0,1,.3-.6c.105-.079.063-.3.3-.3h1.5c.211,0,.3.375.3.6,0,.066.013-.079,0,0s-.247.155-.3.3l-3,10.191a1.391,1.391,0,0,1-.3.6,1.226,1.226,0,0,1-.6.3h-1.2c-.25,0-.194-.207-.3-.3a1.208,1.208,0,0,1-.3-.6l-2.1-8.393-2.1,8.393a1.328,1.328,0,0,1-.3.6c-.105.092-.362,0-.6,0Zm16.786.6a9.371,9.371,0,0,1-2.1-.3,5.568,5.568,0,0,1-1.5-.6c-.211-.119-.247-.181-.3-.3s0-.181,0-.3v-.9c0-.277.1-.3.3-.3a1.141,1.141,0,0,1,.3,0c.079.026.168.247.3.3a7.547,7.547,0,0,0,1.5.3,7.55,7.55,0,0,0,1.5.3,3.067,3.067,0,0,0,1.8-.6,1.264,1.264,0,0,0,.6-1.2,1.189,1.189,0,0,0-.3-.9,2.687,2.687,0,0,0-1.2-.6l-2.1-.6a4.165,4.165,0,0,1-2.1-1.5,2.769,2.769,0,0,1-.6-1.8,3.056,3.056,0,0,1,.3-1.5,4.712,4.712,0,0,1,1.2-1.2,3.208,3.208,0,0,1,1.2-.6,6.759,6.759,0,0,1,1.8-.3c.29,0,.609.26.9.3s.323-.053.6,0,.662.221.9.3a3.149,3.149,0,0,1,.6.3.721.721,0,0,1,.3.3c.079.105.3.115.3.3v.6c0,.277-.1.6-.3.6a3.531,3.531,0,0,1-.6-.3,6.861,6.861,0,0,0-2.7-.6,2.456,2.456,0,0,0-1.5.6c-.409.25-.6.359-.6.9a1.841,1.841,0,0,0,.3,1.2,4.55,4.55,0,0,0,1.5.6l1.8.6a4.148,4.148,0,0,1,2.1,1.2,2.845,2.845,0,0,1,.6,1.8,3.246,3.246,0,0,1-.3,1.5,4.51,4.51,0,0,1-1.2,1.2c-.409.33-.632.728-1.2.9A7.759,7.759,0,0,1,42.411,12.322Z" transform="translate(-9.226 0.267)" fill="#fff"/>
      <path id="Path_3" data-name="Path 3" d="M36.737,99.038c-4.336,3.2-10.769,4.8-16.186,4.8A28.766,28.766,0,0,1,1.067,96.34c-.409-.369-.188-.59.3-.3a40.107,40.107,0,0,0,19.783,5.1,37.732,37.732,0,0,0,14.688-3C36.563,97.809,37.449,98.511,36.737,99.038Zm1.8-2.1c-.554-.712-3.685-.171-5.1,0-.422.053-.682-.323-.3-.6,2.478-1.74,6.719-1.479,7.194-.9s-.078,4.943-2.4,6.894c-.356.3-.758.1-.6-.3C37.864,100.73,39.089,97.638,38.536,96.94Z" transform="translate(-0.854 -80.154)" fill="#fff"/>
    </g>
  </g>
</svg>
