<svg xmlns="http://www.w3.org/2000/svg" width="281" height="128" viewBox="0 0 281 128">
  <g id="babel" transform="translate(-232 -163)">
    <rect id="box" width="281" height="128" rx="10" transform="translate(232 163)" fill="#f9dc3e"/>
    <g id="babel-2" data-name="babel" transform="translate(280 191.283)">
      <path id="Path_139" data-name="Path 139" d="M128.086,8.648v-1h-1v1Zm4,10h1c-.014-.137-.1.273,0,0v-1a1.737,1.737,0,0,0-1,1Zm-17,13c-.027-.369-.73-1.47-3-4-.041-.465.4-1.084,2-2l5-4c1.026-1.3,1.822-4.074,2-7h0c-.178-2.024-2.224-3.756-5-5-1.641-1.108-4.733-1.891-9-2-3.528.3-7.325,1.771-13,4-1.559,1.121-4,1.879-6,3v1c.123-.014.781-.85,1-1,.233-.027-.014.781,0,1l1-1h0v1a18.455,18.455,0,0,0-4,2v1h0c.014.123-.658-.027-1,0h0l1,1c-.123.014-.74-.9-1-1a3.608,3.608,0,0,0-2,1v-1a83.071,83.071,0,0,0,2-9h0a11.059,11.059,0,0,1-2-2c.014-.424.014-.945,0-1h0c-1.8,2.708-4.844,7.463-10,14-3.925,4.65-5.877,7.48-6,8-1.6,1.655-3.082,2.658-3,3-.424.273-.068.7,0,1-.123.027.027.123,0,0a4.392,4.392,0,0,1-3,2h-2c-.191.041-.014-.233,0,0v1l1-1v1h-2l-2,1h-1c-.164.164,1.41-.1,1,0h-2c-.848.191-.918.342-1,0h0c.027.15.027-.1,0,0h-2c-.082-.519-1.06-2.746-4-6-.055-.629.88-.811,3-2l6-6c1.34-1.723,1.74-4.2,2-8v-1c-.233-2.68-1.349-4.332-5-6-2.161-1.463-6.393-2.877-12-3-4.65.4-10.533,2.114-18,5a69.272,69.272,0,0,1-7,5h0c.178-.014-.287.164,0,0,.3-.027.973-.274,1,0h1c.014.219-1.7,1.675-5,4v1h0l-1-1c.014.137.478.959,0,1h0v1c-.178.014-.685-.891-1-1-1.066.1-1.974,1.55-3,3h0a3.851,3.851,0,0,1,2-1v1c-.15.014-.686-.164-1,0l1,1a21.214,21.214,0,0,1,4-3c.643.164.986-.219,1,0h0a33.071,33.071,0,0,1,10-5h1a2.531,2.531,0,0,1-2,1c.027.328.795.754,1,1,.055.588-1.814,4.67-5,12-7.234,17.039-13.064,29.849-18,38,.013.164-.178.726,0,1a3.977,3.977,0,0,0,2-1h1c.014.137.686.027,1,0v1c.041.451-.453,1.056-1,2-.492.561-.439,1.208-1,3h0c1.97-2.2,3.974-3.894,5-6a69.062,69.062,0,0,0,13-5c3.05-.26,5.413-.673,7-2v-1l-2,1h0v-1c2.243-.342,4.139-.316,5-1,4.363-3.364,7.771-5.591,10-7,4.581-3.364,7.646-6.814,9-10,.246-.055-.274.068,0,0,.643-.027,1.9.027,2,0-.027-.123-.123-.973,0-1,1.026-.109.344.15,1,0h2c-.109.027-1.027-.109-1,0h1c-.055,0,.041.014,0,0h0c.192.027-.233.055,0,0h0l-7,13-2,2-1,3h1v1h0c-.109.027-.027-.123,0,0v1h0a3.376,3.376,0,0,0,1-2,2.084,2.084,0,0,0,1,0v1c-.342.082.027-.465,0,0v1h0c2.845-3.1,9.407-13.793,15-21-.178-.779,2.983-2.605,9-4h0c.219.944.149,3.376-1,7a16.963,16.963,0,0,0-1,4,18.029,18.029,0,0,1-2,4l-2,7a71.326,71.326,0,0,0-3,12,3.452,3.452,0,0,1,1,0h0c.027.123-.123.027,0,0v-1h1a1.511,1.511,0,0,0,1-1c-.041-.944-.424-.89,0-1,.574-2.243.877-3.959,1-4a10.009,10.009,0,0,1,2-4c.807-2.9.617-3.9,1-4h0v2a80.677,80.677,0,0,1-3,11v1h0c2.543-5.47,6.227-16.808,11-33a3.686,3.686,0,0,1,2-3h0c.547-.123.781-.7,1-1a1.166,1.166,0,0,0-1-1l2-10c.519-.465.9-1,1-1v1c-.123.013-.781-.15-1,0l1,1a15.071,15.071,0,0,1,3-2c.492.137-.027-.164,0,0h1a27.885,27.885,0,0,1,8-4h0c-.478.725-.822.986-1,1,.027.246-.123.809,0,1,.041.451-1.593,3.421-4,9-5.5,12.923-9.253,22.791-13,29,.014.123-.15-.219,0,0a5.285,5.285,0,0,0,2-1h0v1h0c.013.1.767.014,1,0h0a6.969,6.969,0,0,1-1,2,4.126,4.126,0,0,0-1,2h0c1.491-1.668,3.22-3.386,4-5,4.362-1.285,7.7-1.769,10-3a8.391,8.391,0,0,0,5-2h-1c1.7-.246,3.357-.494,4-1,3.309-2.544,5.3-4.934,7-6,5.279-3.843,7.3-7.458,7-11Zm0,0v2c-.164.342-.836-.014-1,0v-2c.383.137.986-.164,1,0Zm-104-11h1c-.15.014-.7-.178-1,0Zm-5,46c-.547-.246-.576-.041-1,0v-1c-.027-.26-.328.068,0,0,.3-.027.973.562,1,1a6.818,6.818,0,0,0,1-2h1a2.277,2.277,0,0,1-2,2Zm50-51a3.382,3.382,0,0,1-2-2v-1c.438-.041,1.522.537,2,2v1Zm-1-5h0l-7-3c4.458.15,6.877,1.591,7,3Zm-28,24h0Zm-1-15h0v1c-.219.014-.645.371-1,1h0a5.509,5.509,0,0,0,1-2Zm-2,5v1h0v-1Zm-1,2h0c-.041.738.369.973,0,1h0c.287-.492.027-.74,0-1Zm-1,2h0v1h0c.451-.041.041-.549,0-1Zm-1,2v1h0v-1Zm-7,22c-.3,1.532-.658,1.973-1,2h0a2.275,2.275,0,0,1,1-2Zm-2,3h0c.027.3.3.987,0,1h0c-.027-.26-.3-.932,0-1Zm0,6h1v1c-.178.013-.713-.164-1,0h0c-.027-.232-.287-.918,0-1Zm20-6c-3.993,1.969-6.3,3.3-7,4-4.321,1.5-6.041,2.631-6,3-3.842,1.518-6.783,2.3-8,3-.287.027-.453.246-1,0a2.1,2.1,0,0,1,1-2,4.3,4.3,0,0,1,2,0,28.95,28.95,0,0,1,4-1h-2a15.33,15.33,0,0,1,4-2h1c-1.217.109-1.85.357-2,1,.027.287-.3.027,0,0,.916-.575,2.014-.9,2-1,1.737-.328,6.137-2.309,14-7h0c.014.205-.646,1.015-2,2Zm-12,4a4.427,4.427,0,0,0,3-1c.328-.027.986-.287,1,0a20.85,20.85,0,0,0-4,2h0v-1Zm20-15-6,5c-4.485,2.94-7.658,3.973-8,4-7.139,3.925-11.277,5.85-13,6v1c.219-.806,2.846-7.774,9-20,2.708-.233,7.188-1.7,13-4h1a9.234,9.234,0,0,1,7,2v1c-1.094,3.146-1.7,4.467-3,5Zm-12-6,1-1v1Zm13-3h1c.656.315.973.754,1,1h0a2.411,2.411,0,0,1-2-1Zm2-11a23.282,23.282,0,0,1-5,4c-.93.082-4.01,1.374-10,4a2.059,2.059,0,0,0-1,0h0a7.318,7.318,0,0,1,1-4c.465-2.462.439-3.658,1-4l5-11c-.055-.7,1.812-1.631,4-2h0v1c2.147-.328,3.48-.959,4-1,3.966-.342,6.836,1.072,7,3h0v-2h0a4.3,4.3,0,0,1,2,3c.055.629-.275,1.07-1,2-.3.027.027-.562,0-1l-1,1v1c-2.01,3.009-3.1,4.918-4,5a2.177,2.177,0,0,1-2,1Zm3,8c-.41-.274-.754-.014-1,0v-1h1l1,1c.041.314-.685-.027-1,0Zm4,4c.438.178-.055-.178,0,0h0c-.041,0,.041-.014,0,0v0Zm0,2h0v0Zm1,1c.588-.1.906.246,2,0h0l-2,1c.027-.1-.014-.918,0-1Zm2,1c-.875.082-.605-.315-2,0h3c-.369.082-.562-.233-1,0Zm2,0c-.205.055.1-.767,0-1h0c.232-.055.945.767,1,1Zm5-6Zm5,33c.055-.246,1.027.123,1,0h0c.232-.055-.055-.219,0,0h-1Zm4-31h0c-.616.246-1.576-.1-2,0h0c-.205.055-.918.219-1,0l3-1h1c-.4.082-.836.85-1,1Zm2-1h0c.123-.027.822.178,1,0l1-1h0a8.724,8.724,0,0,0-2,1Zm0-3c-.123.027.205-.164,0,0-.027-.123-.535-.11-1,0-.082-.342,1.279-1.371,4-2h1v1c-1.915.561-3.795.959-4,1Zm5-6c-.192,2.174-.646,3.686-2,4h-2a2.46,2.46,0,0,1-1,0h0c-.041-.178,1.472-2.378,5-7h1c.15.629-.385,1.29-1,3Zm9-7h0c-.123.027.233-.123,0,0Zm-4,35c-.41-.192-.686-.027-1,0v-1c-.014-.178-.233.068,0,0,.233-.027.973-.356,1,0,.588-.752.932-1,1-1h0c-.137,1.039-.508,1.959-1,2Zm38-39c-.178.014-.467-.892-1-2h-1a3.41,3.41,0,0,1,2,2Zm-1-4h0l-5-2c3.378.11,4.9.934,5,2Zm-21,19h-1v-1h1v1Zm-1-12h0v1c-.178.014.26.522,0,1v-1c.315-.4.013-.795,0-1Zm-1,4v1h-1v-1Zm-1,1h0c-.041.574.26.973,0,1h-1c.205-.383,1.014-.795,1-1Zm-1,2h0v1h0c.369-.027.027-.658,0-1Zm0,2h-1v0Zm-6,16c-.233,1.149-.74,1.973-1,2h0a3.057,3.057,0,0,1,1-2Zm-1,3h0c.027.246-.754-.013-1,0h0c-.014-.178.767.068,1,0Zm-1,4h1c-.123.014-.781.877-1,1h0c-.014-.191-.233-.945,0-1Zm16-4c-3.009,1.491-5.439,2.48-6,3-3.282,1.149-5.027,1.713-5,2-2.913,1.162-4.1,1.467-5,2a1.632,1.632,0,0,1-1,0c-.055-.588.426-.645,1-1,.52-.041.549-.191,1,0a17.358,17.358,0,0,1,3-1h-1a7.4,7.4,0,0,1,3-2h0c-.93.082-.89.508-1,1,.014.219-.233.027,0,0a.778.778,0,0,1,1,0c1.313-.233,5.024-2.417,11-6h0a2.391,2.391,0,0,1-1,2Zm-9,3a2.979,2.979,0,0,0,2-1c.232-.027-.013-.219,0,0a7.854,7.854,0,0,0-2,1Zm14-12-4,4a21.613,21.613,0,0,1-6,3c-5.415,2.981-8.673,4.89-10,5h0c.164-.616,2.323-5.728,7-15,2.038-.178,5.569-1.25,10-3h1c2.229-.191,3.906-.053,5,1v1c-.834,2.352-2.015,3.576-3,4Zm-9-5h0Zm11-2h0a2.187,2.187,0,0,1,1,1h0c-.479.041-.59-.453-1-1Zm1-8a22.176,22.176,0,0,1-4,3c-.711.068-3.46,1.031-8,3-.219-.082.26-.014,0,0h0a6.172,6.172,0,0,1,1-3c.355-1.887.59-2.754,1-3l4-9c-.041-.506.359-.685,2-1h0l1,1a17.748,17.748,0,0,0,3-1c3.009-.26,3.877.523,4,2h1v-1h0a2.168,2.168,0,0,1,1,2c.041.493.52,1.3,0,2-.232.027-.973-.645-1-1h0v1c-1.518,2.311-3.3,3.945-4,4-.615.834-.822.986-1,1Zm2,6v-1h0l1,1c.014.219.233-.027,0,0-.328-.205-.822-.014-1,0Zm-64,33h-1c.055.219.767,1.055,1,1s.055-.781,0-1Zm-1-3v1c.233-.055.055-.781,0-1h0c-.219.055-.041-.219,0,0Zm9-23h0Zm125,11a32.948,32.948,0,0,1-6,1h1c4.116-.451,5.041-.535,5-1Zm-23,3Zm-2-9h-1c-.3.807-.014.863,0,1h0c.287-.014.754-.056,1-1Zm25,6Zm-28,3h-1v1l6-1h-5Zm-2-12h-1c.26-.027,1.027.232,1,0Zm33,6h0c.15-.014.014.219,0,0h0c-.944.082-1.234-.424-2,0h-1c-.027-.342.15-.014,0,0h-1c-.684.055-.658-.26-1,0-.014-.123.068,0,0,0h-1c-.014-.123-.931,0-1,0h0a3.06,3.06,0,0,0,1,0h0c-2.147.533-2.523.754-4,1-.164-.11.082-.014,0,0h0c-.164-.014.013.178,0,0v-1c.055,0,.576.918,1,1,.616-.3.672-.973,1-1h0c-2.106.41-1.361-.232-4,0h0c3.392-.41,1.838-.672,3-1,.014.123-.068,0,0,0,.137-.137.822.027,1,0h0c1.189-.1,1.648.656,4,0h1c-.027-.342-.178-.986,0-1h0c-4.13.834-4.851.672-6,1h0c-1.08.191-.727-.014-1,0-.082.014-.863-.137-1,0-.013-.123.082,0,0,0h-3c-.014-.1-.918-.013-1,0-1.819.383-.566.781-3,1-.11.014-.808-.123-1,0-.014-.1.123-.013,0,0h-2c-.014-.1-.877-.013-1,0-.561.15-.6-.027-1,0h0c-.246.027.192.082,0,0v1c-.438.041-.5-1.013-2-1a5.353,5.353,0,0,0-3,1h-1c.014.1.11,0,0,0a2.866,2.866,0,0,1-2-1c.15-1.066.631-.973,1-1h0c.355-.191,1.014.164,1,0v-1h-1c-.027-.26.9-.809,1-1v-1h1c.287-.246-.178-.987,0-1h0a8.372,8.372,0,0,0,1-4h1c.233-.014.014.246,0,0h-1v-1c-.027-.26.891.219,1,0,.561-.588.055-1.384,0-2,.11-.014.986-.123,1,0,.478-.273.727-.8,1-2,.848-1.532,1.427-4.419,3-9,3.009-8.1,3.576-9.085,4-11h-1a2.469,2.469,0,0,1,0,1c-.246-.1.137-1.014,0-1h0c-.055-.7-.656-1.015,0-2h1v1h0a5.993,5.993,0,0,1,0-2c-.014-.178.274.014,0,0h0a17.854,17.854,0,0,1,0-2h0c-.3-.3-.986.205-1,0h-2c-.014-.137.137-.74,0-1-.014-.178.1.178,1,0h1c.013.123-.137.013,0,0h1c.014.123-.137.014,0,0h0v-1a17.33,17.33,0,0,1-2,0l-1,1v-1c-9.176.752-13.756,1.877-15,2-.164.014-.865.027-2,0,.014.15-.727-.027-1,0h-1a11.961,11.961,0,0,1-2,0c-.205.164-.7-.027-1,0a29.889,29.889,0,0,0,4,0c-.205.164-.562-.041-1,0-.3.027.219.123,0,0a12.69,12.69,0,0,1-3,1h-1l-6,1a2.236,2.236,0,0,0-1,0,6.808,6.808,0,0,0-2,0l-3,1v1c.15-.014.74-.85,1-1l1,1v1a3.176,3.176,0,0,0-2,2c-1.518.67-2,.713-2,1h1v1c.027.246-1.886,5.5-7,16-4.431,10.12-6.781,16-7,17-1.518.424-2.74,1.179-3,2,.027.26.125-.068,1,0v1h0v1c.041.41.826.781,3,1-.014-.137.85.014,1,0,.041.492-.685,1.578-1,3h0c.9-1.231,2.041-2.535,2-3h0c.219-.014.727.467,1,1-.273.11-1.359,2.747-3,7h0c2.01-5.087,3.48-8.467,4-9,2.639-.233,7.518-.3,14-1h0c.014.137-.15.014,0,0h1c.013.137-.15.014,0,0h5a2.19,2.19,0,0,0,2-2c-.014-.178.455.219,2,0a3.024,3.024,0,0,1,1,0c-.014-.123.441-.863,2-1a.934.934,0,0,1,1-1h0c-.438.041-.426-.191-1,0-1.026-.055-1.726.1-2,0-.273.15-.85-.014-1,0h-4c-.014-.123.15-.014,0,0h0l-1,1a1.326,1.326,0,0,0-1-1h0l-1,1v-1c4.4-.478,7.055-.289,7-1,.288-.027-.027-.288,0,0h1v-1h-10a3.325,3.325,0,0,1-1,1h-1c-.328.027-.781-.164-1,0h0c-1.327.11-2.344-.205-3,0a18.255,18.255,0,0,0-3,0h-4c-.055-.7,2.21-3.846,5-10,.807-2.079,1.289-3.508,2-4,.15-.014-.3-.123,0,0h3a17.9,17.9,0,0,0,5-1,2.191,2.191,0,0,1,1,0l1-1h4a31.008,31.008,0,0,0,6-1h0a2.732,2.732,0,0,1-2-1c-.041-.533,0-.082-1,0v-1h4v-1c-.109.013-.961.041-2,0h1c.287-.027.027-.727,0-1-1.436.041-1.986.192-2,0-10.01.492-14.973.315-15,0-.15.014-.727.836-1,1v-1c2.653-5.634,4.549-7.959,5-8,.013.219.246.521,0,1h0c1.053-2.516,2.262-3.945,3-4,3.145-.274-.728.053,6-1a2.439,2.439,0,0,0,1,0c2.639-.533,6.282-1.426,11-2h-3v-1c.3-.027.795.164,1,0h0c.137-.014-.246.164,0,0a2.014,2.014,0,0,1,1,0,7.41,7.41,0,0,1,2,0h2c.383-.246,1.013-.795,1-1h0a9.754,9.754,0,0,1-2,0c-.014-.219.74-.932,1-1h4c.013.15-.109,0,0,0,.137-.014.754.164,1,0h0c-.178.369-.795.3-1,1h0c-.027-.26.123.205,0,0h-1c-3.556,9.9-4.718,14.4-8,22a4.994,4.994,0,0,1-2,3c.014.219.767.027,1,0a5.734,5.734,0,0,1-1,3c-1.518,4.376-2.48,6.562-3,7v2c.014.219.233.973,0,1h0a1.127,1.127,0,0,0-1-1h0a5.291,5.291,0,0,0-1,2h0c.479-.314,1.041-.576,1-1h1c-.328.52-.027,1.686,0,2h0l-1,1h0c.41-.041,1.521.713,2,1,.328-.027.6-.74,1-1,.41-.041,1.36,0,4,0h2a27.406,27.406,0,0,0,3,0h0l1-1v1a5.107,5.107,0,0,1,2,0h0c.246-.027-.178.15,0,0,.205-.014.986-.246,1,0-.328.027-.59.863-1,1l-1-1c-.561.15-.617.973-1,1h0c.014.1.1,0,0,0,.013.219-.205.014,0,0h4l1-1c.014.1-.1,1.014,0,1v-1h1a13.859,13.859,0,0,0,3,0c-.013-.109-.082.013,0,0h0a18.387,18.387,0,0,0,4-1h0c.7-.164-.192.137,0,0,.014.123-.068,0,0,0h-1c-.67.137-.562-.041-1,0h0v0c1.97-.164,2.892-.058,12-2,.492-.041.685-.152,1-1a3.5,3.5,0,0,1-1,0c-.752.287-1.551-.233-3,0-.123.014.041.219,0,0h2c.26-.027.248-.576,1-1,0,.123-.164.014,0,0Zm-67,1h-1a11.5,11.5,0,0,1,1-3h0a4.919,4.919,0,0,1,0,3Zm0-3h0c-.014-.219.7.068,1,0h0c.014.26-.7-.027-1,0Zm9,7Zm-1,0c.014.219-.289-.246-1,0h1Zm8-40h0c-.014-.219-.273-.932,0-1h1c.014.26-.713.973-1,1Zm10-2h0c-.013-.219-.26.068,0,0Zm-2,1h-1c1.272-.11,1.22-.781,2-1,.014.15.754.027,1,0v1h-1a2.241,2.241,0,0,1-1,0c-.233.15.273-.027,0,0Zm1,3Zm2-1Zm0-3h1c-.451.041-.3-.192-1,0Zm1,4h0c.26-.027.986-.274,1,0Zm4-6h-1a12.085,12.085,0,0,1-2,0c1.272-.082,2.549.068,3,0Zm-1,4h0l-1,1v-1Zm2,1c-.014-.164.533.055,0,0h-3c-.233-.164.014.082,0,0h5a13.9,13.9,0,0,0-2,0Zm14-3c.164.014.959,0,1,0,.479-.465.385-.74,1-1a6.735,6.735,0,0,1-2,4h-1a18.722,18.722,0,0,0,1-3Zm-2,4h0c-.26.492-.808-.014-1,0h0c.123,0,.767.15,1,0Zm-2,3a3.1,3.1,0,0,1,2-2h0c-.192,1.368-.6,1.945-1,2v1c-.328.465-1.014.727-1,1h0v-1c.219-.027-.123-.645,0-1Zm0,2c.014.205-.727,1.262-1,2h0v-1a1.907,1.907,0,0,1,1-1Zm-11,32h0v1c-.191.014.055-.754,0-1Zm16,1c-.014-.123-.877-.014-1,0h0v-1h2c-.616.027-.877.863-1,1Zm-1-1c.082.041.041-.027,0,0-.041-.013-.1.055,0,0Zm0-2h0v-1a4.091,4.091,0,0,0,1,1c1.108-.191.467-.959,1-1,.178-.014-.013.781,0,1Zm4-1a3.01,3.01,0,0,0-1,0h1c-.109.014.178-.137,0,0Zm0,0Zm1,0h0c.1-.013.822.137,1,0,.287-.027-.027-.219,0,0Zm2,0Zm1,0c-.014-.205-.178.027,0,0h0c-.013-.1-.082.014,0,0h0Zm-11,4Zm24-6c.109-.068.26.041,0,0-.123.137.273-.014,0,0h0c.027-.027-.055.041,0,0h0v1l1-1h-1Zm1,1h1c-.014-.219-.822,0-1,0Zm-1-1Z" transform="translate(-1.086 -1.931)"/>
      <path id="Path_140" data-name="Path 140" d="M131,15.717h0c-.014-.137-.1.274,0,0v-1c-.192.014.178.453,0,1Zm-5-10v-1h0v1Zm-12,23c-.027-.369-1.73-1.47-4-4-.041-.465,1.4-1.084,3-2l4-4c1.026-1.3,1.822-4.074,2-7h0c-.178-2.024-1.224-3.756-4-5-1.641-1.108-4.734-1.89-9-2-3.528.3-8.325,1.771-14,4a50.265,50.265,0,0,1-5,3h0c.123-.014-.219.15,0,0,.232-.027.987.781,1,1v-1h0c.014.178-1.511,1.263-4,3l1,1H84c.014.123-.658-.027-1,0h1a3.031,3.031,0,0,1-1,0c-.574.055-.439.426-1,1v-1a82.984,82.984,0,0,0,2-9h0a11.06,11.06,0,0,1-2-2c.014-.424.014-.945,0-1h0c-1.805,2.708-5.845,7.463-11,14-3.925,4.65-5.877,7.48-6,8-1.6,1.655-2.082,2.658-2,3-.424.273-1.069.7-1,1-.123.027.027-.877,0-1-.684,1.108-1.646,2.685-3,3H58c-.191.041-1.014-.233-1,0v1l1-1v1H55l-1,1c-.164.164.41-.1,0,0H53c-.848.191-1.918.342-2,0h0c.027.15.027-.1,0,0H50c-.082-.52-2.06-2.745-5-6-.055-.629.88-.811,3-2l6-6a14.048,14.048,0,0,0,3-8v-1c-.233-2.68-2.348-4.332-6-6-2.16-1.463-6.393-2.877-12-3-4.65.4-10.533,2.114-18,5a69.273,69.273,0,0,1-7,5h0c.178-.014.713.164,1,0,.3-.027-.027-.274,0,0h1c.014.219-1.7,1.675-5,4h0c.014.137-.521.959-1,1h0c-.178.014.314.109,0,0-1.067.1-1.974,1.551-3,3H7c.889-.821.85-.986,1-1H8c-.15.013.315.836,0,1v1a21.241,21.241,0,0,1,4-3c.643.164.987-.219,1,0h0a42.349,42.349,0,0,1,11-6v1c-.643.957-.767.973-1,1,.027.328-.205.754,0,1,.055.588-1.814,4.67-5,12-7.234,17.039-13.063,29.85-18,38,.014.164-.178.727,0,1a11.427,11.427,0,0,0,3-1H4c.014.137-.315.027,0,0H4c.041.451.547,2.056,0,3a6.716,6.716,0,0,0-2,3H2c1.969-2.2,3.974-3.894,5-6a69.1,69.1,0,0,0,13-5,12.615,12.615,0,0,0,7-3h0l-1,1h0v-1c2.243-.342,3.138-.316,4-1,4.362-3.364,7.771-5.591,10-7,4.581-3.364,7.646-6.814,9-10,.246-.055.727.068,1,0,.643-.027.9.027,1,0-.027-.123-.123-.973,0-1,1.026-.109.344.15,1,0h2a4.072,4.072,0,0,0,1,0h0l-8,13-2,2-1,3h1v1h0c-.11.027-.027-.123,0,0v1l1-1c.52-.451.082-.631,0-1a8.744,8.744,0,0,0,2,0h0c-.342.082-.973.535-1,1h0c2.844-3.1,10.407-12.793,16-20-.178-.779,1.983-2.605,8-4h1c.219.944-.851,3.376-2,7a16.959,16.959,0,0,0-1,4c-.957,2.913-1.055,3.754-1,4l-2,7a71.291,71.291,0,0,0-3,12c.123-.027-.273-.068,0,0v-1c.027.123.877,1.027,1,1v-1h0a1.51,1.51,0,0,0,1-1,2.2,2.2,0,0,1,1-2c.574-2.243.877-2.959,1-3a25.034,25.034,0,0,1,1-4c.807-2.9,1.617-3.9,2-4h0l-1,2a62.092,62.092,0,0,1-3,10v2h1c2.544-5.47,6.227-16.809,11-33a3.686,3.686,0,0,1,2-3H79v-1c.547-.123.781.3,1,0a1.166,1.166,0,0,0-1-1l2-10c.52-.465.9-1,1-1v1c-.123.014.219-.15,0,0v1a21.457,21.457,0,0,1,3-3,1.933,1.933,0,0,1,1,1h0a27.881,27.881,0,0,1,8-4h0c-.478.725-.822.986-1,1,.027.246-.123.809,0,1,.041.451-.593,3.421-3,9a221.571,221.571,0,0,1-14,28c.014.123-.15.781,0,1a5.283,5.283,0,0,0,2-1h0v1h0l1-1c.014.1-.233,1.013,0,1h0c.027.328.424.289,0,1a8.847,8.847,0,0,0-2,3h1a19.542,19.542,0,0,0,3-5c4.363-1.285,7.7-1.769,10-3a8.39,8.39,0,0,0,5-2H95c1.7-.246,3.357-.494,4-1,3.309-2.544,5.3-4.933,7-6,5.279-3.842,8.3-7.458,8-11Zm-1,0v2c-.164.342.164-.014,0,0l-1-2c.383.137.986-.164,1,0Zm-104-11h1c-.15.014-.7-.178-1,0Zm-4,46a4.688,4.688,0,0,0-2,0v-1c-.027-.26.672.068,1,0,.3-.027-.027-.438,0,0a2.831,2.831,0,0,1,2-1H6c-.164,1.367-.33,1.945-1,2Zm49-51c-.233.027-.33-.564-1-2v-1c.438-.041.522.537,1,2v1Zm-1-5h0l-7-3c4.458.15,6.877,1.591,7,3Zm-28,24H24l1-1v1Zm-1-15h1v1c-.219.014-.644.371-1,1v-1c.424-.506.027-.727,0-1Zm-2,5v1h0v-1Zm-1,2h1a1.031,1.031,0,0,1-1,1h0c.287-.492.027-.74,0-1Zm0,2h0l-1,1h0c.451-.041,1.041-.549,1-1Zm-1,2v1H19v-1Zm-8,22c-.3,1.532-.658,1.973-1,2h0a2.275,2.275,0,0,1,1-2Zm-1,3h0c.027.3-.7.987-1,1v-1c-.027-.26.7.068,1,0Zm-1,6h1c-.178.013-.713.836-1,1h0c-.027-.233-.287-.918,0-1Zm21-6c-3.993,1.969-7.3,3.3-8,4-4.321,1.5-6.041,2.631-6,3-3.843,1.518-6.783,2.3-8,3-.287.027-.453.246-1,0a2.1,2.1,0,0,1,1-2,4.3,4.3,0,0,1,2,0,28.935,28.935,0,0,1,4-1H13c.178-.246,2.429-.961,5-2h0c-1.217.109-1.85.357-2,1,.027.287.7.027,1,0,.916-.574,1.013-.9,1-1,1.737-.328,7.137-2.309,15-7h0c.014.205-.646,1.015-2,2Zm-13,4a4.427,4.427,0,0,0,3-1c.328-.027.987-.287,1,0a6.409,6.409,0,0,0-3,1H18Zm20-15-6,5c-4.485,2.94-6.644,3.973-7,4-7.138,3.925-12.277,5.85-14,6h0c.219-.807,3.846-6.774,10-19,2.708-.233,6.188-1.7,12-4h2a6.928,6.928,0,0,1,6,2l1,1c-1.08,3.132-2.7,4.467-4,5Zm-12-7h1v1H26v-1Zm14-2h0c.656.315,1.973.754,2,1h0a2.411,2.411,0,0,1-2-1Zm2-11a23.292,23.292,0,0,1-5,4c-.93.082-5.01,1.374-11,4a2.064,2.064,0,0,0-1,0v-1a4.6,4.6,0,0,1,1-3c.465-2.462,1.439-3.658,2-4l5-11c-.055-.7.812-1.631,3-2h1v1c2.147-.328,3.48-.959,4-1,3.966-.342,5.836,1.072,6,3h0v-2h1a4.3,4.3,0,0,1,2,3c.055.629-.275,1.07-1,2-.3.027-.973-.562-1-1h0v2c-2.01,3.009-4.1,3.918-5,4-.821,1.135-.795,1.986-1,2Zm3,8c-.41-.274-.754-.014-1,0v-1h1c.041.314.314.973,0,1Zm3,4c.438.178.945-.178,1,0H48c-.041,0,.041-.014,0,0v0Zm0,2v-1h1v1Zm2,1c.588-.1.906.246,2,0H50c.027-.1-.014.082,0,0Zm2,1c-.875.082-.605-.315-2,0h1l1-1v1c-.383.082.438-.233,0,0Zm1,0c-.205.055.1-.767,0-1h1c.233-.055-.055-.233,0,0l-1,1Zm6-6h0Zm5,33a4.042,4.042,0,0,0,0-1h0c.233-.055.945.781,1,1H64Zm4-31H67c-.615.246-.576-.1-1,0H65c-.205.055.082.219,0,0l2-1h1c-.4.082.164.85,0,1Zm2-1H69c.123-.027.822.178,1,0l2-1h0a8.716,8.716,0,0,0-2,1Zm0-4c-.123.027-.795.836-1,1-.027-.123.465-.109,0,0-.082-.342,1.279-1.371,4-2h0v1a4.858,4.858,0,0,1-3,0Zm5-5a4.41,4.41,0,0,1-3,4H70c-.274.068.219.068,0,0h0c-.041-.178,1.472-2.378,5-7h0a3.8,3.8,0,0,1,0,3Zm8-7h1c-.123.027-.767-.123-1,0Zm-3,35a6.117,6.117,0,0,0-2,0v-1c-.014-.178.767.068,1,0,.233-.027-.027-.355,0,0,.588-.752.932-1,1-1h1c-.137,1.039-.507,1.959-1,2Zm37-39c-.178.014-.467-.892-1-2h0c.342-.027.644.906,1,2Zm-1-4h0l-5-2c3.378.11,4.9.934,5,2Zm-21,18h0Zm-1-11h1v1a2.414,2.414,0,0,0-1,1v-1c.315-.4.014-.795,0-1Zm-1,4v1h0v-1Zm-1,1h0c-.041.574.26.973,0,1h0a1.539,1.539,0,0,0,0-1Zm0,2h0l-1,1h0c.369-.027,1.027-.658,1-1Zm-1,2Zm-6,16c-.232,1.149-.74,1.973-1,2h0a3.056,3.056,0,0,1,1-2Zm-1,2v1c.027.246.246-.014,0,0h0c-.014-.178-.233-.932,0-1Zm0,5h0c-.123.014.219.877,0,1H83c-.014-.191.767-.945,1-1Zm15-5a16.356,16.356,0,0,0-5,4c-3.282,1.149-5.027,1.713-5,2-2.913,1.163-5.1,1.467-6,2a1.632,1.632,0,0,1-1,0c-.055-.588.425-.645,1-1,.52-.041.549-.191,1,0a17.379,17.379,0,0,1,3-1v-1l-1,1a7.39,7.39,0,0,1,3-2h1c-.93.082-1.89.508-2,1,.014.219.767.027,1,0a.777.777,0,0,1,1,0c1.313-.233,5.024-2.417,11-6h0a15.264,15.264,0,0,0-2,1Zm-9,4c.889-.082,1.371-1.4,2-2,.233-.014.986.781,1,1a9.678,9.678,0,0,0-3,1Zm15-12-5,4c-3.405,2.229-4.713,2.973-5,3-5.415,2.981-8.673,4.89-10,5H84c.164-.615,3.323-5.728,8-15,2.038-.178,4.569-1.25,9-3h1c2.229-.191,3.906-.053,5,1v1c-.834,2.352-1.016,3.576-2,4Zm-9-5h0Zm10-2h1c.506.246-.013.822,0,1h0c-.478.041-.59-.453-1-1Zm2-8a22.171,22.171,0,0,1-4,3c-.711.068-3.46,1.031-8,3a3.506,3.506,0,0,0-1,0h0a6.168,6.168,0,0,1,1-3c.355-1.887.59-2.754,1-3l4-9c-.041-.506.359-.685,2-1h1v1a17.726,17.726,0,0,0,3-1c3.009-.26,4.877.523,5,2h0v-1h0c.875.478,1.945,1.316,2,2a4.063,4.063,0,0,1-1,2c-.233.027.027-.644,0-1h-1v1c-1.518,2.311-2.3,3.945-3,4-.616.834-.822.987-1,1Zm1,6v-1h0l1,1c.014.219.233-.027,0,0-.328-.205-.822-.014-1,0Zm-63,33H45c.055.219-.233,1.055,0,1s1.055-.781,1-1Zm-2-3h0c.233-.055.055.219,0,0h0c-.219.055-.041-.219,0,0Zm10-18h0c-.055,0,.041.013,0,0-.1.027-.014-.1,0,0Zm0-5Zm96,14h-1v1l6-1h-5Zm6,0Zm23-3Zm-1,0a32.906,32.906,0,0,1-6,1h1c4.116-.451,5.041-.535,5-1Zm-25-6h0c-.3.806-1.014.863-1,1h0c.288-.014.754-.056,1-1Zm-5-3h0c.26-.027.027.232,0,0Zm11,11Zm22-5h1c.15-.014.014.219,0,0v-1c-.944.082-1.234.576-2,1h-2c-.027-.342.15-1.014,0-1h0a5,5,0,0,0-2,1c-.013-.123.068,0,0,0h-1c-.014-.123.068,0,0,0h-1a3.07,3.07,0,0,0,1,0h0c-2.147.533-1.523.754-3,1a2.732,2.732,0,0,0-1,0h0c-.164-.014.014-.822,0-1h1c.055,0-.424-.082,0,0,.616-.3.672.027,1,0h0c-2.106.41-1.361-.233-4,0h0a10.48,10.48,0,0,0,4-1c.014.123-.068,0,0,0,.137-.137-.178.027,0,0h0c1.19-.1,1.648.656,4,0h1c-.027-.342.822-.986,1-1h0c-4.13.834-5.851.672-7,1h0c-1.08.191-.726-.014-1,0-.082.014.137-.137,0,0-.014-.123.082,0,0,0h-4c-.013-.1.082-.014,0,0-1.819.383-1.566.781-4,1-.109.014.191-.123,0,0-.014-.1-.877-.013-1,0h-2c-.014-.1.123-.014,0,0a10.794,10.794,0,0,1-2,0h0c-.246.027.191.082,0,0h0c-.438.041-.5-.014-2,0-2.639.328-1.713.986-2,1h-1c.014.1-.89,0-1,0-1.121-.15-.986-.795-1-1,.15-1.066.631-.973,1-1h0c.355-.192.014.164,0,0v-1h0a2.727,2.727,0,0,1,0-1l1-1h0v-1c.287-.246.822.014,1,0h-1v-1c1.039-2.16,2.027-2.645,2-3h0c.233-.014.013-.754,0-1h0c-.027-.26-.11.219,0,0a3.047,3.047,0,0,0,1-2c.11-.014-.014-.123,0,0,.479-.273.727-.8,1-2a53.146,53.146,0,0,0,4-9c3.009-8.1,2.576-9.085,3-11h0c.027.246-.89-.219-1,0-.246-.1.137-.014,0,0h0c-.055-.7.344-1.015,1-2h0v1h1a5.992,5.992,0,0,1,0-2c-.014-.178-.727.014-1,0h0a17.854,17.854,0,0,1,0-2h0c-.3-.3.014.205,0,0h-2c-.013-.137-.863-.74-1-1-.013-.178,1.1.178,2,0h0c.014.123.863.014,1,0h0c.014.123-.137.014,0,0h0v-1a17.513,17.513,0,0,1-2,0v0c-9.176.752-14.756,1.877-16,2-.164.014-.865.027-2,0,.013.15.273-.027,0,0h-2a2.769,2.769,0,0,1-1,0c-.205.164-.7-.027-1,0a29.891,29.891,0,0,0,4,0c-.205.164-.562-.041-1,0a2.241,2.241,0,0,1-1,0,12.69,12.69,0,0,1-3,1h0l-7,1a2.236,2.236,0,0,0-1,0c-.342.027-.207-.219-1,0l-3,1v1c.15-.014-.26-.85,0-1h2l-1,1c-1.012.451-.836,1.152-1,2-1.518.67-3,1.713-3,2h2v1c.027.246-2.885,5.5-8,16-4.431,10.12-6.781,16-7,17-1.518.424-2.74,1.179-3,2,.027.26,1.125-.068,2,0v1h-1v1c.041.41,1.825.781,4,1-.014-.137-.15.014,0,0a8.057,8.057,0,0,1,0,3h0a4.941,4.941,0,0,0,1-3h0c.219-.014.727.467,1,1-.273.11-1.359,1.747-3,6v1h1c2.01-5.087,2.481-8.467,3-9,2.64-.233,7.518-.3,14-1h0c.013.137.85.014,1,0h1c.014.137-.15.014,0,0l5-1c1.3-.11,2.055-.33,2-1-.013-.178.455.219,2,0a3.034,3.034,0,0,1,1,0c-.014-.123.441-.863,2-1a.934.934,0,0,1,1-1h0a8.868,8.868,0,0,0-2,0c-1.026-.055-1.727.1-2,0-.274.15-.85-.014-1,0h-3c-.014-.123-.85-.014-1,0h0c-.014-.123-.289.1-1,0h-2c4.4-.478,7.055-1.289,7-2,.287-.027-.027.713,0,1h2v-1H131c.014.137.15.986,0,1h-1c-.328.027-.781-.164-1,0h-1c-1.327.11-2.344-.205-3,0a18.254,18.254,0,0,0-3,0h-3c-.055-.7,1.21-3.846,4-10,.807-2.079,1.289-3.508,2-4a2.434,2.434,0,0,1,1,0h2a17.9,17.9,0,0,0,5-1,8.853,8.853,0,0,1,2,0l1-1h4a22.444,22.444,0,0,0,5-1h0c-.711.068-.973-.713-1-1-.041-.533-1-.082-2,0v-1h4v-1c-.11.013-.961.041-2,0h1c.287-.027,1.027-.727,1-1-1.436.041-1.987.191-2,0-10.01.492-15.973.315-16,0-.15.014.273.836,0,1v-1c2.653-5.634,3.549-7.959,4-8a1.352,1.352,0,0,1,0,1h0c1.053-2.516,2.262-3.945,3-4,3.145-.274-.728-.947,6-2,.273.123.863,1.014,1,1,2.639-.533,6.282-1.426,11-2h-3v-1c.3-.027.795.164,1,0h0c.137-.013.754.164,1,0a2.019,2.019,0,0,1,1,0,7.41,7.41,0,0,1,2,0h1c.383-.246,1.014-.795,1-1h0a2.439,2.439,0,0,1-1,0c-.014-.219-.26-.932,0-1h4c.014.15-.109,0,0,0,.137-.013.754-.836,1-1,.069.014-.068.986,0,1-.178.369.205.3,0,1h-1c-.027-.26.123-.795,0-1h0c-3.555,9.9-5.718,15.4-9,23-.6,1.942-.562,2.767-1,3,.014.219-.233.027,0,0,.082.957.533,2.07,0,3-1.518,4.376-3.48,6.562-4,7l1,2c.013.219.233.973,0,1h-1c-.055-.575.369-1.041,0-1h-1a5.286,5.286,0,0,0-1,2h1c.478-.314.041-.576,0-1h1c-.328.52-.027,1.686,0,2h0v1h0c.41-.041.521.713,1,1,.328-.027.6-.74,1-1,.41-.041,2.361,0,5,0h1a27.319,27.319,0,0,0,3,0l1-1h0c1.463-.123,1.851.863,3,1h-1c.246-.027.822.15,1,0,.205-.013-.014-.246,0,0-.328.027-.59-.137-1,0h0c-.561.15-.617.973-1,1l-1-1c.014.1.1,1,0,1,.014.219-.205.014,0,0h4l1-1c.014.1-.1,1.014,0,1l1-1h1c.793-.068.277.273,2,0-.014-.109.918.014,1,0h0c2.8-.478,2.549-.85,3-1h0c.7-.164-.191.137,0,0,.014.123.932,0,1,0h-1c-.67.137-.562-.041-1,0h-1v0c1.969-.164,2.892-.058,12-2,.493-.041.685-.152,1-1a3.5,3.5,0,0,1-1,0c-.752.287-.551-.233-2,0-.123.014.041.219,0,0v-1h1c.26-.027.248.424,1,0,0,.123-.164.013,0,0Zm-67,1h-1a11.48,11.48,0,0,1,1-3h1a16.738,16.738,0,0,1-1,3Zm1-3h0c-.014-.219-.3.068,0,0h0c.014.26.3-.027,0,0Zm8,7Zm-1,0c.014.219-.289-.246-1,0h1Zm9-40h-1c-.014-.219-.273-.932,0-1h1c.013.26.287.973,0,1Zm9-2h0c-.014-.219-.26.069,0,0Zm-2,1h-1v-1c1.272-.11,2.221.219,3,0,.014.15-.246.027,0,0v1h0a2.236,2.236,0,0,1-1,0c-.233.15-.726-.027-1,0Zm1,3Zm2-1Zm0-3h2a8.816,8.816,0,0,0-2,0Zm1,4h1c.26-.027-.014-.274,0,0Zm5-6h-2a2.96,2.96,0,0,1-1,0c1.272-.082,2.549.068,3,0Zm-1,4Zm2,1c-.014-.164-.467.055-1,0h-2c-.233-.164-.986.082-1,0h6a13.9,13.9,0,0,0-2,0Zm14-3c.164.014-.041,0,0,0,.478-.465,1.384-1.74,2-2a10.836,10.836,0,0,1-3,5h0a18.643,18.643,0,0,0,1-3Zm-3,4h1c-.26.492-.809-.014-1,0h0c.123,0-.233.15,0,0Zm-1,3c.369-1.477.672-1.781,1-2h0c-.191,1.367-.6,1.945-1,2v1c-.328.465-.013.727,0,1h-1v-1a2.265,2.265,0,0,0,1-1Zm-1,2a4.521,4.521,0,0,1,0,2h0v-1c.26-.6-.15-.986,0-1Zm-11,32h1v1c-.192.014-.945-.754-1-1Zm16,1c-.014-.123.123-1.014,0-1l-1,1v-1h2c-.615.027-.877.863-1,1Zm-1-1c.082.041.041-.027,0,0-.041-.014-.1.055,0,0Zm0-2h0l1-1c.014.109-.123.014,0,0a8.482,8.482,0,0,1,2,0c.178-.014-.014-.219,0,0l-3,1Zm4-1a3.011,3.011,0,0,0-1,0h1c-.11.013.178-.137,0,0Zm0,0Zm2,0h0c.1-.013-.178.137,0,0,.287-.027-.027-.219,0,0Zm1,0Zm1,0c-.013-.205-.178-.973,0-1l1,1c-.014-.1-.082.014,0,0h-1Zm14-2Zm0,0c.109-.068.26.041,0,0-.123.137.273-.014,0,0h0c.027-.027-.055.041,0,0h0l-1,1,1-1Zm1,1h1c-.013-.219-.822,0-1,0Z" fill="#fff"/>
    </g>
  </g>
</svg>
