<svg xmlns="http://www.w3.org/2000/svg" width="121" height="56" viewBox="0 0 121 56">
  <g id="babel" transform="translate(0 -0.427)">
    <rect id="box" width="121" height="56" rx="10" transform="translate(0 0.426)" fill="#f9dc3e"/>
    <g id="babel-2" data-name="babel" transform="translate(20.731 12.465)">
      <path id="Path_139" data-name="Path 139" d="M56.547,5.243V4.811h-.433v.433Zm1.73,4.326h.433c-.006-.059-.041.118,0,0V9.136a.751.751,0,0,0-.433.433Zm-7.354,5.623c-.012-.16-.316-.636-1.3-1.73-.018-.2.173-.469.865-.865l2.163-1.73a6.047,6.047,0,0,0,.865-3.028h0c-.077-.875-.962-1.625-2.163-2.163a7.782,7.782,0,0,0-3.893-.865,21.66,21.66,0,0,0-5.623,1.73c-.674.485-1.732.813-2.6,1.3v.433c.053-.006.338-.367.433-.433.1-.012-.006.338,0,.433l.433-.433h0v.433a7.983,7.983,0,0,0-1.73.865v.433h0c.006.053-.285-.012-.433,0h0l.433.433c-.053.006-.32-.391-.433-.433a1.561,1.561,0,0,0-.865.433V9.569a35.934,35.934,0,0,0,.865-3.893h0a4.784,4.784,0,0,1-.865-.865c.006-.183.006-.409,0-.433h0c-.781,1.171-2.1,3.228-4.326,6.056a21.172,21.172,0,0,0-2.6,3.461c-.692.716-1.333,1.15-1.3,1.3-.183.118-.03.3,0,.433-.053.012.012.053,0,0a1.9,1.9,0,0,1-1.3.865H26.7c-.083.018-.006-.1,0,0v.433l.433-.433v.433h-.865l-.865.433H24.97c-.071.071.61-.041.433,0h-.865c-.367.083-.4.148-.433,0h0c.012.065.012-.041,0,0h-.865a7.4,7.4,0,0,0-1.73-2.6c-.024-.272.381-.351,1.3-.865l2.6-2.6a6.288,6.288,0,0,0,.865-3.461V7.406c-.1-1.159-.583-1.874-2.163-2.6a10.168,10.168,0,0,0-5.191-1.3,30.182,30.182,0,0,0-7.786,2.163A29.965,29.965,0,0,1,8.1,7.839h0c.077-.006-.124.071,0,0,.13-.012.421-.118.433,0h.433A11.113,11.113,0,0,1,6.8,9.569V10h0l-.433-.433c.006.059.207.415,0,.433h0v.433c-.077.006-.3-.385-.433-.433-.461.041-.854.671-1.3,1.3h0a1.666,1.666,0,0,1,.865-.433V11.3c-.065.006-.3-.071-.433,0l.433.433a9.177,9.177,0,0,1,1.73-1.3c.278.071.427-.095.433,0h0a14.305,14.305,0,0,1,4.326-2.163h.433a1.1,1.1,0,0,1-.865.433c.012.142.344.326.433.433A49.765,49.765,0,0,1,9.83,14.327C6.7,21.7,4.179,27.239,2.043,30.765c.006.071-.077.314,0,.433a1.72,1.72,0,0,0,.865-.433h.433c.006.059.3.012.433,0V31.2c.018.2-.2.457-.433.865-.213.242-.19.523-.433,1.3h0a13.249,13.249,0,0,0,2.163-2.6A29.874,29.874,0,0,0,10.695,28.6a5.4,5.4,0,0,0,3.028-.865V27.3l-.865.433h0V27.3a6.017,6.017,0,0,0,2.163-.433c1.887-1.455,3.361-2.419,4.326-3.028a11.452,11.452,0,0,0,3.893-4.326c.107-.024-.118.03,0,0,.278-.012.824.012.865,0-.012-.053-.053-.421,0-.433.444-.047.149.065.433,0H25.4c-.047.012-.444-.047-.433,0H25.4c-.024,0,.018.006,0,0h0c.083.012-.1.024,0,0h0l-3.028,5.623-.865.865-.433,1.3h.433V27.3h0c-.047.012-.012-.053,0,0v.433h0a1.46,1.46,0,0,0,.433-.865.9.9,0,0,0,.433,0V27.3c-.148.036.012-.2,0,0v.433h0c1.231-1.343,4.069-5.967,6.489-9.084-.077-.337,1.29-1.127,3.893-1.73h0a6.818,6.818,0,0,1-.433,3.028,7.338,7.338,0,0,0-.433,1.73,7.8,7.8,0,0,1-.865,1.73l-.865,3.028a30.853,30.853,0,0,0-1.3,5.191,1.493,1.493,0,0,1,.433,0h0c.012.053-.053.012,0,0V31.2h.433a.654.654,0,0,0,.433-.433c-.018-.408-.183-.385,0-.433.248-.97.379-1.712.433-1.73a4.329,4.329,0,0,1,.865-1.73c.349-1.254.267-1.689.433-1.73h0v.865a34.9,34.9,0,0,1-1.3,4.758V31.2h0a129.371,129.371,0,0,0,4.758-14.275,1.6,1.6,0,0,1,.865-1.3h0c.237-.053.338-.3.433-.433a.5.5,0,0,0-.433-.433l.865-4.326c.225-.2.391-.433.433-.433v.433c-.053.006-.338-.065-.433,0l.433.433a6.519,6.519,0,0,1,1.3-.865c.213.059-.012-.071,0,0h.433A12.062,12.062,0,0,1,42.7,8.271h0c-.207.314-.356.427-.433.433.012.107-.053.35,0,.433.018.2-.689,1.48-1.73,3.893-2.378,5.59-4,9.859-5.623,12.545.006.053-.065-.095,0,0a2.286,2.286,0,0,0,.865-.433h0v.433h0c.006.041.332.006.433,0h0a3.015,3.015,0,0,1-.433.865,1.785,1.785,0,0,0-.433.865h0a11.351,11.351,0,0,0,1.73-2.163,28.485,28.485,0,0,0,4.326-1.3,3.63,3.63,0,0,0,2.163-.865h-.433a4.725,4.725,0,0,0,1.73-.433c1.432-1.1,2.294-2.134,3.028-2.6,2.283-1.662,3.158-3.226,3.028-4.758Zm0,0v.865c-.071.148-.362-.006-.433,0v-.865c.166.059.427-.071.433,0ZM5.936,10.434h.433c-.065.006-.3-.077-.433,0Zm-2.163,19.9c-.237-.106-.249-.018-.433,0V29.9c-.012-.112-.142.03,0,0,.13-.012.421.243.433.433a2.949,2.949,0,0,0,.433-.865h.433a.985.985,0,0,1-.865.865ZM25.4,8.271a1.463,1.463,0,0,1-.865-.865V6.973c.189-.018.658.232.865.865v.433ZM24.97,6.108h0l-3.028-1.3c1.928.065,2.975.688,3.028,1.3ZM12.858,16.49h0ZM12.425,10h0v.433c-.095.006-.279.16-.433.433h0A2.383,2.383,0,0,0,12.425,10Zm-.865,2.163V12.6h0v-.433Zm-.433.865h0c-.018.319.16.421,0,.433h0c.124-.213.012-.32,0-.433Zm-.433.865h0v.433h0c.2-.018.018-.237,0-.433Zm-.433.865v.433h0V14.76ZM7.234,24.276c-.13.663-.285.853-.433.865h0a.984.984,0,0,1,.433-.865Zm-.865,1.3h0c.012.13.13.427,0,.433h0c-.012-.112-.13-.4,0-.433Zm0,2.6H6.8V28.6c-.077.006-.308-.071-.433,0h0c-.012-.1-.124-.4,0-.433Zm8.651-2.6a15.841,15.841,0,0,0-3.028,1.73c-1.869.651-2.613,1.138-2.6,1.3-1.662.657-2.934,1-3.461,1.3-.124.012-.2.107-.433,0a.911.911,0,0,1,.433-.865,1.858,1.858,0,0,1,.865,0,12.523,12.523,0,0,1,1.73-.433H7.667a6.631,6.631,0,0,1,1.73-.865H9.83c-.527.047-.8.155-.865.433.012.124-.13.012,0,0,.4-.249.871-.391.865-.433.751-.142,2.655-1,6.056-3.028h0c.006.089-.279.439-.865.865ZM9.83,27.3a1.915,1.915,0,0,0,1.3-.433c.142-.012.427-.124.433,0a9.019,9.019,0,0,0-1.73.865h0V27.3Zm8.651-6.489-2.6,2.163a12.72,12.72,0,0,1-3.461,1.73c-3.088,1.7-4.878,2.53-5.623,2.6v.433a77.124,77.124,0,0,1,3.893-8.651,24.264,24.264,0,0,0,5.623-1.73h.433a3.994,3.994,0,0,1,3.028.865v.433c-.473,1.361-.736,1.932-1.3,2.163Zm-5.191-2.6.433-.433v.433Zm5.623-1.3h.433c.284.136.421.326.433.433h0a1.043,1.043,0,0,1-.865-.433Zm.865-4.758a10.071,10.071,0,0,1-2.163,1.73,29.374,29.374,0,0,0-4.326,1.73.891.891,0,0,0-.433,0h0a3.165,3.165,0,0,1,.433-1.73c.2-1.065.19-1.582.433-1.73l2.163-4.758c-.024-.3.784-.705,1.73-.865h0v.433c.929-.142,1.505-.415,1.73-.433,1.715-.148,2.957.464,3.028,1.3h0V6.973h0a1.86,1.86,0,0,1,.865,1.3c.024.272-.119.463-.433.865-.13.012.012-.243,0-.433l-.433.433v.433c-.87,1.3-1.34,2.127-1.73,2.163a.942.942,0,0,1-.865.433Zm1.3,3.461c-.177-.118-.326-.006-.433,0v-.433h.433l.433.433c.018.136-.3-.012-.433,0Zm1.73,1.73c.189.077-.024-.077,0,0h0c-.018,0,.018-.006,0,0v0Zm0,.865h0v0Zm.433.433c.254-.041.392.107.865,0h0l-.865.433c.012-.041-.006-.4,0-.433Zm.865.433c-.379.036-.262-.136-.865,0h1.3c-.16.036-.243-.1-.433,0Zm.865,0c-.089.024.041-.332,0-.433h0c.1-.024.409.332.433.433Zm2.163-2.6ZM29.3,30.765c.024-.107.444.053.433,0h0c.1-.024-.024-.095,0,0H29.3Zm1.73-13.41h0c-.266.107-.682-.041-.865,0h0c-.089.024-.4.095-.433,0l1.3-.433h.433c-.172.036-.362.367-.433.433Zm.865-.433h0c.053-.012.356.077.433,0l.433-.433h0a3.773,3.773,0,0,0-.865.433Zm0-1.3c-.053.012.089-.071,0,0-.012-.053-.231-.047-.433,0-.035-.148.553-.593,1.73-.865h.433v.433c-.828.242-1.642.415-1.73.433Zm2.163-2.6c-.083.941-.279,1.594-.865,1.73h-.865a1.064,1.064,0,0,1-.433,0h0a25.083,25.083,0,0,1,2.163-3.028h.433c.065.272-.166.558-.433,1.3ZM37.947,10h0c-.053.012.1-.053,0,0Zm-1.73,15.14c-.178-.083-.3-.012-.433,0v-.433c-.006-.077-.1.03,0,0,.1-.012.421-.154.433,0,.254-.325.4-.433.433-.433h0c-.059.45-.22.847-.433.865ZM52.654,8.271c-.077.006-.2-.386-.433-.865h-.433a1.475,1.475,0,0,1,.865.865Zm-.433-1.73h0l-2.163-.865c1.461.047,2.121.4,2.163.865ZM43.138,14.76H42.7v-.433h.433v.433ZM42.7,9.569h0V10c-.077.006.112.226,0,.433V10c.136-.172.006-.344,0-.433Zm-.433,1.73v.433H41.84V11.3Zm-.433.433h0c-.018.248.112.421,0,.433h-.433c.089-.166.439-.344.433-.433Zm-.433.865h0v.433h0c.16-.012.012-.285,0-.433Zm0,.865h-.433v0Zm-2.6,6.921c-.1.5-.32.853-.433.865h0a1.322,1.322,0,0,1,.433-.865Zm-.433,1.3h0c.012.106-.326-.006-.433,0h0c-.006-.077.332.03.433,0Zm-.433,1.73h.433c-.053.006-.338.379-.433.433h0c-.006-.083-.1-.409,0-.433Zm6.921-1.73a26.231,26.231,0,0,0-2.6,1.3c-1.42.5-2.175.741-2.163.865-1.26.5-1.772.634-2.163.865a.706.706,0,0,1-.433,0c-.024-.254.184-.279.433-.433.225-.018.237-.083.433,0a7.509,7.509,0,0,1,1.3-.433h-.433a3.2,3.2,0,0,1,1.3-.865h0c-.4.036-.385.22-.433.433.006.095-.1.012,0,0a.337.337,0,0,1,.433,0,28.323,28.323,0,0,0,4.758-2.6h0a1.034,1.034,0,0,1-.433.865Zm-3.893,1.3a1.288,1.288,0,0,0,.865-.433c.1-.012-.006-.095,0,0a3.4,3.4,0,0,0-.865.433Zm6.056-5.191-1.73,1.73a9.349,9.349,0,0,1-2.6,1.3c-2.343,1.29-3.752,2.115-4.326,2.163h0c.071-.266,1-2.478,3.028-6.489a18.522,18.522,0,0,0,4.326-1.3h.433a2.677,2.677,0,0,1,2.163.433v.433a2.8,2.8,0,0,1-1.3,1.73Zm-3.893-2.163h0ZM47.9,14.76h0a.946.946,0,0,1,.433.433h0c-.207.018-.255-.2-.433-.433Zm.433-3.461a9.593,9.593,0,0,1-1.73,1.3,20.852,20.852,0,0,0-3.461,1.3c-.095-.036.112-.006,0,0h0a2.67,2.67,0,0,1,.433-1.3c.154-.816.255-1.191.433-1.3l1.73-3.893c-.018-.219.155-.3.865-.433h0l.433.433a7.678,7.678,0,0,0,1.3-.433c1.3-.112,1.677.226,1.73.865h.433V7.406h0a.938.938,0,0,1,.433.865c.018.213.225.563,0,.865-.1.012-.421-.279-.433-.433h0v.433c-.657,1-1.429,1.707-1.73,1.73-.266.361-.356.427-.433.433Zm.865,2.6v-.433h0l.433.433c.006.095.1-.012,0,0-.142-.089-.356-.006-.433,0ZM21.509,28.169h-.433c.024.095.332.456.433.433s.024-.338,0-.433Zm-.433-1.3V27.3c.1-.024.024-.338,0-.433h0c-.095.024-.018-.095,0,0Zm3.893-9.949h0Zm54.071,4.758a14.252,14.252,0,0,1-2.6.433h.433c1.781-.2,2.181-.231,2.163-.433Zm-9.949,1.3Zm-.865-3.893h-.433c-.13.349-.006.373,0,.433h0c.124-.006.326-.024.433-.433Zm10.814,2.6Zm-12.112,1.3H66.5v.433l2.6-.433H66.929Zm-.865-5.191h-.433c.112-.012.444.1.433,0Zm14.275,2.6h0c.065-.006.006.095,0,0h0c-.408.036-.534-.183-.865,0h-.433c-.012-.148.065-.006,0,0h-.433c-.3.024-.285-.112-.433,0-.006-.053.03,0,0,0h-.433c-.006-.053-.4,0-.433,0h0a1.324,1.324,0,0,0,.433,0h0c-.929.231-1.091.326-1.73.433-.071-.047.036-.006,0,0h0c-.071-.006.006.077,0,0v-.433c.024,0,.249.4.433.433.266-.13.291-.421.433-.433h0c-.911.178-.589-.1-1.73,0h0c1.467-.177.795-.291,1.3-.433.006.053-.03,0,0,0,.059-.059.356.012.433,0h0c.515-.041.713.284,1.73,0h.433c-.012-.148-.077-.427,0-.433h0c-1.787.361-2.1.291-2.6.433h0c-.467.083-.314-.006-.433,0-.036.006-.373-.059-.433,0-.006-.053.036,0,0,0h-1.3c-.006-.041-.4-.006-.433,0-.787.166-.245.338-1.3.433-.047.006-.35-.053-.433,0-.006-.041.053-.006,0,0h-.865c-.006-.041-.379-.006-.433,0-.242.065-.261-.012-.433,0h0c-.106.012.083.036,0,0v.433c-.189.018-.215-.438-.865-.433a2.315,2.315,0,0,0-1.3.433h-.433c.006.041.047,0,0,0a1.24,1.24,0,0,1-.865-.433c.065-.461.273-.421.433-.433h0c.154-.083.439.071.433,0v-.433h-.433c-.012-.112.391-.35.433-.433v-.433h.433c.124-.106-.077-.427,0-.433h0a3.621,3.621,0,0,0,.433-1.73h.433c.1-.006.006.107,0,0h-.433v-.433c-.012-.112.385.095.433,0,.243-.254.024-.6,0-.865.047-.006.427-.053.433,0,.207-.118.314-.345.433-.865.367-.663.617-1.911,1.3-3.893,1.3-3.5,1.547-3.93,1.73-4.758h-.433a1.068,1.068,0,0,1,0,.433c-.107-.041.059-.439,0-.433h0c-.024-.3-.284-.439,0-.865h.433v.433h0a2.592,2.592,0,0,1,0-.865c-.006-.077.118.006,0,0h0a7.723,7.723,0,0,1,0-.865h0c-.13-.13-.427.089-.433,0h-.865c-.006-.059.059-.32,0-.433-.006-.077.042.077.433,0h.433c.006.053-.059.006,0,0h.433c.006.053-.059.006,0,0h0V2.648a7.5,7.5,0,0,1-.865,0l-.433.433V2.648c-3.969.325-5.95.812-6.489.865-.071.006-.374.012-.865,0,.006.065-.314-.012-.433,0h-.433a5.174,5.174,0,0,1-.865,0c-.089.071-.3-.012-.433,0a12.929,12.929,0,0,0,1.73,0c-.089.071-.243-.018-.433,0-.13.012.095.053,0,0a5.489,5.489,0,0,1-1.3.433h-.433l-2.6.433a.967.967,0,0,0-.433,0,2.945,2.945,0,0,0-.865,0l-1.3.433v.433c.065-.006.32-.367.433-.433l.433.433v.433a1.374,1.374,0,0,0-.865.865c-.657.29-.865.308-.865.433h.433v.433a55.674,55.674,0,0,1-3.028,6.921c-1.917,4.377-2.933,6.922-3.028,7.354-.657.183-1.185.51-1.3.865.012.112.054-.03.433,0v.433h0v.433c.018.177.357.338,1.3.433-.006-.059.368.006.433,0,.018.213-.3.682-.433,1.3h0c.39-.532.883-1.1.865-1.3h0c.095-.006.314.2.433.433a18.252,18.252,0,0,0-1.3,3.028h0a24.956,24.956,0,0,1,1.73-3.893c1.142-.1,3.252-.131,6.056-.433h0c.006.059-.065.006,0,0h.433c.006.059-.065.006,0,0h2.163a.947.947,0,0,0,.865-.865c-.006-.077.2.095.865,0a1.308,1.308,0,0,1,.433,0c-.006-.053.191-.373.865-.433a.4.4,0,0,1,.433-.433h0c-.189.018-.184-.083-.433,0-.444-.024-.747.041-.865,0-.118.065-.367-.006-.433,0h-1.73c-.006-.053.065-.006,0,0h0l-.433.433a.574.574,0,0,0-.433-.433h0l-.433.433v-.433c1.9-.207,3.052-.125,3.028-.433.124-.012-.012-.124,0,0h.433v-.433H58.71a1.438,1.438,0,0,1-.433.433h-.433c-.142.012-.338-.071-.433,0h0c-.574.047-1.014-.089-1.3,0a7.9,7.9,0,0,0-1.3,0h-1.73c-.024-.3.956-1.664,2.163-4.326.349-.9.557-1.517.865-1.73.065-.006-.13-.053,0,0h1.3a7.743,7.743,0,0,0,2.163-.433.948.948,0,0,1,.433,0l.433-.433h1.73a13.413,13.413,0,0,0,2.6-.433h0a1.182,1.182,0,0,1-.865-.433c-.018-.231,0-.035-.433,0V12.6H65.2v-.433c-.047.006-.416.018-.865,0h.433c.124-.012.012-.314,0-.433-.621.018-.859.083-.865,0-4.33.213-6.477.136-6.489,0-.065.006-.314.362-.433.433v-.433c1.148-2.437,1.968-3.443,2.163-3.461.006.095.107.225,0,.433h0c.456-1.088.978-1.707,1.3-1.73a23.7,23.7,0,0,0,2.6-.433,1.055,1.055,0,0,0,.433,0c1.142-.231,2.717-.617,4.758-.865h-1.3V5.243c.13-.012.344.071.433,0h0c.059-.006-.107.071,0,0a.871.871,0,0,1,.433,0,3.205,3.205,0,0,1,.865,0h.865c.166-.106.438-.344.433-.433h0a4.219,4.219,0,0,1-.865,0c-.006-.095.32-.4.433-.433h1.73c.006.065-.047,0,0,0s.326.071.433,0h0c-.077.16-.344.131-.433.433h0c-.012-.112.053.089,0,0h-.433c-1.538,4.283-2.041,6.228-3.461,9.517a2.16,2.16,0,0,1-.865,1.3c.006.095.332.012.433,0a2.48,2.48,0,0,1-.433,1.3,11.2,11.2,0,0,1-1.3,3.028v.865c.006.095.1.421,0,.433h0a.487.487,0,0,0-.433-.433h0a2.289,2.289,0,0,0-.433.865h0c.207-.136.45-.249.433-.433H65.2c-.142.225-.012.729,0,.865h0l-.433.433h0c.177-.018.658.308.865.433.142-.012.261-.32.433-.433.177-.018.588,0,1.73,0h.865a11.854,11.854,0,0,0,1.3,0h0l.433-.433v.433a2.209,2.209,0,0,1,.865,0h0c.107-.012-.077.065,0,0,.089-.006.427-.107.433,0-.142.012-.255.373-.433.433l-.433-.433c-.242.065-.267.421-.433.433h0c.006.041.041,0,0,0,.006.095-.089.006,0,0h1.73l.433-.433c.006.041-.041.439,0,.433v-.433h.433a6,6,0,0,0,1.3,0c-.006-.047-.036.006,0,0h0a7.954,7.954,0,0,0,1.73-.433h0c.3-.071-.083.059,0,0,.006.053-.03,0,0,0H75.58c-.29.059-.243-.018-.433,0h0v0a29.355,29.355,0,0,0,5.191-.865c.213-.018.3-.066.433-.433a1.512,1.512,0,0,1-.433,0c-.325.124-.671-.1-1.3,0-.053.006.018.095,0,0h.865c.112-.012.107-.249.433-.433,0,.053-.071.006,0,0Zm-28.982.433h-.433a4.973,4.973,0,0,1,.433-1.3h0a2.128,2.128,0,0,1,0,1.3Zm0-1.3h0c-.006-.095.3.03.433,0h0c.006.112-.3-.012-.433,0Zm3.893,3.028Zm-.433,0c.006.095-.125-.106-.433,0h.433Zm3.461-17.3h0c-.006-.095-.118-.4,0-.433h.433c.006.112-.308.421-.433.433ZM62.6,4.378h0c-.006-.095-.112.03,0,0Zm-.865.433h-.433c.55-.047.528-.338.865-.433.006.065.326.012.433,0v.433h-.433a.969.969,0,0,1-.433,0c-.1.065.118-.012,0,0Zm.433,1.3Zm.865-.433Zm0-1.3h.433c-.2.018-.131-.083-.433,0Zm.433,1.73h0c.112-.012.427-.118.433,0Zm1.73-2.6h-.433a5.228,5.228,0,0,1-.865,0c.55-.036,1.1.03,1.3,0Zm-.433,1.73h0l-.433.433V5.243Zm.865.433c-.006-.071.231.024,0,0h-1.3c-.1-.071.006.036,0,0H66.5a6.013,6.013,0,0,0-.865,0Zm6.056-1.3c.071.006.415,0,.433,0,.207-.2.166-.32.433-.433a2.914,2.914,0,0,1-.865,1.73h-.433a8.1,8.1,0,0,0,.433-1.3Zm-.865,1.73h0c-.112.213-.35-.006-.433,0h0c.053,0,.332.065.433,0Zm-.865,1.3a1.339,1.339,0,0,1,.865-.865h0c-.083.592-.261.842-.433.865v.433c-.142.2-.439.314-.433.433h0V7.839c.095-.012-.053-.279,0-.433Zm0,.865c.006.089-.314.546-.433.865h0V8.7a.825.825,0,0,1,.433-.433ZM65.2,22.113h0v.433c-.083.006.024-.326,0-.433Zm6.921.433c-.006-.053-.379-.006-.433,0h0v-.433h.865c-.266.012-.379.373-.433.433Zm-.433-.433c.036.018.018-.012,0,0-.018-.006-.041.024,0,0Zm0-.865h0v-.433a1.77,1.77,0,0,0,.433.433c.479-.083.2-.415.433-.433.077-.006-.006.338,0,.433Zm1.73-.433a1.3,1.3,0,0,0-.433,0h.433c-.047.006.077-.059,0,0Zm0,0Zm.433,0h0c.041-.006.356.059.433,0,.124-.012-.012-.095,0,0Zm.865,0Zm.433,0c-.006-.089-.077.012,0,0h0c-.006-.041-.036.006,0,0h0Zm-4.758,1.73Zm10.382-2.6c.047-.03.112.018,0,0-.053.059.118-.006,0,0h0c.012-.012-.024.018,0,0h0v.433l.433-.433h-.433Zm.433.433h.433c-.006-.095-.356,0-.433,0Zm-.433-.433Z" transform="translate(-1.578 -2.215)"/>
      <path id="Path_140" data-name="Path 140" d="M56.624,6.638h0c-.006-.059-.041.118,0,0V6.205c-.083.006.077.2,0,.433ZM54.461,2.312V1.88h0v.433ZM49.27,12.261c-.012-.16-.748-.636-1.73-1.73-.018-.2.606-.469,1.3-.865l1.73-1.73a6.048,6.048,0,0,0,.865-3.028h0A2.526,2.526,0,0,0,49.7,2.745a7.784,7.784,0,0,0-3.893-.865,23.852,23.852,0,0,0-6.056,1.73,21.743,21.743,0,0,1-2.163,1.3h0c.053-.006-.095.065,0,0,.1-.012.427.338.433.433V4.908h0a11.453,11.453,0,0,1-1.73,1.3l.433.433h-.433c.006.053-.285-.012-.433,0h.433a1.311,1.311,0,0,1-.433,0c-.248.024-.19.184-.433.433V6.638a35.9,35.9,0,0,0,.865-3.893h0a4.784,4.784,0,0,1-.865-.865c.006-.183.006-.409,0-.433h0C34.647,2.618,32.9,4.675,30.669,7.5a21.16,21.16,0,0,0-2.6,3.461c-.692.716-.9,1.15-.865,1.3-.183.118-.462.3-.433.433-.053.012.012-.379,0-.433-.3.479-.712,1.162-1.3,1.3h-.433c-.083.018-.439-.1-.433,0v.433l.433-.433v.433h-1.3l-.433.433c-.071.071.177-.041,0,0h-.433c-.367.083-.83.148-.865,0h0c.012.065.012-.041,0,0h-.433a17,17,0,0,0-2.163-2.6c-.024-.272.381-.351,1.3-.865l2.6-2.6a6.077,6.077,0,0,0,1.3-3.461V4.475c-.1-1.159-1.016-1.874-2.6-2.6a10.167,10.167,0,0,0-5.191-1.3A30.177,30.177,0,0,0,9.041,2.745,29.966,29.966,0,0,1,6.013,4.908h0c.077-.006.308.071.433,0,.13-.012-.012-.118,0,0h.433a11.113,11.113,0,0,1-2.163,1.73h0c.006.059-.225.415-.433.433h0c-.077.006.136.047,0,0-.461.041-.854.671-1.3,1.3h0c.385-.355.367-.427.433-.433h0c-.065.006.136.362,0,.433V8.8a9.188,9.188,0,0,1,1.73-1.3c.278.071.427-.095.433,0h0a18.319,18.319,0,0,1,4.758-2.6V5.34c-.278.414-.332.421-.433.433.012.142-.089.326,0,.433A49.85,49.85,0,0,1,7.743,11.4C4.614,18.767,2.092,24.308-.043,27.834c.006.071-.077.314,0,.433a4.943,4.943,0,0,0,1.3-.433h.433c.006.059-.136.012,0,0h0c.018.2.237.89,0,1.3a2.905,2.905,0,0,0-.865,1.3h0a13.255,13.255,0,0,0,2.163-2.6,29.889,29.889,0,0,0,5.623-2.163,5.457,5.457,0,0,0,3.028-1.3h0l-.433.433h0v-.433c.97-.148,1.357-.137,1.73-.433,1.887-1.455,3.361-2.419,4.326-3.028a11.452,11.452,0,0,0,3.893-4.326c.106-.024.314.03.433,0,.278-.012.391.012.433,0-.012-.053-.053-.421,0-.433.444-.047.149.065.433,0h.865a1.761,1.761,0,0,0,.433,0h0l-3.461,5.623-.865.865-.433,1.3h.433v.433h0c-.047.012-.012-.053,0,0v.433l.433-.433c.225-.2.036-.273,0-.433a3.782,3.782,0,0,0,.865,0h0c-.148.036-.421.231-.433.433h0c1.23-1.343,4.5-5.534,6.921-8.651-.077-.337.858-1.127,3.461-1.73H31.1a12.039,12.039,0,0,1-.865,3.028,7.336,7.336,0,0,0-.433,1.73,5.417,5.417,0,0,0-.433,1.73l-.865,3.028a30.838,30.838,0,0,0-1.3,5.191c.053-.012-.118-.03,0,0v-.433c.012.053.379.444.433.433v-.433h0a.653.653,0,0,0,.433-.433.952.952,0,0,1,.433-.865,3.913,3.913,0,0,1,.433-1.3,10.828,10.828,0,0,1,.433-1.73c.349-1.254.7-1.689.865-1.73h0l-.433.865a26.859,26.859,0,0,1-1.3,4.326v.865h.433A129.348,129.348,0,0,0,33.7,13.992a1.6,1.6,0,0,1,.865-1.3H34.13v-.433c.237-.053.338.13.433,0a.5.5,0,0,0-.433-.433L35,7.5c.225-.2.391-.433.433-.433V7.5c-.053.006.095-.065,0,0v.433a9.282,9.282,0,0,1,1.3-1.3.836.836,0,0,1,.433.433h0a12.06,12.06,0,0,1,3.461-1.73h0c-.207.314-.356.427-.433.433.012.107-.053.35,0,.433a14.932,14.932,0,0,1-1.3,3.893A95.844,95.844,0,0,1,32.832,22.21c.006.053-.065.338,0,.433a2.285,2.285,0,0,0,.865-.433h0v.433h0l.433-.433c.006.041-.1.438,0,.433h0c.012.142.183.125,0,.433a3.827,3.827,0,0,0-.865,1.3H33.7A8.453,8.453,0,0,0,35,22.21a28.492,28.492,0,0,0,4.326-1.3,3.629,3.629,0,0,0,2.163-.865h-.433a4.728,4.728,0,0,0,1.73-.433c1.432-1.1,2.294-2.134,3.028-2.6,2.283-1.662,3.591-3.226,3.461-4.758Zm-.433,0v.865c-.071.148.071-.006,0,0l-.433-.865c.166.059.427-.071.433,0ZM3.85,7.5h.433c-.065.006-.3-.077-.433,0ZM2.12,27.4a2.028,2.028,0,0,0-.865,0v-.433c-.012-.112.291.03.433,0,.13-.012-.012-.189,0,0a1.225,1.225,0,0,1,.865-.433h0c-.071.591-.143.842-.433.865ZM23.316,5.34c-.1.012-.143-.244-.433-.865V4.042c.189-.018.226.232.433.865V5.34Zm-.433-2.163h0l-3.028-1.3c1.929.065,2.975.688,3.028,1.3ZM10.771,13.559h-.433l.433-.433v.433ZM10.339,7.07h.433V7.5c-.095.006-.279.16-.433.433V7.5c.183-.219.012-.314,0-.433ZM9.473,9.233v.433h0V9.233Zm-.433.865h.433a.446.446,0,0,1-.433.433h0c.124-.213.012-.32,0-.433Zm0,.865h0l-.433.433h0c.2-.018.45-.237.433-.433Zm-.433.865v.433H8.176v-.433ZM5.148,21.345c-.13.663-.285.853-.433.865h0a.984.984,0,0,1,.433-.865Zm-.433,1.3h0c.012.13-.3.427-.433.433v-.433c-.012-.112.3.03.433,0Zm-.433,2.6h.433c-.077.006-.308.362-.433.433h0c-.012-.1-.124-.4,0-.433Zm9.084-2.6a31.371,31.371,0,0,0-3.461,1.73c-1.869.651-2.613,1.138-2.6,1.3-1.662.657-2.934,1-3.461,1.3-.124.012-.2.107-.433,0A.91.91,0,0,1,3.85,26.1a1.86,1.86,0,0,1,.865,0,12.517,12.517,0,0,1,1.73-.433H5.58c.077-.106,1.051-.416,2.163-.865h0c-.526.047-.8.154-.865.433.012.124.3.012.433,0,.4-.248.438-.391.433-.433a25.88,25.88,0,0,0,6.489-3.028h0c.006.089-.279.439-.865.865Zm-5.623,1.73a1.915,1.915,0,0,0,1.3-.433c.142-.012.427-.124.433,0a2.772,2.772,0,0,0-1.3.433H7.743Zm8.651-6.489-2.6,2.163a15.308,15.308,0,0,1-3.028,1.73,22.639,22.639,0,0,1-6.056,2.6h0c.095-.349,1.664-2.93,4.326-8.219a22.626,22.626,0,0,0,5.191-1.73H15.1a3,3,0,0,1,2.6.865l.433.433a3.293,3.293,0,0,1-1.73,2.163ZM11.2,14.857h.433v.433H11.2v-.433Zm6.056-.865h0c.284.136.853.326.865.433h0a1.043,1.043,0,0,1-.865-.433Zm.865-4.758a10.075,10.075,0,0,1-2.163,1.73,26.062,26.062,0,0,0-4.758,1.73.893.893,0,0,0-.433,0v-.433a1.989,1.989,0,0,1,.433-1.3,2.621,2.621,0,0,1,.865-1.73l2.163-4.758c-.024-.3.351-.705,1.3-.865h.433v.433c.929-.142,1.505-.415,1.73-.433,1.716-.148,2.524.464,2.6,1.3h0V4.042h.433a1.86,1.86,0,0,1,.865,1.3c.024.272-.119.463-.433.865-.13.012-.421-.243-.433-.433h0v.865a3.5,3.5,0,0,1-2.163,1.73c-.355.491-.344.859-.433.865Zm1.3,3.461c-.178-.118-.326-.006-.433,0v-.433h.433c.018.136.136.421,0,.433Zm1.3,1.73c.189.077.409-.077.433,0H20.72c-.018,0,.018-.006,0,0v0Zm0,.865v-.433h.433v.433Zm.865.433c.254-.041.392.107.865,0h-.865c.012-.041-.006.036,0,0Zm.865.433c-.379.036-.262-.136-.865,0h.433l.433-.433v.433c-.166.036.189-.1,0,0Zm.433,0c-.089.024.041-.332,0-.433h.433c.1-.024-.024-.1,0,0l-.433.433Zm2.6-2.6h0Zm2.163,14.275a1.748,1.748,0,0,0,0-.433h0c.1-.024.409.338.433.433h-.433Zm1.73-13.41h-.433c-.266.107-.249-.041-.433,0h-.433c-.089.024.036.095,0,0l.865-.433h.433c-.172.036.071.367,0,.433Zm.865-.433H29.8c.053-.012.356.077.433,0l.865-.433h0a3.77,3.77,0,0,0-.865.433Zm0-1.73c-.053.012-.344.362-.433.433-.012-.053.2-.047,0,0-.036-.148.553-.593,1.73-.865h0v.433a2.1,2.1,0,0,1-1.3,0ZM32.4,10.1a1.907,1.907,0,0,1-1.3,1.73h-.865c-.118.03.095.03,0,0h0A25.107,25.107,0,0,1,32.4,8.8h0a1.642,1.642,0,0,1,0,1.3ZM35.86,7.07h.433c-.053.012-.332-.053-.433,0Zm-1.3,15.14a2.646,2.646,0,0,0-.865,0v-.433c-.006-.077.332.03.433,0,.1-.012-.012-.154,0,0,.254-.325.4-.433.433-.433H35c-.059.45-.22.847-.433.865ZM50.568,5.34c-.077.006-.2-.386-.433-.865h0c.148-.012.279.392.433.865Zm-.433-1.73h0l-2.163-.865c1.461.047,2.121.4,2.163.865ZM41.051,11.4h0Zm-.433-4.758h.433V7.07a1.044,1.044,0,0,0-.433.433V7.07c.136-.172.006-.344,0-.433Zm-.433,1.73V8.8h0V8.368Zm-.433.433h0c-.018.248.112.421,0,.433h0a.666.666,0,0,0,0-.433Zm0,.865h0l-.433.433h0c.16-.012.444-.285.433-.433Zm-.433.865Zm-2.6,6.921c-.1.5-.32.853-.433.865h0a1.322,1.322,0,0,1,.433-.865Zm-.433.865v.433c.012.106.107-.006,0,0h0c-.006-.077-.1-.4,0-.433Zm0,2.163h0c-.053.006.095.379,0,.433H35.86c-.006-.083.332-.409.433-.433Zm6.489-2.163a7.075,7.075,0,0,0-2.163,1.73c-1.42.5-2.175.741-2.163.865-1.26.5-2.205.634-2.6.865a.706.706,0,0,1-.433,0c-.024-.254.184-.279.433-.433.225-.018.237-.083.433,0a7.517,7.517,0,0,1,1.3-.433V20.48l-.433.433a3.2,3.2,0,0,1,1.3-.865h.433c-.4.036-.818.22-.865.433.006.095.332.012.433,0a.336.336,0,0,1,.433,0,28.316,28.316,0,0,0,4.758-2.6h0a6.6,6.6,0,0,0-.865.433Zm-3.893,1.73c.385-.036.593-.6.865-.865.1-.006.427.338.433.433a4.186,4.186,0,0,0-1.3.433Zm6.489-5.191-2.163,1.73a13.191,13.191,0,0,1-2.163,1.3C38.709,19.174,37.3,20,36.725,20.048h-.433c.071-.266,1.438-2.478,3.461-6.489a16.868,16.868,0,0,0,3.893-1.3h.433a2.677,2.677,0,0,1,2.163.433v.433c-.361,1.017-.439,1.547-.865,1.73Zm-3.893-2.163h0Zm4.326-.865h.433c.219.106-.006.356,0,.433h0c-.207.018-.255-.2-.433-.433Zm.865-3.461a9.591,9.591,0,0,1-1.73,1.3,20.858,20.858,0,0,0-3.461,1.3,1.517,1.517,0,0,0-.433,0h0a2.668,2.668,0,0,1,.433-1.3c.154-.816.255-1.191.433-1.3l1.73-3.893c-.018-.219.155-.3.865-.433h.433v.433a7.668,7.668,0,0,0,1.3-.433c1.3-.112,2.11.226,2.163.865h0V4.475h0c.379.207.842.569.865.865a1.758,1.758,0,0,1-.433.865c-.1.012.012-.279,0-.433H48.4v.433c-.657,1-1,1.707-1.3,1.73-.266.361-.356.427-.433.433Zm.433,2.6v-.433h0l.433.433c.006.095.1-.012,0,0-.142-.089-.356-.006-.433,0ZM19.855,25.238h-.433c.024.095-.1.456,0,.433s.456-.338.433-.433Zm-.865-1.3h0c.1-.024.024.095,0,0h0c-.095.024-.018-.095,0,0Zm4.326-7.786h0c-.024,0,.018.006,0,0-.041.012-.006-.041,0,0Zm0-2.163Zm41.527,6.056H64.41v.433l2.6-.433H64.843Zm2.6,0Zm9.949-1.3Zm-.433,0a14.234,14.234,0,0,1-2.6.433h.433c1.781-.2,2.181-.231,2.163-.433Zm-10.814-2.6h0c-.13.349-.439.373-.433.433h0c.124-.006.326-.024.433-.433Zm-2.163-1.3h0c.112-.012.012.1,0,0Zm4.758,4.758Zm9.517-2.163h.433c.065-.006.006.095,0,0V17.02c-.408.036-.534.249-.865.433h-.865c-.012-.148.065-.439,0-.433h0a2.161,2.161,0,0,0-.865.433c-.006-.053.03,0,0,0h-.433c-.006-.053.03,0,0,0h-.433a1.328,1.328,0,0,0,.433,0h0c-.929.231-.659.326-1.3.433a1.182,1.182,0,0,0-.433,0h0c-.071-.006.006-.356,0-.433h.433c.024,0-.183-.036,0,0,.266-.13.291.012.433,0h0c-.911.178-.589-.1-1.73,0h0a4.533,4.533,0,0,0,1.73-.433c.006.053-.03,0,0,0,.059-.059-.077.012,0,0h0c.515-.041.713.284,1.73,0h.433c-.012-.148.356-.427.433-.433h0c-1.787.361-2.531.291-3.028.433h0c-.467.083-.314-.006-.433,0-.036.006.059-.059,0,0-.006-.053.036,0,0,0H72.2c-.006-.041.036-.006,0,0a7.888,7.888,0,0,1-1.73.433c-.047.006.083-.053,0,0-.006-.041-.379-.006-.433,0h-.865c-.006-.041.053-.006,0,0a4.669,4.669,0,0,1-.865,0h0c-.107.012.083.035,0,0h0c-.189.018-.214-.006-.865,0-1.142.142-.741.427-.865.433H66.14c.006.041-.385,0-.433,0-.485-.065-.427-.344-.433-.433.065-.461.273-.421.433-.433h0c.154-.083.006.071,0,0v-.433h0a1.18,1.18,0,0,1,0-.433l.433-.433h0v-.433c.124-.107.356.006.433,0H66.14v-.433c.45-.935.877-1.144.865-1.3h0c.1-.006.006-.326,0-.433h0c-.012-.112-.047.095,0,0a1.318,1.318,0,0,0,.433-.865c.047-.006-.006-.053,0,0,.207-.118.314-.345.433-.865A22.989,22.989,0,0,0,69.6,7.5a17.584,17.584,0,0,0,1.3-4.758h0c.012.107-.385-.095-.433,0-.107-.041.059-.006,0,0h0c-.024-.3.149-.439.433-.865h0v.433h.433a2.592,2.592,0,0,1,0-.865c-.006-.077-.314.006-.433,0h0a7.723,7.723,0,0,1,0-.865h0c-.13-.13.006.089,0,0h-.865C70.028.523,69.66.262,69.6.149c-.006-.077.475.077.865,0h0c.006.053.373.006.433,0h0c.006.053-.059.006,0,0h0V-.283a7.576,7.576,0,0,1-.865,0v0c-3.969.325-6.383.812-6.921.865-.071.006-.374.012-.865,0,.006.065.118-.012,0,0h-.865a1.2,1.2,0,0,1-.433,0c-.089.071-.3-.012-.433,0a12.93,12.93,0,0,0,1.73,0c-.089.071-.243-.018-.433,0a.969.969,0,0,1-.433,0,5.49,5.49,0,0,1-1.3.433h0l-3.028.433a.967.967,0,0,0-.433,0c-.148.012-.09-.095-.433,0l-1.3.433v.433c.065-.006-.112-.367,0-.433h.865l-.433.433c-.438.2-.362.5-.433.865a3.3,3.3,0,0,0-1.3.865h.865v.433c.012.107-1.248,2.378-3.461,6.921-1.917,4.377-2.933,6.922-3.028,7.354-.657.183-1.185.51-1.3.865.012.112.487-.03.865,0v.433h-.433v.433c.018.177.79.338,1.73.433-.006-.059-.065.006,0,0a3.485,3.485,0,0,1,0,1.3h0a2.137,2.137,0,0,0,.433-1.3h0c.095-.006.314.2.433.433a7.986,7.986,0,0,0-1.3,2.6v.433h.433c.87-2.2,1.073-3.662,1.3-3.893,1.142-.1,3.252-.131,6.056-.433h0c.006.059.367.006.433,0h.433c.006.059-.065.006,0,0l2.163-.433c.562-.047.889-.143.865-.433-.006-.077.2.095.865,0a1.312,1.312,0,0,1,.433,0c-.006-.053.191-.373.865-.433a.4.4,0,0,1,.433-.433h0a3.836,3.836,0,0,0-.865,0c-.444-.024-.747.041-.865,0-.118.065-.367-.006-.433,0h-1.3c-.006-.053-.367-.006-.433,0h0c-.006-.053-.125.041-.433,0h-.865c1.9-.207,3.052-.558,3.028-.865.124-.012-.012.308,0,.433h.865v-.433H56.624c.006.059.065.427,0,.433h-.433c-.142.012-.338-.071-.433,0h-.433c-.574.047-1.014-.089-1.3,0a7.9,7.9,0,0,0-1.3,0h-1.3a22.33,22.33,0,0,1,1.73-4.326c.349-.9.558-1.517.865-1.73a1.053,1.053,0,0,1,.433,0h.865a7.742,7.742,0,0,0,2.163-.433,3.83,3.83,0,0,1,.865,0l.433-.433h1.73a9.709,9.709,0,0,0,2.163-.433h0c-.308.03-.421-.308-.433-.433-.018-.231-.433-.036-.865,0V9.666h1.73V9.233c-.047.006-.416.018-.865,0h.433c.124-.012.444-.314.433-.433-.621.018-.859.083-.865,0-4.33.213-6.909.136-6.921,0-.065.006.118.362,0,.433V8.8c1.147-2.437,1.535-3.443,1.73-3.461a.585.585,0,0,1,0,.433h0c.455-1.088.978-1.707,1.3-1.73,1.361-.118-.315-.41,2.6-.865.118.053.373.439.433.433,1.142-.231,2.717-.617,4.758-.865h-1.3V2.312c.13-.012.344.071.433,0h0c.059-.006.326.071.433,0a.873.873,0,0,1,.433,0,3.205,3.205,0,0,1,.865,0h.433c.166-.106.439-.344.433-.433h0a1.055,1.055,0,0,1-.433,0c-.006-.095-.112-.4,0-.433h1.73c.006.065-.047,0,0,0s.326-.362.433-.433c.03.006-.03.427,0,.433-.077.16.089.131,0,.433h-.433c-.012-.112.053-.344,0-.433h0C67.63,5.73,66.695,8.107,65.275,11.4c-.26.84-.243,1.2-.433,1.3.006.095-.1.012,0,0,.036.414.231.9,0,1.3a7.592,7.592,0,0,1-1.73,3.028l.433.865c.006.095.1.421,0,.433h-.433c-.024-.249.16-.45,0-.433H62.68a2.286,2.286,0,0,0-.433.865h.433c.207-.136.018-.249,0-.433h.433c-.142.225-.012.729,0,.865h0v.433h0c.178-.018.225.308.433.433.142-.012.261-.32.433-.433.178-.018,1.021,0,2.163,0h.433a11.817,11.817,0,0,0,1.3,0l.433-.433h0c.633-.053.8.373,1.3.433h-.433c.106-.012.356.065.433,0,.089-.006-.006-.107,0,0-.142.012-.255-.059-.433,0h0c-.242.065-.267.421-.433.433l-.433-.433c.006.041.041.433,0,.433.006.095-.089.006,0,0h1.73l.433-.433c.006.041-.041.439,0,.433l.433-.433h.433c.343-.03.12.118.865,0-.006-.047.4.006.433,0h0c1.213-.207,1.1-.367,1.3-.433h0c.3-.071-.083.059,0,0,.006.053.4,0,.433,0h-.433c-.29.059-.243-.018-.433,0h-.433v0a29.357,29.357,0,0,0,5.191-.865c.213-.018.3-.066.433-.433a1.512,1.512,0,0,1-.433,0c-.325.124-.238-.1-.865,0-.053.006.018.095,0,0v-.433h.433c.112-.012.107.183.433,0,0,.053-.071.006,0,0Zm-28.982.433h-.433a4.966,4.966,0,0,1,.433-1.3H49.7a7.24,7.24,0,0,1-.433,1.3Zm.433-1.3h0c-.006-.095-.13.03,0,0h0c.006.112.13-.012,0,0Zm3.461,3.028Zm-.433,0c.006.095-.125-.106-.433,0h.433Zm3.893-17.3h-.433c-.006-.095-.118-.4,0-.433h.433c.006.112.124.421,0,.433Zm3.893-.865h0c-.006-.095-.112.03,0,0Zm-.865.433h-.433V1.447a11.711,11.711,0,0,0,1.3,0c.006.065-.107.012,0,0V1.88h0a.967.967,0,0,1-.433,0c-.1.065-.314-.012-.433,0Zm.433,1.3Zm.865-.433Zm0-1.3h.865a3.814,3.814,0,0,0-.865,0Zm.433,1.73h.433c.112-.012-.006-.118,0,0Zm2.163-2.6H62.68a1.28,1.28,0,0,1-.433,0c.55-.036,1.1.03,1.3,0Zm-.433,1.73Zm.865.433c-.006-.071-.2.024-.433,0H62.68c-.1-.071-.427.036-.433,0h2.6a6.013,6.013,0,0,0-.865,0Zm6.056-1.3c.071.006-.018,0,0,0,.207-.2.6-.753.865-.865a4.687,4.687,0,0,1-1.3,2.163h0a8.063,8.063,0,0,0,.433-1.3Zm-1.3,1.73h.433c-.112.213-.35-.006-.433,0h0c.053,0-.1.065,0,0Zm-.433,1.3c.16-.639.291-.77.433-.865h0c-.083.591-.261.842-.433.865v.433c-.142.2-.006.314,0,.433h-.433V4.908a.98.98,0,0,0,.433-.433Zm-.433.865a1.956,1.956,0,0,1,0,.865h0V5.773c.112-.26-.065-.427,0-.433ZM63.112,19.182h.433v.433c-.083.006-.409-.326-.433-.433Zm6.921.433c-.006-.053.053-.439,0-.433l-.433.433v-.433h.865c-.266.012-.379.373-.433.433Zm-.433-.433c.036.018.018-.012,0,0-.018-.006-.041.024,0,0Zm0-.865h0l.433-.433c.006.047-.053.006,0,0a3.669,3.669,0,0,1,.865,0c.077-.006-.006-.095,0,0l-1.3.433Zm1.73-.433a1.3,1.3,0,0,0-.433,0h.433c-.047.006.077-.059,0,0Zm0,0Zm.865,0h0c.041-.006-.077.059,0,0,.124-.012-.012-.095,0,0Zm.433,0Zm.433,0c-.006-.089-.077-.421,0-.433l.433.433c-.006-.041-.036.006,0,0h-.433Zm6.056-.865Zm0,0c.047-.03.112.018,0,0-.053.059.118-.006,0,0h0c.012-.012-.024.018,0,0h0l-.433.433.433-.433Zm.433.433h.433c-.006-.095-.356,0-.433,0Z" transform="translate(0.076 0.283)" fill="#fff"/>
    </g>
  </g>
</svg>
