<svg xmlns="http://www.w3.org/2000/svg" width="84" height="39" viewBox="0 0 84 39">
  <g id="babel" transform="translate(0 0.162)">
    <rect id="box" width="84" height="39" rx="10" transform="translate(0 -0.162)" fill="#f9dc3e"/>
    <g id="babel-2" data-name="babel" transform="translate(14.365 8.361)">
      <path id="Path_139" data-name="Path 139" d="M39.8,4.446v-.3h-.3v.3Zm1.2,3h.3c0-.041-.029.082,0,0v-.3a.521.521,0,0,0-.3.3Zm-5.1,3.9c-.008-.111-.219-.441-.9-1.2-.012-.139.12-.325.6-.6l1.5-1.2a4.191,4.191,0,0,0,.6-2.1h0c-.053-.607-.667-1.126-1.5-1.5a5.392,5.392,0,0,0-2.7-.6,15.009,15.009,0,0,0-3.9,1.2c-.467.336-1.2.563-1.8.9v.3c.037,0,.234-.255.3-.3.07-.008,0,.234,0,.3l.3-.3h0v.3a5.532,5.532,0,0,0-1.2.6v.3h0c0,.037-.2-.008-.3,0h0l.3.3c-.037,0-.222-.271-.3-.3a1.081,1.081,0,0,0-.6.3v-.3a24.9,24.9,0,0,0,.6-2.7h0a3.315,3.315,0,0,1-.6-.6c0-.127,0-.283,0-.3h0c-.541.812-1.452,2.237-3,4.2a14.671,14.671,0,0,0-1.8,2.4c-.48.5-.924.8-.9.9-.127.082-.02.21,0,.3-.037.008.008.037,0,0a1.316,1.316,0,0,1-.9.6h-.6c-.057.012,0-.07,0,0v.3l.3-.3v.3h-.6l-.6.3h-.3c-.049.049.423-.029.3,0h-.6c-.254.057-.275.1-.3,0h0c.008.045.008-.029,0,0h-.6a5.129,5.129,0,0,0-1.2-1.8c-.016-.189.264-.243.9-.6l1.8-1.8a4.358,4.358,0,0,0,.6-2.4v-.3c-.07-.8-.4-1.3-1.5-1.8a7.046,7.046,0,0,0-3.6-.9,20.914,20.914,0,0,0-5.4,1.5,20.764,20.764,0,0,1-2.1,1.5h0c.053,0-.086.049,0,0,.09-.008.292-.082.3,0h.3a7.7,7.7,0,0,1-1.5,1.2v.3h0l-.3-.3c0,.041.143.287,0,.3h0v.3c-.053,0-.205-.267-.3-.3-.32.029-.592.465-.9.9h0a1.154,1.154,0,0,1,.6-.3v.3c-.045,0-.206-.049-.3,0l.3.3a6.359,6.359,0,0,1,1.2-.9c.193.049.3-.066.3,0h0a9.913,9.913,0,0,1,3-1.5h.3a.759.759,0,0,1-.6.3c.008.1.238.226.3.3a34.485,34.485,0,0,1-1.5,3.6,99.647,99.647,0,0,1-5.4,11.39c0,.049-.053.218,0,.3a1.192,1.192,0,0,0,.6-.3h.3c0,.041.206.008.3,0v.3c.012.135-.136.317-.3.6-.148.168-.132.362-.3.9h0a9.181,9.181,0,0,0,1.5-1.8,20.7,20.7,0,0,0,3.9-1.5,3.743,3.743,0,0,0,2.1-.6v-.3l-.6.3h0v-.3a4.169,4.169,0,0,0,1.5-.3c1.308-1.008,2.329-1.676,3-2.1a7.935,7.935,0,0,0,2.7-3c.074-.016-.082.02,0,0,.193-.008.571.008.6,0-.008-.037-.037-.292,0-.3.307-.033.1.045.3,0h.6c-.033.008-.308-.033-.3,0h.3c-.016,0,.012,0,0,0h0c.057.008-.07.016,0,0h0l-2.1,3.9-.6.6-.3.9h.3v.3h0c-.033.008-.008-.037,0,0v.3h0a1.012,1.012,0,0,0,.3-.6.625.625,0,0,0,.3,0v.3c-.1.025.008-.139,0,0v.3h0c.853-.931,2.82-4.134,4.5-6.295-.053-.234.894-.781,2.7-1.2h0a4.724,4.724,0,0,1-.3,2.1,5.085,5.085,0,0,0-.3,1.2,5.4,5.4,0,0,1-.6,1.2l-.6,2.1a21.38,21.38,0,0,0-.9,3.6,1.035,1.035,0,0,1,.3,0h0c.008.037-.037.008,0,0v-.3h.3a.453.453,0,0,0,.3-.3c-.012-.283-.127-.267,0-.3.172-.672.263-1.187.3-1.2a3,3,0,0,1,.6-1.2c.242-.869.185-1.17.3-1.2h0v.6a24.183,24.183,0,0,1-.9,3.3v.3h0a89.645,89.645,0,0,0,3.3-9.892,1.1,1.1,0,0,1,.6-.9h0c.164-.037.234-.21.3-.3a.349.349,0,0,0-.3-.3l.6-3c.156-.139.271-.3.3-.3v.3c-.037,0-.234-.045-.3,0l.3.3a4.517,4.517,0,0,1,.9-.6c.148.041-.008-.049,0,0h.3a8.359,8.359,0,0,1,2.4-1.2h0c-.143.217-.246.3-.3.3.008.074-.037.242,0,.3.012.135-.478,1.025-1.2,2.7a85.609,85.609,0,0,1-3.9,8.693c0,.037-.045-.066,0,0a1.584,1.584,0,0,0,.6-.3h0v.3h0c0,.029.23,0,.3,0h0a2.089,2.089,0,0,1-.3.6,1.237,1.237,0,0,0-.3.6h0a7.866,7.866,0,0,0,1.2-1.5,19.738,19.738,0,0,0,3-.9,2.515,2.515,0,0,0,1.5-.6h-.3a3.274,3.274,0,0,0,1.2-.3c.992-.762,1.59-1.479,2.1-1.8,1.582-1.152,2.188-2.236,2.1-3.3Zm0,0v.6c-.049.1-.251,0-.3,0v-.6c.115.041.3-.049.3,0ZM4.731,8.043h.3c-.045,0-.21-.053-.3,0Zm-1.5,13.788c-.164-.074-.173-.012-.3,0v-.3c-.008-.078-.1.02,0,0s.292.169.3.3a2.044,2.044,0,0,0,.3-.6h.3a.683.683,0,0,1-.6.6ZM18.219,6.544a1.014,1.014,0,0,1-.6-.6v-.3c.131-.012.456.161.6.6v.3Zm-.3-1.5h0l-2.1-.9c1.336.045,2.061.477,2.1.9ZM9.527,12.24h0Zm-.3-4.5h0v.3c-.066,0-.193.111-.3.3h0a1.651,1.651,0,0,0,.3-.6Zm-.6,1.5v.3h0v-.3Zm-.3.6h0c-.012.221.111.292,0,.3h0c.086-.148.008-.222,0-.3Zm-.3.6h0v.3h0c.135-.012.012-.164,0-.3Zm-.3.6v.3h0v-.3Zm-2.1,6.594c-.09.459-.2.591-.3.6h0a.682.682,0,0,1,.3-.6Zm-.6.9h0c.008.09.09.3,0,.3h0c-.008-.078-.09-.279,0-.3Zm0,1.8h.3v.3c-.053,0-.214-.049-.3,0h0c-.008-.07-.086-.275,0-.3Zm5.995-1.8a10.977,10.977,0,0,0-2.1,1.2c-1.3.451-1.811.789-1.8.9-1.152.455-2.033.69-2.4.9-.086.008-.136.074-.3,0a.631.631,0,0,1,.3-.6,1.287,1.287,0,0,1,.6,0,8.678,8.678,0,0,1,1.2-.3h-.6a4.6,4.6,0,0,1,1.2-.6h.3c-.365.033-.554.107-.6.3.008.086-.09.008,0,0,.275-.172.6-.271.6-.3a18.477,18.477,0,0,0,4.2-2.1h0c0,.061-.194.3-.6.6Zm-3.6,1.2a1.327,1.327,0,0,0,.9-.3c.1-.008.3-.086.3,0a6.25,6.25,0,0,0-1.2.6h0v-.3Zm5.995-4.5-1.8,1.5a8.814,8.814,0,0,1-2.4,1.2,15.723,15.723,0,0,1-3.9,1.8v.3a53.442,53.442,0,0,1,2.7-5.995,16.814,16.814,0,0,0,3.9-1.2h.3a2.768,2.768,0,0,1,2.1.6v.3c-.328.943-.51,1.339-.9,1.5Zm-3.6-1.8.3-.3v.3Zm3.9-.9h.3c.2.094.292.226.3.3h0a.723.723,0,0,1-.6-.3Zm.6-3.3a6.979,6.979,0,0,1-1.5,1.2,20.354,20.354,0,0,0-3,1.2.617.617,0,0,0-.3,0h0a2.193,2.193,0,0,1,.3-1.2c.139-.738.132-1.1.3-1.2l1.5-3.3c-.016-.209.543-.489,1.2-.6h0v.3c.643-.1,1.043-.287,1.2-.3,1.189-.1,2.049.321,2.1.9h0v-.6h0a1.289,1.289,0,0,1,.6.9c.016.189-.082.321-.3.6-.09.008.008-.169,0-.3l-.3.3v.3c-.6.9-.928,1.474-1.2,1.5a.653.653,0,0,1-.6.3Zm.9,2.4c-.123-.082-.226,0-.3,0v-.3h.3l.3.3c.012.094-.205-.008-.3,0Zm1.2,1.2c.131.053-.016-.053,0,0h0c-.012,0,.012,0,0,0v0Zm0,.6h0v0Zm.3.3c.176-.029.272.074.6,0h0l-.6.3c.008-.029,0-.275,0-.3Zm.6.3c-.262.025-.181-.094-.6,0h.9c-.111.025-.169-.07-.3,0Zm.6,0c-.062.016.029-.23,0-.3h0c.07-.016.283.23.3.3Zm1.5-1.8Zm1.5,9.892c.016-.074.308.037.3,0h0c.07-.016-.016-.066,0,0h-.3Zm1.2-9.292h0c-.185.074-.472-.029-.6,0h0c-.061.016-.275.066-.3,0l.9-.3h.3c-.119.025-.251.255-.3.3Zm.6-.3h0c.037-.008.246.053.3,0l.3-.3h0a2.615,2.615,0,0,0-.6.3Zm0-.9c-.037.008.062-.049,0,0-.008-.037-.16-.033-.3,0-.024-.1.383-.411,1.2-.6h.3v.3c-.574.168-1.138.287-1.2.3Zm1.5-1.8c-.057.652-.194,1.1-.6,1.2h-.6a.737.737,0,0,1-.3,0h0a17.381,17.381,0,0,1,1.5-2.1h.3c.045.189-.115.387-.3.9Zm2.7-2.1h0c-.037.008.07-.037,0,0Zm-1.2,10.491c-.123-.057-.206-.008-.3,0v-.3c0-.053-.07.02,0,0s.292-.107.3,0c.176-.225.279-.3.3-.3h0c-.041.312-.152.587-.3.6ZM37.1,6.544c-.053,0-.14-.267-.3-.6h-.3a1.022,1.022,0,0,1,.6.6Zm-.3-1.2h0l-1.5-.6c1.012.033,1.47.28,1.5.6Zm-6.295,5.7h-.3v-.3h.3v.3Zm-.3-3.6h0v.3c-.053,0,.078.156,0,.3v-.3c.094-.119,0-.238,0-.3Zm-.3,1.2v.3h-.3v-.3Zm-.3.3h0c-.012.172.078.292,0,.3h-.3c.061-.115.3-.238.3-.3Zm-.3.6h0v.3h0c.111-.008.008-.2,0-.3Zm0,.6h-.3v0Zm-1.8,4.8c-.07.344-.222.591-.3.6h0a.916.916,0,0,1,.3-.6Zm-.3.9h0c.008.074-.226,0-.3,0h0c0-.053.23.02.3,0Zm-.3,1.2h.3c-.037,0-.234.263-.3.3h0c0-.057-.07-.283,0-.3Zm4.8-1.2a18.176,18.176,0,0,0-1.8.9c-.984.344-1.507.513-1.5.6-.873.348-1.228.44-1.5.6a.489.489,0,0,1-.3,0c-.016-.176.128-.193.3-.3.156-.012.164-.057.3,0a5.2,5.2,0,0,1,.9-.3h-.3a2.217,2.217,0,0,1,.9-.6h0c-.279.025-.267.152-.3.3,0,.066-.07.008,0,0a.233.233,0,0,1,.3,0,19.626,19.626,0,0,0,3.3-1.8h0a.717.717,0,0,1-.3.6Zm-2.7.9a.893.893,0,0,0,.6-.3c.07-.008,0-.066,0,0a2.354,2.354,0,0,0-.6.3Zm4.2-3.6-1.2,1.2a6.478,6.478,0,0,1-1.8.9,15.08,15.08,0,0,1-3,1.5h0c.049-.184.7-1.717,2.1-4.5a12.835,12.835,0,0,0,3-.9h.3a1.855,1.855,0,0,1,1.5.3v.3a1.942,1.942,0,0,1-.9,1.2Zm-2.7-1.5h0Zm3.3-.6h0a.656.656,0,0,1,.3.3h0c-.144.012-.177-.136-.3-.3Zm.3-2.4a6.647,6.647,0,0,1-1.2.9,14.45,14.45,0,0,0-2.4.9c-.066-.025.078,0,0,0h0a1.85,1.85,0,0,1,.3-.9c.107-.566.177-.825.3-.9l1.2-2.7c-.012-.152.108-.205.6-.3h0l.3.3a5.32,5.32,0,0,0,.9-.3c.9-.078,1.162.157,1.2.6h.3v-.3h0a.65.65,0,0,1,.3.6c.012.148.156.39,0,.6-.07.008-.292-.193-.3-.3h0v.3c-.455.693-.99,1.183-1.2,1.2-.184.25-.246.3-.3.3Zm.6,1.8v-.3h0l.3.3c0,.066.07-.008,0,0-.1-.061-.247,0-.3,0ZM15.522,20.333h-.3c.016.066.23.316.3.3s.016-.234,0-.3Zm-.3-.9v.3c.07-.016.016-.234,0-.3h0c-.066.016-.012-.066,0,0Zm2.7-6.894h0Zm37.468,3.3a9.876,9.876,0,0,1-1.8.3h.3c1.234-.135,1.511-.16,1.5-.3Zm-6.894.9Zm-.6-2.7h-.3c-.09.242,0,.259,0,.3h0c.086,0,.226-.017.3-.3Zm7.494,1.8Zm-8.393.9h-.3v.3l1.8-.3H47Zm-.6-3.6h-.3c.078-.008.308.07.3,0Zm9.892,1.8h0c.045,0,0,.066,0,0h0c-.283.025-.37-.127-.6,0h-.3c-.008-.1.045,0,0,0h-.3c-.2.016-.2-.078-.3,0,0-.037.02,0,0,0h-.3c0-.037-.279,0-.3,0h0a.917.917,0,0,0,.3,0h0c-.643.16-.756.226-1.2.3-.049-.033.025,0,0,0h0c-.049,0,0,.053,0,0v-.3c.016,0,.173.275.3.3.185-.09.2-.292.3-.3h0c-.631.123-.408-.07-1.2,0h0c1.017-.123.551-.2.9-.3,0,.037-.02,0,0,0,.041-.041.246.008.3,0h0c.357-.029.494.2,1.2,0h.3c-.008-.1-.053-.3,0-.3h0c-1.238.25-1.454.2-1.8.3h0c-.324.057-.218,0-.3,0-.025,0-.259-.041-.3,0,0-.037.025,0,0,0h-.9c0-.029-.275,0-.3,0-.545.115-.17.234-.9.3-.033,0-.242-.037-.3,0,0-.029.037,0,0,0h-.6c0-.029-.263,0-.3,0-.168.045-.181-.008-.3,0h0c-.074.008.057.025,0,0v.3c-.131.012-.149-.3-.6-.3a1.6,1.6,0,0,0-.9.3h-.3c0,.029.033,0,0,0a.859.859,0,0,1-.6-.3c.045-.32.189-.292.3-.3h0c.107-.057.3.049.3,0v-.3h-.3c-.008-.078.271-.242.3-.3v-.3h.3c.086-.074-.053-.3,0-.3h0a2.509,2.509,0,0,0,.3-1.2h.3c.07,0,0,.074,0,0h-.3v-.3c-.008-.078.267.066.3,0,.168-.176.016-.415,0-.6.033,0,.3-.037.3,0,.143-.082.218-.239.3-.6.254-.459.428-1.324.9-2.7.9-2.427,1.072-2.723,1.2-3.3h-.3a.74.74,0,0,1,0,.3c-.074-.029.041-.3,0-.3h0c-.016-.209-.2-.3,0-.6h.3v.3h0a1.8,1.8,0,0,1,0-.6c0-.053.082,0,0,0h0a5.353,5.353,0,0,1,0-.6h0c-.09-.09-.3.061-.3,0h-.6c0-.041.041-.222,0-.3,0-.053.029.053.3,0h.3c0,.037-.041,0,0,0h.3c0,.037-.041,0,0,0h0v-.3a5.2,5.2,0,0,1-.6,0l-.3.3v-.3c-2.75.225-4.123.563-4.5.6-.049,0-.259.008-.6,0,0,.045-.218-.008-.3,0h-.3a3.585,3.585,0,0,1-.6,0c-.061.049-.21-.008-.3,0a8.959,8.959,0,0,0,1.2,0c-.061.049-.169-.012-.3,0-.09.008.066.037,0,0a3.8,3.8,0,0,1-.9.3h-.3l-1.8.3a.67.67,0,0,0-.3,0,2.041,2.041,0,0,0-.6,0l-.9.3v.3c.045,0,.222-.255.3-.3l.3.3v.3a.952.952,0,0,0-.6.6c-.455.2-.6.214-.6.3h.3v.3a38.577,38.577,0,0,1-2.1,4.8c-1.328,3.033-2.033,4.8-2.1,5.1-.455.127-.821.354-.9.6.008.078.037-.02.3,0v.3h0v.3c.012.123.248.234.9.3,0-.041.255,0,.3,0,.012.148-.205.473-.3.9h0c.27-.369.612-.76.6-.9h0c.066,0,.218.14.3.3a12.647,12.647,0,0,0-.9,2.1h0a17.293,17.293,0,0,1,1.2-2.7c.791-.07,2.253-.091,4.2-.3h0c0,.041-.045,0,0,0h.3c0,.041-.045,0,0,0h1.5a.656.656,0,0,0,.6-.6c0-.053.136.066.6,0a.907.907,0,0,1,.3,0c0-.037.132-.259.6-.3a.28.28,0,0,1,.3-.3h0c-.131.012-.128-.057-.3,0-.307-.016-.517.029-.6,0-.082.045-.255,0-.3,0H42.8c0-.037.045,0,0,0h0l-.3.3a.4.4,0,0,0-.3-.3h0l-.3.3v-.3c1.32-.143,2.115-.087,2.1-.3.086-.008-.008-.086,0,0h.3v-.3h-3a1,1,0,0,1-.3.3h-.3c-.1.008-.234-.049-.3,0h0c-.4.033-.7-.061-.9,0a5.472,5.472,0,0,0-.9,0H37.4c-.016-.209.663-1.153,1.5-3,.242-.623.386-1.051.6-1.2.045,0-.09-.037,0,0h.9a5.365,5.365,0,0,0,1.5-.3.657.657,0,0,1,.3,0l.3-.3h1.2a9.3,9.3,0,0,0,1.8-.3h0a.819.819,0,0,1-.6-.3c-.012-.16,0-.024-.3,0v-.3h1.2v-.3c-.033,0-.288.012-.6,0h.3c.086-.008.008-.218,0-.3-.43.012-.6.057-.6,0a21,21,0,0,1-4.5,0c-.045,0-.218.251-.3.3v-.3c.8-1.689,1.363-2.386,1.5-2.4,0,.066.074.156,0,.3h0c.316-.754.678-1.183.9-1.2a16.423,16.423,0,0,0,1.8-.3.731.731,0,0,0,.3,0c.791-.16,1.883-.427,3.3-.6H47v-.3c.09-.008.238.049.3,0h0c.041,0-.074.049,0,0a.6.6,0,0,1,.3,0,2.221,2.221,0,0,1,.6,0h.6c.115-.074.3-.238.3-.3h0a2.924,2.924,0,0,1-.6,0c0-.066.222-.279.3-.3h1.2c0,.045-.033,0,0,0s.226.049.3,0h0c-.053.111-.238.091-.3.3h0c-.008-.078.037.062,0,0h-.3c-1.066,2.968-1.414,4.315-2.4,6.594a1.5,1.5,0,0,1-.6.9c0,.066.23.008.3,0a1.719,1.719,0,0,1-.3.9,7.764,7.764,0,0,1-.9,2.1v.6c0,.066.07.292,0,.3h0a.338.338,0,0,0-.3-.3h0a1.586,1.586,0,0,0-.3.6h0c.144-.094.312-.173.3-.3h.3c-.1.156-.008.505,0,.6h0l-.3.3h0c.123-.012.456.214.6.3.1-.008.181-.222.3-.3.123-.012.408,0,1.2,0h.6a8.215,8.215,0,0,0,.9,0h0l.3-.3v.3a1.531,1.531,0,0,1,.6,0h0c.074-.008-.053.045,0,0,.061,0,.3-.074.3,0-.1.008-.177.259-.3.3l-.3-.3c-.168.045-.185.292-.3.3h0c0,.029.029,0,0,0,0,.066-.061,0,0,0h1.2l.3-.3c0,.029-.029.3,0,.3v-.3h.3a4.154,4.154,0,0,0,.9,0c0-.033-.025,0,0,0h0a5.512,5.512,0,0,0,1.2-.3h0c.209-.049-.057.041,0,0,0,.037-.02,0,0,0h-.3c-.2.041-.169-.012-.3,0h0v0a20.341,20.341,0,0,0,3.6-.6c.148-.012.205-.046.3-.3a1.048,1.048,0,0,1-.3,0c-.225.086-.465-.07-.9,0-.037,0,.012.066,0,0h.6c.078-.008.074-.173.3-.3,0,.037-.049,0,0,0Zm-20.083.3h-.3a3.446,3.446,0,0,1,.3-.9h0a1.474,1.474,0,0,1,0,.9Zm0-.9h0c0-.066.21.02.3,0h0c0,.078-.21-.008-.3,0Zm2.7,2.1Zm-.3,0c0,.066-.087-.074-.3,0h.3ZM41,4.446h0c0-.066-.082-.279,0-.3h.3c0,.078-.214.292-.3.3Zm3-.6h0c0-.066-.078.02,0,0Zm-.6.3h-.3c.381-.033.366-.234.6-.3,0,.045.226.008.3,0v.3h-.3a.672.672,0,0,1-.3,0c-.07.045.082-.008,0,0Zm.3.9Zm.6-.3Zm0-.9h.3c-.135.012-.091-.057-.3,0Zm.3,1.2h0c.078-.008.3-.082.3,0Zm1.2-1.8h-.3a3.622,3.622,0,0,1-.6,0c.381-.025.764.02.9,0Zm-.3,1.2h0l-.3.3v-.3Zm.6.3c0-.049.16.016,0,0h-.9c-.07-.049,0,.025,0,0h1.5a4.167,4.167,0,0,0-.6,0Zm4.2-.9c.049,0,.287,0,.3,0,.144-.139.115-.222.3-.3a2.019,2.019,0,0,1-.6,1.2h-.3a5.612,5.612,0,0,0,.3-.9Zm-.6,1.2h0c-.078.148-.242,0-.3,0h0c.037,0,.23.045.3,0Zm-.6.9a.928.928,0,0,1,.6-.6h0c-.057.41-.181.583-.3.6v.3c-.1.139-.3.218-.3.3h0v-.3c.066-.008-.037-.193,0-.3Zm0,.6c0,.062-.218.378-.3.6h0v-.3a.572.572,0,0,1,.3-.3Zm-3.3,9.592h0v.3c-.057,0,.016-.226,0-.3Zm4.8.3c0-.037-.263,0-.3,0h0v-.3h.6c-.185.008-.263.259-.3.3Zm-.3-.3c.025.012.012-.008,0,0s-.029.016,0,0Zm0-.6h0v-.3a1.226,1.226,0,0,0,.3.3c.332-.057.14-.287.3-.3.053,0,0,.234,0,.3Zm1.2-.3a.9.9,0,0,0-.3,0h.3c-.033,0,.053-.041,0,0Zm0,0Zm.3,0h0c.029,0,.246.041.3,0,.086-.008-.008-.066,0,0Zm.6,0Zm.3,0c0-.061-.053.008,0,0h0c0-.029-.025,0,0,0h0Zm-3.3,1.2Zm7.194-1.8c.033-.02.078.012,0,0-.037.041.082,0,0,0h0c.008-.008-.016.012,0,0h0v.3l.3-.3h-.3Zm.3.3h.3c0-.066-.247,0-.3,0Zm-.3-.3Z" transform="translate(-1.711 -2.348)"/>
      <path id="Path_140" data-name="Path 140" d="M39.214,4.513h0c0-.041-.029.082,0,0v-.3c-.057,0,.053.136,0,.3Zm-1.5-3v-.3h0v.3Zm-3.6,6.894c-.008-.111-.519-.441-1.2-1.2-.012-.139.42-.325.9-.6l1.2-1.2a4.191,4.191,0,0,0,.6-2.1h0a1.75,1.75,0,0,0-1.2-1.5,5.394,5.394,0,0,0-2.7-.6,16.528,16.528,0,0,0-4.2,1.2,15.067,15.067,0,0,1-1.5.9h0c.037,0-.066.045,0,0,.07-.008.3.234.3.3v-.3h0a7.936,7.936,0,0,1-1.2.9l.3.3h-.3c0,.037-.2-.008-.3,0h.3a.908.908,0,0,1-.3,0c-.172.016-.132.128-.3.3v-.3a24.873,24.873,0,0,0,.6-2.7h0a3.315,3.315,0,0,1-.6-.6c0-.127,0-.283,0-.3h0c-.541.812-1.752,2.237-3.3,4.2a14.663,14.663,0,0,0-1.8,2.4c-.48.5-.624.8-.6.9-.127.082-.32.21-.3.3-.037.008.008-.263,0-.3-.2.332-.493.8-.9.9h-.3c-.057.012-.3-.07-.3,0v.3l.3-.3v.3h-.9l-.3.3c-.049.049.123-.029,0,0h-.3c-.254.057-.575.1-.6,0h0c.008.045.008-.029,0,0h-.3a11.78,11.78,0,0,0-1.5-1.8c-.016-.189.264-.243.9-.6l1.8-1.8a4.211,4.211,0,0,0,.9-2.4v-.3c-.07-.8-.7-1.3-1.8-1.8a7.045,7.045,0,0,0-3.6-.9,20.911,20.911,0,0,0-5.4,1.5,20.764,20.764,0,0,1-2.1,1.5h0c.053,0,.214.049.3,0,.09-.008-.008-.082,0,0h.3a7.7,7.7,0,0,1-1.5,1.2h0c0,.041-.156.287-.3.3h0c-.053,0,.094.033,0,0-.32.029-.592.465-.9.9h0c.266-.246.255-.3.3-.3h0c-.045,0,.094.251,0,.3v.3a6.367,6.367,0,0,1,1.2-.9c.193.049.3-.066.3,0h0a12.694,12.694,0,0,1,3.3-1.8v.3c-.193.287-.23.292-.3.3.008.1-.061.226,0,.3a34.543,34.543,0,0,1-1.5,3.6A99.638,99.638,0,0,1-.053,19.2c0,.049-.053.218,0,.3a3.425,3.425,0,0,0,.9-.3h.3c0,.041-.094.008,0,0h0c.012.135.164.616,0,.9a2.013,2.013,0,0,0-.6.9h0a9.185,9.185,0,0,0,1.5-1.8,20.711,20.711,0,0,0,3.9-1.5,3.781,3.781,0,0,0,2.1-.9h0l-.3.3h0v-.3c.672-.1.941-.095,1.2-.3,1.308-1.008,2.329-1.676,3-2.1a7.935,7.935,0,0,0,2.7-3c.074-.016.218.02.3,0,.193-.008.271.008.3,0-.008-.037-.037-.292,0-.3.307-.033.1.045.3,0h.6a1.221,1.221,0,0,0,.3,0h0l-2.4,3.9-.6.6-.3.9h.3v.3h0c-.033.008-.008-.037,0,0v.3l.3-.3c.156-.135.025-.189,0-.3a2.621,2.621,0,0,0,.6,0h0c-.1.025-.292.16-.3.3h0c.853-.931,3.119-3.835,4.8-5.995-.053-.234.594-.781,2.4-1.2h.3a8.343,8.343,0,0,1-.6,2.1,5.083,5.083,0,0,0-.3,1.2,3.754,3.754,0,0,0-.3,1.2l-.6,2.1a21.369,21.369,0,0,0-.9,3.6c.037-.008-.082-.02,0,0v-.3c.008.037.263.308.3.3v-.3h0a.453.453,0,0,0,.3-.3.66.66,0,0,1,.3-.6,2.712,2.712,0,0,1,.3-.9,7.5,7.5,0,0,1,.3-1.2c.242-.869.485-1.17.6-1.2h0l-.3.6a18.612,18.612,0,0,1-.9,3v.6h.3a89.63,89.63,0,0,0,3.3-9.892,1.1,1.1,0,0,1,.6-.9h-.3v-.3c.164-.037.234.09.3,0a.349.349,0,0,0-.3-.3l.6-3c.156-.139.271-.3.3-.3v.3c-.037,0,.066-.045,0,0v.3a6.432,6.432,0,0,1,.9-.9.579.579,0,0,1,.3.3h0a8.357,8.357,0,0,1,2.4-1.2h0c-.143.217-.247.3-.3.3.008.074-.037.242,0,.3a10.347,10.347,0,0,1-.9,2.7,66.416,66.416,0,0,1-4.2,8.393c0,.037-.045.234,0,.3a1.583,1.583,0,0,0,.6-.3h0v.3h0l.3-.3c0,.029-.07.3,0,.3h0c.008.1.127.087,0,.3a2.652,2.652,0,0,0-.6.9h.3a5.858,5.858,0,0,0,.9-1.5,19.744,19.744,0,0,0,3-.9,2.515,2.515,0,0,0,1.5-.6h-.3a3.277,3.277,0,0,0,1.2-.3c.992-.762,1.59-1.479,2.1-1.8,1.582-1.152,2.488-2.236,2.4-3.3Zm-.3,0v.6c-.049.1.049,0,0,0l-.3-.6c.115.041.3-.049.3,0ZM2.645,5.112h.3c-.045,0-.21-.053-.3,0ZM1.446,18.9a1.405,1.405,0,0,0-.6,0v-.3c-.008-.078.2.02.3,0s-.008-.131,0,0a.849.849,0,0,1,.6-.3h0c-.049.41-.1.583-.3.6ZM16.133,3.613c-.07.008-.1-.169-.3-.6v-.3c.131-.012.156.161.3.6v.3Zm-.3-1.5h0l-2.1-.9c1.336.045,2.061.477,2.1.9ZM7.44,9.309h-.3l.3-.3v.3Zm-.3-4.5h.3v.3c-.066,0-.193.111-.3.3v-.3c.127-.152.008-.218,0-.3Zm-.6,1.5v.3h0v-.3Zm-.3.6h.3a.309.309,0,0,1-.3.3h0c.086-.148.008-.222,0-.3Zm0,.6h0l-.3.3h0c.135-.012.312-.164.3-.3Zm-.3.6v.3h-.3v-.3ZM3.544,14.7c-.09.459-.2.591-.3.6h0a.682.682,0,0,1,.3-.6Zm-.3.9h0c.008.09-.21.3-.3.3v-.3c-.008-.078.21.02.3,0Zm-.3,1.8h.3c-.053,0-.214.251-.3.3h0c-.008-.07-.086-.275,0-.3Zm6.295-1.8a21.738,21.738,0,0,0-2.4,1.2c-1.3.451-1.811.789-1.8.9-1.152.455-2.033.69-2.4.9-.086.008-.136.074-.3,0a.631.631,0,0,1,.3-.6,1.289,1.289,0,0,1,.6,0,8.674,8.674,0,0,1,1.2-.3h-.6c.053-.074.728-.288,1.5-.6h0c-.365.033-.554.107-.6.3.008.086.21.008.3,0,.275-.172.3-.271.3-.3a17.934,17.934,0,0,0,4.5-2.1h0c0,.061-.194.3-.6.6Zm-3.9,1.2a1.327,1.327,0,0,0,.9-.3c.1-.008.3-.086.3,0a1.921,1.921,0,0,0-.9.3h-.3Zm5.995-4.5-1.8,1.5A10.608,10.608,0,0,1,7.44,15a15.687,15.687,0,0,1-4.2,1.8h0c.066-.242,1.153-2.031,3-5.7a15.678,15.678,0,0,0,3.6-1.2h.6a2.077,2.077,0,0,1,1.8.6l.3.3a2.282,2.282,0,0,1-1.2,1.5Zm-3.6-2.1h.3v.3h-.3v-.3Zm4.2-.6h0c.2.094.591.226.6.3h0a.723.723,0,0,1-.6-.3Zm.6-3.3a6.982,6.982,0,0,1-1.5,1.2,18.06,18.06,0,0,0-3.3,1.2.619.619,0,0,0-.3,0v-.3a1.378,1.378,0,0,1,.3-.9,1.816,1.816,0,0,1,.6-1.2l1.5-3.3c-.016-.209.243-.489.9-.6h.3v.3c.644-.1,1.043-.287,1.2-.3,1.189-.1,1.749.321,1.8.9h0v-.6h.3a1.289,1.289,0,0,1,.6.9c.016.189-.083.321-.3.6-.09.008-.292-.169-.3-.3h0v.6a2.424,2.424,0,0,1-1.5,1.2c-.246.34-.238.6-.3.6Zm.9,2.4c-.123-.082-.226,0-.3,0v-.3h.3c.012.094.094.292,0,.3Zm.9,1.2c.131.053.283-.053.3,0h-.3c-.012,0,.012,0,0,0v0Zm0,.6v-.3h.3v.3Zm.6.3c.176-.029.272.074.6,0h-.6c.008-.029,0,.025,0,0Zm.6.3c-.262.025-.181-.094-.6,0h.3l.3-.3v.3c-.115.025.131-.07,0,0Zm.3,0c-.061.016.029-.23,0-.3h.3c.07-.016-.016-.07,0,0l-.3.3Zm1.8-1.8h0Zm1.5,9.892a1.211,1.211,0,0,0,0-.3h0c.07-.016.283.234.3.3h-.3Zm1.2-9.292h-.3c-.184.074-.173-.029-.3,0h-.3c-.061.016.025.066,0,0l.6-.3h.3c-.119.025.049.255,0,.3Zm.6-.3h-.3c.037-.008.246.053.3,0l.6-.3h0a2.613,2.613,0,0,0-.6.3Zm0-1.2c-.037.008-.238.251-.3.3-.008-.037.139-.033,0,0-.025-.1.383-.411,1.2-.6h0v.3a1.456,1.456,0,0,1-.9,0Zm1.5-1.5a1.322,1.322,0,0,1-.9,1.2h-.6c-.082.02.066.02,0,0h0a17.4,17.4,0,0,1,1.5-2.1h0a1.138,1.138,0,0,1,0,.9Zm2.4-2.1h.3c-.037.008-.23-.037-.3,0Zm-.9,10.491a1.834,1.834,0,0,0-.6,0V15c0-.053.23.02.3,0s-.008-.107,0,0c.176-.225.279-.3.3-.3h.3c-.041.312-.152.587-.3.6ZM35.017,3.613c-.053,0-.14-.267-.3-.6h0c.1-.008.193.272.3.6Zm-.3-1.2h0l-1.5-.6c1.012.033,1.47.28,1.5.6Zm-6.295,5.4h0Zm-.3-3.3h.3v.3a.723.723,0,0,0-.3.3v-.3c.094-.119,0-.238,0-.3Zm-.3,1.2v.3h0v-.3Zm-.3.3h0c-.012.172.078.292,0,.3h0a.461.461,0,0,0,0-.3Zm0,.6h0l-.3.3h0c.111-.008.308-.2.3-.3Zm-.3.6Zm-1.8,4.8c-.07.344-.222.591-.3.6h0a.916.916,0,0,1,.3-.6Zm-.3.6v.3c.008.074.074,0,0,0h0c0-.053-.07-.279,0-.3Zm0,1.5h0c-.037,0,.066.263,0,.3h-.3c0-.057.23-.283.3-.3Zm4.5-1.5a4.9,4.9,0,0,0-1.5,1.2c-.984.344-1.507.513-1.5.6-.873.349-1.528.44-1.8.6a.489.489,0,0,1-.3,0c-.016-.176.127-.193.3-.3.156-.012.164-.057.3,0a5.209,5.209,0,0,1,.9-.3v-.3l-.3.3a2.215,2.215,0,0,1,.9-.6h.3c-.279.025-.567.152-.6.3,0,.066.23.008.3,0a.233.233,0,0,1,.3,0,19.621,19.621,0,0,0,3.3-1.8h0a4.575,4.575,0,0,0-.6.3Zm-2.7,1.2c.266-.025.411-.419.6-.6.07,0,.3.234.3.3a2.9,2.9,0,0,0-.9.3Zm4.5-3.6-1.5,1.2a9.14,9.14,0,0,1-1.5.9,15.08,15.08,0,0,1-3,1.5h-.3c.049-.184,1-1.717,2.4-4.5a11.689,11.689,0,0,0,2.7-.9h.3a1.855,1.855,0,0,1,1.5.3v.3c-.25.705-.3,1.072-.6,1.2Zm-2.7-1.5h0Zm3-.6h.3c.152.074,0,.246,0,.3h0c-.143.012-.177-.136-.3-.3Zm.6-2.4a6.646,6.646,0,0,1-1.2.9,14.454,14.454,0,0,0-2.4.9,1.051,1.051,0,0,0-.3,0h0a1.849,1.849,0,0,1,.3-.9c.107-.566.177-.825.3-.9l1.2-2.7c-.012-.152.108-.205.6-.3h.3v.3a5.313,5.313,0,0,0,.9-.3c.9-.078,1.462.157,1.5.6h0v-.3h0c.262.143.583.395.6.6a1.218,1.218,0,0,1-.3.6c-.07.008.008-.193,0-.3h-.3v.3c-.455.693-.69,1.183-.9,1.2-.184.25-.247.3-.3.3Zm.3,1.8v-.3h0l.3.3c0,.066.07-.008,0,0-.1-.061-.246,0-.3,0ZM13.735,17.4h-.3c.016.066-.07.316,0,.3s.316-.234.3-.3Zm-.6-.9h0c.07-.016.016.066,0,0h0c-.066.016-.012-.066,0,0Zm3-5.4h0c-.016,0,.012,0,0,0-.029.008,0-.029,0,0Zm0-1.5Zm28.776,4.2h-.3v.3l1.8-.3h-1.5Zm1.8,0Zm6.894-.9Zm-.3,0a9.863,9.863,0,0,1-1.8.3h.3c1.234-.135,1.511-.16,1.5-.3Zm-7.494-1.8h0c-.09.242-.3.259-.3.3h0c.086,0,.226-.017.3-.3Zm-1.5-.9h0c.078-.008.008.07,0,0Zm3.3,3.3Zm6.594-1.5h.3c.045,0,0,.066,0,0v-.3c-.283.025-.37.173-.6.3h-.6c-.008-.1.045-.3,0-.3h0a1.5,1.5,0,0,0-.6.3c0-.037.02,0,0,0h-.3c0-.037.02,0,0,0h-.3a.92.92,0,0,0,.3,0h0c-.644.16-.457.226-.9.3a.819.819,0,0,0-.3,0h0c-.049,0,0-.246,0-.3h.3c.016,0-.127-.025,0,0,.185-.09.2.008.3,0h0c-.631.123-.408-.07-1.2,0h0a3.141,3.141,0,0,0,1.2-.3c0,.037-.02,0,0,0,.041-.041-.053.008,0,0h0c.357-.029.494.2,1.2,0h.3c-.008-.1.247-.3.3-.3h0c-1.238.25-1.754.2-2.1.3h0c-.324.057-.218,0-.3,0-.025,0,.041-.041,0,0,0-.037.025,0,0,0H50c0-.029.025,0,0,0a5.466,5.466,0,0,1-1.2.3c-.033,0,.057-.037,0,0,0-.029-.263,0-.3,0h-.6c0-.029.037,0,0,0a3.236,3.236,0,0,1-.6,0h0c-.074.008.057.024,0,0h0c-.131.012-.149,0-.6,0-.791.1-.513.3-.6.3h-.3c0,.029-.267,0-.3,0-.336-.045-.3-.238-.3-.3.045-.32.189-.292.3-.3h0c.107-.057,0,.049,0,0v-.3h0a.817.817,0,0,1,0-.3l.3-.3h0v-.3c.086-.074.246,0,.3,0h-.3v-.3c.312-.648.608-.793.6-.9h0c.07,0,0-.226,0-.3h0c-.008-.078-.033.066,0,0a.913.913,0,0,0,.3-.6c.033,0,0-.037,0,0,.144-.082.218-.239.3-.6a15.93,15.93,0,0,0,1.2-2.7,12.184,12.184,0,0,0,.9-3.3h0c.008.074-.267-.066-.3,0-.074-.029.041,0,0,0h0c-.016-.209.1-.3.3-.6h0v.3h.3a1.8,1.8,0,0,1,0-.6c0-.053-.218,0-.3,0h0a5.352,5.352,0,0,1,0-.6h0c-.09-.09,0,.061,0,0h-.6c0-.041-.259-.222-.3-.3,0-.053.329.053.6,0h0c0,.037.259,0,.3,0h0c0,.037-.041,0,0,0h0v-.3a5.249,5.249,0,0,1-.6,0v0c-2.75.225-4.423.563-4.8.6-.049,0-.259.008-.6,0,0,.045.082-.008,0,0h-.6a.83.83,0,0,1-.3,0c-.061.049-.21-.008-.3,0a8.96,8.96,0,0,0,1.2,0c-.061.049-.169-.012-.3,0a.672.672,0,0,1-.3,0,3.8,3.8,0,0,1-.9.3h0l-2.1.3a.67.67,0,0,0-.3,0c-.1.008-.062-.066-.3,0l-.9.3v.3c.045,0-.078-.255,0-.3h.6l-.3.3c-.3.135-.251.345-.3.6a2.284,2.284,0,0,0-.9.6h.6v.3c.008.074-.865,1.648-2.4,4.8-1.328,3.033-2.033,4.8-2.1,5.1-.455.127-.821.354-.9.6.008.078.337-.02.6,0v.3h-.3v.3c.012.123.547.234,1.2.3,0-.041-.045,0,0,0a2.415,2.415,0,0,1,0,.9h0a1.481,1.481,0,0,0,.3-.9h0c.066,0,.218.14.3.3a5.534,5.534,0,0,0-.9,1.8v.3h.3c.6-1.525.744-2.538.9-2.7.791-.07,2.253-.091,4.2-.3h0c0,.041.255,0,.3,0h.3c0,.041-.045,0,0,0l1.5-.3c.389-.033.616-.1.6-.3,0-.053.136.066.6,0a.91.91,0,0,1,.3,0c0-.037.132-.259.6-.3a.28.28,0,0,1,.3-.3h0a2.658,2.658,0,0,0-.6,0c-.307-.016-.518.029-.6,0-.082.045-.255,0-.3,0h-.9c0-.037-.255,0-.3,0h0c0-.037-.087.029-.3,0h-.6c1.32-.143,2.115-.386,2.1-.6.086-.008-.008.214,0,.3h.6v-.3h-3.3c0,.041.045.3,0,.3h-.3c-.1.008-.234-.049-.3,0h-.3c-.4.033-.7-.062-.9,0a5.472,5.472,0,0,0-.9,0h-.9a15.473,15.473,0,0,1,1.2-3c.242-.623.386-1.051.6-1.2a.729.729,0,0,1,.3,0h.6a5.365,5.365,0,0,0,1.5-.3,2.654,2.654,0,0,1,.6,0l.3-.3h1.2a6.728,6.728,0,0,0,1.5-.3h0c-.213.02-.292-.214-.3-.3-.012-.16-.3-.025-.6,0v-.3h1.2v-.3c-.033,0-.288.012-.6,0h.3c.086-.008.308-.218.3-.3-.43.012-.6.057-.6,0a24.831,24.831,0,0,1-4.8,0c-.045,0,.082.251,0,.3v-.3a11.279,11.279,0,0,1,1.2-2.4.405.405,0,0,1,0,.3h0c.316-.754.678-1.183.9-1.2.943-.082-.218-.284,1.8-.6.082.037.259.3.3.3.791-.16,1.883-.427,3.3-.6h-.9v-.3c.09-.008.238.049.3,0h0c.041,0,.226.049.3,0a.605.605,0,0,1,.3,0,2.221,2.221,0,0,1,.6,0h.3c.115-.074.3-.238.3-.3h0a.731.731,0,0,1-.3,0c0-.066-.078-.279,0-.3h1.2c0,.045-.033,0,0,0s.226-.251.3-.3c.021,0-.02.3,0,.3-.053.111.062.091,0,.3h-.3c-.008-.078.037-.238,0-.3h0c-1.066,2.968-1.714,4.615-2.7,6.894-.18.582-.169.83-.3.9,0,.066-.07.008,0,0,.025.287.16.621,0,.9a5.261,5.261,0,0,1-1.2,2.1l.3.6c0,.066.07.292,0,.3h-.3c-.016-.172.111-.312,0-.3h-.3a1.584,1.584,0,0,0-.3.6h.3c.143-.094.012-.173,0-.3h.3c-.1.156-.008.505,0,.6h0v.3h0c.123-.012.156.214.3.3.1-.008.181-.222.3-.3.123-.012.708,0,1.5,0h.3a8.188,8.188,0,0,0,.9,0l.3-.3h0c.439-.037.555.259.9.3h-.3c.074-.008.246.045.3,0,.061,0,0-.074,0,0-.1.008-.177-.041-.3,0h0c-.168.045-.185.292-.3.3l-.3-.3c0,.029.029.3,0,.3,0,.066-.061,0,0,0h1.2l.3-.3c0,.029-.029.3,0,.3l.3-.3h.3c.238-.02.083.082.6,0,0-.033.275,0,.3,0h0c.84-.143.764-.255.9-.3h0c.209-.049-.057.041,0,0,0,.037.279,0,.3,0h-.3c-.2.041-.169-.012-.3,0h-.3v0a20.343,20.343,0,0,0,3.6-.6c.148-.012.205-.046.3-.3a1.048,1.048,0,0,1-.3,0c-.225.086-.165-.07-.6,0-.037,0,.012.066,0,0v-.3h.3c.078-.008.074.127.3,0,0,.037-.049,0,0,0Zm-20.083.3h-.3a3.441,3.441,0,0,1,.3-.9h.3a5.017,5.017,0,0,1-.3.9Zm.3-.9h0c0-.066-.09.02,0,0h0c0,.078.09-.008,0,0Zm2.4,2.1Zm-.3,0c0,.066-.087-.074-.3,0h.3Zm2.7-11.99h-.3c0-.066-.082-.279,0-.3h.3c0,.078.086.292,0,.3Zm2.7-.6h0c0-.066-.078.021,0,0Zm-.6.3h-.3v-.3a8.115,8.115,0,0,0,.9,0c0,.045-.074.008,0,0v.3h0a.67.67,0,0,1-.3,0c-.07.045-.218-.008-.3,0Zm.3.9Zm.6-.3Zm0-.9h.6a2.643,2.643,0,0,0-.6,0Zm.3,1.2h.3c.078-.008,0-.082,0,0Zm1.5-1.8h-.6a.887.887,0,0,1-.3,0c.381-.025.764.02.9,0Zm-.3,1.2Zm.6.3c0-.049-.14.016-.3,0h-.6c-.07-.049-.3.025-.3,0h1.8a4.167,4.167,0,0,0-.6,0Zm4.2-.9c.049,0-.012,0,0,0,.143-.139.415-.522.6-.6a3.248,3.248,0,0,1-.9,1.5h0a5.588,5.588,0,0,0,.3-.9Zm-.9,1.2h.3c-.078.148-.242,0-.3,0h0c.037,0-.07.045,0,0Zm-.3.9c.111-.443.2-.534.3-.6h0c-.057.41-.181.583-.3.6v.3c-.1.139,0,.218,0,.3h-.3v-.3a.679.679,0,0,0,.3-.3Zm-.3.6a1.355,1.355,0,0,1,0,.6h0v-.3c.078-.18-.045-.3,0-.3Zm-3.3,9.592h.3v.3c-.057,0-.283-.226-.3-.3Zm4.8.3c0-.037.037-.3,0-.3l-.3.3v-.3h.6c-.184.008-.263.259-.3.3Zm-.3-.3c.025.012.012-.008,0,0s-.029.016,0,0Zm0-.6h0l.3-.3c0,.033-.037,0,0,0a2.543,2.543,0,0,1,.6,0c.053,0,0-.066,0,0l-.9.3Zm1.2-.3a.9.9,0,0,0-.3,0h.3c-.033,0,.053-.041,0,0Zm0,0Zm.6,0h0c.029,0-.053.041,0,0,.086-.008-.008-.066,0,0Zm.3,0Zm.3,0c0-.061-.053-.292,0-.3l.3.3c0-.029-.025,0,0,0h-.3Zm4.2-.6Zm0,0c.033-.02.078.012,0,0-.037.041.082,0,0,0h0c.008-.008-.016.012,0,0h0l-.3.3.3-.3Zm.3.3h.3c0-.066-.246,0-.3,0Z" transform="translate(0.076 0.283)" fill="#fff"/>
    </g>
  </g>
</svg>
