<svg xmlns="http://www.w3.org/2000/svg" width="281" height="128" viewBox="0 0 281 128">
  <g id="circleci" transform="translate(-232 -163)">
    <rect id="box" width="281" height="128" rx="10" transform="translate(232 163)" fill="#343434"/>
    <g id="circleci-2" data-name="circleci" transform="translate(327.165 181.607)">
      <circle id="Ellipse_5" data-name="Ellipse 5" cx="11" cy="11" r="11" transform="translate(33.835 34.393)" fill="#fff"/>
      <path id="Path_221" data-name="Path 221" d="M.835,33.393v1a1.862,1.862,0,0,0,2,2h18a1.974,1.974,0,0,0,2-1,24.489,24.489,0,0,1,22-14c13.045,0,23,10.955,23,24a22.576,22.576,0,0,1-23,23c-9.557,0-18.255-4.992-22-13-.387-.9-1.1-2-2-2h-18a1.862,1.862,0,0,0-2,2c0,.129-.129.871,0,1a45.441,45.441,0,0,0,44,34,45,45,0,0,0,0-90c-21.052,0-38.963,13.627-44,33Z" transform="translate(0)" fill="#fff"/>
    </g>
  </g>
</svg>
