<svg xmlns="http://www.w3.org/2000/svg" width="84" height="38" viewBox="0 0 84 38">
  <g id="circleci" transform="translate(0 -0.138)">
    <rect id="box" width="84" height="38" rx="10" transform="translate(0 0.138)" fill="#343434"/>
    <g id="circleci-2" data-name="circleci" transform="translate(28.758 6.393)">
      <circle id="Ellipse_5" data-name="Ellipse 5" cx="3" cy="3" r="3" transform="translate(10.242 10.745)" fill="#fff"/>
      <path id="Path_221" data-name="Path 221" d="M.795,10.284v.3a.558.558,0,0,0,.6.6h5.4a.592.592,0,0,0,.6-.3,7.34,7.34,0,0,1,6.594-4.2,7.022,7.022,0,0,1,6.894,7.194,6.767,6.767,0,0,1-6.894,6.894,7.173,7.173,0,0,1-6.594-3.9c-.116-.271-.328-.6-.6-.6h-5.4a.558.558,0,0,0-.6.6c0,.039-.039.261,0,.3A13.621,13.621,0,0,0,13.984,27.37a13.489,13.489,0,0,0,0-26.977A13.447,13.447,0,0,0,.795,10.284Z" transform="translate(-0.778 -0.393)" fill="#fff"/>
    </g>
  </g>
</svg>
