<svg xmlns="http://www.w3.org/2000/svg" width="122" height="54" viewBox="0 0 122 54">
  <g id="cloudflare" transform="translate(-0.434 -0.492)">
    <rect id="box" width="122" height="54" rx="10" transform="translate(0.434 0.492)" fill="#f4811f"/>
    <g id="cloudflare-2" data-name="cloudflare" transform="translate(34.846 16.738)">
      <g id="Group_16" data-name="Group 16" transform="translate(0 0)">
        <path id="Path_202" data-name="Path 202" d="M94.662,48.552l-.865-.433C88.654,59.691,68.208,52.9,66.977,56.338c-.205,2.325,10.9.471,19.033.865,2.481.12,4.081,1.706,3.028,4.758h1.73c2.393-7.461,10.063-3.594,10.382-6.056C100.626,54.287,92.359,55.866,94.662,48.552Z" transform="translate(-53.086 -38.603)" fill="#f4811f"/>
        <path id="Path_203" data-name="Path 203" d="M36.272,23.426a2.628,2.628,0,0,0-.433-2.6,3.182,3.182,0,0,0-2.163-1.3L14.644,19.1h-.433a.326.326,0,0,1,0-.433c.109-.219.214,0,.433,0l19.033-.433A7.14,7.14,0,0,0,39.3,13.909l1.3-2.6c0-.11.109-.323,0-.433A12.207,12.207,0,0,0,28.486,1.364c-5.472,0-10.47,3.294-12.112,8.219a5.75,5.75,0,0,0-3.893-.865,5.16,5.16,0,0,0-4.758,4.758,7.161,7.161,0,0,0,0,2.163A7.828,7.828,0,0,0-.064,23.426a5.151,5.151,0,0,0,0,1.3c0,.219.323.433.433.433H35.407a.461.461,0,0,0,.433-.433Z" transform="translate(0.112 -1.364)" fill="#fff"/>
        <path id="Path_204" data-name="Path 204" d="M185.9,49.89h-.433c-.109,0-.323-.109-.433,0l-.865,2.6a3.515,3.515,0,0,0,.433,3.028,3.182,3.182,0,0,0,2.163,1.3h4.326c.109,0-.109.433,0,.433.109.109.109-.109,0,0-.109.219-.214.433-.433.433l-3.893.433A6.662,6.662,0,0,0,181.14,62l-.433,1.3c-.109.109.214,0,.433,0h14.275c.219,0,.433.219.433,0a13.474,13.474,0,0,0,.433-3.028A10.438,10.438,0,0,0,185.9,49.89" transform="translate(-143.458 -39.941)" fill="#fff"/>
      </g>
    </g>
  </g>
</svg>
