<svg xmlns="http://www.w3.org/2000/svg" width="281" height="128" viewBox="0 0 281 128">
  <g id="cloudflare" transform="translate(-232 -163)">
    <rect id="box" width="281" height="128" rx="10" transform="translate(232 163)" fill="#f4811f"/>
    <g id="cloudflare-2" data-name="cloudflare" transform="translate(312 202.636)">
      <g id="Group_16" data-name="Group 16" transform="translate(0 -0.001)">
        <path id="Path_202" data-name="Path 202" d="M130.981,49.119l-2-1c-11.889,26.752-59.154,11.042-62,19-.474,5.376,25.2,1.089,44,2,5.734.278,9.435,3.944,7,11h4c5.532-17.247,23.262-8.308,24-14C144.769,62.377,125.658,66.027,130.981,49.119Z" transform="translate(-34.981 -25.754)" fill="#f4811f"/>
        <path id="Path_203" data-name="Path 203" d="M84,52.364a6.076,6.076,0,0,0-1-6,7.356,7.356,0,0,0-5-3l-44-1H33a.754.754,0,0,1,0-1c.253-.506.494,0,1,0l44-1c5.313-.253,10.977-4.941,13-10l3-6c0-.253.253-.747,0-1-2.783-12.9-14.339-22-28-22-12.649,0-24.205,7.616-28,19-2.53-1.771-5.458-2.253-9-2-6.072.506-10.241,4.928-11,11a16.553,16.553,0,0,0,0,5c-9.866.253-18,7.881-18,18a11.909,11.909,0,0,0,0,3c0,.506.747,1,1,1H82a1.066,1.066,0,0,0,1-1Z" transform="translate(0 -0.999)" fill="#fff"/>
        <path id="Path_204" data-name="Path 204" d="M192.736,49.953h-1c-.253,0-.747-.253-1,0l-2,6c-.759,2.53-.265,5.482,1,7a7.356,7.356,0,0,0,5,3h10c.253,0-.253,1,0,1,.253.253.253-.253,0,0-.253.506-.494,1-1,1l-9,1c-5.313.253-10.976,3.941-13,9l-1,3c-.253.253.494,0,1,0h33c.506,0,1,.506,1,0a31.149,31.149,0,0,0,1-7,24.129,24.129,0,0,0-24-24" transform="translate(-94.736 -26.588)" fill="#fff"/>
      </g>
    </g>
  </g>
</svg>
