<svg xmlns="http://www.w3.org/2000/svg" width="84" height="38" viewBox="0 0 84 38">
  <g id="cloudflare" transform="translate(-0.011 -0.073)">
    <rect id="box" width="84" height="38" rx="10" transform="translate(0.011 0.073)" fill="#f4811f"/>
    <g id="cloudflare-2" data-name="cloudflare" transform="translate(23.175 12.265)">
      <g id="Group_16" data-name="Group 16" transform="translate(0 0)">
        <path id="Path_202" data-name="Path 202" d="M86.16,48.419l-.6-.3c-3.564,8.019-17.731,3.31-18.584,5.7-.142,1.611,7.552.326,13.189.6,1.719.083,2.828,1.182,2.1,3.3h1.2c1.658-5.17,6.973-2.49,7.194-4.2C90.293,52.393,84.565,53.487,86.16,48.419Z" transform="translate(-57.351 -41.525)" fill="#f4811f"/>
        <path id="Path_203" data-name="Path 203" d="M25.1,16.651a1.821,1.821,0,0,0-.3-1.8,2.2,2.2,0,0,0-1.5-.9l-13.189-.3h-.3a.226.226,0,0,1,0-.3c.076-.152.148,0,.3,0l13.189-.3a4.948,4.948,0,0,0,3.9-3l.9-1.8c0-.076.076-.224,0-.3A8.459,8.459,0,0,0,19.7,1.364a8.755,8.755,0,0,0-8.393,5.7,3.984,3.984,0,0,0-2.7-.6,3.576,3.576,0,0,0-3.3,3.3,4.962,4.962,0,0,0,0,1.5,5.424,5.424,0,0,0-5.4,5.4,3.57,3.57,0,0,0,0,.9c0,.152.224.3.3.3H24.5a.319.319,0,0,0,.3-.3Z" transform="translate(0.112 -1.364)" fill="#fff"/>
        <path id="Path_204" data-name="Path 204" d="M184.3,49.875H184c-.076,0-.224-.076-.3,0l-.6,1.8a2.436,2.436,0,0,0,.3,2.1,2.205,2.205,0,0,0,1.5.9h3c.076,0-.076.3,0,.3.076.076.076-.076,0,0-.076.152-.148.3-.3.3l-2.7.3a4.616,4.616,0,0,0-3.9,2.7l-.3.9c-.076.076.148,0,.3,0h9.892c.152,0,.3.152.3,0a9.337,9.337,0,0,0,.3-2.1,7.233,7.233,0,0,0-7.194-7.194" transform="translate(-154.889 -42.981)" fill="#fff"/>
      </g>
    </g>
  </g>
</svg>
