<svg xmlns="http://www.w3.org/2000/svg" width="281" height="128" viewBox="0 0 281 128">
  <g id="codeigniter" transform="translate(-232 -163)">
    <rect id="box" width="281" height="128" rx="10" transform="translate(232 163)" fill="#ee4323"/>
    <g id="codeigniter-2" data-name="codeigniter" transform="translate(329 175.487)">
      <path id="Path_200" data-name="Path 200" d="M4,97.513c-1.764,0-2-1.461-2-3a4.194,4.194,0,0,1,0-1c.386-2.661,1.724-5,4-5,1.539,0,2,.749,2,2v1h2c.017,0,0-.872,0-1,0-1.827-1.274-3-4-3-3.7,0-5.439,2.056-6,6a4.173,4.173,0,0,0,0,1c0,2.325.73,5,4,5a5.733,5.733,0,0,0,5-3l-1-1a4.932,4.932,0,0,1-4,2Zm10-7c-2.967,0-3.567.97-4,4a6.8,6.8,0,0,0,0,1c0,1.956.468,4,3,4,2.967,0,4.567-2.018,5-5a6.912,6.912,0,0,0,0-1c0-1.988-1.482-3-4-3Zm2,4c-.321,2.2-1.7,3-3,3-1.041,0-1-.7-1-2a5.2,5.2,0,0,1,0-1c.321-2.18.686-3,2-3a1.9,1.9,0,0,1,2,2,5.21,5.21,0,0,1,0,1Zm9-7v3c-.032.256-.1-.24,0,0-.465-.353-1.439,0-2,0-2.662,0-4.519.633-5,4a5.224,5.224,0,0,0,0,1,4.01,4.01,0,0,0,4,4,3.083,3.083,0,0,0,2-1v1h2l2-12Zm-1,9a6.375,6.375,0,0,1-2,1c-1.171,0-1-1.023-1-2a5.143,5.143,0,0,1,0-1c.368-2.549.942-3,2-3,.689,0,1.5.727,2,1l-1,4Zm8-6c-2.935,0-4.535.842-5,4a6.8,6.8,0,0,0,0,1,3.888,3.888,0,0,0,4,4c1.892,0,3.247-1.557,4-3H33a1.977,1.977,0,0,1-2,1c-1.186,0-2,.058-2-1,0-.209.968-1,1-1h5a16.215,16.215,0,0,0,0-2c0-1.6-.339-3-3-3Zm1,3H30c.353-.818.781-2,2-2,.946,0,1,1.054,1,2,0,.16.033,0,0,0Zm9-4v-1H37v1h1l-1,8H36v2h4v-2H39l1-8Zm9,3v-2H49c-.626-.4-2.2,0-3,0-2.294,0-4,.482-4,3a4.079,4.079,0,0,0,1,2c-.48.256-1,.422-1,1,0,.256-.193.76,0,1-.963.578-1,1.879-1,3,0,2.165,2.268,2,4,2,2.18,0,4-.226,4-3,0-.946-.285-1.679-2-2l-3-1c-.353-.065,0,.16,0,0,0-.24-.24,0,0,0h0a13.937,13.937,0,0,0,2,0,3.815,3.815,0,0,0,4-4c0-.353.16-.615,0-1,.272.128-.143,1,0,1Zm-5,6a1.158,1.158,0,0,1,1,1,1.937,1.937,0,0,1-2,2,1.892,1.892,0,0,1-2-2c0-.721-.482-.486,0-1Zm0-4c-.93,0-2-.2-2-1a1.9,1.9,0,0,1,2-2c.962,0,2,.216,2,1a1.9,1.9,0,0,1-2,2Zm11-4a4.776,4.776,0,0,0-3,1v-1H52l-1,9h2l1-7c.626-.384,1.342-1,2-1,.8,0,1,.263,1,1,0,.177.032.808,0,1l-1,6h2l1-6c.033-.272,0-.744,0-1,0-1.525-.2-2-2-2Zm6,7h0l1-7H60v2h2c-.128,0,.016-.129,0,0l-1,4c-.032.209,0,.825,0,1a1.9,1.9,0,0,0,2,2h1v-2H63c-.241,0,0,.192,0,0Zm1-10H62c-.128,0,.016-.16,0,0v2c-.016.145-.128,0,0,0h2c.128,0-.016.146,0,0l1-2c.016-.16-.871,0-1,0Zm5,10a1.068,1.068,0,0,1-1-1h0l1-4h2l1-2H69v-3H67v3H65v2h2c-.144.818-.984-.161-1,0v4c-.032.177,0,.84,0,1,0,1.523.652,2,2,2a4.454,4.454,0,0,0,3-1l-1-2c-.5.3-.262,1-1,1Zm8-7c-2.934,0-4.535.842-5,4a6.913,6.913,0,0,0,0,1c0,2.164.563,4,3,4,1.892,0,3.247-1.557,4-3H78a1.977,1.977,0,0,1-2,1c-1.185,0-2,.058-2-1,0-.209-.032-1,0-1h6a16.38,16.38,0,0,0,0-2c0-1.6-.338-3-3-3Zm1,3H74c.353-.818.78-2,2-2a2.245,2.245,0,0,1,2,2c0,.16.032,0,0,0Zm8-3a2.718,2.718,0,0,0-2,1l-1-1H82l-2,9h3l1-7c.561-.336.391,0,1,0a6.913,6.913,0,0,1,1,0l1-2a5.235,5.235,0,0,0-1,0Zm-55-10c-4.853-2.1-8.989-6.545-9-12a18.9,18.9,0,0,1,8-15,6.629,6.629,0,0,0,1,6,6.023,6.023,0,0,0,6,2c5.016-1.1,4.973-5.788,2-9-2.94-3.181-6.119-7.387-5-12a12.192,12.192,0,0,1,4-6c-1.382,3.633,2.411,7.215,5,9,4.491,3.1,9.871,5.37,14,9,4.343,3.815,7.648,9.017,7,15-.7,6.485-6.22,10.723-12,13,12.214-2.7,24.742-11.453,25-25,.214-11.144-7.529-20.09-17-25h0c.26.631.01.52,0,1a4.863,4.863,0,0,0,0-1,12.651,12.651,0,0,1,0,2v-1a8.413,8.413,0,0,1-1,2h0c-1.89,3.134-6.473,4.245-9,1-4.062-5.22.42-11.473,1-17,.726-6.927-3.614-13.976-9-18,2.967,4.8-.873,11.451-4,15-3.032,3.441-7.653,6.874-11,10-3.6,3.358-7.045,6.059-10,10-5.911,7.888-8.659,18.159-6,28s10.381,15.787,20,18Z" fill="#fff"/>
    </g>
  </g>
</svg>
