<svg xmlns="http://www.w3.org/2000/svg" width="85" height="38" viewBox="0 0 85 38">
  <g id="codeigniter" transform="translate(0.087 -0.008)">
    <rect id="box" width="85" height="38" rx="10" transform="translate(-0.087 0.008)" fill="#ee4323"/>
    <g id="codeigniter-2" data-name="codeigniter" transform="translate(29.634 3.45)">
      <path id="Path_200" data-name="Path 200" d="M1.174,28.888c-.529,0-.6-.438-.6-.9a1.257,1.257,0,0,1,0-.3c.116-.8.517-1.5,1.2-1.5.461,0,.6.225.6.6v.3h.6c.005,0,0-.261,0-.3,0-.548-.382-.9-1.2-.9-1.11,0-1.63.616-1.8,1.8a1.251,1.251,0,0,0,0,.3c0,.7.219,1.5,1.2,1.5a1.718,1.718,0,0,0,1.5-.9l-.3-.3a1.478,1.478,0,0,1-1.2.6Zm3-2.1c-.889,0-1.069.291-1.2,1.2a2.038,2.038,0,0,0,0,.3c0,.586.14,1.2.9,1.2.889,0,1.369-.6,1.5-1.5a2.072,2.072,0,0,0,0-.3c0-.6-.444-.9-1.2-.9Zm.6,1.2a.914.914,0,0,1-.9.9c-.312,0-.3-.21-.3-.6a1.558,1.558,0,0,1,0-.3c.1-.653.205-.9.6-.9a.57.57,0,0,1,.6.6,1.562,1.562,0,0,1,0,.3Zm2.7-2.1v.9c-.01.077-.029-.072,0,0-.139-.106-.431,0-.6,0-.8,0-1.355.19-1.5,1.2a1.566,1.566,0,0,0,0,.3,1.2,1.2,0,0,0,1.2,1.2.924.924,0,0,0,.6-.3v.3h.6l.6-3.6Zm-.3,2.7a1.911,1.911,0,0,1-.6.3c-.351,0-.3-.306-.3-.6a1.542,1.542,0,0,1,0-.3c.11-.764.282-.9.6-.9.206,0,.45.218.6.3l-.3,1.2Zm2.4-1.8c-.88,0-1.359.252-1.5,1.2a2.037,2.037,0,0,0,0,.3,1.165,1.165,0,0,0,1.2,1.2,1.463,1.463,0,0,0,1.2-.9h-.6a.592.592,0,0,1-.6.3c-.356,0-.6.018-.6-.3,0-.063.29-.3.3-.3h1.5a4.861,4.861,0,0,0,0-.6c0-.48-.1-.9-.9-.9Zm.3.9h-.9c.106-.245.234-.6.6-.6.283,0,.3.316.3.6,0,.048.01,0,0,0Zm2.7-1.2v-.3h-1.5v.3h.3l-.3,2.4h-.3v.6h1.2v-.6h-.3l.3-2.4Zm2.7.9v-.6h-.6c-.188-.12-.659,0-.9,0-.688,0-1.2.145-1.2.9a1.223,1.223,0,0,0,.3.6c-.144.077-.3.126-.3.3,0,.077-.058.228,0,.3-.289.173-.3.563-.3.9,0,.649.68.6,1.2.6.653,0,1.2-.068,1.2-.9,0-.283-.085-.5-.6-.6l-.9-.3c-.106-.019,0,.048,0,0,0-.072-.072,0,0,0h0a4.177,4.177,0,0,0,.6,0,1.144,1.144,0,0,0,1.2-1.2c0-.106.048-.184,0-.3.082.038-.043.3,0,.3Zm-1.5,1.8a.347.347,0,0,1,.3.3.58.58,0,0,1-.6.6.567.567,0,0,1-.6-.6c0-.216-.144-.146,0-.3Zm0-1.2c-.279,0-.6-.059-.6-.3a.568.568,0,0,1,.6-.6c.288,0,.6.065.6.3a.568.568,0,0,1-.6.6Zm3.3-1.2a1.432,1.432,0,0,0-.9.3v-.3h-.6l-.3,2.7h.6l.3-2.1c.188-.115.4-.3.6-.3.24,0,.3.079.3.3,0,.053.01.242,0,.3l-.3,1.8h.6l.3-1.8c.01-.081,0-.223,0-.3,0-.457-.061-.6-.6-.6Zm1.8,2.1h0l.3-2.1h-1.2v.6h.6c-.038,0,0-.039,0,0l-.3,1.2c-.01.063,0,.247,0,.3a.571.571,0,0,0,.6.6h.3v-.6h-.3c-.072,0,0,.058,0,0Zm.3-3h-.6c-.038,0,0-.048,0,0v.6c0,.043-.038,0,0,0h.6c.038,0,0,.044,0,0l.3-.6c0-.048-.261,0-.3,0Zm1.5,3a.32.32,0,0,1-.3-.3h0l.3-1.2h.6l.3-.6h-.9v-.9h-.6v.9h-.6v.6h.6c-.043.245-.3-.048-.3,0v1.2c-.01.053,0,.252,0,.3,0,.457.2.6.6.6a1.335,1.335,0,0,0,.9-.3l-.3-.6c-.149.091-.079.3-.3.3Zm2.4-2.1c-.879,0-1.359.252-1.5,1.2a2.072,2.072,0,0,0,0,.3c0,.649.169,1.2.9,1.2a1.462,1.462,0,0,0,1.2-.9h-.3a.592.592,0,0,1-.6.3c-.355,0-.6.018-.6-.3,0-.063-.01-.3,0-.3h1.8a4.91,4.91,0,0,0,0-.6c0-.48-.1-.9-.9-.9Zm.3.9h-1.2c.106-.245.234-.6.6-.6a.673.673,0,0,1,.6.6c0,.048.01,0,0,0Zm2.4-.9a.815.815,0,0,0-.6.3l-.3-.3h-.3l-.6,2.7h.9l.3-2.1c.168-.1.117,0,.3,0a2.072,2.072,0,0,1,.3,0l.3-.6a1.569,1.569,0,0,0-.3,0Zm-16.486-3a4.148,4.148,0,0,1-2.7-3.6,5.665,5.665,0,0,1,2.4-4.5,1.987,1.987,0,0,0,.3,1.8,1.805,1.805,0,0,0,1.8.6c1.5-.329,1.491-1.735.6-2.7s-1.834-2.214-1.5-3.6a3.654,3.654,0,0,1,1.2-1.8c-.414,1.089.723,2.163,1.5,2.7a43,43,0,0,1,4.2,2.7,5.338,5.338,0,0,1,2.1,4.5c-.21,1.944-1.864,3.214-3.6,3.9,3.661-.808,7.416-3.433,7.494-7.494.064-3.34-2.257-6.022-5.1-7.494h0c.078.189,0,.156,0,.3a1.458,1.458,0,0,0,0-.3,3.792,3.792,0,0,1,0,.6V9.1a2.522,2.522,0,0,1-.3.6h0a1.638,1.638,0,0,1-2.7.3c-1.218-1.565.126-3.439.3-5.1a6.361,6.361,0,0,0-2.7-5.4c.889,1.439-.262,3.432-1.2,4.5-.909,1.031-2.294,2.06-3.3,3a23.143,23.143,0,0,0-3,3,9.816,9.816,0,0,0-1.8,8.393,7.589,7.589,0,0,0,5.995,5.4Z" transform="translate(0.036 0.487)" fill="#fff"/>
    </g>
  </g>
</svg>
