<svg xmlns="http://www.w3.org/2000/svg" width="121" height="54" viewBox="0 0 121 54">
  <g id="codeigniter" transform="translate(-0.378 -0.47)">
    <rect id="box" width="121" height="54" rx="10" transform="translate(0.378 0.47)" fill="#ee4323"/>
    <g id="codeigniter-2" data-name="codeigniter" transform="translate(41.888 4.932)">
      <path id="Path_200" data-name="Path 200" d="M1.71,41.9c-.763,0-.865-.632-.865-1.3a1.814,1.814,0,0,1,0-.433c.167-1.151.746-2.163,1.73-2.163.666,0,.865.324.865.865v.433h.865c.007,0,0-.377,0-.433,0-.79-.551-1.3-1.73-1.3-1.6,0-2.353.889-2.6,2.6a1.805,1.805,0,0,0,0,.433c0,1.006.316,2.163,1.73,2.163a2.48,2.48,0,0,0,2.163-1.3L3.44,41.04a2.133,2.133,0,0,1-1.73.865Zm4.326-3.028c-1.283,0-1.543.42-1.73,1.73a2.941,2.941,0,0,0,0,.433c0,.846.2,1.73,1.3,1.73,1.283,0,1.976-.873,2.163-2.163a2.99,2.99,0,0,0,0-.433c0-.86-.641-1.3-1.73-1.3Zm.865,1.73a1.318,1.318,0,0,1-1.3,1.3c-.45,0-.433-.3-.433-.865a2.249,2.249,0,0,1,0-.433c.139-.943.3-1.3.865-1.3a.823.823,0,0,1,.865.865,2.254,2.254,0,0,1,0,.433Zm3.893-3.028v1.3c-.014.111-.042-.1,0,0-.2-.153-.622,0-.865,0-1.151,0-1.955.274-2.163,1.73a2.26,2.26,0,0,0,0,.433A1.735,1.735,0,0,0,9.5,42.77a1.334,1.334,0,0,0,.865-.433v.433h.865l.865-5.191Zm-.433,3.893A2.757,2.757,0,0,1,9.5,41.9c-.506,0-.433-.442-.433-.865a2.225,2.225,0,0,1,0-.433c.159-1.1.407-1.3.865-1.3.3,0,.65.314.865.433l-.433,1.73Zm3.461-2.6c-1.27,0-1.962.364-2.163,1.73a2.94,2.94,0,0,0,0,.433,1.682,1.682,0,0,0,1.73,1.73,2.111,2.111,0,0,0,1.73-1.3h-.865a.855.855,0,0,1-.865.433c-.513,0-.865.025-.865-.433,0-.09.419-.433.433-.433H15.12a7.014,7.014,0,0,0,0-.865c0-.693-.147-1.3-1.3-1.3Zm.433,1.3h-1.3c.153-.354.338-.865.865-.865.409,0,.433.456.433.865,0,.069.014,0,0,0Zm3.893-1.73v-.433H15.985v.433h.433L15.985,41.9h-.433v.865h1.73V41.9H16.85l.433-3.461Zm3.893,1.3v-.865h-.865c-.271-.173-.951,0-1.3,0-.992,0-1.73.209-1.73,1.3a1.764,1.764,0,0,0,.433.865c-.208.111-.433.182-.433.433,0,.111-.084.329,0,.433-.416.25-.433.813-.433,1.3,0,.937.981.865,1.73.865.943,0,1.73-.1,1.73-1.3,0-.409-.123-.726-.865-.865l-1.3-.433c-.152-.028,0,.069,0,0,0-.1-.1,0,0,0h0a6.028,6.028,0,0,0,.865,0,1.65,1.65,0,0,0,1.73-1.73c0-.153.069-.266,0-.433.118.056-.062.433,0,.433Zm-2.163,2.6a.5.5,0,0,1,.433.433.838.838,0,0,1-.865.865.819.819,0,0,1-.865-.865c0-.312-.208-.21,0-.433Zm0-1.73c-.4,0-.865-.085-.865-.433a.82.82,0,0,1,.865-.865c.416,0,.865.093.865.433a.82.82,0,0,1-.865.865Zm4.758-1.73a2.066,2.066,0,0,0-1.3.433v-.433h-.865l-.433,3.893h.865l.433-3.028c.271-.166.581-.433.865-.433.346,0,.433.114.433.433,0,.076.014.349,0,.433l-.433,2.6h.865l.433-2.6c.014-.117,0-.322,0-.433,0-.66-.088-.865-.865-.865Zm2.6,3.028h0l.433-3.028h-1.73v.865H26.8c-.056,0,.007-.056,0,0l-.433,1.73c-.014.091,0,.357,0,.433a.823.823,0,0,0,.865.865h.433V41.9h-.433c-.1,0,0,.083,0,0Zm.433-4.326H26.8c-.056,0,.007-.069,0,0v.865c-.007.063-.056,0,0,0h.865c.056,0-.007.063,0,0l.433-.865c.007-.069-.377,0-.433,0ZM29.827,41.9a.462.462,0,0,1-.433-.433h0l.433-1.73h.865l.433-.865h-1.3v-1.3h-.865v1.3H28.1v.865h.865c-.062.354-.426-.07-.433,0v1.73c-.014.076,0,.364,0,.433,0,.659.282.865.865.865a1.927,1.927,0,0,0,1.3-.433l-.433-.865c-.215.132-.113.433-.433.433Zm3.461-3.028c-1.269,0-1.962.364-2.163,1.73a2.99,2.99,0,0,0,0,.433c0,.936.244,1.73,1.3,1.73a2.11,2.11,0,0,0,1.73-1.3H33.72a.855.855,0,0,1-.865.433c-.513,0-.865.025-.865-.433,0-.09-.014-.433,0-.433h2.6a7.086,7.086,0,0,0,0-.865c0-.693-.146-1.3-1.3-1.3Zm.433,1.3H31.99c.153-.354.338-.865.865-.865a.971.971,0,0,1,.865.865c0,.069.014,0,0,0Zm3.461-1.3a1.176,1.176,0,0,0-.865.433l-.433-.433h-.433l-.865,3.893h1.3l.433-3.028c.243-.145.169,0,.433,0a2.99,2.99,0,0,1,.433,0l.433-.865a2.264,2.264,0,0,0-.433,0ZM13.389,34.551A5.986,5.986,0,0,1,9.5,29.36a8.175,8.175,0,0,1,3.461-6.489,2.867,2.867,0,0,0,.433,2.6,2.606,2.606,0,0,0,2.6.865c2.17-.475,2.151-2.5.865-3.893s-2.647-3.2-2.163-5.191a5.274,5.274,0,0,1,1.73-2.6c-.6,1.572,1.043,3.121,2.163,3.893,1.943,1.34,4.27,2.323,6.056,3.893,1.879,1.65,3.308,3.9,3.028,6.489-.3,2.805-2.691,4.638-5.191,5.623,5.283-1.166,10.7-4.954,10.814-10.814.093-4.821-3.257-8.69-7.354-10.814h0c.113.273,0,.225,0,.433a2.1,2.1,0,0,0,0-.433,5.473,5.473,0,0,1,0,.865v-.433a3.639,3.639,0,0,1-.433.865h0a2.364,2.364,0,0,1-3.893.433c-1.757-2.258.182-4.963.433-7.354.314-3-1.563-6.045-3.893-7.786C19.431,1.589,17.77,4.466,16.417,6c-1.312,1.489-3.31,2.973-4.758,4.326a33.4,33.4,0,0,0-4.326,4.326,14.165,14.165,0,0,0-2.6,12.112c1.15,4.254,4.49,6.829,8.651,7.786Z" transform="translate(0.036 0.487)" fill="#fff"/>
    </g>
  </g>
</svg>
