<svg xmlns="http://www.w3.org/2000/svg" width="122" height="56" viewBox="0 0 122 56">
  <g id="codepen" transform="translate(-0.434 -0.448)">
    <rect id="box" width="122" height="56" rx="10" transform="translate(0.434 0.448)" fill="#ccc"/>
    <g id="codepen-icon" transform="translate(39.214 6.085)">
      <path id="Path_25" data-name="Path 25" d="M43.682,14.992c-.01-.053.014-.381,0-.433-.009-.031-.423.03-.433,0-.015-.046.018.045,0,0s.014-.4,0-.433.023.04,0,0,.018.029,0,0,.028.037,0,0,.022.026,0,0-.4-.4-.433-.433.026.024,0,0,.037.028,0,0,.029.02,0,0h0L22.918.285a2.016,2.016,0,0,0-2.163,0L.857,13.694h0c-.029.021.028-.022,0,0s-.4-.03-.433,0,.024-.025,0,0,.03.4,0,.433.021-.029,0,0,.025-.039,0,0,.017-.03,0,0-.413-.041-.433,0,.012.4,0,.433.015-.046,0,0c-.01.031.008-.028,0,0-.013.052.009.379,0,.433-.005.027,0-.028,0,0-.011.081,0-.083,0,0V28.4c0,.082-.012.352,0,.433,0,.029-.006-.028,0,0,.009.053-.018-.053,0,0,.008.029-.012-.032,0,0s-.018.39,0,.433-.012-.029,0,0,.409-.043.433,0-.018-.027,0,0-.029.4,0,.433-.023-.028,0,0-.035-.031,0,0-.029-.018,0,0,.4-.031.433,0-.023.41,0,.433h0l19.9,12.977c.314.211.5.434.865.433a2.974,2.974,0,0,0,1.3-.433l19.9-12.977c.011-.007-.011.008,0,0,.029-.021-.028-.411,0-.433s-.034.031,0,0-.025.025,0,0,.4.035.433,0-.021.028,0,0-.025-.394,0-.433-.017.029,0,0-.02.042,0,0-.013.031,0,0-.015-.387,0-.433c.01-.031.424.031.433,0,.013-.052-.01.053,0,0,0-.027,0,.028,0,0,.011-.081,0-.35,0-.433V14.992c0-.083.01.081,0,0,0-.029.006.029,0,0ZM21.621,26.239l-6.489-4.326,6.489-4.758,6.921,4.758-6.921,4.326ZM19.89,14.127l-8.219,5.191L5.183,14.992,19.89,5.475v8.651ZM8.211,21.913,3.885,24.941V18.453l4.326,3.461Zm3.461,2.163,8.219,5.191v9.084L5.183,28.4l6.489-4.326Zm12.112,5.191,7.786-5.191L38.491,28.4,23.783,38.351V29.267ZM35.03,21.913l4.758-3.461v6.489L35.03,21.913Zm-3.461-2.6-7.786-5.191V5.475l14.707,9.517L31.57,19.318Z" transform="translate(0.014 0.03)" fill="#fff"/>
    </g>
  </g>
</svg>
