<svg xmlns="http://www.w3.org/2000/svg" width="281" height="128" viewBox="0 0 281 128">
  <g id="codepen" transform="translate(-232 -163)">
    <rect id="box" width="281" height="128" rx="10" transform="translate(232 163)" fill="#ccc"/>
    <g id="codepen-icon" transform="translate(322 176.303)">
      <path id="Path_25" data-name="Path 25" d="M101,34.7c-.023-.122.033-.881,0-1-.02-.072-.977.071-1,0-.034-.106.042.1,0,0-.03-.072.033-.931,0-1-.046-.1.054.094,0,0-.038-.069.042.066,0,0-.058-.089.065.085,0,0-.047-.064.052.061,0,0-.068-.081-.927-.924-1-1-.057-.057.06.056,0,0-.079-.072.085.065,0,0-.065-.05.068.046,0,0-.024-.018.026.016,0,0L53,.7a4.661,4.661,0,0,0-5,0L2,31.7c-.026.016.026-.018,0,0-.068.047.065-.05,0,0-.084.066-.921-.069-1,0-.06.054.056-.058,0,0-.076.076.069.919,0,1-.052.061.047-.068,0,0-.065.085.058-.091,0,0-.042.066.039-.069,0,0-.054.094-.955-.095-1,0-.033.069.028.929,0,1-.042.1.034-.106,0,0-.023.071.019-.064,0,0-.031.119.022.877,0,1-.012.062.008-.064,0,0-.024.187,0-.191,0,0v31c0,.19-.027.814,0,1,.009.068-.014-.065,0,0,.022.122-.041-.122,0,0,.019.068-.027-.075,0,0,.034.108-.041.9,0,1,.028.068-.027-.068,0,0,.045.095.946-.1,1,0,.038.068-.041-.062,0,0,.058.095-.068.919,0,1,.047.068-.054-.065,0,0,.069.081-.081-.072,0,0,.056.054-.068-.041,0,0,.079.068.919-.071,1,0,.065.054-.054.947,0,1,.026.014-.027-.012,0,0l46,30c.727.488,1.159,1,2,1a6.874,6.874,0,0,0,3-1l46-30c.026-.016-.024.018,0,0,.068-.047-.065-.95,0-1,.084-.066-.079.071,0,0,.06-.053-.057.057,0,0,.075-.076.932.081,1,0,.052-.061-.047.065,0,0,.065-.085-.058-.91,0-1,.042-.065-.039.066,0,0,.054-.095-.046.1,0,0,.033-.069-.03.071,0,0,.042-.1-.034-.894,0-1,.023-.071.98.071,1,0,.031-.119-.023.122,0,0,.011-.062-.007.064,0,0,.024-.187,0-.809,0-1v-31c0-.191.023.187,0,0-.011-.066.014.066,0,0Zm-51,26-15-10,15-11,16,11-16,10Zm-4-28-19,12-15-10,34-22v20Zm-27,18-10,7v-15l10,8Zm8,5,19,12v21l-34-23,15-10Zm28,12,18-12,16,10-34,23v-21Zm26-17,11-8v15l-11-7Zm-8-6-18-12v-20l34,22-16,10Z" fill="#fff"/>
    </g>
  </g>
</svg>
