<svg xmlns="http://www.w3.org/2000/svg" width="84" height="37" viewBox="0 0 84 37">
  <g id="codepen" transform="translate(-0.011 -0.37)">
    <rect id="box" width="84" height="37" rx="10" transform="translate(0.011 0.37)" fill="#ccc"/>
    <g id="codepen-icon" transform="translate(26.202 3.333)">
      <path id="Path_25" data-name="Path 25" d="M30.265,10.379c-.007-.037.01-.264,0-.3s-.293.021-.3,0,.013.031,0,0,.01-.279,0-.3.016.028,0,0,.013.02,0,0,.02.026,0,0,.015.018,0,0-.278-.277-.3-.3.018.017,0,0,.026.02,0,0,.02.014,0,0h0L15.877.188a1.4,1.4,0,0,0-1.5,0L.59,9.48h0c-.02.014.02-.015,0,0s-.276-.021-.3,0,.017-.017,0,0,.021.275,0,.3.014-.02,0,0,.017-.027,0,0,.012-.021,0,0-.286-.028-.3,0,.009.279,0,.3.01-.032,0,0,.006-.019,0,0c-.009.036.007.263,0,.3,0,.019,0-.019,0,0-.007.056,0-.057,0,0v9.292c0,.057-.008.244,0,.3,0,.02,0-.02,0,0,.007.037-.012-.037,0,0,.006.02-.008-.022,0,0s-.012.27,0,.3-.008-.02,0,0,.283-.03.3,0-.012-.019,0,0-.02.275,0,.3-.016-.02,0,0-.024-.022,0,0-.02-.012,0,0,.275-.021.3,0-.016.284,0,.3h0l13.788,8.992c.218.146.347.3.6.3a2.061,2.061,0,0,0,.9-.3L29.665,20.87h0c.02-.014-.02-.285,0-.3s-.024.021,0,0-.017.017,0,0,.279.024.3,0-.014.02,0,0-.017-.273,0-.3-.012.02,0,0-.014.029,0,0-.009.021,0,0-.01-.268,0-.3.294.021.3,0-.007.037,0,0c0-.019,0,.019,0,0,.007-.056,0-.242,0-.3V10.379c0-.057.007.056,0,0,0-.02,0,.02,0,0ZM14.977,18.173l-4.5-3,4.5-3.3,4.8,3.3-4.8,3Zm-1.2-8.393-5.7,3.6-4.5-3L13.778,3.785V9.78Zm-8.093,5.4-3,2.1v-4.5l3,2.4Zm2.4,1.5,5.7,3.6v6.295L3.587,19.671l4.5-3Zm8.393,3.6,5.4-3.6,4.8,3L16.476,26.566V20.271Zm7.793-5.1,3.3-2.4v4.5l-3.3-2.1Zm-2.4-1.8-5.4-3.6V3.785l10.191,6.594-4.8,3Z" transform="translate(0.014 0.03)" fill="#fff"/>
    </g>
  </g>
</svg>
