<svg xmlns="http://www.w3.org/2000/svg" width="84" height="38" viewBox="0 0 84 38">
  <g id="cpanel" transform="translate(0 -0.347)">
    <rect id="box" width="84" height="38" rx="10" transform="translate(0 0.347)" fill="#fc6c2c"/>
    <g id="cpanel-2" data-name="cpanel" transform="translate(12.589 12.357)">
      <path id="Path_235" data-name="Path 235" d="M4.9,3.231H8.61l-.574,2.2a1.389,1.389,0,0,1-.492.738,1.329,1.329,0,0,1-.836.279H4.986a1.668,1.668,0,0,0-1.042.344,1.8,1.8,0,0,0-.632.935,1.744,1.744,0,0,0-.025.836,1.8,1.8,0,0,0,.32.7,1.653,1.653,0,0,0,.591.484,1.732,1.732,0,0,0,.787.18h1.05a.591.591,0,0,1,.484.238.57.57,0,0,1,.107.533L5.97,13.121H4.822A4.635,4.635,0,0,1,2.648,12.6,4.9,4.9,0,0,1,1,11.235,4.836,4.836,0,0,1,.164,7.053l.066-.246a4.848,4.848,0,0,1,1.73-2.583,4.916,4.916,0,0,1,1.37-.73A4.761,4.761,0,0,1,4.9,3.231Zm1.87,9.89L10,1.017A1.387,1.387,0,0,1,10.5.279,1.329,1.329,0,0,1,11.333,0h3.428a4.635,4.635,0,0,1,2.173.517,4.877,4.877,0,0,1,2.55,3.313,4.584,4.584,0,0,1-.066,2.239l-.066.246A4.917,4.917,0,0,1,18.7,7.766a4.792,4.792,0,0,1-4,2.14H11.727l.59-2.214a1.387,1.387,0,0,1,.492-.722,1.329,1.329,0,0,1,.836-.279H14.6A1.725,1.725,0,0,0,16.27,5.4a1.611,1.611,0,0,0,.025-.8,1.813,1.813,0,0,0-.32-.7,1.742,1.742,0,0,0-.59-.492,1.676,1.676,0,0,0-.787-.189H12.76l-2.395,8.906a1.389,1.389,0,0,1-.492.722,1.305,1.305,0,0,1-.82.279ZM27.226,6.659l.049-.18a.24.24,0,0,0-.041-.221.251.251,0,0,0-.205-.09H21.7a1.31,1.31,0,0,1-.623-.148,1.37,1.37,0,0,1-.459-.385,1.351,1.351,0,0,1-.246-.549,1.406,1.406,0,0,1,.016-.64L20.714,3.2h7.217a2.587,2.587,0,0,1,1.23.3,2.835,2.835,0,0,1,.927.771A2.746,2.746,0,0,1,30.6,5.355a2.712,2.712,0,0,1-.025,1.271l-1.3,4.822A2.221,2.221,0,0,1,27.111,13.1l-5.331-.016a2.821,2.821,0,0,1-2.263-1.107,2.98,2.98,0,0,1-.525-1.148,2.709,2.709,0,0,1,.033-1.32l.066-.246a2.612,2.612,0,0,1,.385-.853,2.965,2.965,0,0,1,.632-.673,2.856,2.856,0,0,1,.8-.435,2.8,2.8,0,0,1,.935-.156h4.478L26,8.381A1.388,1.388,0,0,1,25.5,9.1a1.3,1.3,0,0,1-.82.279h-2a.347.347,0,0,0-.361.279.336.336,0,0,0,.066.32.365.365,0,0,0,.3.139h3.231a.506.506,0,0,0,.312-.1.421.421,0,0,0,.164-.262l.033-.131Zm9.546-3.428a4.67,4.67,0,0,1,2.189.517,4.913,4.913,0,0,1,1.648,1.37A4.837,4.837,0,0,1,41.5,7.069a4.687,4.687,0,0,1-.074,2.247L40.61,12.4a.9.9,0,0,1-.353.525,1,1,0,0,1-.6.2H37.887a.6.6,0,0,1-.59-.771l.984-3.723a1.609,1.609,0,0,0,.025-.8,1.815,1.815,0,0,0-.32-.7,1.742,1.742,0,0,0-.591-.492,1.676,1.676,0,0,0-.787-.189H34.771L33.18,12.4a.9.9,0,0,1-.353.525,1.02,1.02,0,0,1-.615.2H30.457a.59.59,0,0,1-.484-.238.57.57,0,0,1-.107-.533l2.427-9.119Zm9.66,3.125a.84.84,0,0,0-.279.4l-.738,2.788a.494.494,0,0,0,.476.623h6.79l-.525,1.952a1.389,1.389,0,0,1-.492.722,1.305,1.305,0,0,1-.82.279H44.661a2.645,2.645,0,0,1-1.23-.287,2.7,2.7,0,0,1-.927-.771,2.809,2.809,0,0,1-.508-1.1,2.512,2.512,0,0,1,.041-1.255l1-3.723a3.69,3.69,0,0,1,.509-1.115,3.68,3.68,0,0,1,1.862-1.435,3.605,3.605,0,0,1,1.206-.205h4.379a2.588,2.588,0,0,1,1.23.3,2.837,2.837,0,0,1,.927.771,2.663,2.663,0,0,1,.5,1.1,2.746,2.746,0,0,1-.033,1.263l-.3,1.115a2.135,2.135,0,0,1-.8,1.189,2.191,2.191,0,0,1-1.353.451H46.219L46.547,8.2a1.3,1.3,0,0,1,.476-.722,1.329,1.329,0,0,1,.837-.279h2a.348.348,0,0,0,.361-.279l.066-.246a.378.378,0,0,0-.361-.476H46.875A.7.7,0,0,0,46.432,6.356Zm6.232,6.766L55.961.738a.935.935,0,0,1,.353-.533A.992.992,0,0,1,56.929,0h1.755a.608.608,0,0,1,.5.238.569.569,0,0,1,.107.533L56.83,9.907a4.067,4.067,0,0,1-.582,1.312,4.293,4.293,0,0,1-.951,1.009,4.453,4.453,0,0,1-1.222.656A4.2,4.2,0,0,1,52.664,13.121Z" transform="translate(0 0)" fill="#fff"/>
    </g>
  </g>
</svg>
