<svg xmlns="http://www.w3.org/2000/svg" width="121" height="54" viewBox="0 0 121 54">
  <g id="cpanel" transform="translate(0 -0.481)">
    <rect id="box" width="121" height="54" rx="10" transform="translate(0 0.481)" fill="#fc6c2c"/>
    <g id="cpanel-2" data-name="cpanel" transform="translate(18.168 17.818)">
      <path id="Path_235" data-name="Path 235" d="M7.077,4.663h5.349L11.6,7.835a2,2,0,0,1-.71,1.065,1.917,1.917,0,0,1-1.207.4H7.195a2.408,2.408,0,0,0-1.5.5,2.6,2.6,0,0,0-.911,1.349,2.516,2.516,0,0,0-.035,1.207,2.6,2.6,0,0,0,.462,1.006,2.385,2.385,0,0,0,.852.7,2.5,2.5,0,0,0,1.136.26H8.71a.853.853,0,0,1,.7.343.822.822,0,0,1,.154.769l-.947,3.5H6.958a6.689,6.689,0,0,1-3.136-.746,7.076,7.076,0,0,1-2.379-1.976A6.979,6.979,0,0,1,.236,10.178l.095-.355a7,7,0,0,1,2.5-3.728A7.1,7.1,0,0,1,4.8,5.042,6.871,6.871,0,0,1,7.077,4.663Zm2.7,14.273L14.438,1.468A2,2,0,0,1,15.148.4,1.918,1.918,0,0,1,16.355,0H21.3a6.689,6.689,0,0,1,3.136.746,7.038,7.038,0,0,1,3.681,4.781,6.615,6.615,0,0,1-.095,3.231l-.095.355a7.1,7.1,0,0,1-.947,2.095A6.916,6.916,0,0,1,21.207,14.3H16.923l.852-3.2a2,2,0,0,1,.71-1.041,1.919,1.919,0,0,1,1.207-.4h1.373a2.49,2.49,0,0,0,2.414-1.87,2.325,2.325,0,0,0,.036-1.16,2.616,2.616,0,0,0-.462-1.006,2.514,2.514,0,0,0-.852-.71,2.419,2.419,0,0,0-1.136-.272H18.414L14.958,17.492a2,2,0,0,1-.71,1.041,1.883,1.883,0,0,1-1.183.4ZM39.29,9.61l.071-.26a.346.346,0,0,0-.059-.32.362.362,0,0,0-.3-.13H31.314a1.891,1.891,0,0,1-.9-.213,1.978,1.978,0,0,1-.663-.556,1.95,1.95,0,0,1-.355-.793,2.028,2.028,0,0,1,.024-.923l.473-1.8H40.308a3.734,3.734,0,0,1,1.775.426,4.092,4.092,0,0,1,1.337,1.112,3.963,3.963,0,0,1,.734,1.574,3.914,3.914,0,0,1-.035,1.834l-1.87,6.959a3.2,3.2,0,0,1-3.124,2.391l-7.693-.024a4.071,4.071,0,0,1-3.266-1.6,4.3,4.3,0,0,1-.757-1.657,3.909,3.909,0,0,1,.047-1.905l.095-.355a3.769,3.769,0,0,1,.556-1.231,4.28,4.28,0,0,1,.911-.971,4.121,4.121,0,0,1,1.16-.627,4.038,4.038,0,0,1,1.349-.225h6.462L37.515,12.1a2,2,0,0,1-.71,1.041,1.883,1.883,0,0,1-1.183.4H32.734a.5.5,0,0,0-.521.4.486.486,0,0,0,.095.462.526.526,0,0,0,.426.2H37.4a.73.73,0,0,0,.45-.142.608.608,0,0,0,.237-.379l.047-.189ZM53.066,4.663a6.739,6.739,0,0,1,3.16.746A7.09,7.09,0,0,1,58.6,7.385a6.981,6.981,0,0,1,1.29,2.817,6.763,6.763,0,0,1-.106,3.243L58.6,17.894a1.3,1.3,0,0,1-.509.757,1.436,1.436,0,0,1-.864.284H54.675a.869.869,0,0,1-.852-1.112l1.42-5.373a2.322,2.322,0,0,0,.035-1.16,2.619,2.619,0,0,0-.461-1.006,2.513,2.513,0,0,0-.852-.71A2.419,2.419,0,0,0,52.829,9.3H50.178l-2.3,8.592a1.3,1.3,0,0,1-.509.757,1.471,1.471,0,0,1-.888.284H43.953a.851.851,0,0,1-.7-.343.822.822,0,0,1-.154-.769l3.5-13.16ZM67.007,9.172a1.212,1.212,0,0,0-.4.58L65.54,13.776a.713.713,0,0,0,.687.9h9.8l-.757,2.817a2,2,0,0,1-.71,1.041,1.884,1.884,0,0,1-1.183.4H64.451a3.817,3.817,0,0,1-1.775-.414,3.9,3.9,0,0,1-1.337-1.112,4.054,4.054,0,0,1-.734-1.586,3.625,3.625,0,0,1,.059-1.811l1.444-5.373a5.325,5.325,0,0,1,.734-1.61,5.31,5.31,0,0,1,2.686-2.071,5.2,5.2,0,0,1,1.74-.3h6.32a3.735,3.735,0,0,1,1.775.426A4.094,4.094,0,0,1,76.7,6.2a3.842,3.842,0,0,1,.722,1.586,3.963,3.963,0,0,1-.047,1.823l-.426,1.61A3.08,3.08,0,0,1,75.8,12.935a3.162,3.162,0,0,1-1.953.651H66.7l.473-1.752a1.874,1.874,0,0,1,.686-1.041,1.918,1.918,0,0,1,1.207-.4h2.888a.5.5,0,0,0,.521-.4l.095-.355a.546.546,0,0,0-.521-.686h-4.4A1,1,0,0,0,67.007,9.172ZM76,18.936,80.759,1.065A1.35,1.35,0,0,1,81.268.3a1.432,1.432,0,0,1,.888-.3h2.533a.877.877,0,0,1,.722.343.822.822,0,0,1,.154.769L82.013,14.3a5.87,5.87,0,0,1-.84,1.894A6.2,6.2,0,0,1,79.8,17.646a6.426,6.426,0,0,1-1.763.947A6.054,6.054,0,0,1,76,18.936Z" transform="translate(0 0)" fill="#fff"/>
    </g>
  </g>
</svg>
