<svg xmlns="http://www.w3.org/2000/svg" width="281" height="128" viewBox="0 0 281 128">
  <g id="cpanel" transform="translate(-232 -163)">
    <rect id="box" width="281" height="128" rx="10" transform="translate(232 163)" fill="#fc6c2c"/>
    <g id="cpanel-2" data-name="cpanel" transform="translate(274 205.486)">
      <path id="Path_235" data-name="Path 235" d="M16.359,10.779H28.725L26.81,18.112a4.635,4.635,0,0,1-1.642,2.462,4.433,4.433,0,0,1-2.79.93H16.633a5.566,5.566,0,0,0-3.475,1.149,6.009,6.009,0,0,0-2.107,3.119,5.817,5.817,0,0,0-.082,2.791,6.019,6.019,0,0,0,1.067,2.326,5.514,5.514,0,0,0,1.97,1.615,5.779,5.779,0,0,0,2.626.6h3.5a1.972,1.972,0,0,1,1.614.793,1.9,1.9,0,0,1,.356,1.778l-2.189,8.1h-3.83a15.463,15.463,0,0,1-7.25-1.723,16.358,16.358,0,0,1-5.5-4.569A16.134,16.134,0,0,1,.546,23.529l.219-.821A16.175,16.175,0,0,1,6.537,14.09a16.4,16.4,0,0,1,4.569-2.435A15.885,15.885,0,0,1,16.359,10.779Zm6.237,33L33.376,3.393A4.627,4.627,0,0,1,35.018.93,4.434,4.434,0,0,1,37.808,0H49.245a15.464,15.464,0,0,1,7.25,1.724A16.271,16.271,0,0,1,65,12.777a15.292,15.292,0,0,1-.219,7.469l-.219.821a16.4,16.4,0,0,1-2.189,4.843A15.988,15.988,0,0,1,49.026,33.05h-9.9l1.97-7.387a4.626,4.626,0,0,1,1.642-2.408,4.435,4.435,0,0,1,2.79-.93H48.7A5.756,5.756,0,0,0,54.278,18a5.374,5.374,0,0,0,.082-2.681A6.047,6.047,0,0,0,53.293,13a5.812,5.812,0,0,0-1.97-1.642,5.592,5.592,0,0,0-2.626-.629H42.569L34.58,40.437a4.634,4.634,0,0,1-1.642,2.407,4.354,4.354,0,0,1-2.736.93ZM90.83,22.216l.164-.6a.8.8,0,0,0-.137-.739.837.837,0,0,0-.684-.3H72.39a4.372,4.372,0,0,1-2.079-.492A4.572,4.572,0,0,1,68.779,18.8a4.509,4.509,0,0,1-.821-1.833,4.689,4.689,0,0,1,.054-2.134l1.094-4.159H93.183a8.632,8.632,0,0,1,4.1.985,9.459,9.459,0,0,1,3.092,2.572,9.162,9.162,0,0,1,1.7,3.639,9.048,9.048,0,0,1-.082,4.241L97.669,38.194a7.408,7.408,0,0,1-7.223,5.527l-17.783-.055a9.412,9.412,0,0,1-7.551-3.693,9.941,9.941,0,0,1-1.751-3.83,9.037,9.037,0,0,1,.109-4.405l.219-.821a8.714,8.714,0,0,1,1.286-2.845,9.894,9.894,0,0,1,2.107-2.244,9.527,9.527,0,0,1,2.681-1.45,9.335,9.335,0,0,1,3.119-.52H87.82l-1.094,4.1a4.631,4.631,0,0,1-1.642,2.407,4.353,4.353,0,0,1-2.736.93H75.673a1.159,1.159,0,0,0-1.2.93,1.122,1.122,0,0,0,.219,1.067,1.216,1.216,0,0,0,.985.465h10.78a1.687,1.687,0,0,0,1.04-.328,1.405,1.405,0,0,0,.547-.876l.109-.438Zm31.846-11.436a15.579,15.579,0,0,1,7.3,1.724,16.391,16.391,0,0,1,5.5,4.569,16.138,16.138,0,0,1,2.982,6.511,15.635,15.635,0,0,1-.246,7.5L135.48,41.367a3,3,0,0,1-1.176,1.751,3.32,3.32,0,0,1-2,.656H126.4a2.008,2.008,0,0,1-1.97-2.572l3.283-12.421a5.369,5.369,0,0,0,.082-2.681,6.054,6.054,0,0,0-1.067-2.326,5.81,5.81,0,0,0-1.97-1.642,5.592,5.592,0,0,0-2.626-.629H116l-5.308,19.863a3,3,0,0,1-1.176,1.751,3.4,3.4,0,0,1-2.052.656h-5.855a1.968,1.968,0,0,1-1.614-.793,1.9,1.9,0,0,1-.356-1.778l8.1-30.424ZM154.9,21.2a2.8,2.8,0,0,0-.93,1.341l-2.462,9.3a1.647,1.647,0,0,0,1.587,2.079h22.653L174,40.437a4.634,4.634,0,0,1-1.642,2.407,4.355,4.355,0,0,1-2.736.93H148.995a8.825,8.825,0,0,1-4.1-.958,9.008,9.008,0,0,1-3.092-2.572,9.372,9.372,0,0,1-1.7-3.666,8.381,8.381,0,0,1,.137-4.186l3.337-12.421a12.31,12.31,0,0,1,1.7-3.721,12.275,12.275,0,0,1,6.21-4.788,12.027,12.027,0,0,1,4.022-.684h14.61a8.634,8.634,0,0,1,4.1.985,9.464,9.464,0,0,1,3.092,2.572A8.883,8.883,0,0,1,178.98,18a9.161,9.161,0,0,1-.109,4.213l-.985,3.721a7.121,7.121,0,0,1-2.654,3.967,7.311,7.311,0,0,1-4.514,1.5H154.193l1.094-4.049a4.333,4.333,0,0,1,1.587-2.408,4.434,4.434,0,0,1,2.791-.93h6.675a1.159,1.159,0,0,0,1.2-.93l.219-.821a1.261,1.261,0,0,0-1.2-1.587H156.382A2.322,2.322,0,0,0,154.9,21.2ZM175.7,43.775l11-41.312A3.121,3.121,0,0,1,187.871.684,3.311,3.311,0,0,1,189.923,0h5.855a2.027,2.027,0,0,1,1.669.793,1.9,1.9,0,0,1,.355,1.778L189.595,33.05a13.569,13.569,0,0,1-1.942,4.377,14.322,14.322,0,0,1-3.174,3.365,14.856,14.856,0,0,1-4.076,2.189A14,14,0,0,1,175.7,43.775Z" fill="#fff"/>
    </g>
  </g>
</svg>
