<svg xmlns="http://www.w3.org/2000/svg" width="121" height="55" viewBox="0 0 121 55">
  <g id="css" transform="translate(0.056 -0.459)">
    <rect id="box" width="121" height="55" rx="10" transform="translate(-0.056 0.459)" fill="#2965f1"/>
    <g id="css-3" transform="translate(41.181 6.098)">
      <path id="Path_118" data-name="Path 118" d="M19.024,113.733,3.451,109.407-.01,70.476H38.057L34.6,109.407l-15.573,4.326Z" transform="translate(0.01 -70.476)" fill="#264de4"/>
      <path id="Path_119" data-name="Path 119" d="M140.515,125.3l2.6-32.875H127.538v36.336l12.977-3.461Z" transform="translate(-108.505 -88.961)" fill="#2965f1"/>
      <path id="Path_120" data-name="Path 120" d="M53.851,188.68l.433,4.758H64.666V188.68Z" transform="translate(-45.632 -170.944)" fill="#ebebeb"/>
      <path id="Path_121" data-name="Path 121" d="M48.084,124.34l.433,4.758H59.763V124.34Z" transform="translate(-40.73 -116.121)" fill="#ebebeb"/>
      <path id="Path_122" data-name="Path 122" d="M68.043,241.681h0l-5.191-1.73-.433-3.893H57.661l.865,7.786,9.517,2.6h0v-4.758Z" transform="translate(-49.009 -211.401)" fill="#ebebeb"/>
      <path id="Path_126" data-name="Path 126" d="M138.712,133.857l.865-9.517H127.465V129.1h6.921l-.433,4.758h-6.489v4.758h6.056l-.433,6.056-5.623,1.73v4.758l9.949-2.6V147.7l1.3-12.545v-1.3Z" transform="translate(-108.432 -116.121)" fill="#fff"/>
    </g>
  </g>
</svg>
