<svg xmlns="http://www.w3.org/2000/svg" width="281" height="128" viewBox="0 0 281 128">
  <g id="cypress" transform="translate(-232 -163)">
    <rect id="box" width="281" height="128" rx="10" transform="translate(232 163)" fill="#5c5c5e"/>
    <g id="cypress-2" data-name="cypress" transform="translate(323 177.485)">
      <g id="Group_18" data-name="Group 18" transform="translate(3 3)">
        <path id="Path_232" data-name="Path 232" d="M49.258,3A46.258,46.258,0,1,1,3,49.258,46.231,46.231,0,0,1,49.258,3Z" transform="translate(-3 -3)" fill="#fff"/>
      </g>
      <path id="Path_233" data-name="Path 233" d="M52.02,7.386A44.634,44.634,0,1,1,7.386,52.02,44.609,44.609,0,0,1,52.02,7.386Z" transform="translate(-2.763 -2.763)" fill="#fff"/>
      <path id="Path_234" data-name="Path 234" d="M93.952,112.274A23.443,23.443,0,0,1,86.486,123.8c-3.408,2.759-7.953,4.22-13.634,4.707l-1.136-7.466c3.733-.487,6.492-1.3,8.278-2.6a21,21,0,0,0,1.948-1.948L68.47,73.32h11.2l7.791,32.3,8.278-32.3h10.875ZM54.836,71.86A18.527,18.527,0,0,1,61.816,73a20.976,20.976,0,0,1,6.005,3.571l-4.545,6.168a17.8,17.8,0,0,0-3.733-2.11,10.347,10.347,0,0,0-3.9-.649c-5.518,0-8.278,4.22-8.278,12.822,0,4.382.649,7.466,2.11,9.252,1.461,1.948,3.408,2.759,6.168,2.759a9.522,9.522,0,0,0,3.733-.649,33.275,33.275,0,0,0,4.058-2.11l4.545,6.492a19.388,19.388,0,0,1-12.822,4.545A20.085,20.085,0,0,1,45.1,110.651a16.338,16.338,0,0,1-6.492-7.142,24.988,24.988,0,0,1-2.272-10.875A25.511,25.511,0,0,1,38.606,81.76,17.192,17.192,0,0,1,45.1,74.294,20.587,20.587,0,0,1,54.836,71.86Z" transform="translate(-20.998 -43.377)" fill="#5c5c5e"/>
    </g>
  </g>
</svg>
