<svg xmlns="http://www.w3.org/2000/svg" width="84" height="37" viewBox="0 0 84 37">
  <g id="cypress" transform="translate(0.087 -0.282)">
    <rect id="box" width="84" height="37" rx="10" transform="translate(-0.087 0.282)" fill="#5c5c5e"/>
    <g id="cypress-2" data-name="cypress" transform="translate(27.846 4.441)">
      <g id="Group_18" data-name="Group 18" transform="translate(0 0)">
        <path id="Path_232" data-name="Path 232" d="M16.866,3A13.866,13.866,0,1,1,3,16.866,13.858,13.858,0,0,1,16.866,3Z" transform="translate(-3 -3)" fill="#fff"/>
      </g>
      <path id="Path_233" data-name="Path 233" d="M20.765,7.386A13.379,13.379,0,1,1,7.386,20.765,13.371,13.371,0,0,1,20.765,7.386Z" transform="translate(-6.899 -6.899)" fill="#fff"/>
      <path id="Path_234" data-name="Path 234" d="M53.6,83.974a7.027,7.027,0,0,1-2.238,3.454,7.319,7.319,0,0,1-4.087,1.411L46.939,86.6a5.512,5.512,0,0,0,2.481-.778A6.3,6.3,0,0,0,50,85.239L45.966,72.3h3.357l2.335,9.682L54.14,72.3H57.4ZM41.88,71.86a5.553,5.553,0,0,1,2.092.341,6.288,6.288,0,0,1,1.8,1.07l-1.362,1.849a5.335,5.335,0,0,0-1.119-.632,3.1,3.1,0,0,0-1.168-.195c-1.654,0-2.481,1.265-2.481,3.843a4.477,4.477,0,0,0,.632,2.773,2.1,2.1,0,0,0,1.849.827,2.855,2.855,0,0,0,1.119-.195,9.973,9.973,0,0,0,1.216-.632l1.362,1.946a5.811,5.811,0,0,1-3.843,1.362,6.02,6.02,0,0,1-3.016-.73,4.9,4.9,0,0,1-1.946-2.141,7.49,7.49,0,0,1-.681-3.26,7.647,7.647,0,0,1,.681-3.26,5.153,5.153,0,0,1,1.946-2.238A6.171,6.171,0,0,1,41.88,71.86Z" transform="translate(-32.636 -64.221)" fill="#5c5c5e"/>
    </g>
  </g>
</svg>
