<svg xmlns="http://www.w3.org/2000/svg" width="121" height="55" viewBox="0 0 121 55">
  <g id="cypress" transform="translate(-0.301 -0.459)">
    <rect id="box" width="121" height="55" rx="10" transform="translate(0.301 0.459)" fill="#5c5c5e"/>
    <g id="cypress-2" data-name="cypress" transform="translate(40.231 7.31)">
      <g id="Group_18" data-name="Group 18" transform="translate(0 0)">
        <path id="Path_232" data-name="Path 232" d="M23.01,3A20.01,20.01,0,1,1,3,23.01,20,20,0,0,1,23.01,3Z" transform="translate(-3 -3)" fill="#fff"/>
      </g>
      <path id="Path_233" data-name="Path 233" d="M26.694,7.386A19.308,19.308,0,1,1,7.386,26.694,19.3,19.3,0,0,1,26.694,7.386Z" transform="translate(-6.684 -6.684)" fill="#fff"/>
      <path id="Path_234" data-name="Path 234" d="M61.258,89.342a10.141,10.141,0,0,1-3.23,4.985,10.563,10.563,0,0,1-5.9,2.036l-.491-3.23A7.954,7.954,0,0,0,55.22,92.01a9.086,9.086,0,0,0,.843-.843L50.235,72.492h4.844l3.37,13.972L62.03,72.492h4.7ZM44.337,71.86a8.014,8.014,0,0,1,3.019.491,9.074,9.074,0,0,1,2.6,1.545l-1.966,2.668a7.7,7.7,0,0,0-1.615-.913,4.476,4.476,0,0,0-1.685-.281c-2.387,0-3.581,1.825-3.581,5.547,0,1.9.281,3.23.913,4a3.035,3.035,0,0,0,2.668,1.194,4.119,4.119,0,0,0,1.615-.281,14.394,14.394,0,0,0,1.755-.913l1.966,2.808a8.387,8.387,0,0,1-5.547,1.966,8.688,8.688,0,0,1-4.353-1.053,7.067,7.067,0,0,1-2.808-3.089,10.809,10.809,0,0,1-.983-4.7,11.035,11.035,0,0,1,.983-4.7,7.437,7.437,0,0,1,2.808-3.23A8.9,8.9,0,0,1,44.337,71.86Z" transform="translate(-30.997 -60.837)" fill="#5c5c5e"/>
    </g>
  </g>
</svg>
