<svg xmlns="http://www.w3.org/2000/svg" width="121" height="54" viewBox="0 0 121 54">
  <g id="digital-ocean" transform="translate(0.056 0.443)">
    <rect id="box" width="121" height="54" rx="10" transform="translate(-0.056 -0.443)" fill="#1780ff"/>
    <g id="digital-ocean-2" data-name="digital-ocean" transform="translate(31.665 5.315)">
      <path id="Path_4" data-name="Path 4" d="M78.115,23.735v5.623A14.52,14.52,0,0,0,91.957,10.325a13.809,13.809,0,0,0-9.084-9.084A14.868,14.868,0,0,0,63.408,15.083h5.623A9.43,9.43,0,0,1,81.576,6.432a8.31,8.31,0,0,1,4.758,5.191,8.856,8.856,0,0,1-8.219,12.112V18.111H72.492v5.623ZM72.492,28.06H68.166V23.735h4.326V28.06Zm-4.326-4.326H64.705V20.274h3.461Z" transform="translate(-49.133 -0.527)" fill="#fff"/>
      <path id="Path_5" data-name="Path 5" d="M5.191,150.034a5.821,5.821,0,0,0-3.028-.865H0v7.354H2.163a5.592,5.592,0,0,0,3.028-.865c.4-.283.646-.369.865-.865s0-1.075,0-1.73.218-1.243,0-1.73A3.031,3.031,0,0,0,5.191,150.034Zm-3.893.433h.865a2.857,2.857,0,0,1,1.73.433,2.563,2.563,0,0,1,.865,2.163,1.76,1.76,0,0,1-.865,1.73h0a2.757,2.757,0,0,1-1.73.433H1.3Zm6.056,6.056h1.3v-5.191h-1.3Zm.433-7.354c-.222,0-.279.278-.433.433s-.433.21-.433.433.277.277.433.433.211.433.433.433a1.881,1.881,0,0,0,.865-.433c.155-.155,0-.211,0-.433s.155-.285,0-.433A1.882,1.882,0,0,0,7.786,149.169Zm5.623,2.6a1.818,1.818,0,0,0-1.3-.433,3.394,3.394,0,0,0-2.163.865c-.464.485-.433.985-.433,1.73a2.211,2.211,0,0,0,.433,1.73,3.428,3.428,0,0,0,2.163.865,2.078,2.078,0,0,0,1.3-.433h0a2.292,2.292,0,0,1-.433,1.3c-.226.228-.474,0-.865,0-.6,0-1.273.185-1.73-.433l-.865.433v.433c.191.268.479.183.865.433a3.757,3.757,0,0,0,1.73.433c.771,0,1.271.036,1.73-.433a3.444,3.444,0,0,0,.865-2.163v-4.758h-1.3Zm-.433,3.028a1.081,1.081,0,0,1-1.73,0,1.081,1.081,0,0,1,0-1.73,1.081,1.081,0,0,1,1.73,0,1.081,1.081,0,0,1,0,1.73Zm2.6,1.73h1.3v-5.191h-1.3Zm.865-7.354a1.885,1.885,0,0,0-.865.433c-.156.148,0,.21,0,.433s-.155.277,0,.433a1.878,1.878,0,0,0,.865.433c.222,0,.277-.277.433-.433s0-.211,0-.433.155-.285,0-.433S16.659,149.169,16.438,149.169Zm3.461.865H18.6v1.3h-.865v1.3H18.6v2.163a1.692,1.692,0,0,0,.433,1.3,1.641,1.641,0,0,0,1.3.433c.211,0,.225.013.433,0h0v-.865h-.433c-.309,0-.334-.326-.433-.433s0-.088,0-.433v-2.163h.865v-1.3H19.9Zm5.623,1.73h0a2.741,2.741,0,0,0-1.73-.433,3.2,3.2,0,0,0-1.3.433,2.2,2.2,0,0,0-.865.865h0l.865.865a1.583,1.583,0,0,1,1.3-.865c.271,0,.692-.143.865,0s0,.635,0,.865h0a2.566,2.566,0,0,0-.865,0,3.056,3.056,0,0,0-1.73.433,1.454,1.454,0,0,0-.433,1.3,1.718,1.718,0,0,0,.433,1.3,2.023,2.023,0,0,0,1.3.433c.494,0,.878-.524,1.3-.865v.433h1.3v-3.028C25.954,152.866,25.918,152.1,25.522,151.764Zm-2.6,3.028a2.192,2.192,0,0,1,.865-.433c.313,0,.524.309.865.433v.433c-.282.262-.4.433-.865.433-.225,0-.745.1-.865,0s0-.277,0-.433C22.926,155.048,22.784,154.891,22.926,154.792Zm4.326,1.73h1.3v-7.354h-1.3Zm5.623.433a3.92,3.92,0,0,1,0-7.786,3.893,3.893,0,0,1,0,7.786Zm0-6.489a2.639,2.639,0,0,0,0,5.191,2.6,2.6,0,1,0,0-5.191Zm8.651,4.326c-.232.26-.682.315-.865.433h0c-.179.115-.165.433-.433.433a1.047,1.047,0,0,1-.865-.433,2.241,2.241,0,0,1-.433-1.3c0-.438.187-.582.433-.865a1.048,1.048,0,0,1,.865-.433,2.111,2.111,0,0,1,1.3.865l.865-.865a2.879,2.879,0,0,0-2.163-1.3,3.379,3.379,0,0,0-2.163.865c-.5.508-.433.962-.433,1.73s-.07,1.651.433,2.163a3.366,3.366,0,0,0,2.163.865,2.633,2.633,0,0,0,2.163-1.3Zm5.191-2.6c-.184-.257-.555-.282-.865-.433s-.463-.433-.865-.433a2.2,2.2,0,0,0-1.73.865,2.626,2.626,0,0,0-.865,1.73,3.407,3.407,0,0,0,.865,2.163,2.277,2.277,0,0,0,1.73.865,2.9,2.9,0,0,0,2.163-1.3h0l-.865-.865c-.079.095.1.337,0,.433-.128.121-.3.368-.433.433a2.6,2.6,0,0,1-.865,0,1.315,1.315,0,0,1-.865-.433,1.464,1.464,0,0,1-.433-.865H47.15v-.433a2.785,2.785,0,0,0,0-.865A3.008,3.008,0,0,0,46.718,152.2Zm-2.6,1.3c.062-.247-.163-.706,0-.865s.589,0,.865,0c.315,0,.7-.177.865,0s-.018.626,0,.865Zm7.786-1.73h0a2.741,2.741,0,0,0-1.73-.433,3.2,3.2,0,0,0-1.3.433,2.2,2.2,0,0,0-.865.865h0l.865.865a1.583,1.583,0,0,1,1.3-.865c.271,0,.26-.143.433,0a1.653,1.653,0,0,1,.433.865h0a2.566,2.566,0,0,0-.865,0,3.056,3.056,0,0,0-1.73.433,1.454,1.454,0,0,0-.433,1.3,1.718,1.718,0,0,0,.433,1.3,2.022,2.022,0,0,0,1.3.433c.494,0,.878-.524,1.3-.865v.433h1.3v-3.028C52.341,152.866,52.3,152.1,51.909,151.764Zm-2.6,3.028a2.192,2.192,0,0,1,.865-.433c.313,0,.524.309.865.433v.433a2.094,2.094,0,0,1-1.3.433c-.225,0-.312.1-.433,0s0-.277,0-.433C49.313,155.048,49.171,154.891,49.313,154.792Zm8.219-2.6a2.66,2.66,0,0,0-1.73-.865,1.889,1.889,0,0,0-1.3.433v-.433h-1.3v5.191h1.3v-2.6a1.342,1.342,0,0,1,.433-.865,1.224,1.224,0,0,1,.865-.433c.294,0,.268.235.433.433s.433.091.433.433v3.028h1.3v-3.028A1.485,1.485,0,0,0,57.532,152.2Z" transform="translate(0 -115.579)" fill="#fff"/>
    </g>
  </g>
</svg>
