<svg xmlns="http://www.w3.org/2000/svg" width="281" height="128" viewBox="0 0 281 128">
  <g id="digital-ocean" transform="translate(-232 -163)">
    <rect id="box" width="281" height="128" rx="10" transform="translate(232 163)" fill="#1780ff"/>
    <g id="digital-ocean-2" data-name="digital-ocean" transform="translate(306 176.823)">
      <path id="Path_4" data-name="Path 4" d="M97.408,54.177v13a33.566,33.566,0,0,0,32-44,31.923,31.923,0,0,0-21-21c-22.984-7.175-45,10.066-45,32h13c0-13.765,14.528-25.251,29-20,5.361,1.946,9.053,6.639,11,12,5.252,14.463-5.247,27.98-19,28v-13h-13v13Zm-13,10h-10v-10h10v10Zm-10-10h-8v-8h8Z" transform="translate(-30.408 0)" fill="#fff"/>
      <path id="Path_5" data-name="Path 5" d="M12,151.169a13.457,13.457,0,0,0-7-2H0v17H5a12.927,12.927,0,0,0,7-2c.922-.654,1.493-.852,2-2s0-2.486,0-4c0-1.5.5-2.874,0-4A7.006,7.006,0,0,0,12,151.169Zm-9,1H5a6.605,6.605,0,0,1,4,1c1.292.779,2,2.856,2,5,0,2.208-.705,3.152-2,4H9a6.373,6.373,0,0,1-4,1H3Zm14,14h3v-12H17Zm1-17c-.513,0-.644.644-1,1s-1,.485-1,1,.641.641,1,1,.487,1,1,1a4.348,4.348,0,0,0,2-1c.359-.359,0-.488,0-1s.358-.659,0-1A4.351,4.351,0,0,0,18,149.169Zm13,6a4.2,4.2,0,0,0-3-1,7.845,7.845,0,0,0-5,2c-1.072,1.12-1,2.277-1,4,0,1.684-.058,2.848,1,4a7.924,7.924,0,0,0,5,2,4.8,4.8,0,0,0,3-1h0a5.3,5.3,0,0,1-1,3c-.522.528-1.095,0-2,0-1.385,0-2.943.429-4-1l-2,1v1c.441.62,1.108.424,2,1a8.685,8.685,0,0,0,4,1c1.782,0,2.939.083,4-1a7.961,7.961,0,0,0,2-5v-11H31Zm-1,7a2.5,2.5,0,0,1-4,0,2.5,2.5,0,0,1,0-4,2.5,2.5,0,0,1,4,0,2.5,2.5,0,0,1,0,4Zm6,4h3v-12H36Zm2-17a4.357,4.357,0,0,0-2,1c-.36.343,0,.485,0,1s-.359.641,0,1a4.342,4.342,0,0,0,2,1c.512,0,.641-.641,1-1s0-.488,0-1,.358-.659,0-1C38.641,149.81,38.512,149.169,38,149.169Zm8,2H43v3H41v3h2v5a3.911,3.911,0,0,0,1,3,3.794,3.794,0,0,0,3,1c.488,0,.52.031,1,0h0v-2H47c-.715,0-.773-.753-1-1s0-.2,0-1v-5h2v-3H46Zm13,4h0a6.335,6.335,0,0,0-4-1,7.409,7.409,0,0,0-3,1,5.082,5.082,0,0,0-2,2h0l2,2a3.661,3.661,0,0,1,3-2c.627,0,1.6-.332,2,0s0,1.469,0,2h0a5.931,5.931,0,0,0-2,0,7.066,7.066,0,0,0-4,1c-.914.7-1,1.722-1,3a3.972,3.972,0,0,0,1,3,4.675,4.675,0,0,0,3,1c1.143,0,2.029-1.212,3-2v1h3v-7C60,157.717,59.916,155.951,59,155.169Zm-6,7a5.068,5.068,0,0,1,2-1c.723,0,1.21.714,2,1v1c-.652.606-.933,1-2,1-.52,0-1.722.228-2,0s0-.64,0-1C53,162.759,52.671,162.4,53,162.169Zm10,4h3v-17H63Zm13,1c-4.814,0-8-4.186-8-9s3.186-9,8-9a9,9,0,0,1,0,18Zm0-15c-3.117,0-5,2.883-5,6s1.883,6,5,6a6,6,0,0,0,0-12Zm20,10c-.537.6-1.577.729-2,1h0c-.415.266-.382,1-1,1a2.421,2.421,0,0,1-2-1,5.181,5.181,0,0,1-1-3c0-1.014.431-1.345,1-2a2.422,2.422,0,0,1,2-1c.967,0,2.127.967,3,2l2-2c-1.293-1.683-3.031-3-5-3a7.811,7.811,0,0,0-5,2c-1.163,1.175-1,2.224-1,4s-.162,3.817,1,5a7.781,7.781,0,0,0,5,2,6.087,6.087,0,0,0,5-3Zm12-6c-.425-.593-1.282-.651-2-1s-1.07-1-2-1a5.089,5.089,0,0,0-4,2c-1,1.211-2,2.242-2,4a7.877,7.877,0,0,0,2,5,5.263,5.263,0,0,0,4,2c2.024,0,3.749-1.386,5-3h0l-2-2c-.182.219.235.779,0,1-.3.28-.7.852-1,1a6,6,0,0,1-2,0,3.04,3.04,0,0,1-2-1,3.384,3.384,0,0,1-1-2h8v-1a6.439,6.439,0,0,0,0-2A6.954,6.954,0,0,0,108,156.169Zm-6,3c.144-.571-.376-1.631,0-2,.407-.4,1.363,0,2,0,.727,0,1.617-.41,2,0,.355.378-.042,1.448,0,2Zm18-4h0a6.335,6.335,0,0,0-4-1,7.409,7.409,0,0,0-3,1,5.077,5.077,0,0,0-2,2h0l2,2a3.661,3.661,0,0,1,3-2c.627,0,.6-.332,1,0a3.821,3.821,0,0,1,1,2h0a5.931,5.931,0,0,0-2,0,7.066,7.066,0,0,0-4,1c-.914.7-1,1.722-1,3a3.972,3.972,0,0,0,1,3,4.675,4.675,0,0,0,3,1c1.143,0,2.03-1.212,3-2v1h3v-7C121,157.717,120.916,155.951,120,155.169Zm-6,7a5.068,5.068,0,0,1,2-1c.723,0,1.21.714,2,1v1a4.841,4.841,0,0,1-3,1c-.519,0-.722.228-1,0s0-.64,0-1C114,162.759,113.671,162.4,114,162.169Zm19-6a6.149,6.149,0,0,0-4-2,4.367,4.367,0,0,0-3,1v-1h-3v12h3v-6a3.1,3.1,0,0,1,1-2,2.831,2.831,0,0,1,2-1c.68,0,.62.544,1,1s1,.211,1,1v7h3v-7C134,157.517,133.832,157.1,133,156.169Z" transform="translate(0 -70.991)" fill="#fff"/>
    </g>
  </g>
</svg>
