<svg xmlns="http://www.w3.org/2000/svg" width="85" height="37" viewBox="0 0 85 37">
  <g id="digital-ocean" transform="translate(0.058 -0.2)">
    <rect id="box" width="85" height="37" rx="10" transform="translate(-0.058 0.2)" fill="#1780ff"/>
    <g id="digital-ocean-2" data-name="digital-ocean" transform="translate(22.561 3.772)">
      <path id="Path_4" data-name="Path 4" d="M73.6,16.609v3.9A10.061,10.061,0,0,0,83.191,7.316,9.569,9.569,0,0,0,76.9,1.022a10.3,10.3,0,0,0-13.489,9.592h3.9A6.535,6.535,0,0,1,76,4.619a5.758,5.758,0,0,1,3.3,3.6,6.137,6.137,0,0,1-5.7,8.393v-3.9H69.7v3.9Zm-3.9,3h-3v-3h3v3Zm-3-3h-2.4v-2.4h2.4Z" transform="translate(-53.516 -0.527)" fill="#fff"/>
      <path id="Path_5" data-name="Path 5" d="M3.6,149.768a4.034,4.034,0,0,0-2.1-.6H0v5.1H1.5a3.875,3.875,0,0,0,2.1-.6c.276-.2.448-.256.6-.6s0-.745,0-1.2.151-.862,0-1.2A2.1,2.1,0,0,0,3.6,149.768Zm-2.7.3h.6a1.98,1.98,0,0,1,1.2.3,1.776,1.776,0,0,1,.6,1.5,1.22,1.22,0,0,1-.6,1.2h0a1.91,1.91,0,0,1-1.2.3H.9Zm4.2,4.2h.9v-3.6H5.1Zm.3-5.1c-.154,0-.193.193-.3.3s-.3.145-.3.3.192.192.3.3.146.3.3.3a1.3,1.3,0,0,0,.6-.3c.108-.108,0-.146,0-.3s.107-.2,0-.3A1.3,1.3,0,0,0,5.4,149.169Zm3.9,1.8a1.26,1.26,0,0,0-.9-.3,2.352,2.352,0,0,0-1.5.6c-.321.336-.3.683-.3,1.2a1.532,1.532,0,0,0,.3,1.2,2.375,2.375,0,0,0,1.5.6,1.44,1.44,0,0,0,.9-.3h0a1.588,1.588,0,0,1-.3.9c-.156.158-.328,0-.6,0-.415,0-.882.128-1.2-.3l-.6.3v.3c.132.186.332.127.6.3a2.6,2.6,0,0,0,1.2.3c.534,0,.881.025,1.2-.3a2.386,2.386,0,0,0,.6-1.5v-3.3h-.9Zm-.3,2.1a.749.749,0,0,1-1.2,0,.749.749,0,0,1,0-1.2.749.749,0,0,1,1.2,0,.749.749,0,0,1,0,1.2Zm1.8,1.2h.9v-3.6h-.9Zm.6-5.1a1.306,1.306,0,0,0-.6.3c-.108.1,0,.145,0,.3s-.108.192,0,.3a1.3,1.3,0,0,0,.6.3c.154,0,.192-.192.3-.3s0-.146,0-.3.107-.2,0-.3S11.544,149.169,11.39,149.169Zm2.4.6h-.9v.9h-.6v.9h.6v1.5a1.172,1.172,0,0,0,.3.9,1.137,1.137,0,0,0,.9.3c.146,0,.156.009.3,0h0v-.6h-.3c-.214,0-.232-.226-.3-.3s0-.061,0-.3v-1.5h.6v-.9h-.6Zm3.9,1.2h0a1.9,1.9,0,0,0-1.2-.3,2.22,2.22,0,0,0-.9.3,1.523,1.523,0,0,0-.6.6h0l.6.6a1.1,1.1,0,0,1,.9-.6c.188,0,.48-.1.6,0s0,.44,0,.6h0a1.778,1.778,0,0,0-.6,0,2.118,2.118,0,0,0-1.2.3,1.008,1.008,0,0,0-.3.9,1.19,1.19,0,0,0,.3.9,1.4,1.4,0,0,0,.9.3c.343,0,.608-.363.9-.6v.3h.9v-2.1C17.985,151.731,17.96,151.2,17.685,150.967Zm-1.8,2.1a1.519,1.519,0,0,1,.6-.3c.217,0,.363.214.6.3v.3c-.2.182-.28.3-.6.3-.156,0-.516.068-.6,0s0-.192,0-.3S15.788,153.134,15.887,153.065Zm3,1.2h.9v-5.1h-.9Zm3.9.3a2.716,2.716,0,0,1,0-5.4,2.7,2.7,0,1,1,0,5.4Zm0-4.5a1.828,1.828,0,0,0,0,3.6,1.8,1.8,0,1,0,0-3.6Zm5.995,3c-.161.18-.473.218-.6.3h0c-.124.08-.115.3-.3.3a.726.726,0,0,1-.6-.3,1.553,1.553,0,0,1-.3-.9c0-.3.129-.4.3-.6a.726.726,0,0,1,.6-.3,1.463,1.463,0,0,1,.9.6l.6-.6a2,2,0,0,0-1.5-.9,2.341,2.341,0,0,0-1.5.6c-.349.352-.3.667-.3,1.2s-.048,1.144.3,1.5a2.332,2.332,0,0,0,1.5.6,1.824,1.824,0,0,0,1.5-.9Zm3.6-1.8c-.128-.178-.384-.2-.6-.3s-.321-.3-.6-.3a1.525,1.525,0,0,0-1.2.6,1.82,1.82,0,0,0-.6,1.2,2.361,2.361,0,0,0,.6,1.5,1.578,1.578,0,0,0,1.2.6,2.006,2.006,0,0,0,1.5-.9h0l-.6-.6c-.054.066.07.233,0,.3-.089.084-.21.255-.3.3a1.8,1.8,0,0,1-.6,0,.911.911,0,0,1-.6-.3,1.014,1.014,0,0,1-.3-.6h2.4v-.3a1.93,1.93,0,0,0,0-.6A2.084,2.084,0,0,0,32.373,151.267Zm-1.8.9c.043-.171-.113-.489,0-.6s.408,0,.6,0c.218,0,.485-.123.6,0s-.013.434,0,.6Zm5.4-1.2h0a1.9,1.9,0,0,0-1.2-.3,2.22,2.22,0,0,0-.9.3,1.522,1.522,0,0,0-.6.6h0l.6.6a1.1,1.1,0,0,1,.9-.6c.188,0,.18-.1.3,0a1.145,1.145,0,0,1,.3.6h0a1.778,1.778,0,0,0-.6,0,2.118,2.118,0,0,0-1.2.3,1.008,1.008,0,0,0-.3.9,1.19,1.19,0,0,0,.3.9,1.4,1.4,0,0,0,.9.3c.343,0,.608-.363.9-.6v.3h.9v-2.1C36.269,151.731,36.244,151.2,35.97,150.967Zm-1.8,2.1a1.519,1.519,0,0,1,.6-.3c.217,0,.363.214.6.3v.3a1.451,1.451,0,0,1-.9.3c-.156,0-.217.068-.3,0s0-.192,0-.3S34.073,153.134,34.171,153.065Zm5.7-1.8a1.843,1.843,0,0,0-1.2-.6,1.309,1.309,0,0,0-.9.3v-.3h-.9v3.6h.9v-1.8a.93.93,0,0,1,.3-.6.848.848,0,0,1,.6-.3c.2,0,.186.163.3.3s.3.063.3.3v2.1h.9v-2.1A1.029,1.029,0,0,0,39.866,151.267Z" transform="translate(0 -125.893)" fill="#fff"/>
    </g>
  </g>
</svg>
