<svg xmlns="http://www.w3.org/2000/svg" width="84" height="37" viewBox="0 0 84 37">
  <g id="docker" transform="translate(0 -0.2)">
    <rect id="box" width="84" height="37" rx="10" transform="translate(0 0.2)" fill="#2396ed"/>
    <g id="docker-icon" transform="translate(21.182 3.667)">
      <path id="Path_1" data-name="Path 1" d="M40.531,11.317a7.5,7.5,0,0,0-4.8-.6,6.986,6.986,0,0,0-2.7-4.5l-.9-.6-.6.9a7.614,7.614,0,0,0-1.2,4.5,6.471,6.471,0,0,0,.9,2.7,6.04,6.04,0,0,1-3,.6H.066l-.3.3a14.513,14.513,0,0,0,3,10.491c2.416,2.961,6.075,4.5,10.791,4.5,10.211,0,17.736-4.905,21.282-13.788,1.4.041,4.475.045,5.995-3a4.331,4.331,0,0,1,.3-.9l.3-.3-.9-.3ZM22.547-.374h-4.5v4.2h4.5v-4.2Zm0,5.1h-4.5v3.9h4.5v-3.9Zm-5.1,0h-4.2v3.9h4.2v-3.9Zm-5.1,0h-4.2v3.9h4.2v-3.9Zm-5.1,4.8h-4.2v3.9h4.2v-3.9Zm5.1,0h-4.2v3.9h4.2v-3.9Zm5.1,0h-4.2v3.9h4.2v-3.9Zm5.1,0h-4.5v3.9h4.5v-3.9Zm5.1,0h-4.5v3.9h4.5v-3.9Z" transform="translate(0.334 0.374)" fill="#fff"/>
    </g>
  </g>
</svg>
