<svg xmlns="http://www.w3.org/2000/svg" width="121" height="54" viewBox="0 0 121 54">
  <g id="docker" transform="translate(0 0.443)">
    <rect id="box" width="121" height="54" rx="10" transform="translate(0 -0.443)" fill="#2396ed"/>
    <g id="docker-icon" transform="translate(30.568 5.164)">
      <path id="Path_1" data-name="Path 1" d="M58.64,16.5c-1.35-.937-4.5-1.333-6.921-.865a10.082,10.082,0,0,0-3.893-6.489l-1.3-.865-.865,1.3a10.988,10.988,0,0,0-1.73,6.489,9.339,9.339,0,0,0,1.3,3.893,8.716,8.716,0,0,1-4.326.865H.243l-.433.433A20.944,20.944,0,0,0,4.136,36.4c3.487,4.273,8.767,6.489,15.573,6.489,14.735,0,25.595-7.079,30.713-19.9,2.025.059,6.458.064,8.651-4.326a6.25,6.25,0,0,1,.433-1.3l.433-.433-1.3-.433ZM32.686-.374H26.2V5.682h6.489V-.374Zm0,7.354H26.2V12.6h6.489V6.98Zm-7.354,0H19.276V12.6h6.056V6.98Zm-7.354,0H11.922V12.6h6.056V6.98ZM10.625,13.9H4.569v5.623h6.056V13.9Zm7.354,0H11.922v5.623h6.056V13.9Zm7.354,0H19.276v5.623h6.056V13.9Zm7.354,0H26.2v5.623h6.489V13.9Zm7.354,0H33.551v5.623h6.489V13.9Z" transform="translate(0.334 0.374)" fill="#fff"/>
    </g>
  </g>
</svg>
