<svg xmlns="http://www.w3.org/2000/svg" width="281" height="128" viewBox="0 0 281 128">
  <g id="docker" transform="translate(-232 -163)">
    <rect id="box" width="281" height="128" rx="10" transform="translate(232 163)" fill="#2396ed"/>
    <g id="docker-icon" transform="translate(303 177.374)">
      <path id="Path_1" data-name="Path 1" d="M136,38.626c-3.12-2.165-10.409-3.083-16-2-.65-5.413-3.8-10.805-9-15l-3-2-2,3a25.4,25.4,0,0,0-4,15,21.589,21.589,0,0,0,3,9c-1.82,1.083-5.059,2-10,2H1l-1,1c-.91,5.413-.661,22.009,10,35,8.061,9.878,20.268,15,36,15,34.064,0,59.169-16.365,71-46,4.681.135,14.929.149,20-10a14.448,14.448,0,0,1,1-3l1-1-3-1Zm-60-39H61v14H76v-14Zm0,17H61v13H76v-13Zm-17,0H45v13H59v-13Zm-17,0H28v13H42v-13Zm-17,16H11v13H25v-13Zm17,0H28v13H42v-13Zm17,0H45v13H59v-13Zm17,0H61v13H76v-13Zm17,0H78v13H93v-13Z" transform="translate(0)" fill="#fff"/>
    </g>
  </g>
</svg>
