<svg xmlns="http://www.w3.org/2000/svg" width="281" height="128" viewBox="0 0 281 128">
  <g id="electron" transform="translate(-232 -163)">
    <rect id="box" width="281" height="128" rx="10" transform="translate(232 163)" fill="#47848f"/>
    <g id="electron-2" data-name="electron" transform="translate(326 177.172)">
      <path id="Path_24" data-name="Path 24" d="M33,21.828c-13.111-2.388-23.868-.156-28,7-3.083,5.34-2.339,12.432,2,20,.369.644,1.356.369,2,0s1.369-.356,1-1c-3.909-6.817-5.528-13.621-3-18,3.432-5.945,12.88-8.207,25-6,.731.133,1.867-.269,2-1s-.269-.867-1-1Zm19-12c-1.07,2.069-3.51,3-6,3a5.718,5.718,0,0,1-6-6c0-3.554,2.446-7,6-7a7.442,7.442,0,0,1,7,7c0,.093,0-.092,0,0,10.652,5.509,18,24.3,18,46a84.784,84.784,0,0,1-4,25c-.222.709-.291,1.222-1,1a1.784,1.784,0,0,1-1-2c2.24-7.159,3-15.34,3-24C68,32.392,61.281,15.131,52,9.828Zm-46,60c.159-.012-.162,0,0,0,3.554,0,7,2.446,7,6a7.442,7.442,0,0,1-7,7c-3.554,0-6-3.446-6-7a5.223,5.223,0,0,1,3-5c-.969-12.027,11.9-27.971,31-39,7.935-4.581,16.238-8.337,24-10,.726-.156,1.844.274,2,1s-.274,1.844-1,2a85.123,85.123,0,0,0-24,9C17.01,44.215,5.588,59.128,6,69.828Zm75,10a10.018,10.018,0,0,1-1-4,5.718,5.718,0,0,1,6-6c3.554,0,7,2.446,7,6a7.442,7.442,0,0,1-7,7,7.056,7.056,0,0,1-4-1c-10.265,6.039-29.548,2.653-48-8a84.39,84.39,0,0,1-20-16,1.414,1.414,0,0,1,2-2c5.11,5.616,11.38,11.6,19,16C52.414,81.882,71.614,84.9,81,79.828Zm-1-23a1.414,1.414,0,0,1-2-2c7.935-9.373,10.425-19.068,7-25-2.486-4.306-7.334-5.9-15-6a2.737,2.737,0,0,1-2-2c.01-.742,1.258-1.01,2-1,8.524.111,14.966,2.745,18,8C92.123,35.969,88.585,46.686,80,56.828Zm-54,23c-.25-.7.3-.75,1-1s1.75-.7,2,0c4.149,11.586,10.141,19,17,19,4.933,0,10.1-3.5,14-10,.383-.636,1.364-1.383,2-1s.383,1.364,0,2c-4.345,7.227-9.978,12-16,12C37.743,100.828,30.489,92.362,26,79.828Zm64-4c0-2.069-1.931-3-4-3s-4,.931-4,3a4,4,0,0,0,8,0Zm-84,4a4.194,4.194,0,0,0,4-4c0-2.069-1.931-3-4-3s-3,.931-3,3S3.931,79.828,6,79.828Zm40-70c2.069,0,4-.931,4-3a4.194,4.194,0,0,0-4-4c-2.069,0-3,1.931-3,4S43.931,9.828,46,9.828Zm1,47c-2.513.543-4.456-.487-5-3s.487-5.456,3-6a5.449,5.449,0,0,1,6,4C51.543,54.341,49.513,56.284,47,56.828Z" fill="#fff"/>
    </g>
  </g>
</svg>
