<svg xmlns="http://www.w3.org/2000/svg" width="84" height="37" viewBox="0 0 84 37">
  <g id="electron" transform="translate(0 -0.37)">
    <rect id="box" width="84" height="37" rx="10" transform="translate(0 0.37)" fill="#47848f"/>
    <g id="electron-2" data-name="electron" transform="translate(28.176 3.551)">
      <path id="Path_24" data-name="Path 24" d="M9.892,6.422c-3.93-.716-7.154-.047-8.393,2.1-.924,1.6-.7,3.726.6,5.995.111.193.406.111.6,0s.41-.107.3-.3c-1.172-2.044-1.657-4.083-.9-5.4,1.029-1.782,3.861-2.46,7.494-1.8.219.04.56-.081.6-.3s-.081-.26-.3-.3Zm5.7-3.6a1.946,1.946,0,0,1-1.8.9,1.714,1.714,0,0,1-1.8-1.8,1.975,1.975,0,0,1,1.8-2.1,2.231,2.231,0,0,1,2.1,2.1c0,.028,0-.028,0,0,3.193,1.651,5.4,7.283,5.4,13.788a25.414,25.414,0,0,1-1.2,7.494c-.066.212-.087.366-.3.3a.535.535,0,0,1-.3-.6,24.363,24.363,0,0,0,.9-7.194C20.383,9.589,18.369,4.415,15.587,2.826ZM1.8,20.81c.048,0-.048,0,0,0a1.975,1.975,0,0,1,2.1,1.8,2.231,2.231,0,0,1-2.1,2.1,1.975,1.975,0,0,1-1.8-2.1,1.565,1.565,0,0,1,.9-1.5c-.291-3.6,3.566-8.384,9.292-11.69a25.822,25.822,0,0,1,7.194-3c.218-.047.553.082.6.3s-.082.553-.3.6a25.515,25.515,0,0,0-7.194,2.7C5.1,13.133,1.675,17.6,1.8,20.81Zm22.481,3a3,3,0,0,1-.3-1.2,1.714,1.714,0,0,1,1.8-1.8,1.975,1.975,0,0,1,2.1,1.8,2.231,2.231,0,0,1-2.1,2.1,2.115,2.115,0,0,1-1.2-.3c-3.077,1.81-8.857.8-14.388-2.4a25.3,25.3,0,0,1-5.995-4.8.424.424,0,0,1,.6-.6,24.319,24.319,0,0,0,5.7,4.8C15.711,24.423,21.466,25.327,24.279,23.808Zm-.3-6.894a.424.424,0,1,1-.6-.6c2.378-2.81,3.125-5.716,2.1-7.494-.745-1.291-2.2-1.769-4.5-1.8a.82.82,0,0,1-.6-.6c0-.223.377-.3.6-.3,2.555.033,4.486.823,5.4,2.4C27.614,10.661,26.553,13.874,23.98,16.914ZM7.793,23.808c-.075-.21.09-.225.3-.3s.524-.21.6,0c1.244,3.473,3.04,5.7,5.1,5.7,1.479,0,3.026-1.051,4.2-3,.115-.191.409-.414.6-.3s.115.409,0,.6c-1.3,2.166-2.991,3.6-4.8,3.6C11.313,30.1,9.139,27.565,7.793,23.808Zm19.184-1.2c0-.62-.579-.9-1.2-.9s-1.2.279-1.2.9a1.2,1.2,0,1,0,2.4,0ZM1.8,23.808a1.257,1.257,0,0,0,1.2-1.2c0-.62-.579-.9-1.2-.9s-.9.279-.9.9S1.178,23.808,1.8,23.808ZM13.788,2.826c.62,0,1.2-.279,1.2-.9a1.257,1.257,0,0,0-1.2-1.2c-.62,0-.9.579-.9,1.2S13.168,2.826,13.788,2.826Zm.3,14.088a1.139,1.139,0,0,1-1.5-.9,1.446,1.446,0,0,1,.9-1.8,1.633,1.633,0,0,1,1.8,1.2A1.334,1.334,0,0,1,14.088,16.914Z" transform="translate(0 0.172)" fill="#fff"/>
    </g>
  </g>
</svg>
