<svg xmlns="http://www.w3.org/2000/svg" width="121" height="56" viewBox="0 0 121 56">
  <g id="electron" transform="translate(0 -0.448)">
    <rect id="box" width="121" height="56" rx="10" transform="translate(0 0.448)" fill="#47848f"/>
    <g id="electron-2" data-name="electron" transform="translate(40.662 6.399)">
      <path id="Path_24" data-name="Path 24" d="M14.275,9.345C8.6,8.312,3.95,9.277,2.163,12.373c-1.334,2.31-1.012,5.378.865,8.651.16.279.586.16.865,0s.592-.154.433-.433c-1.691-2.949-2.391-5.892-1.3-7.786,1.485-2.571,5.572-3.55,10.814-2.6.316.058.808-.117.865-.433s-.117-.375-.433-.433Zm8.219-5.191a2.809,2.809,0,0,1-2.6,1.3,2.473,2.473,0,0,1-2.6-2.6A2.851,2.851,0,0,1,19.9-.172a3.219,3.219,0,0,1,3.028,3.028c0,.04,0-.04,0,0,4.608,2.383,7.786,10.51,7.786,19.9a36.675,36.675,0,0,1-1.73,10.814c-.1.307-.126.528-.433.433a.772.772,0,0,1-.433-.865,35.159,35.159,0,0,0,1.3-10.382C29.415,13.914,26.508,6.448,22.494,4.154ZM2.6,30.108c.069-.005-.07,0,0,0a2.851,2.851,0,0,1,3.028,2.6A3.219,3.219,0,0,1,2.6,35.731,2.851,2.851,0,0,1,0,32.7a2.259,2.259,0,0,1,1.3-2.163c-.419-5.2,5.146-12.1,13.41-16.87A37.264,37.264,0,0,1,25.089,9.345c.314-.067.8.119.865.433s-.119.8-.433.865A36.822,36.822,0,0,0,15.14,14.535C7.358,19.028,2.417,25.479,2.6,30.108Zm32.443,4.326a4.334,4.334,0,0,1-.433-1.73,2.473,2.473,0,0,1,2.6-2.6,2.851,2.851,0,0,1,3.028,2.6A3.219,3.219,0,0,1,37.2,35.731a3.052,3.052,0,0,1-1.73-.433c-4.44,2.612-12.782,1.148-20.763-3.461a36.5,36.5,0,0,1-8.651-6.921.612.612,0,0,1,.865-.865,35.1,35.1,0,0,0,8.219,6.921C22.673,35.322,30.978,36.627,35.038,34.434Zm-.433-9.949a.612.612,0,1,1-.865-.865c3.432-4.055,4.509-8.248,3.028-10.814-1.075-1.863-3.173-2.552-6.489-2.6a1.184,1.184,0,0,1-.865-.865c0-.321.544-.437.865-.433,3.687.048,6.474,1.188,7.786,3.461C39.85,15.462,38.319,20.1,34.606,24.485ZM11.247,34.434c-.108-.3.13-.324.433-.433s.757-.3.865,0c1.795,5.012,4.387,8.219,7.354,8.219,2.134,0,4.367-1.516,6.056-4.326.165-.275.59-.6.865-.433s.165.59,0,.865C24.94,41.453,22.5,43.518,19.9,43.518,16.326,43.518,13.188,39.856,11.247,34.434ZM38.931,32.7c0-.895-.835-1.3-1.73-1.3s-1.73.4-1.73,1.3a1.73,1.73,0,0,0,3.461,0ZM2.6,34.434a1.814,1.814,0,0,0,1.73-1.73c0-.895-.835-1.3-1.73-1.3s-1.3.4-1.3,1.3S1.7,34.434,2.6,34.434ZM19.9,4.154c.895,0,1.73-.4,1.73-1.3a1.814,1.814,0,0,0-1.73-1.73c-.895,0-1.3.835-1.3,1.73S19,4.154,19.9,4.154Zm.433,20.331a1.644,1.644,0,0,1-2.163-1.3,2.086,2.086,0,0,1,1.3-2.6,2.357,2.357,0,0,1,2.6,1.73A1.926,1.926,0,0,1,20.331,24.485Z" transform="translate(0 0.172)" fill="#fff"/>
    </g>
  </g>
</svg>
