<svg xmlns="http://www.w3.org/2000/svg" width="281" height="128" viewBox="0 0 281 128">
  <g id="express" transform="translate(-232 -163)">
    <g id="box" transform="translate(232 163)" fill="#fff" stroke="#707070" stroke-width="1">
      <rect width="281" height="128" rx="10" stroke="none"/>
      <rect x="0.5" y="0.5" width="280" height="127" rx="9.5" fill="none"/>
    </g>
    <g id="express-2" data-name="express" transform="translate(288 202.331)">
      <path id="Path_75" data-name="Path 75" d="M1,38.669v-19H25v-1H1v-18H26v-1H0v40H26v-1Zm46-28-9,13-10-13H27l10,14-11,15h1l11-14,10,14h2l-12-15,11-14Zm6,38v-17h0a10.955,10.955,0,0,0,4,6c1.943,1.558,4.993,2,8,2a10.23,10.23,0,0,0,5-1c1.5-.788,1.992-1.643,3-3a17.957,17.957,0,0,0,3-5,22.338,22.338,0,0,0,1-6,14.446,14.446,0,0,0-1-5,17.041,17.041,0,0,0-3-5c-1.045-1.32-1.515-2.267-3-3a11.043,11.043,0,0,0-5-1c-1.43,0-2.772-.422-4,0a15.419,15.419,0,0,0-4,2c-.953.77-1.3,1.955-2,3s-1.633,1.753-2,3h0v-8H52v38Zm12-10c-3.447,0-6.91-.635-9-3s-3-6.563-3-11a16.167,16.167,0,0,1,1-5,11.4,11.4,0,0,1,2-4,12.28,12.28,0,0,1,4-3,11.093,11.093,0,0,1,5-1,7.027,7.027,0,0,1,4,1,11.846,11.846,0,0,1,4,3,12.055,12.055,0,0,1,2,4c.458,1.632,0,3.167,0,5,0,1.65.422,3.368,0,5a17.731,17.731,0,0,1-2,5c-.88,1.3-2.625,2.175-4,3a6.192,6.192,0,0,1-4,1Zm18,1v-16c0-1.54-.44-3.533,0-5a11.557,11.557,0,0,1,2-4c.917-1.118,2.588-1.358,4-2a10.428,10.428,0,0,1,5-1v-1c-1.687-.037-3.735-.4-5,0a9.984,9.984,0,0,0-3,2,6.31,6.31,0,0,0-2,2,10.512,10.512,0,0,0-1,3h0v-7H82v29Zm12-14h24a22.583,22.583,0,0,0-1-6,14.751,14.751,0,0,0-2-5,10.665,10.665,0,0,0-4-3,13.375,13.375,0,0,0-6-1,8.731,8.731,0,0,0-4,1,11.967,11.967,0,0,0-4,3c-1.137,1.265-2.3,2.167-3,4a16.091,16.091,0,0,0-1,6,24.011,24.011,0,0,0,1,6,14.892,14.892,0,0,0,2,5,10.253,10.253,0,0,0,4,3,9.956,9.956,0,0,0,5,1,15.028,15.028,0,0,0,9-3,9.852,9.852,0,0,0,4-7h-2c-.477,3.117-1.038,5.442-3,7s-5.03,2-8,2a10.86,10.86,0,0,1-5-1,8.4,8.4,0,0,1-3-3,11.241,11.241,0,0,1-2-4,20.15,20.15,0,0,1-1-5Zm23-1H95a21.61,21.61,0,0,1,1-6,14.4,14.4,0,0,1,3-4,7.045,7.045,0,0,1,3-2,14.208,14.208,0,0,1,5-1,7.536,7.536,0,0,1,4,1,12.543,12.543,0,0,1,4,3,11.555,11.555,0,0,1,2,4,17.432,17.432,0,0,1,1,5Zm24-5h1a8.568,8.568,0,0,0-3-7c-1.833-1.43-3.846-2-7-2-1.76,0-3.79-.44-5,0a9.534,9.534,0,0,0-3,2c-.77.7-1.67,1.157-2,2s0,2.23,0,3a4.728,4.728,0,0,0,1,3c.55.917.827,2.487,2,3a23.937,23.937,0,0,0,3,1c1.027.293,2.643.67,4,1,1.21.293,1.827-.293,3,0s2.1,1.5,3,2,2.432.23,3,1,0,2.753,0,4c0,1.21.568,2.157,0,3s-2.12,1.468-3,2a9.8,9.8,0,0,1-3,1,12.629,12.629,0,0,1-3,0c-3.337,0-5.221-.515-7-2a8.76,8.76,0,0,1-3-7h-1c0,3.557,1.075,6.35,3,8s4.223,2,8,2a19.444,19.444,0,0,0,4,0c1.228-.275,2.028-1.377,3-2s2.395-1.01,3-2a8.278,8.278,0,0,0,1-4,5.1,5.1,0,0,0-1-3,6.132,6.132,0,0,0-2-2,11.317,11.317,0,0,0-3-1c-1.082-.312-2.9-.707-4-1-1.54-.4-2.845-.707-4-1a21.3,21.3,0,0,1-3-1,5.239,5.239,0,0,1-2-2,4.587,4.587,0,0,1-1-3,8.91,8.91,0,0,1,0-2,4.773,4.773,0,0,1,1-2c.55-.678,1.863-.468,3-1a12.608,12.608,0,0,1,5-1c1.357,0,1.882-.293,3,0a9.449,9.449,0,0,1,3,2c.807.642,1.56,1.01,2,2a10.684,10.684,0,0,1,1,4Zm25,0h1c0-3.154-.167-5.57-2-7s-4.846-2-8-2c-1.76,0-2.79-.44-4,0a9.534,9.534,0,0,0-3,2c-.77.7-1.67,1.157-2,2a11.534,11.534,0,0,0-1,3,4.728,4.728,0,0,0,1,3,8.394,8.394,0,0,0,3,3,23.936,23.936,0,0,0,3,1c1.027.293,1.643.67,3,1,1.21.293,2.827-.293,4,0s2.1,1.5,3,2,1.432.23,2,1a8.592,8.592,0,0,1,1,4,5.2,5.2,0,0,1-1,3,6.132,6.132,0,0,1-2,2,9.8,9.8,0,0,1-3,1,12.629,12.629,0,0,1-3,0c-3.337,0-6.222-.515-8-2a8.76,8.76,0,0,1-3-7h-1c0,3.557,1.075,6.35,3,8s5.223,2,9,2a10.959,10.959,0,0,0,3,0,15.712,15.712,0,0,0,4-2,5.239,5.239,0,0,0,2-2,8.278,8.278,0,0,0,1-4,5.1,5.1,0,0,0-1-3,6.132,6.132,0,0,0-2-2,11.317,11.317,0,0,0-3-1c-1.082-.312-1.9-.707-3-1-1.54-.4-2.845-.707-4-1a21.3,21.3,0,0,1-3-1,8.7,8.7,0,0,1-3-2c-.568-.752,0-1.607,0-3a8.911,8.911,0,0,1,0-2,4.773,4.773,0,0,1,1-2c.55-.678.863-.468,2-1a12.608,12.608,0,0,1,5-1,18.2,18.2,0,0,1,4,0,9.449,9.449,0,0,1,3,2c.807.642.56,1.01,1,2a10.684,10.684,0,0,1,1,4Z" fill="#222"/>
    </g>
  </g>
</svg>
