<svg xmlns="http://www.w3.org/2000/svg" width="84" height="38" viewBox="0 0 84 38">
  <g id="express" transform="translate(0 -0.499)">
    <g id="box" transform="translate(0 0.499)" fill="#fff" stroke="#707070" stroke-width="1">
      <rect width="84" height="38" rx="10" stroke="none"/>
      <rect x="0.5" y="0.5" width="83" height="37" rx="9.5" fill="none"/>
    </g>
    <g id="express-2" data-name="express" transform="translate(16.786 11.89)">
      <path id="Path_75" data-name="Path 75" d="M.3,11.359v-5.7H7.494v-.3H.3v-5.4H7.793v-.3H0v11.99H7.793v-.3ZM14.088,2.966l-2.7,3.9-3-3.9h-.3l3,4.2-3.3,4.5h.3l3.3-4.2,3,4.2h.6l-3.6-4.5,3.3-4.2Zm1.8,11.39v-5.1h0a3.284,3.284,0,0,0,1.2,1.8,3.925,3.925,0,0,0,2.4.6,3.066,3.066,0,0,0,1.5-.3,2.434,2.434,0,0,0,.9-.9,5.383,5.383,0,0,0,.9-1.5,6.7,6.7,0,0,0,.3-1.8,4.33,4.33,0,0,0-.3-1.5,5.108,5.108,0,0,0-.9-1.5c-.313-.4-.454-.679-.9-.9a3.31,3.31,0,0,0-1.5-.3,3.809,3.809,0,0,0-1.2,0,4.622,4.622,0,0,0-1.2.6,3.567,3.567,0,0,0-.6.9,3.383,3.383,0,0,0-.6.9h0v-2.4h-.3v11.39Zm3.6-3a3.509,3.509,0,0,1-2.7-.9,5.171,5.171,0,0,1-.9-3.3,4.846,4.846,0,0,1,.3-1.5,3.416,3.416,0,0,1,.6-1.2,3.681,3.681,0,0,1,1.2-.9,3.325,3.325,0,0,1,1.5-.3,2.106,2.106,0,0,1,1.2.3,3.551,3.551,0,0,1,1.2.9,3.614,3.614,0,0,1,.6,1.2,5.47,5.47,0,0,1,0,1.5,5.947,5.947,0,0,1,0,1.5,5.315,5.315,0,0,1-.6,1.5,3.719,3.719,0,0,1-1.2.9,1.856,1.856,0,0,1-1.2.3Zm5.4.3v-4.8a5.7,5.7,0,0,1,0-1.5,3.464,3.464,0,0,1,.6-1.2c.275-.335.776-.407,1.2-.6a3.126,3.126,0,0,1,1.5-.3v-.3a5.679,5.679,0,0,0-1.5,0,2.993,2.993,0,0,0-.9.6,1.891,1.891,0,0,0-.6.6,3.151,3.151,0,0,0-.3.9h0v-2.1h-.3v8.693Zm3.6-4.2H35.67a6.769,6.769,0,0,0-.3-1.8,4.422,4.422,0,0,0-.6-1.5,3.2,3.2,0,0,0-1.2-.9,4.009,4.009,0,0,0-1.8-.3,2.617,2.617,0,0,0-1.2.3,3.587,3.587,0,0,0-1.2.9,3.64,3.64,0,0,0-.9,1.2,4.823,4.823,0,0,0-.3,1.8,7.2,7.2,0,0,0,.3,1.8,4.464,4.464,0,0,0,.6,1.5,3.073,3.073,0,0,0,1.2.9,2.984,2.984,0,0,0,1.5.3,4.5,4.5,0,0,0,2.7-.9,2.953,2.953,0,0,0,1.2-2.1h-.6a3.021,3.021,0,0,1-.9,2.1,3.956,3.956,0,0,1-2.4.6,3.255,3.255,0,0,1-1.5-.3,2.518,2.518,0,0,1-.9-.9,3.369,3.369,0,0,1-.6-1.2,6.04,6.04,0,0,1-.3-1.5Zm6.894-.3H28.476a6.478,6.478,0,0,1,.3-1.8,4.315,4.315,0,0,1,.9-1.2,2.112,2.112,0,0,1,.9-.6,4.259,4.259,0,0,1,1.5-.3,2.259,2.259,0,0,1,1.2.3,3.76,3.76,0,0,1,1.2.9,3.463,3.463,0,0,1,.6,1.2,5.225,5.225,0,0,1,.3,1.5Zm7.194-1.5h.3a2.568,2.568,0,0,0-.9-2.1,3.122,3.122,0,0,0-2.1-.6,5.663,5.663,0,0,0-1.5,0,2.858,2.858,0,0,0-.9.6c-.231.209-.5.347-.6.6a2.742,2.742,0,0,0,0,.9,1.417,1.417,0,0,0,.3.9c.165.275.248.745.6.9a7.175,7.175,0,0,0,.9.3c.308.088.792.2,1.2.3.363.088.548-.088.9,0s.63.451.9.6.729.069.9.3,0,.825,0,1.2.17.646,0,.9a3.028,3.028,0,0,1-.9.6,2.939,2.939,0,0,1-.9.3,3.785,3.785,0,0,1-.9,0,2.924,2.924,0,0,1-2.1-.6,2.626,2.626,0,0,1-.9-2.1h-.3a3.064,3.064,0,0,0,.9,2.4,3.38,3.38,0,0,0,2.4.6,5.828,5.828,0,0,0,1.2,0c.368-.082.608-.413.9-.6s.718-.3.9-.6a2.481,2.481,0,0,0,.3-1.2,1.528,1.528,0,0,0-.3-.9,1.838,1.838,0,0,0-.6-.6,3.392,3.392,0,0,0-.9-.3c-.324-.093-.869-.212-1.2-.3-.462-.121-.853-.212-1.2-.3a6.386,6.386,0,0,1-.9-.3,1.571,1.571,0,0,1-.6-.6,1.375,1.375,0,0,1-.3-.9,2.671,2.671,0,0,1,0-.6,1.431,1.431,0,0,1,.3-.6c.165-.2.559-.14.9-.3a3.779,3.779,0,0,1,1.5-.3,3.071,3.071,0,0,1,.9,0,2.832,2.832,0,0,1,.9.6c.242.192.468.3.6.6a3.2,3.2,0,0,1,.3,1.2Zm7.494,0h.3c0-.945-.05-1.67-.6-2.1a4.047,4.047,0,0,0-2.4-.6c-.528,0-.836-.132-1.2,0a2.858,2.858,0,0,0-.9.6c-.231.209-.5.347-.6.6a3.457,3.457,0,0,0-.3.9,1.417,1.417,0,0,0,.3.9,2.516,2.516,0,0,0,.9.9,7.175,7.175,0,0,0,.9.3c.308.088.493.2.9.3.363.088.847-.088,1.2,0s.63.451.9.6.429.069.6.3a2.575,2.575,0,0,1,.3,1.2,1.56,1.56,0,0,1-.3.9,1.838,1.838,0,0,1-.6.6,2.938,2.938,0,0,1-.9.3,3.785,3.785,0,0,1-.9,0,3.8,3.8,0,0,1-2.4-.6,2.626,2.626,0,0,1-.9-2.1h-.3a3.064,3.064,0,0,0,.9,2.4,4.277,4.277,0,0,0,2.7.6,3.285,3.285,0,0,0,.9,0,4.71,4.71,0,0,0,1.2-.6,1.57,1.57,0,0,0,.6-.6,2.481,2.481,0,0,0,.3-1.2,1.528,1.528,0,0,0-.3-.9,1.838,1.838,0,0,0-.6-.6,3.392,3.392,0,0,0-.9-.3c-.324-.093-.569-.212-.9-.3-.462-.121-.853-.212-1.2-.3a6.385,6.385,0,0,1-.9-.3,2.606,2.606,0,0,1-.9-.6c-.17-.225,0-.482,0-.9a2.671,2.671,0,0,1,0-.6,1.431,1.431,0,0,1,.3-.6c.165-.2.259-.14.6-.3a3.779,3.779,0,0,1,1.5-.3,5.455,5.455,0,0,1,1.2,0,2.832,2.832,0,0,1,.9.6c.242.192.168.3.3.6a3.2,3.2,0,0,1,.3,1.2Z" transform="translate(0 0.331)" fill="#222"/>
    </g>
  </g>
</svg>
