<svg xmlns="http://www.w3.org/2000/svg" width="121" height="54" viewBox="0 0 121 54">
  <g id="express" transform="translate(0 -0.492)">
    <g id="box" transform="translate(0 0.492)" fill="#fff" stroke="#707070" stroke-width="1">
      <rect width="121" height="54" rx="10" stroke="none"/>
      <rect x="0.5" y="0.5" width="120" height="53" rx="9.5" fill="none"/>
    </g>
    <g id="express-2" data-name="express" transform="translate(24.224 16.601)">
      <path id="Path_75" data-name="Path 75" d="M.433,16.539V8.32H10.814V7.888H.433V.1H11.247V-.331H0v17.3H11.247v-.433Zm19.9-12.112-3.893,5.623L12.112,4.427h-.433l4.326,6.056-4.758,6.489h.433l4.758-6.056,4.326,6.056h.865l-5.191-6.489L21.2,4.427Zm2.6,16.438V13.511h0a4.739,4.739,0,0,0,1.73,2.6,5.665,5.665,0,0,0,3.461.865,4.425,4.425,0,0,0,2.163-.433,3.512,3.512,0,0,0,1.3-1.3,7.768,7.768,0,0,0,1.3-2.163,9.663,9.663,0,0,0,.433-2.6,6.249,6.249,0,0,0-.433-2.163,7.371,7.371,0,0,0-1.3-2.163c-.452-.571-.655-.98-1.3-1.3a4.777,4.777,0,0,0-2.163-.433,5.5,5.5,0,0,0-1.73,0,6.67,6.67,0,0,0-1.73.865,5.148,5.148,0,0,0-.865,1.3,4.881,4.881,0,0,0-.865,1.3h0V4.427h-.433V20.865Zm5.191-4.326a5.064,5.064,0,0,1-3.893-1.3,7.462,7.462,0,0,1-1.3-4.758,6.994,6.994,0,0,1,.433-2.163,4.929,4.929,0,0,1,.865-1.73,5.312,5.312,0,0,1,1.73-1.3,4.8,4.8,0,0,1,2.163-.433,3.04,3.04,0,0,1,1.73.433,5.124,5.124,0,0,1,1.73,1.3,5.215,5.215,0,0,1,.865,1.73,7.894,7.894,0,0,1,0,2.163,8.582,8.582,0,0,1,0,2.163,7.67,7.67,0,0,1-.865,2.163,5.367,5.367,0,0,1-1.73,1.3,2.679,2.679,0,0,1-1.73.433Zm7.786.433V10.051a8.227,8.227,0,0,1,0-2.163,5,5,0,0,1,.865-1.73c.4-.484,1.12-.588,1.73-.865a4.511,4.511,0,0,1,2.163-.433V4.427a8.2,8.2,0,0,0-2.163,0,4.319,4.319,0,0,0-1.3.865,2.729,2.729,0,0,0-.865.865,4.547,4.547,0,0,0-.433,1.3h0V4.427h-.433V16.972Zm5.191-6.056H51.476a9.769,9.769,0,0,0-.433-2.6,6.381,6.381,0,0,0-.865-2.163,4.613,4.613,0,0,0-1.73-1.3,5.786,5.786,0,0,0-2.6-.433,3.777,3.777,0,0,0-1.73.433,5.176,5.176,0,0,0-1.73,1.3,5.253,5.253,0,0,0-1.3,1.73,6.961,6.961,0,0,0-.433,2.6,10.387,10.387,0,0,0,.433,2.6,6.442,6.442,0,0,0,.865,2.163,4.435,4.435,0,0,0,1.73,1.3,4.307,4.307,0,0,0,2.163.433,6.5,6.5,0,0,0,3.893-1.3,4.262,4.262,0,0,0,1.73-3.028h-.865a4.359,4.359,0,0,1-1.3,3.028,5.709,5.709,0,0,1-3.461.865,4.7,4.7,0,0,1-2.163-.433,3.634,3.634,0,0,1-1.3-1.3,4.862,4.862,0,0,1-.865-1.73,8.716,8.716,0,0,1-.433-2.163Zm9.949-.433H41.094a9.348,9.348,0,0,1,.433-2.6,6.228,6.228,0,0,1,1.3-1.73,3.048,3.048,0,0,1,1.3-.865,6.146,6.146,0,0,1,2.163-.433,3.26,3.26,0,0,1,1.73.433,5.426,5.426,0,0,1,1.73,1.3,5,5,0,0,1,.865,1.73,7.54,7.54,0,0,1,.433,2.163ZM61.425,8.32h.433a3.706,3.706,0,0,0-1.3-3.028,4.505,4.505,0,0,0-3.028-.865,8.172,8.172,0,0,0-2.163,0,4.124,4.124,0,0,0-1.3.865c-.333.3-.722.5-.865.865a3.957,3.957,0,0,0,0,1.3,2.045,2.045,0,0,0,.433,1.3c.238.4.358,1.076.865,1.3a10.354,10.354,0,0,0,1.3.433c.444.127,1.143.29,1.73.433.523.127.79-.127,1.3,0s.909.651,1.3.865,1.052.1,1.3.433,0,1.191,0,1.73c0,.523.246.933,0,1.3a4.37,4.37,0,0,1-1.3.865,4.241,4.241,0,0,1-1.3.433,5.463,5.463,0,0,1-1.3,0,4.22,4.22,0,0,1-3.028-.865,3.789,3.789,0,0,1-1.3-3.028h-.433a4.422,4.422,0,0,0,1.3,3.461c.833.714,1.827.865,3.461.865a8.411,8.411,0,0,0,1.73,0c.531-.119.877-.6,1.3-.865s1.036-.437,1.3-.865a3.581,3.581,0,0,0,.433-1.73,2.2,2.2,0,0,0-.433-1.3,2.653,2.653,0,0,0-.865-.865,4.9,4.9,0,0,0-1.3-.433c-.468-.135-1.254-.306-1.73-.433-.666-.174-1.231-.306-1.73-.433a9.216,9.216,0,0,1-1.3-.433,2.266,2.266,0,0,1-.865-.865,1.984,1.984,0,0,1-.433-1.3,3.854,3.854,0,0,1,0-.865,2.065,2.065,0,0,1,.433-.865c.238-.293.806-.2,1.3-.433a5.454,5.454,0,0,1,2.163-.433,4.432,4.432,0,0,1,1.3,0,4.087,4.087,0,0,1,1.3.865c.349.278.675.437.865.865a4.622,4.622,0,0,1,.433,1.73Zm10.814,0h.433c0-1.364-.072-2.409-.865-3.028a5.841,5.841,0,0,0-3.461-.865c-.761,0-1.207-.19-1.73,0a4.124,4.124,0,0,0-1.3.865c-.333.3-.722.5-.865.865a4.989,4.989,0,0,0-.433,1.3,2.045,2.045,0,0,0,.433,1.3,3.631,3.631,0,0,0,1.3,1.3,10.353,10.353,0,0,0,1.3.433c.444.127.711.29,1.3.433.523.127,1.223-.127,1.73,0s.909.651,1.3.865.619.1.865.433a3.716,3.716,0,0,1,.433,1.73,2.251,2.251,0,0,1-.433,1.3,2.652,2.652,0,0,1-.865.865,4.24,4.24,0,0,1-1.3.433,5.463,5.463,0,0,1-1.3,0,5.483,5.483,0,0,1-3.461-.865,3.789,3.789,0,0,1-1.3-3.028h-.433a4.422,4.422,0,0,0,1.3,3.461c.833.714,2.259.865,3.893.865a4.741,4.741,0,0,0,1.3,0,6.8,6.8,0,0,0,1.73-.865,2.266,2.266,0,0,0,.865-.865,3.581,3.581,0,0,0,.433-1.73,2.2,2.2,0,0,0-.433-1.3,2.653,2.653,0,0,0-.865-.865,4.9,4.9,0,0,0-1.3-.433c-.468-.135-.822-.306-1.3-.433-.666-.174-1.231-.306-1.73-.433a9.216,9.216,0,0,1-1.3-.433,3.762,3.762,0,0,1-1.3-.865c-.246-.325,0-.695,0-1.3a3.854,3.854,0,0,1,0-.865,2.065,2.065,0,0,1,.433-.865c.238-.293.373-.2.865-.433a5.454,5.454,0,0,1,2.163-.433,7.872,7.872,0,0,1,1.73,0,4.087,4.087,0,0,1,1.3.865c.349.278.242.437.433.865a4.622,4.622,0,0,1,.433,1.73Z" transform="translate(0 0.331)" fill="#222"/>
    </g>
  </g>
</svg>
