<svg xmlns="http://www.w3.org/2000/svg" width="281" height="128" viewBox="0 0 281 128">
  <g id="font-awesome" transform="translate(-224 -159)">
    <rect id="box" width="281" height="128" rx="10" transform="translate(224 159)" fill="#339af0"/>
    <g id="font-awesome-2" data-name="font-awesome" transform="translate(321 179.096)">
      <path id="Path_261" data-name="Path 261" d="M78.116.133H9.655A9.576,9.576,0,0,0,0,9.788V78.249A9.576,9.576,0,0,0,9.655,87.9H78.116a9.576,9.576,0,0,0,9.655-9.655V9.788A9.576,9.576,0,0,0,78.116.133Zm-8.777,55.3c0,.824-.931,1.4-1.755,1.755a26.659,26.659,0,0,1-10.532,2.633c-5.277,0-7.707-3.511-14.043-3.511-4.571,0-9.3,1.765-13.166,3.511-.235.118-.642.76-.878.878v8.777c0,.353.118.642,0,.878h0a3.472,3.472,0,0,1-3.511,2.633c-2.217,0-4.389-1.294-4.389-3.511V26.464A6.79,6.79,0,0,1,18.432,21.2c0-3.629,3.373-6.144,7.022-6.144A5.855,5.855,0,0,1,31.6,21.2a6.506,6.506,0,0,1-2.633,5.266v3.511c.353-.118.525.235.878,0,3.629-1.53,8.188-3.511,12.288-3.511A33.7,33.7,0,0,1,54.418,29.1a7.084,7.084,0,0,0,2.633.878c4.453,0,9.355-3.511,10.532-3.511a1.879,1.879,0,0,1,1.755,1.755V55.429Z" transform="translate(0 0)" fill="#fff"/>
    </g>
  </g>
</svg>
