<svg xmlns="http://www.w3.org/2000/svg" width="121" height="56" viewBox="0 0 121 56">
  <g id="font-awesome" transform="translate(0 -0.351)">
    <rect id="box" width="121" height="56" rx="10" transform="translate(0 0.35)" fill="#339af0"/>
    <g id="font-awesome-2" data-name="font-awesome" transform="translate(41.959 9.732)">
      <path id="Path_261" data-name="Path 261" d="M33.791.133H4.176A4.142,4.142,0,0,0,0,4.309V33.924A4.142,4.142,0,0,0,4.176,38.1H33.791a4.142,4.142,0,0,0,4.176-4.176V4.309A4.142,4.142,0,0,0,33.791.133Zm-3.8,23.919c0,.356-.4.607-.759.759a11.532,11.532,0,0,1-4.556,1.139c-2.283,0-3.334-1.519-6.075-1.519a14.473,14.473,0,0,0-5.7,1.519c-.1.051-.278.329-.38.38v3.8c0,.153.051.278,0,.38h0a1.5,1.5,0,0,1-1.519,1.139,1.712,1.712,0,0,1-1.9-1.519v-18.6A2.937,2.937,0,0,1,7.973,9.245,2.86,2.86,0,0,1,11.01,6.587a2.533,2.533,0,0,1,2.658,2.658,2.814,2.814,0,0,1-1.139,2.278v1.519c.153-.051.227.1.38,0a14.842,14.842,0,0,1,5.315-1.519,14.578,14.578,0,0,1,5.315,1.139,3.064,3.064,0,0,0,1.139.38c1.926,0,4.047-1.519,4.556-1.519a.813.813,0,0,1,.759.759v11.77Z" transform="translate(0 -0.133)" fill="#fff"/>
    </g>
  </g>
</svg>
