<svg xmlns="http://www.w3.org/2000/svg" width="84" height="39" viewBox="0 0 84 39">
  <g id="font-awesome" transform="translate(0 -0.372)">
    <rect id="box" width="84" height="39" rx="10" transform="translate(0 0.372)" fill="#339af0"/>
    <g id="font-awesome-2" data-name="font-awesome" transform="translate(29.075 7.068)">
      <path id="Path_261" data-name="Path 261" d="M23.415.133H2.894A2.87,2.87,0,0,0,0,3.027V23.548a2.87,2.87,0,0,0,2.894,2.894H23.415a2.87,2.87,0,0,0,2.894-2.894V3.027A2.87,2.87,0,0,0,23.415.133ZM20.784,16.708c0,.247-.279.42-.526.526a7.991,7.991,0,0,1-3.157.789c-1.582,0-2.31-1.052-4.209-1.052a10.029,10.029,0,0,0-3.946,1.052c-.071.035-.193.228-.263.263v2.631c0,.106.035.193,0,.263h0a1.041,1.041,0,0,1-1.052.789,1.186,1.186,0,0,1-1.315-1.052V8.026a2.035,2.035,0,0,1-.789-1.579,1.982,1.982,0,0,1,2.1-1.842A1.755,1.755,0,0,1,9.471,6.447a1.95,1.95,0,0,1-.789,1.579V9.078c.106-.035.157.071.263,0a10.285,10.285,0,0,1,3.683-1.052,10.1,10.1,0,0,1,3.683.789,2.124,2.124,0,0,0,.789.263c1.335,0,2.8-1.052,3.157-1.052a.563.563,0,0,1,.526.526v8.156Z" transform="translate(0 -0.133)" fill="#fff"/>
    </g>
  </g>
</svg>
