<svg xmlns="http://www.w3.org/2000/svg" width="281" height="128" viewBox="0 0 281 128">
  <g id="framework7" transform="translate(-232 -163)">
    <rect id="box" width="281" height="128" rx="10" transform="translate(232 163)" fill="#cd1405"/>
    <g id="framework7-2" data-name="framework7" transform="translate(328.66 177.109)">
      <g id="Group_15" data-name="Group 15" transform="translate(-1.66)">
        <g id="Group_14" data-name="Group 14" transform="translate(0)">
          <circle id="Ellipse_4" data-name="Ellipse 4" cx="45.5" cy="45.5" r="45.5" transform="translate(1 -0.109)" fill="#fff"/>
          <path id="Path_171" data-name="Path 171" d="M30.872,208.466c.463,2.422,12.78,15.567,22,16a59.151,59.151,0,0,0,3-14Z" transform="translate(-19.872 -134.576)" fill="#fff"/>
          <path id="Path_172" data-name="Path 172" d="M30.872,208.466c.463,2.422,12.78,15.567,22,16a59.151,59.151,0,0,0,3-14Z" transform="translate(-19.872 -134.576)" fill="#fff"/>
          <path id="Path_173" data-name="Path 173" d="M54.872,178.566a143.654,143.654,0,0,1,6-19l-30,17Z" transform="translate(-19.872 -102.675)" fill="#fff"/>
          <path id="Path_174" data-name="Path 174" d="M54.872,178.566a143.654,143.654,0,0,1,6-19l-30,17Z" transform="translate(-19.872 -102.675)" fill="#fff"/>
          <path id="Path_175" data-name="Path 175" d="M44.218,157.167l-39-2c-.381,3.6,4.227,16.186,9,19Z" transform="translate(-3.218 -100.276)" fill="#fff"/>
          <path id="Path_176" data-name="Path 176" d="M44.218,157.167l-39-2c-.381,3.6,4.227,16.186,9,19Z" transform="translate(-3.218 -100.276)" fill="#fff"/>
          <path id="Path_177" data-name="Path 177" d="M44.257,131.114c1.651-3.988,8.2-14.719,9-16l-48,14" transform="translate(-3.257 -74.223)" fill="#fff"/>
          <path id="Path_178" data-name="Path 178" d="M44.257,131.114c1.651-3.988,8.2-14.719,9-16l-48,14" transform="translate(-3.257 -74.223)" fill="#fff"/>
          <path id="Path_179" data-name="Path 179" d="M51.26,85.226l-45-16c-6.743,6.712-6.657,26.544-4,30Z" transform="translate(-0.26 -44.335)" fill="#fff"/>
          <path id="Path_180" data-name="Path 180" d="M51.26,85.226l-45-16c-6.743,6.712-6.657,26.544-4,30Z" transform="translate(-0.26 -44.335)" fill="#fff"/>
          <path id="Path_181" data-name="Path 181" d="M60.657,72.642c6.829-9.561,12.469-17.924,17-23l-61,7Z" transform="translate(-10.657 -31.751)" fill="#fff"/>
          <path id="Path_182" data-name="Path 182" d="M77.657,36.622c4.588-5.139,8-9,8-9h-57c-6.784,4.052-10.32,7.656-12,15Z" transform="translate(-10.657 -17.731)" fill="#fff"/>
          <path id="Path_183" data-name="Path 183" d="M77.657,36.622c4.588-5.139,8-9,8-9h-57c-6.784,4.052-10.32,7.656-12,15Z" transform="translate(-10.657 -17.731)" fill="#fff"/>
          <path id="Path_184" data-name="Path 184" d="M122.2,224.7s-16.783-7.893-25-12c-.424-.212-10.91,10.835-2,14S116.309,227.906,122.2,224.7Z" transform="translate(-59.198 -136.81)" fill="#fff"/>
          <path id="Path_185" data-name="Path 185" d="M122.2,224.7s-16.783-7.893-25-12c-.424-.212-10.91,10.835-2,14S116.309,227.906,122.2,224.7Z" transform="translate(-59.198 -136.81)" fill="#fff"/>
          <path id="Path_186" data-name="Path 186" d="M131.821,192.628l-19-30s-2.477,6.144-4,11c-1.2,3.827-2.18,6.91-2,7C115.053,184.742,131.821,192.628,131.821,192.628Z" transform="translate(-68.821 -104.737)" fill="#fff"/>
          <path id="Path_187" data-name="Path 187" d="M131.821,192.628l-19-30s-2.477,6.144-4,11c-1.2,3.827-2.18,6.91-2,7C115.053,184.742,131.821,192.628,131.821,192.628Z" transform="translate(-68.821 -104.737)" fill="#fff"/>
          <path id="Path_188" data-name="Path 188" d="M142.264,193.04c8.454-1.8,19.734-12.62,21-17l-40-13Z" transform="translate(-79.264 -105.15)" fill="#fff"/>
          <path id="Path_189" data-name="Path 189" d="M142.264,193.04c8.454-1.8,19.734-12.62,21-17l-40-13Z" transform="translate(-79.264 -105.15)" fill="#fff"/>
          <path id="Path_190" data-name="Path 190" d="M163.059,146.61s-21.26-19.582-32-29a102.542,102.542,0,0,0-5,9c-2.034,4-3.186,6.942-3,7C136.466,137.8,163.059,146.61,163.059,146.61Z" transform="translate(-79.059 -75.72)" fill="#fff"/>
          <path id="Path_191" data-name="Path 191" d="M163.059,146.61s-21.26-19.582-32-29a102.542,102.542,0,0,0-5,9c-2.034,4-3.186,6.942-3,7C136.466,137.8,163.059,146.61,163.059,146.61Z" transform="translate(-79.059 -75.72)" fill="#fff"/>
          <path id="Path_192" data-name="Path 192" d="M176.871,146.763c5.108-5.181,9.138-13.162,8-25l-41-4Z" transform="translate(-92.871 -75.873)" fill="#fff"/>
          <path id="Path_193" data-name="Path 193" d="M176.871,146.763c5.108-5.181,9.138-13.162,8-25l-41-4Z" transform="translate(-92.871 -75.873)" fill="#fff"/>
          <path id="Path_194" data-name="Path 194" d="M186.1,81.351s-15.288-17.621-23-26a78.985,78.985,0,0,0-9,10,100.7,100.7,0,0,0-8,12C159.267,78.534,186.1,81.351,186.1,81.351Z" transform="translate(-94.099 -35.46)" fill="#fff"/>
          <path id="Path_195" data-name="Path 195" d="M186.1,81.351s-15.288-17.621-23-26a78.985,78.985,0,0,0-9,10,100.7,100.7,0,0,0-8,12C159.267,78.534,186.1,81.351,186.1,81.351Z" transform="translate(-94.099 -35.46)" fill="#fff"/>
          <path id="Path_196" data-name="Path 196" d="M216.21,67.2c0-20.944-11.124-31.423-15-34a77.573,77.573,0,0,0-9,8Z" transform="translate(-124.21 -21.311)" fill="#fff"/>
          <path id="Path_197" data-name="Path 197" d="M216.21,67.2c0-20.944-11.124-31.423-15-34a77.573,77.573,0,0,0-9,8Z" transform="translate(-124.21 -21.311)" fill="#fff"/>
          <path id="Path_198" data-name="Path 198" d="M50.5,22.761h57c-6.283,6.283-12.855,12.262-18,19s-9.312,14.579-13,22a105.026,105.026,0,0,0-8,23,107.074,107.074,0,0,0-3,26h3a107.461,107.461,0,0,1,3-26,109.1,109.1,0,0,1,8-23,125.209,125.209,0,0,1,13-21c5.19-6.647,11.717-12.717,18-19v-4h-60Z" transform="translate(-32.503 -12.87)" fill="#cd1405"/>
        </g>
      </g>
    </g>
  </g>
</svg>
