<svg xmlns="http://www.w3.org/2000/svg" width="84" height="38" viewBox="0 0 84 38">
  <g id="framework7" transform="translate(-0.011 -0.008)">
    <rect id="box" width="84" height="38" rx="10" transform="translate(0.011 0.008)" fill="#cd1405"/>
    <g id="framework7-2" data-name="framework7" transform="translate(27.8 4.802)">
      <g id="Group_15" data-name="Group 15" transform="translate(0 0)">
        <g id="Group_14" data-name="Group 14" transform="translate(0)">
          <circle id="Ellipse_4" data-name="Ellipse 4" cx="13.5" cy="13.5" r="13.5" transform="translate(1.21 0.206)" fill="#fff"/>
          <path id="Path_171" data-name="Path 171" d="M30.872,208.466c.139.726,3.831,4.666,6.594,4.8a17.73,17.73,0,0,0,.9-4.2Z" transform="translate(-27.669 -187.037)" fill="#fff"/>
          <path id="Path_172" data-name="Path 172" d="M30.872,208.466c.139.726,3.831,4.666,6.594,4.8a17.73,17.73,0,0,0,.9-4.2Z" transform="translate(-27.669 -187.037)" fill="#fff"/>
          <path id="Path_173" data-name="Path 173" d="M38.066,165.261a43.058,43.058,0,0,1,1.8-5.7l-8.992,5.1Z" transform="translate(-27.669 -143.233)" fill="#fff"/>
          <path id="Path_174" data-name="Path 174" d="M38.066,165.261a43.058,43.058,0,0,1,1.8-5.7l-8.992,5.1Z" transform="translate(-27.669 -143.233)" fill="#fff"/>
          <path id="Path_175" data-name="Path 175" d="M16.893,155.766l-11.69-.6c-.114,1.079,1.267,4.852,2.7,5.7Z" transform="translate(-4.698 -139.433)" fill="#fff"/>
          <path id="Path_176" data-name="Path 176" d="M16.893,155.766l-11.69-.6c-.114,1.079,1.267,4.852,2.7,5.7Z" transform="translate(-4.698 -139.433)" fill="#fff"/>
          <path id="Path_177" data-name="Path 177" d="M16.947,119.91c.495-1.2,2.458-4.412,2.7-4.8l-14.388,4.2" transform="translate(-4.752 -103.576)" fill="#fff"/>
          <path id="Path_178" data-name="Path 178" d="M16.947,119.91c.495-1.2,2.458-4.412,2.7-4.8l-14.388,4.2" transform="translate(-4.752 -103.576)" fill="#fff"/>
          <path id="Path_179" data-name="Path 179" d="M15.769,74.022,2.28,69.226c-2.021,2.012-2,7.957-1.2,8.992Z" transform="translate(-0.576 -62.484)" fill="#fff"/>
          <path id="Path_180" data-name="Path 180" d="M15.769,74.022,2.28,69.226c-2.021,2.012-2,7.957-1.2,8.992Z" transform="translate(-0.576 -62.484)" fill="#fff"/>
          <path id="Path_181" data-name="Path 181" d="M29.846,56.536c2.047-2.866,3.737-5.373,5.1-6.894l-18.285,2.1Z" transform="translate(-14.954 -44.998)" fill="#fff"/>
          <path id="Path_182" data-name="Path 182" d="M34.942,30.319c1.375-1.541,2.4-2.7,2.4-2.7H20.254c-2.033,1.215-3.093,2.295-3.6,4.5Z" transform="translate(-14.954 -25.376)" fill="#fff"/>
          <path id="Path_183" data-name="Path 183" d="M34.942,30.319c1.375-1.541,2.4-2.7,2.4-2.7H20.254c-2.033,1.215-3.093,2.295-3.6,4.5Z" transform="translate(-14.954 -25.376)" fill="#fff"/>
          <path id="Path_184" data-name="Path 184" d="M100.786,216.3s-5.031-2.366-7.494-3.6c-.127-.064-3.27,3.248-.6,4.2A11.456,11.456,0,0,0,100.786,216.3Z" transform="translate(-81.997 -190.67)" fill="#fff"/>
          <path id="Path_185" data-name="Path 185" d="M100.786,216.3s-5.031-2.366-7.494-3.6c-.127-.064-3.27,3.248-.6,4.2A11.456,11.456,0,0,0,100.786,216.3Z" transform="translate(-81.997 -190.67)" fill="#fff"/>
          <path id="Path_186" data-name="Path 186" d="M114.3,171.62l-5.7-8.992s-.743,1.842-1.2,3.3a14.679,14.679,0,0,0-.6,2.1C109.274,169.257,114.3,171.62,114.3,171.62Z" transform="translate(-95.511 -145.995)" fill="#fff"/>
          <path id="Path_187" data-name="Path 187" d="M114.3,171.62l-5.7-8.992s-.743,1.842-1.2,3.3a14.679,14.679,0,0,0-.6,2.1C109.274,169.257,114.3,171.62,114.3,171.62Z" transform="translate(-95.511 -145.995)" fill="#fff"/>
          <path id="Path_188" data-name="Path 188" d="M128.959,172.033c2.534-.54,5.915-3.783,6.295-5.1l-11.99-3.9Z" transform="translate(-110.17 -146.407)" fill="#fff"/>
          <path id="Path_189" data-name="Path 189" d="M128.959,172.033c2.534-.54,5.915-3.783,6.295-5.1l-11.99-3.9Z" transform="translate(-110.17 -146.407)" fill="#fff"/>
          <path id="Path_190" data-name="Path 190" d="M135.035,126.3s-6.373-5.87-9.592-8.693a30.743,30.743,0,0,0-1.5,2.7,9.572,9.572,0,0,0-.9,2.1C127.064,123.662,135.035,126.3,135.035,126.3Z" transform="translate(-109.951 -105.772)" fill="#fff"/>
          <path id="Path_191" data-name="Path 191" d="M135.035,126.3s-6.373-5.87-9.592-8.693a30.743,30.743,0,0,0-1.5,2.7,9.572,9.572,0,0,0-.9,2.1C127.064,123.662,135.035,126.3,135.035,126.3Z" transform="translate(-109.951 -105.772)" fill="#fff"/>
          <path id="Path_192" data-name="Path 192" d="M153.763,126.456a8.952,8.952,0,0,0,2.4-7.494l-12.29-1.2Z" transform="translate(-128.679 -105.926)" fill="#fff"/>
          <path id="Path_193" data-name="Path 193" d="M153.763,126.456a8.952,8.952,0,0,0,2.4-7.494l-12.29-1.2Z" transform="translate(-128.679 -105.926)" fill="#fff"/>
          <path id="Path_194" data-name="Path 194" d="M158.085,63.143s-4.583-5.282-6.894-7.793a23.678,23.678,0,0,0-2.7,3,30.185,30.185,0,0,0-2.4,3.6C150.042,62.3,158.085,63.143,158.085,63.143Z" transform="translate(-130.603 -50.107)" fill="#fff"/>
          <path id="Path_195" data-name="Path 195" d="M158.085,63.143s-4.583-5.282-6.894-7.793a23.678,23.678,0,0,0-2.7,3,30.185,30.185,0,0,0-2.4,3.6C150.042,62.3,158.085,63.143,158.085,63.143Z" transform="translate(-130.603 -50.107)" fill="#fff"/>
          <path id="Path_196" data-name="Path 196" d="M199.4,43.393c0-6.278-3.334-9.419-4.5-10.191a23.252,23.252,0,0,0-2.7,2.4Z" transform="translate(-171.922 -30.356)" fill="#fff"/>
          <path id="Path_197" data-name="Path 197" d="M199.4,43.393c0-6.278-3.334-9.419-4.5-10.191a23.252,23.252,0,0,0-2.7,2.4Z" transform="translate(-171.922 -30.356)" fill="#fff"/>
          <path id="Path_198" data-name="Path 198" d="M50.5,20.66H67.589a60.12,60.12,0,0,0-5.4,5.7,40.821,40.821,0,0,0-3.9,6.594,31.482,31.482,0,0,0-2.4,6.894,32.1,32.1,0,0,0-.9,7.793h.9a32.211,32.211,0,0,1,.9-7.793,32.7,32.7,0,0,1,2.4-6.894,37.531,37.531,0,0,1,3.9-6.295,65.619,65.619,0,0,1,5.4-5.7v-1.2H50.5Z" transform="translate(-45.203 -18.415)" fill="#cd1405"/>
        </g>
      </g>
    </g>
  </g>
</svg>
