<svg xmlns="http://www.w3.org/2000/svg" width="121" height="55" viewBox="0 0 121 55">
  <g id="gatsby" transform="translate(-0.378 -0.459)">
    <rect id="box" width="121" height="55" rx="10" transform="translate(0.378 0.459)" fill="#744c9e"/>
    <g id="gatsby-2" data-name="gatsby" transform="translate(41.471 8.694)">
      <path id="Path_127" data-name="Path 127" d="M19.078.415C8.517.415-.387,8.887-.387,19.448s8.9,19.033,19.466,19.033a19.033,19.033,0,0,0,0-38.066ZM3.938,19.448l14.707,15.14C10.511,34.482,4.044,27.583,3.938,19.448ZM22.106,34.156,4.371,15.988A15.121,15.121,0,0,1,19.078,4.308,14.833,14.833,0,0,1,31.19,10.364l-2.163,2.163A12.384,12.384,0,0,0,19.078,6.9,12.582,12.582,0,0,0,7.4,15.123L22.972,30.7a11.826,11.826,0,0,0,7.786-8.219H24.269V19.448h9.517A15.121,15.121,0,0,1,22.106,34.156Z" transform="translate(0.387 -0.415)" fill="#fff"/>
    </g>
  </g>
</svg>
