<svg xmlns="http://www.w3.org/2000/svg" width="85" height="38" viewBox="0 0 85 38">
  <g id="gatsby" transform="translate(0.087 0.331)">
    <rect id="box" width="85" height="38" rx="10" transform="translate(-0.087 -0.331)" fill="#744c9e"/>
    <g id="gatsby-2" data-name="gatsby" transform="translate(29.345 6.079)">
      <path id="Path_127" data-name="Path 127" d="M13.1.415A13.4,13.4,0,0,0-.387,13.6,13.4,13.4,0,0,0,13.1,26.793,13.189,13.189,0,1,0,13.1.415ZM2.61,13.6,12.8,24.1A10.539,10.539,0,0,1,2.61,13.6ZM15.2,23.8,2.91,11.206A10.478,10.478,0,0,1,13.1,3.113a10.279,10.279,0,0,1,8.393,4.2L20,8.808a8.581,8.581,0,0,0-6.894-3.9,8.719,8.719,0,0,0-8.093,5.7L15.8,21.4a8.2,8.2,0,0,0,5.4-5.7H16.7V13.6h6.594A10.478,10.478,0,0,1,15.2,23.8Z" transform="translate(0.387 -0.415)" fill="#fff"/>
    </g>
  </g>
</svg>
