<svg xmlns="http://www.w3.org/2000/svg" width="85" height="39" viewBox="0 0 85 39">
  <g id="git" transform="translate(0.058 -0.372)">
    <g id="box" transform="translate(-0.058 0.372)" fill="#de4c36" stroke="#707070" stroke-width="1">
      <rect width="85" height="39" rx="10" stroke="none"/>
      <rect x="0.5" y="0.5" width="84" height="38" rx="9.5" fill="none"/>
    </g>
    <g id="git-icon" transform="translate(27.656 5.799)">
      <path id="Path_282" data-name="Path 282" d="M28.234,13.106,15.67.543a1.853,1.853,0,0,0-2.621,0L10.44,3.152,13.75,6.461a2.2,2.2,0,0,1,2.787,2.806l3.19,3.19A2.2,2.2,0,1,1,18.406,13.7l-2.975-2.975v7.828a2.228,2.228,0,0,1,.583.417,2.2,2.2,0,1,1-2.4-.481v-7.9a2.178,2.178,0,0,1-.722-.481A2.2,2.2,0,0,1,12.421,7.7L9.158,4.434.544,13.048a1.854,1.854,0,0,0,0,2.622L13.108,28.232a1.853,1.853,0,0,0,2.621,0l12.505-12.5a1.855,1.855,0,0,0,0-2.622" transform="translate(-0.001)" fill="#fff"/>
    </g>
  </g>
</svg>
