<svg xmlns="http://www.w3.org/2000/svg" width="281" height="128" viewBox="0 0 281 128">
  <g id="git" transform="translate(-224 -159)">
    <g id="box" transform="translate(224 159)" fill="#de4c36" stroke="#707070" stroke-width="1">
      <rect width="281" height="128" rx="10" stroke="none"/>
      <rect x="0.5" y="0.5" width="280" height="127" rx="9.5" fill="none"/>
    </g>
    <g id="git-icon" transform="translate(315.999 174.997)">
      <path id="Path_282" data-name="Path 282" d="M94.19,43.723,52.275,1.811a6.182,6.182,0,0,0-8.743,0l-8.7,8.7L45.87,21.555a7.342,7.342,0,0,1,9.3,9.36L65.808,41.556A7.348,7.348,0,1,1,61.4,45.7L51.479,35.78V61.895a7.433,7.433,0,0,1,1.945,1.391,7.35,7.35,0,1,1-7.995-1.605V35.323a7.267,7.267,0,0,1-2.408-1.605,7.354,7.354,0,0,1-1.585-8.042L30.552,14.791,1.812,43.529a6.184,6.184,0,0,0,0,8.746L43.727,94.187a6.183,6.183,0,0,0,8.744,0L94.19,52.469a6.187,6.187,0,0,0,0-8.747" transform="translate(0 0)" fill="#fff"/>
    </g>
  </g>
</svg>
