<svg xmlns="http://www.w3.org/2000/svg" width="122" height="56" viewBox="0 0 122 56">
  <g id="git" transform="translate(0.132 -0.351)">
    <g id="box" transform="translate(-0.132 0.35)" fill="#de4c36" stroke="#707070" stroke-width="1">
      <rect width="122" height="56" rx="10" stroke="none"/>
      <rect x="0.5" y="0.5" width="121" height="55" rx="9.5" fill="none"/>
    </g>
    <g id="git-icon" transform="translate(39.942 7.901)">
      <path id="Path_282" data-name="Path 282" d="M40.744,18.913,22.613.783a2.674,2.674,0,0,0-3.782,0L15.066,4.548l4.776,4.776a3.176,3.176,0,0,1,4.022,4.049l4.6,4.6a3.178,3.178,0,1,1-1.906,1.794l-4.293-4.293v11.3a3.215,3.215,0,0,1,.842.6,3.179,3.179,0,1,1-3.458-.694V15.28a3.143,3.143,0,0,1-1.042-.694,3.181,3.181,0,0,1-.686-3.479L13.216,6.4.784,18.829a2.675,2.675,0,0,0,0,3.783l18.131,18.13a2.675,2.675,0,0,0,3.782,0L40.744,22.7a2.676,2.676,0,0,0,0-3.784" transform="translate(-0.001)" fill="#fff"/>
    </g>
  </g>
</svg>
