<svg xmlns="http://www.w3.org/2000/svg" width="84" height="38" viewBox="0 0 84 38">
  <g id="github" transform="translate(-0.011 -0.499)">
    <g id="box" transform="translate(0.011 0.499)" fill="#fff" stroke="#707070" stroke-width="1">
      <rect width="84" height="38" rx="10" stroke="none"/>
      <rect x="0.5" y="0.5" width="83" height="37" rx="9.5" fill="none"/>
    </g>
    <g id="github-2" data-name="github" transform="translate(13.317 11.59)">
      <path id="Path_76" data-name="Path 76" d="M10.791,6.336h-4.8c-.121,0,0,.179,0,.3v2.1c0,.121-.121.3,0,.3h1.8v2.7a2.521,2.521,0,0,1-1.5.3c-1.342,0-3.3-.374-3.3-4.5s2.064-4.8,3.9-4.8a8.555,8.555,0,0,1,2.7.3c.137.042.3.121.3,0l.6-2.4c0-.057-.235.046-.3,0-.177-.126-1.175-.9-3.9-.9C3.159-.258,0,1.122,0,7.535s3.791,7.494,6.894,7.494a6.048,6.048,0,0,0,3.9-1.2,1.214,1.214,0,0,0,.3-.3V6.636A.382.382,0,0,0,10.791,6.336ZM35.07.641a.38.38,0,0,0-.3-.3h-2.7a.381.381,0,0,0-.3.3v5.1h-3.9V.641a.381.381,0,0,0-.3-.3h-2.7a.381.381,0,0,0-.3.3V14.429a.382.382,0,0,0,.3.3h2.7a.381.381,0,0,0,.3-.3V8.434h3.9v5.995a.381.381,0,0,0,.3.3h2.7a.381.381,0,0,0,.3-.3Zm-19.184,1.8a1.8,1.8,0,1,0-3.6,0,1.8,1.8,0,0,0,3.6,0Zm-.3,8.992V5.137a.382.382,0,0,0-.3-.3h-2.7c-.121,0,0,.178,0,.3v9.292c0,.269.083.3.3.3h2.4c.261,0,.3-.074.3-.3ZM44.962,4.837h-2.4a.382.382,0,0,0-.3.3v6.894a6.111,6.111,0,0,1-1.8.3c-.946,0-.9-.272-.9-1.2V5.137a.381.381,0,0,0-.3-.3h-2.7a.382.382,0,0,0-.3.3v6.295c0,2.752,1.487,3.6,3.6,3.6a7.511,7.511,0,0,0,3.3-.9.981.981,0,0,0,0,.3c.03.06.215.3.3.3h1.5a.382.382,0,0,0,.3-.3V5.137A.381.381,0,0,0,44.962,4.837Zm6.295,7.494a7.84,7.84,0,0,1-1.8-.3v-4.5a8.339,8.339,0,0,1,1.5-.3c.945-.085,1.8.143,1.8,2.4C52.755,12.011,52.53,12.369,51.257,12.331Zm.9-7.793a3.615,3.615,0,0,0-2.4.9V.641a.381.381,0,0,0-.3-.3h-2.7a.381.381,0,0,0-.3.3V14.429a.381.381,0,0,0,.3.3h1.8c.083,0,.253-.225.3-.3a2.605,2.605,0,0,0,0-.6,5.037,5.037,0,0,0,3.3,1.2c2.41,0,3.6-1.429,3.6-5.7S53.648,4.538,52.156,4.538Zm-29.075.3h-1.8v-2.4a.424.424,0,0,0-.3-.3h-2.7a.438.438,0,0,0-.3.3v2.7s-1.107.273-1.2.3-.3-.1-.3,0v1.8a.38.38,0,0,0,.3.3h1.2v4.2c0,3.041,2.157,3.3,3.6,3.3a7.924,7.924,0,0,0,1.8-.3c.079-.029,0-.212,0-.3v-1.8a.387.387,0,0,0-.3-.3h-.6c-.974,0-1.2-.313-1.2-.9v-3.9h1.8a.38.38,0,0,0,.3-.3v-2.1A.381.381,0,0,0,23.081,4.837Z" transform="translate(0 0.258)" fill="#11110f"/>
    </g>
  </g>
</svg>
