<svg xmlns="http://www.w3.org/2000/svg" width="281" height="128" viewBox="0 0 281 128">
  <g id="github" transform="translate(-232 -163)">
    <g id="box" transform="translate(232 163)" fill="#fff" stroke="#707070" stroke-width="1">
      <rect width="281" height="128" rx="10" stroke="none"/>
      <rect x="0.5" y="0.5" width="280" height="127" rx="9.5" fill="none"/>
    </g>
    <g id="github-2" data-name="github" transform="translate(279 201.258)">
      <path id="Path_76" data-name="Path 76" d="M36,21.742H20c-.4,0,0,.6,0,1v7c0,.4-.4,1,0,1h6v9s-1.2,1-5,1c-4.477,0-11-1.246-11-15s6.885-16,13-16c5.293,0,7.549.551,9,1,.456.14,1,.4,1,0l2-8c0-.189-.784.155-1,0-.589-.42-3.919-3-13-3-10.462,0-21,4.6-21,26s12.647,25,23,25c8.573,0,13-4,13-4a4.049,4.049,0,0,0,1-1v-23A1.273,1.273,0,0,0,36,21.742Zm81-19a1.269,1.269,0,0,0-1-1h-9a1.27,1.27,0,0,0-1,1v17H93v-17a1.27,1.27,0,0,0-1-1H83a1.272,1.272,0,0,0-1,1v46a1.273,1.273,0,0,0,1,1h9a1.27,1.27,0,0,0,1-1v-20h13v20a1.27,1.27,0,0,0,1,1h9a1.27,1.27,0,0,0,1-1Zm-64,6a6,6,0,0,0-12,0,6,6,0,0,0,12,0Zm-1,30v-21a1.274,1.274,0,0,0-1-1H42c-.4,0,0,.6,0,1v31c0,.9.276,1,1,1h8c.869,0,1-.248,1-1Zm98-22h-8a1.273,1.273,0,0,0-1,1v23a20.387,20.387,0,0,1-6,1c-3.157,0-3-.909-3-4v-20a1.272,1.272,0,0,0-1-1h-9a1.273,1.273,0,0,0-1,1v21c0,9.182,4.96,12,12,12a25.057,25.057,0,0,0,11-3,3.273,3.273,0,0,0,0,1c.1.2.718,1,1,1h5a1.276,1.276,0,0,0,1-1v-31A1.27,1.27,0,0,0,150,16.742Zm21,25a26.155,26.155,0,0,1-6-1v-15a27.82,27.82,0,0,1,5-1c3.153-.282,6,.478,6,8C176,40.674,175.249,41.87,171,41.742Zm3-26a12.061,12.061,0,0,0-8,3v-16a1.271,1.271,0,0,0-1-1h-9a1.271,1.271,0,0,0-1,1v46a1.27,1.27,0,0,0,1,1h6c.276,0,.845-.75,1-1a8.691,8.691,0,0,0,0-2,16.8,16.8,0,0,0,11,4c8.041,0,12-4.768,12-19S178.977,15.742,174,15.742Zm-97,1H71v-8a1.416,1.416,0,0,0-1-1H61a1.462,1.462,0,0,0-1,1v9s-3.694.912-4,1-1-.335-1,0v6a1.269,1.269,0,0,0,1,1h4v14c0,10.147,7.2,11,12,11a26.436,26.436,0,0,0,6-1c.262-.1,0-.706,0-1v-6a1.291,1.291,0,0,0-1-1H75c-3.251,0-4-1.043-4-3v-13h6a1.269,1.269,0,0,0,1-1v-7A1.27,1.27,0,0,0,77,16.742Z" fill="#11110f"/>
    </g>
  </g>
</svg>
