<svg xmlns="http://www.w3.org/2000/svg" width="122" height="54" viewBox="0 0 122 54">
  <g id="github" transform="translate(-0.434 -0.492)">
    <g id="box" transform="translate(0.434 0.492)" fill="#fff" stroke="#707070" stroke-width="1">
      <rect width="122" height="54" rx="10" stroke="none"/>
      <rect x="0.5" y="0.5" width="121" height="53" rx="9.5" fill="none"/>
    </g>
    <g id="github-2" data-name="github" transform="translate(20.62 16.169)">
      <path id="Path_76" data-name="Path 76" d="M15.573,9.258H8.651c-.175,0,0,.258,0,.433v3.028c0,.175-.175.433,0,.433h2.6v3.893a3.639,3.639,0,0,1-2.163.433c-1.937,0-4.758-.539-4.758-6.489S7.3,4.067,9.949,4.067a12.346,12.346,0,0,1,3.893.433c.2.06.433.175.433,0l.865-3.461c0-.082-.339.067-.433,0-.255-.182-1.7-1.3-5.623-1.3C4.559-.258,0,1.733,0,10.989S5.471,21.8,9.949,21.8a8.727,8.727,0,0,0,5.623-1.73,1.752,1.752,0,0,0,.433-.433V9.691A.551.551,0,0,0,15.573,9.258ZM50.611,1.039a.549.549,0,0,0-.433-.433H46.285a.549.549,0,0,0-.433.433V8.393H40.229V1.039A.549.549,0,0,0,39.8.607H35.9a.55.55,0,0,0-.433.433v19.9a.551.551,0,0,0,.433.433H39.8a.549.549,0,0,0,.433-.433V12.286h5.623v8.651a.549.549,0,0,0,.433.433h3.893a.549.549,0,0,0,.433-.433Zm-27.685,2.6a2.6,2.6,0,1,0-5.191,0,2.6,2.6,0,1,0,5.191,0Zm-.433,12.977V7.528a.551.551,0,0,0-.433-.433H18.168c-.175,0,0,.258,0,.433v13.41c0,.388.119.433.433.433h3.461c.376,0,.433-.107.433-.433ZM64.886,7.1H61.425a.551.551,0,0,0-.433.433v9.949a8.819,8.819,0,0,1-2.6.433c-1.366,0-1.3-.393-1.3-1.73V7.528a.55.55,0,0,0-.433-.433H52.774a.551.551,0,0,0-.433.433v9.084c0,3.972,2.145,5.191,5.191,5.191a10.839,10.839,0,0,0,4.758-1.3,1.416,1.416,0,0,0,0,.433c.044.086.31.433.433.433h2.163a.552.552,0,0,0,.433-.433V7.528A.549.549,0,0,0,64.886,7.1ZM73.97,17.91a11.314,11.314,0,0,1-2.6-.433V10.989a12.034,12.034,0,0,1,2.163-.433c1.364-.122,2.6.207,2.6,3.461C76.133,17.448,75.808,17.965,73.97,17.91Zm1.3-11.247a5.217,5.217,0,0,0-3.461,1.3V1.039a.55.55,0,0,0-.433-.433H67.481a.55.55,0,0,0-.433.433v19.9a.549.549,0,0,0,.433.433h2.6c.12,0,.366-.325.433-.433a3.76,3.76,0,0,0,0-.865,7.268,7.268,0,0,0,4.758,1.73c3.478,0,5.191-2.062,5.191-8.219S77.42,6.663,75.267,6.663ZM33.308,7.1h-2.6V3.635A.612.612,0,0,0,30.28,3.2H26.387a.632.632,0,0,0-.433.433V7.528s-1.6.394-1.73.433-.433-.145-.433,0v2.6a.549.549,0,0,0,.433.433h1.73v6.056c0,4.389,3.113,4.758,5.191,4.758a11.435,11.435,0,0,0,2.6-.433c.113-.042,0-.305,0-.433v-2.6a.559.559,0,0,0-.433-.433h-.865c-1.406,0-1.73-.451-1.73-1.3V10.989h2.6a.549.549,0,0,0,.433-.433V7.528A.549.549,0,0,0,33.308,7.1Z" transform="translate(0 0.258)" fill="#11110f"/>
    </g>
  </g>
</svg>
