<svg xmlns="http://www.w3.org/2000/svg" width="122" height="56" viewBox="0 0 122 56">
  <g id="gitkraken" transform="translate(-0.434 -0.427)">
    <rect id="box" width="122" height="56" rx="10" transform="translate(0.434 0.426)" fill="#138379"/>
    <g id="gitkraken-2" data-name="gitkraken" transform="translate(39.653 9.335)">
      <path id="Path_141" data-name="Path 141" d="M41.527,8.182a1.044,1.044,0,0,0-1.3-.433.928.928,0,0,0-.433.865c0,.106-.071.362,0,.433a19.478,19.478,0,0,1,1.3,6.921,19.8,19.8,0,0,1-17.3,19.466V26.35c.6-.106,1.166-.689,1.73-.865v7.786a17.849,17.849,0,0,0,13.842-17.3A18.127,18.127,0,0,0,30.28-.037a.986.986,0,0,0-1.3.433c-.071.106,0,.292,0,.433a1.1,1.1,0,0,0,.433.865,16.062,16.062,0,0,1,8.219,14.275,16.2,16.2,0,0,1-10.382,15.14V24.187c1.058-.317,2.163-.964,2.163-2.163a3.1,3.1,0,0,0-1.3-2.6c.6-5.922,3.028-4.152,3.028-6.056v-1.3c0-2.82-6.45-11.9-9.517-12.112H21.2c-3.067.212-9.517,9.292-9.517,12.112v1.3c0,1.868,2.393.134,3.028,6.056a3.239,3.239,0,0,0-1.3,2.6c0,1.163,1.105,1.81,2.163,2.163v6.921c-6.064-2.4-10.814-8.2-10.814-15.14A16.447,16.447,0,0,1,13.41,1.693,1.1,1.1,0,0,0,13.842.4c-.106-.317-.548-.433-.865-.433-.141,0-.292-.071-.433,0A18.127,18.127,0,0,0,3.461,15.968,17.8,17.8,0,0,0,17.3,33.271V25.917a13.794,13.794,0,0,0,1.73.433v9.084A19.8,19.8,0,0,1,1.73,15.968a19.777,19.777,0,0,1,1.3-6.921,1.085,1.085,0,0,0-.433-1.3,1.776,1.776,0,0,0-.433,0,.837.837,0,0,0-.865.433A22.027,22.027,0,0,0,0,15.968a21.06,21.06,0,0,0,20.331,21.2V26.35a6.549,6.549,0,0,0,.865,0s.98.035,1.3,0V37.164a21.06,21.06,0,0,0,20.331-21.2,23.584,23.584,0,0,0-1.3-7.786ZM25.522,20.726c.317-.317.372-.865.865-.865s.98.548,1.3.865.865.372.865.865-.548.98-.865,1.3-.8.865-1.3.865-.548-.548-.865-.865-.865-.8-.865-1.3.548-.548.865-.865ZM17.3,22.889c-.317.317-.8.865-1.3.865s-.548-.548-.865-.865c-.353-.317-.865-.8-.865-1.3s.548-.548.865-.865.372-.865.865-.865.98.548,1.3.865.865.372.865.865c-.035.494-.548.98-.865,1.3Z" transform="translate(0 0.139)" fill="#fff"/>
    </g>
  </g>
</svg>
