<svg xmlns="http://www.w3.org/2000/svg" width="281" height="128" viewBox="0 0 281 128">
  <g id="gitkraken" transform="translate(-232 -163)">
    <rect id="box" width="281" height="128" rx="10" transform="translate(232 163)" fill="#138379"/>
    <g id="gitkraken-2" data-name="gitkraken" transform="translate(323 183.903)">
      <path id="Path_141" data-name="Path 141" d="M96,19.1a2.415,2.415,0,0,0-3-1,2.145,2.145,0,0,0-1,2c0,.244-.163.837,0,1a45.027,45.027,0,0,1,3,16c0,23.063-17.67,42.148-40,45v-21c1.385-.244,2.7-1.593,4-2v18c18.174-4.4,32-20.278,32-40,0-15.729-8.124-29.91-21-37a2.278,2.278,0,0,0-3,1c-.163.244,0,.674,0,1a2.534,2.534,0,0,0,1,2c11.654,6.438,19,18.738,19,33a37.453,37.453,0,0,1-24,35v-16c2.445-.733,5-2.229,5-5,0-2.282-1.126-4.941-3-6,1.385-13.691,7-9.6,7-14v-3C72,21.578,57.09.586,50,.1H49c-7.09.489-22,21.48-22,28v3c0,4.319,5.533.309,7,14-1.793,1.059-3,3.8-3,6,0,2.689,2.555,4.185,5,5v16c-14.017-5.542-25-18.945-25-35,0-14.262,8.346-26.562,20-33a2.545,2.545,0,0,0,1-3c-.244-.733-1.267-1-2-1-.326,0-.674-.163-1,0C16.124,7.187,8,21.369,8,37.1c0,19.722,13.663,35.518,32,40v-17a31.886,31.886,0,0,0,4,1v21C21.67,79.163,4,60.242,4,37.1a45.719,45.719,0,0,1,3-16,2.509,2.509,0,0,0-1-3,4.105,4.105,0,0,0-1,0,1.936,1.936,0,0,0-2,1,50.922,50.922,0,0,0-3,18,48.686,48.686,0,0,0,47,49v-25a15.141,15.141,0,0,0,2,0s2.267.081,3,0v25a48.686,48.686,0,0,0,47-49,54.519,54.519,0,0,0-3-18Zm-37,29c.733-.733.859-2,2-2s2.267,1.267,3,2,2,.859,2,2-1.267,2.267-2,3-1.859,2-3,2-1.267-1.267-2-2-2-1.859-2-3,1.267-1.267,2-2Zm-19,5c-.733.733-1.859,2-3,2s-1.267-1.267-2-2c-.815-.733-2-1.859-2-3s1.267-1.267,2-2,.859-2,2-2,2.267,1.267,3,2,2,.859,2,2c-.081,1.141-1.267,2.267-2,3Z" transform="translate(0)" fill="#fff"/>
    </g>
  </g>
</svg>
