<svg xmlns="http://www.w3.org/2000/svg" width="84" height="39" viewBox="0 0 84 39">
  <g id="gitkraken" transform="translate(-0.011 0.162)">
    <rect id="box" width="84" height="39" rx="10" transform="translate(0.011 -0.162)" fill="#138379"/>
    <g id="gitkraken-2" data-name="gitkraken" transform="translate(26.506 6.192)">
      <path id="Path_141" data-name="Path 141" d="M28.776,5.627a.724.724,0,0,0-.9-.3.643.643,0,0,0-.3.6c0,.073-.049.251,0,.3a13.5,13.5,0,0,1,.9,4.8,13.719,13.719,0,0,1-11.99,13.489V18.216c.415-.073.808-.477,1.2-.6v5.4a12.368,12.368,0,0,0,9.592-11.99A12.561,12.561,0,0,0,20.982-.068a.683.683,0,0,0-.9.3c-.049.073,0,.2,0,.3a.759.759,0,0,0,.3.6,11.13,11.13,0,0,1,5.7,9.892,11.226,11.226,0,0,1-7.194,10.491v-4.8c.733-.22,1.5-.668,1.5-1.5a2.146,2.146,0,0,0-.9-1.8c.415-4.1,2.1-2.877,2.1-4.2v-.9c0-1.954-4.469-8.246-6.594-8.393h-.3C12.562.078,8.093,6.37,8.093,8.325v.9c0,1.295,1.659.093,2.1,4.2a2.245,2.245,0,0,0-.9,1.8c0,.806.766,1.254,1.5,1.5v4.8A11.536,11.536,0,0,1,3.3,11.022,11.4,11.4,0,0,1,9.292,1.131a.763.763,0,0,0,.3-.9c-.073-.22-.38-.3-.6-.3-.1,0-.2-.049-.3,0A12.561,12.561,0,0,0,2.4,11.022a12.337,12.337,0,0,0,9.592,11.99v-5.1a9.558,9.558,0,0,0,1.2.3v6.295A13.719,13.719,0,0,1,1.2,11.022a13.7,13.7,0,0,1,.9-4.8.752.752,0,0,0-.3-.9,1.231,1.231,0,0,0-.3,0,.58.58,0,0,0-.6.3,15.264,15.264,0,0,0-.9,5.4A14.593,14.593,0,0,0,14.088,25.71V18.216a4.538,4.538,0,0,0,.6,0s.679.024.9,0V25.71A14.593,14.593,0,0,0,29.675,11.022a16.342,16.342,0,0,0-.9-5.4ZM17.685,14.319c.22-.22.257-.6.6-.6s.679.38.9.6.6.257.6.6-.38.679-.6.9-.557.6-.9.6-.38-.38-.6-.6-.6-.557-.6-.9.38-.38.6-.6Zm-5.7,1.5c-.22.22-.557.6-.9.6s-.38-.38-.6-.6c-.244-.22-.6-.557-.6-.9s.38-.38.6-.6.257-.6.6-.6.679.38.9.6.6.257.6.6c-.024.342-.38.679-.6.9Z" transform="translate(0 0.139)" fill="#fff"/>
    </g>
  </g>
</svg>
