<svg xmlns="http://www.w3.org/2000/svg" width="122" height="56" viewBox="0 0 122 56">
  <g id="gitlab" transform="translate(-0.434 -0.361)">
    <rect id="box" width="122" height="56" rx="10" transform="translate(0.434 0.361)" fill="#fca326"/>
    <g id="gitlab-2" data-name="gitlab" transform="translate(37.139 7.06)">
      <path id="Path_214" data-name="Path 214" d="M89.716,117.5h0l8.651-26.819h-17.3L89.716,117.5Z" transform="translate(-66.222 -74.05)" fill="#fff" stroke="#fff" stroke-width="1"/>
      <path id="Path_215" data-name="Path 215" d="M35.921,117.5,27.27,90.676H15.158L35.921,117.5Z" transform="translate(-12.427 -74.05)" fill="#fff" stroke="#fff" stroke-width="1"/>
      <path id="Path_216" data-name="Path 216" d="M3.082,90.676h0l-2.6,8.219a1.953,1.953,0,0,0,.433,2.163L23.845,117.5,3.082,90.676Z" transform="translate(-0.351 -74.05)" fill="#fff" stroke="#fff" stroke-width="1"/>
      <path id="Path_217" data-name="Path 217" d="M15.158,16.795H27.27L22.079.789a.913.913,0,0,0-1.73,0L15.158,16.795Z" transform="translate(-12.427 -0.169)" fill="#fff" stroke="#fff" stroke-width="1"/>
      <path id="Path_218" data-name="Path 218" d="M128.113,117.5l8.651-26.819h12.112L128.113,117.5Z" transform="translate(-104.619 -74.05)" fill="#fff" stroke="#fff" stroke-width="1"/>
      <path id="Path_219" data-name="Path 219" d="M148.876,90.676h0l2.6,8.219a1.953,1.953,0,0,1-.433,2.163L128.113,117.5l20.763-26.819Z" transform="translate(-104.619 -74.05)" fill="#fff" stroke="#fff" stroke-width="1"/>
      <path id="Path_220" data-name="Path 220" d="M187.273,16.795H175.161L180.352.789a.913.913,0,0,1,1.73,0l5.191,16.005Z" transform="translate(-143.015 -0.169)" fill="#fff" stroke="#fff" stroke-width="1"/>
    </g>
  </g>
</svg>
