<svg xmlns="http://www.w3.org/2000/svg" width="121" height="54" viewBox="0 0 121 54">
  <g id="google-cloud" transform="translate(-0.378 0.443)">
    <g id="box" transform="translate(0.378 -0.443)" fill="#fff" stroke="#707070" stroke-width="1">
      <rect width="121" height="54" rx="10" stroke="none"/>
      <rect x="0.5" y="0.5" width="120" height="53" rx="9.5" fill="none"/>
    </g>
    <g id="google-cloud-2" data-name="google-cloud" transform="translate(33.684 5.01)">
      <path id="Path_6" data-name="Path 6" d="M60.2,11.739l4.758-4.326V5.25a21.164,21.164,0,0,0-29.847,1.73,21.556,21.556,0,0,0-4.326,8.651l1.73-.433L41.6,13.9l.865-.865a11.718,11.718,0,0,1,16.005-1.3Z" transform="translate(-24.293 0.095)" fill="#ea4335"/>
      <path id="Path_7" data-name="Path 7" d="M143.311,35.589a21.722,21.722,0,0,0-6.489-10.382L130.334,31.7a12.222,12.222,0,0,1,4.326,9.517v.865a6.211,6.211,0,0,1,6.056,6.056,5.844,5.844,0,0,1-6.056,5.623H122.98l-1.3,1.3v6.921l1.3,1.3h11.679a15.094,15.094,0,0,0,15.14-15.14,14.729,14.729,0,0,0-6.489-12.545" transform="translate(-96.16 -19.862)" fill="#4285f4"/>
      <path id="Path_8" data-name="Path 8" d="M37.585,168.8H49.265v-9.517H37.585a6.591,6.591,0,0,1-2.6-.433l-1.3.433-4.758,4.758-.433,1.73a14.825,14.825,0,0,0,9.084,3.028" transform="translate(-22.445 -125.386)" fill="#34a853"/>
      <path id="Path_9" data-name="Path 9" d="M15.14,61.822A15.093,15.093,0,0,0,0,76.962,15.613,15.613,0,0,0,6.056,89.074l6.489-6.921a5.776,5.776,0,0,1-2.6-7.786,5.952,5.952,0,0,1,7.786-3.028,5.477,5.477,0,0,1,2.6,3.028l6.921-6.921A14.87,14.87,0,0,0,15.14,61.822" transform="translate(0.001 -48.69)" fill="#fbbc05"/>
    </g>
  </g>
</svg>
