<svg xmlns="http://www.w3.org/2000/svg" width="85" height="39" viewBox="0 0 85 39">
  <g id="grafana" transform="translate(0.058 0.162)">
    <rect id="box" width="85" height="39" rx="10" transform="translate(-0.058 -0.162)" fill="#f05a28"/>
    <g id="grafana-2" data-name="grafana" transform="translate(30.054 6.263)">
      <path id="Path_142" data-name="Path 142" d="M24.579,11.788a10.124,10.124,0,0,0-.3-1.5,8.426,8.426,0,0,0-.6-1.8,10.355,10.355,0,0,0-1.2-2.1c-.214-.258-.649-.356-.9-.6a3.967,3.967,0,0,0-.3-2.7,4.316,4.316,0,0,0-2.7.6c-.059-.022-.241.022-.3,0a6.49,6.49,0,0,0-.6-.3c-.258-.081-.626-.233-.9-.3s-.619-.256-.9-.3h0a4.45,4.45,0,0,0-2.4-2.7,5.322,5.322,0,0,0-2.4,3h0c-.111.029-.489.27-.6.3-.155.044-.152-.059-.3,0s-.445.233-.6.3c-.3.133-.6.138-.9.3s-.327.415-.6.6a2.016,2.016,0,0,0-.3,0,6.277,6.277,0,0,0-5.1.3,7.666,7.666,0,0,0,1.2,5.1c-.066.184.059.415,0,.6a13.417,13.417,0,0,0-.6,2.1c-.015.1.007.2,0,.3a6.725,6.725,0,0,0-3.3,3.9,7.843,7.843,0,0,0,4.8,2.7v-.3a12.042,12.042,0,0,0,.9,1.8c.177.214.408.4.6.6a6.506,6.506,0,0,0,0,4.2,7.212,7.212,0,0,0,4.5-1.5c.236.081.356.241.6.3a11.988,11.988,0,0,0,2.4.3,2.033,2.033,0,0,0,.3,0h.6a4.548,4.548,0,0,0,3,1.8,5.021,5.021,0,0,0,1.5-3.3h0a8.286,8.286,0,0,0,.9-.6,9.711,9.711,0,0,0,1.5-1.8c.037-.059-.037-.241,0-.3a4.034,4.034,0,0,0,2.7-.9,4.742,4.742,0,0,0-1.2-2.7s-.285.007-.3,0h0c-.007-.007.015.007,0,0,.007-.1-.007-.2,0-.3.015-.177,0-.423,0-.6h0v-.3h0v-.3c0-.052.007.044,0,0h0v-.3h0c-.029-.184.044-.415,0-.6a8.05,8.05,0,0,0-.9-2.1,5.682,5.682,0,0,0-1.2-1.5,7.729,7.729,0,0,0-1.8-1.2,6.377,6.377,0,0,0-1.8-.6,9.293,9.293,0,0,0-1.2,0h-.3c-.162.015-.445-.029-.6,0a5.966,5.966,0,0,0-1.8.9,3.91,3.91,0,0,0-1.2.9,5.7,5.7,0,0,0-.9,1.5,4.712,4.712,0,0,0-.3,1.5c-.007.125,0,.474,0,.6h0c.007.059-.007.241,0,.3.022.258-.066.364,0,.6a6,6,0,0,0,.9,1.5,3.854,3.854,0,0,0,.9.9,2.4,2.4,0,0,0,.9.3,5.009,5.009,0,0,0,1.2.3h.3c.022,0-.022.007,0,0h0c.007,0-.007.007,0,0h.3c.044-.007-.037.015,0,0,.081-.015.226-.278.3-.3.147-.052.474.066.6,0s.182-.226.3-.3c.029-.022-.029.029,0,0,.118-.1.1-.182,0-.3s-.182-.366-.3-.3c-.029.015.029.285,0,.3-.1.052-.189-.037-.3,0s-.182-.022-.3,0c-.059.007-.233-.007-.3,0h-.3c-.037,0,.037.007,0,0h0c-.015,0-.285.007-.3,0h0a3.685,3.685,0,0,1-.9-.3c-.265-.118-.371-.093-.6-.3a3.826,3.826,0,0,1-.6-.9,2.7,2.7,0,0,1-.3-.9,1.021,1.021,0,0,1,0-.3v-.3h0c.007-.088-.015-.211,0-.3a3.026,3.026,0,0,1,.9-1.8c.14-.133.445-.489.6-.6a4.135,4.135,0,0,1,.6-.3c.177-.081.108.052.3,0s.4-.278.6-.3c.1-.007.2,0,.3,0h.3c.214.015.393.248.6.3a4.149,4.149,0,0,1,1.2.3,4.316,4.316,0,0,1,1.8,1.8,6.245,6.245,0,0,1,.6,1.5c.015.111-.007.189,0,.3h0v.3h0v.3c-.007.118.015.182,0,.3s.022.182,0,.3-.27.189-.3.3c-.059.229.088.671,0,.9a6.614,6.614,0,0,1-.9,1.2,5.268,5.268,0,0,1-2.1,1.8,6.007,6.007,0,0,1-1.5.3c-.236.044-.356.292-.6.3h-.3c-.133,0-.467.015-.6,0a7.5,7.5,0,0,1-1.5-.3,8.476,8.476,0,0,1-1.5-.6,8.169,8.169,0,0,1-2.4-2.1,5.879,5.879,0,0,1-.6-1.2,8.708,8.708,0,0,1-.6-1.5,8.055,8.055,0,0,1-.3-1.5h0v-.3h0v-.3h0c.007-.243-.029-.649,0-.9s.248-.349.3-.6-.074-.649,0-.9a11.142,11.142,0,0,1,.6-1.5,6.541,6.541,0,0,1,1.5-2.1c.162-.162.423-.452.6-.6s.408-.174.6-.3a5.682,5.682,0,0,1,.6-.3c.1-.052.2-.256.3-.3h0c.052-.022.248.022.3,0a5.681,5.681,0,0,1,.6-.3c.052-.015.248.022.3,0h0c.111-.029.189-.278.3-.3.052-.015.241.015.3,0h0c.059-.007.241.007.3,0h.3c.066-.007.233.007.3,0h0c.037-.007.263.007.3,0h0c.066-.007.233.007.3,0h.3c.214-.007.386-.007.6,0a8.133,8.133,0,0,1,1.2,0,9.936,9.936,0,0,1,2.4.9,8.492,8.492,0,0,1,1.8,1.2c.037.029.263-.029.3,0h0c.066.059.233.241.3.3s-.059-.059,0,0,.241.233.3.3a7.662,7.662,0,0,1,.6.6,9.37,9.37,0,0,1,.9,1.5c.015.029-.015.27,0,.3h0c.029.059.278.241.3.3h0c.022.059-.022.241,0,.3.088.221.233.4.3.6.111.324.233.649.3.9.022.1.2.015.3,0s0-.189,0-.3A6.062,6.062,0,0,0,24.579,11.788Z" transform="translate(0 -0.098)" fill="#fff"/>
    </g>
  </g>
</svg>
