<svg xmlns="http://www.w3.org/2000/svg" width="281" height="128" viewBox="0 0 281 128">
  <g id="grafana" transform="translate(-232 -163)">
    <rect id="box" width="281" height="128" rx="10" transform="translate(232 163)" fill="#f05a28"/>
    <g id="grafana-2" data-name="grafana" transform="translate(331 183.902)">
      <path id="Path_142" data-name="Path 142" d="M82,39.1a33.776,33.776,0,0,0-1-5,28.11,28.11,0,0,0-2-6,34.544,34.544,0,0,0-4-7c-.713-.861-2.164-1.188-3-2a13.234,13.234,0,0,0-1-9c-4.8-.3-7.868,1.188-9,2-.2-.074-.8.074-1,0a21.651,21.651,0,0,0-2-1c-.861-.271-2.09-.779-3-1s-2.065-.852-3-1h0a14.847,14.847,0,0,0-8-9c-6.716,4.256-8,10-8,10h0c-.369.1-1.631.9-2,1-.517.148-.508-.2-1,0-.517.2-1.483.779-2,1-1.009.443-2.016.459-3,1-.959.541-1.09,1.385-2,2a6.727,6.727,0,0,0-1,0,20.941,20.941,0,0,0-17,1c-.763,9.889,3.114,15.868,4,17-.221.615.2,1.385,0,2a44.76,44.76,0,0,0-2,7c-.049.344.025.656,0,1a22.436,22.436,0,0,0-11,13,26.164,26.164,0,0,0,16,9v-1c1.058,1.894,1.622,4.3,3,6,.59.713,1.36,1.336,2,2a21.7,21.7,0,0,0,0,14,24.062,24.062,0,0,0,15-5c.787.271,1.188.8,2,1a39.995,39.995,0,0,0,8,1,6.784,6.784,0,0,0,1,0h2a15.171,15.171,0,0,0,10,6c4.7-4.945,5-9.942,5-11h0a27.642,27.642,0,0,0,3-2,32.4,32.4,0,0,0,5-6c.123-.2-.123-.8,0-1a13.458,13.458,0,0,0,9-3c-.886-5.535-3.336-8.483-4-9,0,0-.951.025-1,0h0c-.025-.025.049.025,0,0,.025-.344-.025-.656,0-1,.049-.59,0-1.41,0-2h0v-1h0v-1c0-.172.025.148,0,0h0v-1h0c-.1-.615.148-1.385,0-2a26.855,26.855,0,0,0-3-7,18.956,18.956,0,0,0-4-5,25.786,25.786,0,0,0-6-4,21.273,21.273,0,0,0-6-2,31,31,0,0,0-4,0H52c-.541.049-1.483-.1-2,0-2.116.394-4.253,1.942-6,3a13.043,13.043,0,0,0-4,3,19.027,19.027,0,0,0-3,5,15.721,15.721,0,0,0-1,5c-.025.418,0,1.582,0,2h0c.025.2-.025.8,0,1,.074.861-.221,1.213,0,2a20,20,0,0,0,3,5,12.858,12.858,0,0,0,3,3c1.156.787,1.77.631,3,1a16.712,16.712,0,0,0,4,1h1c.074,0-.074.025,0,0h0c.025,0-.025.025,0,0h1c.148-.025-.123.049,0,0,.271-.049.754-.926,1-1,.492-.172,1.582.221,2,0,.443-.221.606-.754,1-1,.1-.074-.1.1,0,0,.394-.32.32-.606,0-1-.271-.344-.606-1.221-1-1-.1.049.1.951,0,1-.344.172-.631-.123-1,0s-.606-.074-1,0c-.2.025-.779-.025-1,0H50c-.123,0,.123.025,0,0h0c-.049,0-.951.025-1,0h0a12.293,12.293,0,0,1-3-1c-.886-.394-1.237-.311-2-1a12.764,12.764,0,0,1-2-3,9,9,0,0,1-1-3,3.406,3.406,0,0,1,0-1v-1h0c.025-.3-.049-.7,0-1a10.1,10.1,0,0,1,3-6c.467-.443,1.483-1.631,2-2a13.794,13.794,0,0,1,2-1c.59-.271.36.172,1,0,.615-.172,1.336-.926,2-1,.32-.025.656,0,1,0h1c.713.049,1.311.828,2,1a13.842,13.842,0,0,1,4,1,14.4,14.4,0,0,1,6,6,20.834,20.834,0,0,1,2,5c.049.369-.025.631,0,1h0v1h0v1c-.025.394.049.606,0,1s.074.606,0,1-.9.631-1,1c-.2.763.3,2.237,0,3-.59,1.476-2.065,2.7-3,4a17.574,17.574,0,0,1-7,6,20.042,20.042,0,0,1-5,1c-.787.148-1.188.975-2,1H48c-.443,0-1.557.049-2,0a25.016,25.016,0,0,1-5-1,28.279,28.279,0,0,1-5-2,27.255,27.255,0,0,1-8-7c-1.058-1.328-1.237-2.5-2-4a29.051,29.051,0,0,1-2-5,26.873,26.873,0,0,1-1-5h0v-1h0v-1h0c.025-.812-.1-2.164,0-3s.828-1.164,1-2-.246-2.164,0-3a37.172,37.172,0,0,1,2-5,21.823,21.823,0,0,1,5-7c.541-.541,1.41-1.508,2-2,.59-.467,1.36-.582,2-1a18.954,18.954,0,0,1,2-1c.32-.172.656-.852,1-1h0c.172-.074.828.074,1,0a18.954,18.954,0,0,1,2-1c.172-.049.828.074,1,0h0c.369-.1.631-.926,1-1,.172-.049.8.049,1,0h0c.2-.025.8.025,1,0h1c.221-.025.779.025,1,0h0c.123-.025.877.025,1,0h0c.221-.025.779.025,1,0h1c.713-.025,1.287-.025,2,0a27.132,27.132,0,0,1,4,0,33.147,33.147,0,0,1,8,3,28.33,28.33,0,0,1,6,4c.123.1.877-.1,1,0h0c.221.2.779.8,1,1s-.2-.2,0,0,.8.779,1,1a25.559,25.559,0,0,1,2,2,31.258,31.258,0,0,1,3,5c.049.1-.049.9,0,1h0c.1.2.926.8,1,1h0c.074.2-.074.8,0,1,.3.738.779,1.336,1,2,.369,1.082.779,2.164,1,3,.074.344.656.049,1,0,.369-.025,0-.631,0-1A20.224,20.224,0,0,0,82,39.1Z" transform="translate(0 0)" fill="#fff"/>
    </g>
  </g>
</svg>
