<svg xmlns="http://www.w3.org/2000/svg" width="121" height="56" viewBox="0 0 121 56">
  <g id="grafana" transform="translate(0.056 -0.427)">
    <rect id="box" width="121" height="56" rx="10" transform="translate(-0.056 0.426)" fill="#f05a28"/>
    <g id="grafana-2" data-name="grafana" transform="translate(42.479 9.437)">
      <path id="Path_142" data-name="Path 142" d="M35.471,16.968a14.611,14.611,0,0,0-.433-2.163,12.16,12.16,0,0,0-.865-2.6,14.943,14.943,0,0,0-1.73-3.028c-.309-.372-.936-.514-1.3-.865a5.724,5.724,0,0,0-.433-3.893,6.228,6.228,0,0,0-3.893.865c-.085-.032-.347.032-.433,0a9.366,9.366,0,0,0-.865-.433c-.372-.117-.9-.337-1.3-.433s-.893-.369-1.3-.433h0A6.422,6.422,0,0,0,19.466.1a7.68,7.68,0,0,0-3.461,4.326h0c-.16.043-.706.39-.865.433-.223.064-.22-.085-.433,0s-.642.337-.865.433c-.436.192-.872.2-1.3.433s-.471.6-.865.865a2.91,2.91,0,0,0-.433,0,9.059,9.059,0,0,0-7.354.433,11.063,11.063,0,0,0,1.73,7.354c-.1.266.085.6,0,.865a19.362,19.362,0,0,0-.865,3.028c-.021.149.011.284,0,.433A9.705,9.705,0,0,0,0,24.322a11.318,11.318,0,0,0,6.921,3.893v-.433a17.377,17.377,0,0,0,1.3,2.6c.255.309.588.578.865.865a9.389,9.389,0,0,0,0,6.056,10.408,10.408,0,0,0,6.489-2.163c.341.117.514.347.865.433A17.3,17.3,0,0,0,19.9,36a2.934,2.934,0,0,0,.433,0H21.2a6.563,6.563,0,0,0,4.326,2.6,7.245,7.245,0,0,0,2.163-4.758h0a11.957,11.957,0,0,0,1.3-.865,14.014,14.014,0,0,0,2.163-2.6c.053-.085-.053-.347,0-.433a5.822,5.822,0,0,0,3.893-1.3,6.844,6.844,0,0,0-1.73-3.893s-.411.011-.433,0h0c-.011-.011.021.011,0,0,.011-.149-.011-.284,0-.433.021-.255,0-.61,0-.865h0v-.433h0v-.433c0-.074.011.064,0,0h0v-.433h0c-.043-.266.064-.6,0-.865a11.617,11.617,0,0,0-1.3-3.028,8.2,8.2,0,0,0-1.73-2.163,11.154,11.154,0,0,0-2.6-1.73,9.2,9.2,0,0,0-2.6-.865,13.411,13.411,0,0,0-1.73,0h-.433c-.234.021-.642-.043-.865,0a8.609,8.609,0,0,0-2.6,1.3,5.642,5.642,0,0,0-1.73,1.3,8.231,8.231,0,0,0-1.3,2.163,6.8,6.8,0,0,0-.433,2.163c-.011.181,0,.684,0,.865h0c.011.085-.011.347,0,.433.032.372-.1.525,0,.865a8.653,8.653,0,0,0,1.3,2.163,5.562,5.562,0,0,0,1.3,1.3,3.466,3.466,0,0,0,1.3.433,7.229,7.229,0,0,0,1.73.433h.433c.032,0-.032.011,0,0h0c.011,0-.011.011,0,0h.433c.064-.011-.053.021,0,0,.117-.021.326-.4.433-.433.213-.074.684.1.865,0s.262-.326.433-.433c.043-.032-.043.043,0,0,.17-.138.138-.262,0-.433-.117-.149-.262-.528-.433-.433-.043.021.043.411,0,.433-.149.074-.273-.053-.433,0s-.262-.032-.433,0c-.085.011-.337-.011-.433,0h-.433c-.053,0,.053.011,0,0h0c-.021,0-.411.011-.433,0h0a5.318,5.318,0,0,1-1.3-.433c-.383-.17-.535-.135-.865-.433a5.521,5.521,0,0,1-.865-1.3,3.892,3.892,0,0,1-.433-1.3,1.473,1.473,0,0,1,0-.433v-.433h0c.011-.128-.021-.3,0-.433a4.367,4.367,0,0,1,1.3-2.6c.2-.192.642-.706.865-.865a5.967,5.967,0,0,1,.865-.433c.255-.117.156.074.433,0s.578-.4.865-.433c.138-.011.284,0,.433,0h.433c.309.021.567.358.865.433a5.988,5.988,0,0,1,1.73.433,6.228,6.228,0,0,1,2.6,2.6,9.012,9.012,0,0,1,.865,2.163c.021.16-.011.273,0,.433h0v.433h0v.433c-.011.17.021.262,0,.433s.032.262,0,.433-.39.273-.433.433c-.085.33.128.968,0,1.3a9.545,9.545,0,0,1-1.3,1.73,7.6,7.6,0,0,1-3.028,2.6,8.67,8.67,0,0,1-2.163.433c-.341.064-.514.422-.865.433h-.433c-.192,0-.674.021-.865,0a10.822,10.822,0,0,1-2.163-.433,12.233,12.233,0,0,1-2.163-.865,11.79,11.79,0,0,1-3.461-3.028,8.483,8.483,0,0,1-.865-1.73,12.566,12.566,0,0,1-.865-2.163,11.624,11.624,0,0,1-.433-2.163h0v-.433h0V20h0c.011-.351-.043-.936,0-1.3s.358-.5.433-.865-.106-.936,0-1.3a16.079,16.079,0,0,1,.865-2.163,9.44,9.44,0,0,1,2.163-3.028c.234-.234.61-.652.865-.865s.588-.252.865-.433a8.2,8.2,0,0,1,.865-.433c.138-.074.284-.369.433-.433h0c.074-.032.358.032.433,0a8.2,8.2,0,0,1,.865-.433c.074-.021.358.032.433,0h0c.16-.043.273-.4.433-.433.074-.021.347.021.433,0h0c.085-.011.347.011.433,0H19.9c.1-.011.337.011.433,0h0c.053-.011.379.011.433,0h0c.1-.011.337.011.433,0h.433c.309-.011.557-.011.865,0a11.737,11.737,0,0,1,1.73,0,14.338,14.338,0,0,1,3.461,1.3,12.255,12.255,0,0,1,2.6,1.73c.053.043.379-.043.433,0h0c.1.085.337.347.433.433s-.085-.085,0,0,.347.337.433.433a11.057,11.057,0,0,1,.865.865,13.521,13.521,0,0,1,1.3,2.163c.021.043-.021.39,0,.433h0c.043.085.4.347.433.433h0c.032.085-.032.347,0,.433.128.319.337.578.433.865.16.468.337.936.433,1.3.032.149.284.021.433,0s0-.273,0-.433A8.749,8.749,0,0,0,35.471,16.968Z" transform="translate(0 -0.098)" fill="#fff"/>
    </g>
  </g>
</svg>
