<svg xmlns="http://www.w3.org/2000/svg" width="122" height="55" viewBox="0 0 122 55">
  <g id="html-5" transform="translate(-0.434 -0.459)">
    <rect id="box" width="122" height="55" rx="10" transform="translate(0.434 0.459)" fill="#f16529"/>
    <g id="html-5-2" data-name="html-5" transform="translate(41.816 5.666)">
      <path id="Path_108" data-name="Path 108" d="M38.944,70.486,35.483,109.85l-16.005,4.326L3.906,109.85.445,70.486Z" transform="translate(-0.445 -70.486)" fill="#e44d26"/>
      <path id="Path_109" data-name="Path 109" d="M127.556,129.127l12.977-3.461,3.028-33.308H127.556v36.769Z" transform="translate(-108.523 -88.898)" fill="#f16529"/>
      <path id="Path_110" data-name="Path 110" d="M53.567,128.926h6.489v-4.758H48.377v1.3l1.3,12.977H60.056v-4.758H54l-.433-4.758Z" transform="translate(-41.023 -115.949)" fill="#ebebeb"/>
      <path id="Path_111" data-name="Path 111" d="M62.677,236.5H57.919l.865,7.786,9.517,2.6h0v-5.191h0l-5.191-1.3-.433-3.893Z" transform="translate(-49.268 -211.412)" fill="#ebebeb"/>
      <path id="Path_116" data-name="Path 116" d="M127.484,193.045h6.056l-.433,6.489-5.623,1.3v5.191l9.949-2.6v-.865l1.3-12.977v-1.3H127.484v4.758Z" transform="translate(-108.451 -170.551)" fill="#fff"/>
      <path id="Path_117" data-name="Path 117" d="M127.484,128.926h11.679l.433-1.3v-3.461H127.484v4.758Z" transform="translate(-108.451 -115.949)" fill="#fff"/>
    </g>
  </g>
</svg>
