<svg xmlns="http://www.w3.org/2000/svg" width="121" height="54" viewBox="0 0 121 54">
  <g id="javascript" transform="translate(0 -0.481)">
    <rect id="box" width="121" height="54" rx="10" transform="translate(0 0.481)" fill="#f7df1e"/>
    <g id="javascript-2" data-name="javascript" transform="translate(42.825 9.253)">
      <path id="Path_128" data-name="Path 128" d="M0-.428H35.9v35.9H0Z" transform="translate(0 0.428)" fill="#fff"/>
      <path id="Path_129" data-name="Path 129" d="M67.6,130.6l2.6-1.3c.527.935,1.012,1.73,2.163,1.73,1.1,0,1.73-.485,1.73-2.163V117.192h3.461v11.679c0,3.477-2.218,5.191-5.191,5.191-2.685,0-3.967-1.782-4.758-3.461" transform="translate(-58.084 -100.754)" fill="#f7df1e"/>
      <path id="Path_130" data-name="Path 130" d="M152.231,129.67l2.6-1.73a4,4,0,0,0,3.461,2.163c1.391,0,2.163-.771,2.163-1.73,0-1.151-.628-1.492-2.163-2.163l-.865-.433c-2.422-1.031-4.326-2.458-4.326-5.191,0-2.518,2.194-4.326,5.191-4.326a4.866,4.866,0,0,1,4.758,2.6l-2.6,1.73a2.158,2.158,0,0,0-2.163-1.3c-.983,0-1.73.483-1.73,1.3,0,1.007.724,1.539,2.163,2.163l.865.433c2.853,1.223,4.326,2.386,4.326,5.191,0,3.021-2.435,4.758-5.623,4.758a6.377,6.377,0,0,1-6.056-3.461" transform="translate(-131.035 -99.823)" fill="#f7df1e"/>
    </g>
  </g>
</svg>
