<svg xmlns="http://www.w3.org/2000/svg" width="84" height="40" viewBox="0 0 84 40">
  <g id="javascript" transform="translate(0 0.266)">
    <rect id="box" width="84" height="40" rx="10" transform="translate(0 -0.266)" fill="#f7df1e"/>
    <g id="javascript-2" data-name="javascript" transform="translate(29.675 7.101)">
      <path id="Path_128" data-name="Path 128" d="M0-.428H24.879V24.451H0Z" transform="translate(0 0.428)" fill="#fff"/>
      <path id="Path_129" data-name="Path 129" d="M67.6,126.484l1.8-.9c.365.648.7,1.2,1.5,1.2.764,0,1.2-.336,1.2-1.5v-8.093h2.4v8.093a3.32,3.32,0,0,1-3.6,3.6,3.544,3.544,0,0,1-3.3-2.4" transform="translate(-61.006 -105.802)" fill="#f7df1e"/>
      <path id="Path_130" data-name="Path 130" d="M152.231,125.552l1.8-1.2a2.77,2.77,0,0,0,2.4,1.5c.964,0,1.5-.534,1.5-1.2,0-.8-.435-1.034-1.5-1.5l-.6-.3c-1.678-.714-3-1.7-3-3.6,0-1.744,1.52-3,3.6-3a3.372,3.372,0,0,1,3.3,1.8l-1.8,1.2a1.5,1.5,0,0,0-1.5-.9c-.681,0-1.2.334-1.2.9,0,.7.5,1.067,1.5,1.5l.6.3c1.977.847,3,1.653,3,3.6,0,2.094-1.687,3.3-3.9,3.3a4.419,4.419,0,0,1-4.2-2.4" transform="translate(-137.544 -104.87)" fill="#f7df1e"/>
    </g>
  </g>
</svg>
