<svg xmlns="http://www.w3.org/2000/svg" width="121" height="56" viewBox="0 0 121 56">
  <g id="kubernetes" transform="translate(0 -0.426)">
    <rect id="box" width="121" height="56" rx="10" transform="translate(0 0.426)" fill="#326de6"/>
    <g id="kubernetes-2" data-name="kubernetes" transform="translate(38.398 6.706)">
      <path id="Path_10" data-name="Path 10" d="M18.131,45.78a3.225,3.225,0,0,1-2.6-1.3L5.154,31.937a3.474,3.474,0,0,1-.433-3.028L8.182,13.337a4.279,4.279,0,0,1,2.163-2.6L24.62,3.82a4.486,4.486,0,0,1,1.73-.433,2.665,2.665,0,0,1,1.3.433l14.707,6.921a4.279,4.279,0,0,1,2.163,2.6l3.461,15.573a3.77,3.77,0,0,1-.865,3.028L37.164,44.482a3.309,3.309,0,0,1-2.6,1.3Z" transform="translate(-3.755 -2.955)" fill="#326de6"/>
      <path id="Path_11" data-name="Path 11" d="M22.892,1.524a3.618,3.618,0,0,1,1.3.433L38.465,8.878a2.917,2.917,0,0,1,1.73,1.73l3.461,16.005a2.245,2.245,0,0,1-.433,2.163L33.274,41.321a3.023,3.023,0,0,1-2.163,1.3H14.673a3.023,3.023,0,0,1-2.163-1.3L2.561,28.776A2.68,2.68,0,0,1,1.7,26.613L5.589,10.608a2.257,2.257,0,0,1,1.3-1.73L21.595,1.957a4.285,4.285,0,0,1,1.3-.433Zm0-1.3h0a4.129,4.129,0,0,0-1.73.433L6.455,7.58a4.364,4.364,0,0,0-2.163,3.028L.4,26.181a3.986,3.986,0,0,0,.865,3.461L11.645,42.186a3.941,3.941,0,0,0,3.028,1.73H31.111a3.941,3.941,0,0,0,3.028-1.73l9.949-12.545a3.964,3.964,0,0,0,.865-3.461L41.493,10.608A4.364,4.364,0,0,0,39.33,7.58L24.623.659a4.024,4.024,0,0,0-1.73-.433Z" transform="translate(-0.297 -0.227)" fill="#fff"/>
      <path id="Path_12" data-name="Path 12" d="M70.892,56.519h0c-.029,0,0,.029,0,0-.058,0-.375-.433-.433-.433a2.154,2.154,0,0,0-.433,0,2.155,2.155,0,0,1-.433,0h0c-.608-.058-.834.145-1.3,0a1.029,1.029,0,0,1-.433-.433h-.433A13.028,13.028,0,0,0,67,51.328a11.879,11.879,0,0,0-1.3-3.893h0c0-.145.317-.288.433-.433a8.394,8.394,0,0,1,1.3-.865h0c.087-.058-.087-.375,0-.433.174-.087.259.116.433,0l.433-.433c.029-.029,0,.029,0,0h0a.938.938,0,0,0,0-1.3c-.145-.2-.172-.433-.433-.433a2.214,2.214,0,0,0-.865.433h0a6.091,6.091,0,0,0-.433.433c-.058.058.087.375,0,.433h0a6.314,6.314,0,0,1-1.3.865c-.087.058-.346,0-.433,0-.058,0,.058.029,0,0h0l-.433.433a18.293,18.293,0,0,0-1.3-1.3,11.293,11.293,0,0,0-6.056-2.163v-.433h0c-.087-.087-.4-.23-.433-.433-.029-.463.375-1.151.433-1.73h0a2.16,2.16,0,0,1,0-.433c.029-.174-.029-.23,0-.433h0c0-.521-.373-1.3-.865-1.3a1.754,1.754,0,0,0-.865.433c-.174.174,0,.6,0,.865h0c0,.2-.058.259,0,.433.029.087-.029.317,0,.433h0a8.618,8.618,0,0,1,0,1.73c-.029.2.087.346,0,.433h0v.433a17.247,17.247,0,0,0-1.73,0,11.21,11.21,0,0,0-5.623,3.461l-.433-.433h0c-.087,0-.346.058-.433,0a6.314,6.314,0,0,1-1.3-.865h0c-.058-.058.087-.375,0-.433a6.1,6.1,0,0,0-.433-.433h0c-.029-.029-.433.029-.433,0h0c-.174-.145-.2-.433-.433-.433a1.382,1.382,0,0,0-.865.433c-.29.376.027.95.433,1.3h0c.174.116.691.346.865.433.087.029-.087-.058,0,0h0a8.393,8.393,0,0,1,1.3.865c.145.145.433.288.433.433v.433h0c-.058.087.029.346,0,.433a10.567,10.567,0,0,0-1.73,7.354l-.433.433h0c-.058.116-.259-.087-.433,0a4.542,4.542,0,0,1-1.3.433h0a2.16,2.16,0,0,0-.433,0,2.155,2.155,0,0,0-.433,0h-.433c-.029,0,.029-.029,0,0h0a1.291,1.291,0,0,0-.865,1.3c.087.405.834.433,1.3.433.087,0-.087.029,0,0h0c.029,0,0,.029,0,0h.433c.2-.058.259.087.433,0h.433a5.67,5.67,0,0,1,1.3-.433h0c.174,0,.346-.058.433,0h.433a10.969,10.969,0,0,0,3.893,5.191,12.633,12.633,0,0,0,1.3.865l-.433.433h0c.058.116.49.23.433.433a12.037,12.037,0,0,1-.865,1.73h0c-.058.087-.375-.087-.433,0-.116.145.116.259,0,.433a6.1,6.1,0,0,0-.433.433h0a1,1,0,0,0,.433,1.3c.116.058.317,0,.433,0,.347,0,.691-.547.865-.865h0c.029-.058-.029.029,0,0,.087-.2.375-.259.433-.433.029-.087-.029-.346,0-.433h0a5.661,5.661,0,0,1,.433-1.3,1.523,1.523,0,0,1,.433-.433c.029,0-.029.029,0,0h0l.433-.433a10.581,10.581,0,0,0,3.893.865,11.314,11.314,0,0,0,2.6-.433,9.745,9.745,0,0,0,1.3-.433l.433.433c.029,0-.029-.029,0,0,.145.029.317.259.433.433a8.487,8.487,0,0,1,.433,1.3h0c.029.087.4.346.433.433.058.174-.087.259,0,.433h0c.174.347.518.865.865.865.116,0,.317.058.433,0,.2-.116.375-.634.433-.865s.116-.2,0-.433h0c-.029-.058.029-.4,0-.433-.087-.174-.317-.288-.433-.433-.058-.087-.375.087-.433,0h0a6.881,6.881,0,0,1-.433-1.73.728.728,0,0,1,0-.433h0V63.44A9.445,9.445,0,0,0,65.7,59.979a11.455,11.455,0,0,0,1.3-2.6h.433c.116-.058.259-.433.433-.433h0a8.882,8.882,0,0,1,1.73.433h0c.087.029-.087.4,0,.433.174.087.23-.058.433,0h.433c.029,0-.029-.029,0,0h0a2.16,2.16,0,0,0,.433,0c.434,0,.749-.056.865-.433a1.056,1.056,0,0,0-.865-.865Zm-13.41-1.73-1.3.865-1.3-.865-.433-1.3.865-.865h1.3l.865.865v1.3Zm7.354-3.028a10.077,10.077,0,0,1,.433,3.028l-4.758-1.3a.654.654,0,0,1-.433-.865c.029-.116.346-.346.433-.433l3.461-3.028a8.066,8.066,0,0,1,.865,2.6Zm-2.163-4.326-3.893,2.6c-.318.2-1.037.318-1.3,0-.087-.087.029-.317,0-.433l-.433-4.758a10.033,10.033,0,0,1,5.623,2.6Zm-8.651-2.163c.318-.058.547-.375.865-.433V49.6a.978.978,0,0,1-.865.865c-.116,0-.346-.375-.433-.433l-3.893-2.6a8.538,8.538,0,0,1,4.326-2.163ZM48.4,49.165l3.461,3.028a1.077,1.077,0,0,1,0,1.3c-.087.116-.288-.029-.433,0l-4.326,1.3a9.162,9.162,0,0,1,1.3-5.623Zm-.865,7.786,4.758-.865c.376-.029.778.489.865.865a.733.733,0,0,1,0,.433h0L50.994,61.71a9.39,9.39,0,0,1-3.461-4.758Zm10.814,5.623a11.012,11.012,0,0,1-2.163.433,10.489,10.489,0,0,1-3.028-.433l2.163-4.326c.232-.261.979-.174,1.3,0,.145.087-.087.317,0,.433h0l2.163,3.893c-.261.087-.143-.087-.433,0Zm5.623-3.893a10.77,10.77,0,0,1-3.028,3.028l-1.73-4.326a1.423,1.423,0,0,1,.433-1.3c.116-.058.288,0,.433,0l4.758.865a5.708,5.708,0,0,1-.865,1.73Z" transform="translate(-33.59 -31.43)" fill="#fff"/>
    </g>
  </g>
</svg>
