<svg xmlns="http://www.w3.org/2000/svg" width="84" height="39" viewBox="0 0 84 39">
  <g id="kubernetes" transform="translate(0 -0.225)">
    <rect id="box" width="84" height="39" rx="10" transform="translate(0 0.225)" fill="#326de6"/>
    <g id="kubernetes-2" data-name="kubernetes" transform="translate(26.607 5.049)">
      <path id="Path_10" data-name="Path 10" d="M13.967,32.763a2.235,2.235,0,0,1-1.8-.9L4.974,23.171a2.407,2.407,0,0,1-.3-2.1l2.4-10.791a2.965,2.965,0,0,1,1.5-1.8l9.892-4.8a3.109,3.109,0,0,1,1.2-.3,1.846,1.846,0,0,1,.9.3l10.191,4.8a2.965,2.965,0,0,1,1.5,1.8l2.4,10.791a2.613,2.613,0,0,1-.6,2.1l-6.894,8.693a2.293,2.293,0,0,1-1.8.9Z" transform="translate(-4.005 -3.088)" fill="#326de6"/>
      <path id="Path_11" data-name="Path 11" d="M15.954,1.126a2.507,2.507,0,0,1,.9.3l9.892,4.8a2.022,2.022,0,0,1,1.2,1.2l2.4,11.091a1.556,1.556,0,0,1-.3,1.5L23.148,28.7a2.094,2.094,0,0,1-1.5.9H10.259a2.094,2.094,0,0,1-1.5-.9L1.866,20.01a1.857,1.857,0,0,1-.6-1.5L3.964,7.42a1.564,1.564,0,0,1,.9-1.2l10.191-4.8a2.969,2.969,0,0,1,.9-.3Zm0-.9h0a2.861,2.861,0,0,0-1.2.3L4.564,5.322a3.024,3.024,0,0,0-1.5,2.1L.367,18.211a2.762,2.762,0,0,0,.6,2.4L8.161,29.3a2.731,2.731,0,0,0,2.1,1.2H21.65a2.731,2.731,0,0,0,2.1-1.2l6.894-8.693a2.747,2.747,0,0,0,.6-2.4L28.843,7.42a3.024,3.024,0,0,0-1.5-2.1L17.153.526a2.788,2.788,0,0,0-1.2-.3Z" transform="translate(-0.297 -0.227)" fill="#fff"/>
      <path id="Path_12" data-name="Path 12" d="M61.591,50.807h0c-.02,0,0,.02,0,0-.04,0-.26-.3-.3-.3a1.493,1.493,0,0,0-.3,0,1.493,1.493,0,0,1-.3,0h0c-.421-.04-.578.1-.9,0a.713.713,0,0,1-.3-.3h-.3a9.028,9.028,0,0,0-.3-3,8.232,8.232,0,0,0-.9-2.7h0c0-.1.22-.2.3-.3a5.816,5.816,0,0,1,.9-.6h0c.06-.04-.06-.26,0-.3.12-.06.179.08.3,0l.3-.3c.02-.02,0,.02,0,0h0a.65.65,0,0,0,0-.9c-.1-.14-.119-.3-.3-.3a1.535,1.535,0,0,0-.6.3h0a4.223,4.223,0,0,0-.3.3c-.04.04.06.26,0,.3h0a4.375,4.375,0,0,1-.9.6c-.06.04-.24,0-.3,0-.04,0,.04.02,0,0h0l-.3.3a12.673,12.673,0,0,0-.9-.9,7.825,7.825,0,0,0-4.2-1.5v-.3h0c-.06-.06-.28-.159-.3-.3-.02-.321.26-.8.3-1.2h0a1.5,1.5,0,0,1,0-.3c.02-.12-.02-.159,0-.3h0c0-.361-.258-.9-.6-.9a1.215,1.215,0,0,0-.6.3c-.12.12,0,.419,0,.6h0c0,.14-.04.179,0,.3.02.06-.02.219,0,.3h0a5.972,5.972,0,0,1,0,1.2c-.02.14.06.24,0,.3h0v.3a11.949,11.949,0,0,0-1.2,0,7.768,7.768,0,0,0-3.9,2.4l-.3-.3h0c-.06,0-.24.04-.3,0a4.375,4.375,0,0,1-.9-.6h0c-.04-.04.06-.26,0-.3a4.223,4.223,0,0,0-.3-.3h0c-.02-.02-.3.02-.3,0h0c-.12-.1-.139-.3-.3-.3a.957.957,0,0,0-.6.3c-.2.261.019.659.3.9h0c.12.08.479.24.6.3.06.02-.06-.04,0,0h0a5.816,5.816,0,0,1,.9.6c.1.1.3.2.3.3v.3h0c-.04.06.02.24,0,.3a7.323,7.323,0,0,0-1.2,5.1l-.3.3h0c-.04.08-.179-.06-.3,0a3.148,3.148,0,0,1-.9.3h0a1.5,1.5,0,0,0-.3,0,1.493,1.493,0,0,0-.3,0h-.3c-.02,0,.02-.02,0,0h0a.9.9,0,0,0-.6.9c.06.281.578.3.9.3.06,0-.06.02,0,0h0c.02,0,0,.02,0,0h.3c.14-.04.179.06.3,0h.3a3.929,3.929,0,0,1,.9-.3h0c.12,0,.24-.04.3,0h.3A7.6,7.6,0,0,0,46.6,55a8.754,8.754,0,0,0,.9.6l-.3.3h0c.04.08.34.159.3.3a8.342,8.342,0,0,1-.6,1.2h0c-.04.06-.26-.06-.3,0-.08.1.08.179,0,.3a4.223,4.223,0,0,0-.3.3h0a.691.691,0,0,0,.3.9c.08.04.22,0,.3,0,.241,0,.479-.379.6-.6h0c.02-.04-.02.02,0,0,.06-.14.26-.179.3-.3.02-.06-.02-.24,0-.3h0a3.923,3.923,0,0,1,.3-.9,1.056,1.056,0,0,1,.3-.3c.02,0-.02.02,0,0h0l.3-.3a7.332,7.332,0,0,0,2.7.6,7.84,7.84,0,0,0,1.8-.3,6.753,6.753,0,0,0,.9-.3l.3.3c.02,0-.02-.02,0,0,.1.02.219.179.3.3a5.881,5.881,0,0,1,.3.9h0c.02.06.28.24.3.3.04.12-.06.179,0,.3h0c.12.241.359.6.6.6.08,0,.219.04.3,0,.14-.08.26-.439.3-.6s.08-.139,0-.3h0c-.02-.04.02-.28,0-.3-.06-.12-.219-.2-.3-.3-.04-.06-.26.06-.3,0h0a4.768,4.768,0,0,1-.3-1.2.5.5,0,0,1,0-.3h0v-.3a6.545,6.545,0,0,0,2.4-2.4,7.937,7.937,0,0,0,.9-1.8h.3c.08-.04.179-.3.3-.3h0a6.155,6.155,0,0,1,1.2.3h0c.06.02-.06.28,0,.3.12.06.159-.04.3,0h.3c.02,0-.02-.02,0,0h0a1.5,1.5,0,0,0,.3,0c.3,0,.519-.039.6-.3a.732.732,0,0,0-.6-.6Zm-9.292-1.2-.9.6-.9-.6-.3-.9.6-.6h.9l.6.6v.9Zm5.1-2.1a6.984,6.984,0,0,1,.3,2.1l-3.3-.9a.453.453,0,0,1-.3-.6c.02-.08.24-.24.3-.3l2.4-2.1a5.589,5.589,0,0,1,.6,1.8Zm-1.5-3-2.7,1.8c-.221.14-.719.221-.9,0-.06-.06.02-.219,0-.3l-.3-3.3a6.952,6.952,0,0,1,3.9,1.8Zm-5.995-1.5c.221-.04.379-.26.6-.3v3.3a.678.678,0,0,1-.6.6c-.08,0-.24-.26-.3-.3l-2.7-1.8a5.916,5.916,0,0,1,3-1.5Zm-3.9,2.7,2.4,2.1a.746.746,0,0,1,0,.9c-.06.08-.2-.02-.3,0l-3,.9a6.349,6.349,0,0,1,.9-3.9Zm-.6,5.4,3.3-.6c.261-.02.539.339.6.6a.508.508,0,0,1,0,.3h0l-1.5,3a6.507,6.507,0,0,1-2.4-3.3ZM52.9,55a7.631,7.631,0,0,1-1.5.3,7.268,7.268,0,0,1-2.1-.3l1.5-3c.16-.181.679-.12.9,0,.1.06-.06.219,0,.3h0L53.2,55c-.181.06-.1-.06-.3,0Zm3.9-2.7a7.463,7.463,0,0,1-2.1,2.1l-1.2-3a.986.986,0,0,1,.3-.9c.08-.04.2,0,.3,0l3.3.6a3.956,3.956,0,0,1-.6,1.2Z" transform="translate(-35.743 -33.422)" fill="#fff"/>
    </g>
  </g>
</svg>
