<svg xmlns="http://www.w3.org/2000/svg" width="281" height="128" viewBox="0 0 281 128">
  <g id="kubernetes" transform="translate(-232 -163)">
    <rect id="box" width="281" height="128" rx="10" transform="translate(232 163)" fill="#326de6"/>
    <g id="kubernetes-2" data-name="kubernetes" transform="translate(320.469 176.773)">
      <path id="Path_10" data-name="Path 10" d="M35.923,101.388a7.456,7.456,0,0,1-6-3l-24-29c-1.539-1.941-1.6-4.591-1-7l8-36a9.893,9.893,0,0,1,5-6l33-16a10.371,10.371,0,0,1,4-1,6.16,6.16,0,0,1,3,1l34,16a9.893,9.893,0,0,1,5,6l8,36a8.716,8.716,0,0,1-2,7l-23,29a7.65,7.65,0,0,1-6,3Z" transform="translate(-2.391 -2.161)" fill="#326de6"/>
      <path id="Path_11" data-name="Path 11" d="M52.531,3.227a8.363,8.363,0,0,1,3,1l33,16c1.74.87,3.6,2.126,4,4l8,37a5.189,5.189,0,0,1-1,5l-23,29c-1.2,1.539-3.059,3-5,3h-38c-1.941,0-3.8-1.461-5-3l-23-29c-1.2-1.539-2.4-3.059-2-5l9-37a5.219,5.219,0,0,1,3-4l34-16a9.906,9.906,0,0,1,3-1Zm0-3h0a9.546,9.546,0,0,0-4,1l-34,16c-2.677,1.272-4.331,4.122-5,7l-9,36a9.214,9.214,0,0,0,2,8l24,29c1.807,2.276,4.122,4,7,4h38c2.878,0,5.193-1.724,7-4l23-29a9.163,9.163,0,0,0,2-8l-8-36c-.669-2.878-2.323-5.728-5-7l-34-16a9.3,9.3,0,0,0-4-1Z" transform="translate(0 0)" fill="#fff"/>
      <path id="Path_12" data-name="Path 12" d="M110.627,80.918h0c-.067,0,0,.067,0,0-.134,0-.866-1-1-1a4.981,4.981,0,0,0-1,0,4.981,4.981,0,0,1-1,0h0c-1.405-.134-1.929.335-3,0a2.378,2.378,0,0,1-1-1h-1c.4-3.079-.264-6.854-1-10s-1.26-6.323-3-9h0c0-.335.732-.665,1-1a19.4,19.4,0,0,1,3-2h0c.2-.134-.2-.866,0-1,.4-.2.6.268,1,0l1-1c.067-.067,0,.067,0,0h0a2.168,2.168,0,0,0,0-3c-.335-.469-.4-1-1-1a5.119,5.119,0,0,0-2,1h0a14.088,14.088,0,0,0-1,1c-.134.134.2.866,0,1h0a14.6,14.6,0,0,1-3,2c-.2.134-.8,0-1,0-.134,0,.134.067,0,0h0l-1,1a42.285,42.285,0,0,0-3-3c-4.016-3.146-8.913-4.532-14-5v-1h0c-.2-.2-.933-.531-1-1-.067-1.071.866-2.661,1-4h0a4.993,4.993,0,0,1,0-1c.067-.4-.067-.531,0-1h0c0-1.2-.862-3-2-3a4.054,4.054,0,0,0-2,1c-.4.4,0,1.4,0,2h0c0,.469-.134.6,0,1,.067.2-.067.732,0,1h0a19.922,19.922,0,0,1,0,4c-.067.468.2.8,0,1h0v1c-1.2.134-2.8-.268-4,0-5.153,1.138-9.453,4.252-13,8l-1-1h0c-.2,0-.8.134-1,0a14.6,14.6,0,0,1-3-2h0c-.134-.134.2-.866,0-1a14.088,14.088,0,0,0-1-1h0c-.067-.067-1,.067-1,0h0c-.4-.335-.465-1-1-1a3.194,3.194,0,0,0-2,1c-.669.87.063,2.2,1,3h0c.4.268,1.6.8,2,1,.2.067-.2-.134,0,0h0a19.4,19.4,0,0,1,3,2c.335.335,1,.665,1,1v1h0c-.134.2.067.8,0,1-3.346,5.287-4.87,10.843-4,17l-1,1h0c-.134.268-.6-.2-1,0a10.5,10.5,0,0,1-3,1h0a4.993,4.993,0,0,0-1,0,4.98,4.98,0,0,0-1,0h-1c-.067,0,.067-.067,0,0h0a2.985,2.985,0,0,0-2,3c.2.937,1.929,1,3,1,.2,0-.2.067,0,0h0c.067,0,0,.067,0,0h1c.468-.134.6.2,1,0h1a13.108,13.108,0,0,1,3-1h0c.4,0,.8-.134,1,0h1c1.606,4.953,4.917,8.787,9,12a29.208,29.208,0,0,0,3,2l-1,1h0c.134.268,1.134.532,1,1a27.83,27.83,0,0,1-2,4h0c-.134.2-.866-.2-1,0-.268.335.268.6,0,1a14.088,14.088,0,0,0-1,1h0a2.305,2.305,0,0,0,1,3c.268.134.732,0,1,0,.8,0,1.6-1.264,2-2h0c.067-.134-.067.067,0,0,.2-.468.866-.6,1-1,.067-.2-.067-.8,0-1h0c.469-1.339.4-2.063,1-3a3.522,3.522,0,0,1,1-1c.067,0-.067.067,0,0h0l1-1a24.461,24.461,0,0,0,9,2,26.156,26.156,0,0,0,6-1,22.527,22.527,0,0,0,3-1l1,1c.067,0-.067-.067,0,0,.335.067.732.6,1,1a19.621,19.621,0,0,1,1,3h0c.067.2.933.8,1,1,.134.4-.2.6,0,1h0c.4.8,1.2,2,2,2,.268,0,.732.134,1,0,.468-.268.866-1.465,1-2s.268-.465,0-1h0c-.067-.134.067-.933,0-1-.2-.4-.732-.665-1-1-.134-.2-.866.2-1,0h0c-.736-1.138-.665-3-1-4a1.682,1.682,0,0,1,0-1h0v-1a21.835,21.835,0,0,0,8-8,26.481,26.481,0,0,0,3-6h1c.268-.134.6-1,1-1h0a20.535,20.535,0,0,1,4,1h0c.2.067-.2.933,0,1,.4.2.532-.134,1,0h1c.067,0-.067-.067,0,0h0a4.993,4.993,0,0,0,1,0c1,0,1.732-.13,2-1a2.441,2.441,0,0,0-2-2Zm-31-4-3,2-3-2-1-3,2-2h3l2,2v3Zm17-7a23.3,23.3,0,0,1,1,7l-11-3a1.512,1.512,0,0,1-1-2c.067-.268.8-.8,1-1l8-7a18.647,18.647,0,0,1,2,6Zm-5-10-9,6c-.736.468-2.4.736-3,0-.2-.2.067-.732,0-1l-1-11a23.194,23.194,0,0,1,13,6Zm-20-5c.736-.134,1.264-.866,2-1v11a2.261,2.261,0,0,1-2,2c-.268,0-.8-.866-1-1l-9-6c2.744-2.744,6.185-4.13,10-5Zm-13,9,8,7c.736.6.6,2.264,0,3-.2.268-.665-.067-1,0l-10,3a21.18,21.18,0,0,1,3-13Zm-2,18,11-2c.87-.067,1.8,1.13,2,2a1.694,1.694,0,0,1,0,1h0l-5,10c-3.748-2.409-6.394-6.583-8-11Zm25,13a25.459,25.459,0,0,1-5,1,24.248,24.248,0,0,1-7-1l5-10c.535-.6,2.264-.4,3,0,.335.2-.2.732,0,1h0l5,9c-.6.2-.331-.2-1,0Zm13-9a24.9,24.9,0,0,1-7,7l-4-10c-.2-.8.2-2.6,1-3,.268-.134.665,0,1,0l11,2a13.2,13.2,0,0,1-2,4Z" transform="translate(-24.096 -22.692)" fill="#fff"/>
    </g>
  </g>
</svg>
