<svg xmlns="http://www.w3.org/2000/svg" width="281" height="128" viewBox="0 0 281 128">
  <g id="laravel" transform="translate(-232 -163)">
    <rect id="box" width="281" height="128" rx="10" transform="translate(232 163)" fill="#fc2c20"/>
    <g id="laravel-2" data-name="laravel" transform="translate(332.838 179.509)">
      <path id="Path_144" data-name="Path 144" d="M92.162,21.491c.034.127,0-.131,0,0v21c0,.533-.538.735-1,1l-17,10v19c0,.532.461,1.732,0,2l-36,20c-.082.046.089-.032,0,0-.033.011-.965-.009-1,0-.25.066.25.066,0,0-.041-.011.039.015,0,0-.082-.03-.922.045-1,0l-35-20a3.228,3.228,0,0,1-1-2v-61c0-.134-.033.126,0,0,.011-.043-.015.043,0,0,.028-.078-.041.073,0,0,.028-.048-.033-.955,0-1s-.05.052,0,0-.048.037,0,0,.939.035,1,0h0l17-10a2.616,2.616,0,0,1,2,0l18,10h0c.059.037-.054-.043,0,0s-.043-.041,0,0-.045-.059,0,0-.026.952,0,1c.043.074-.03-.078,0,0,.015.043-.011-.045,0,0,.034.127,1-.131,1,0v39l14-9v-20c0-.13-.033.125,0,0,.013-.045.985.043,1,0,.03-.078-.041.073,0,0,.028-.048-.032.045,0,0s-.052-.948,0-1-.048.037,0,0-.059.035,0,0h0l18-10a2.612,2.612,0,0,1,2,0l17,10c.063.037.944-.043,1,0s-.043-.041,0,0-.045.941,0,1-.026-.048,0,0c.043.073-.03-.078,0,0C92.179,21.534,92.151,21.447,92.162,21.491Zm-3,20v-17l-6,4-9,5v17l15-9Zm-18,31v-17l-8,4-24,14v17Zm-68-58v58l33,18v-17l-18-9h0c-.058-.033.054.041,0,0s.041-.959,0-1h0c-.048-.046.041.052,0,0s.03.052,0,0h0c-.033-.056.024.063,0,0s.015.059,0,0h0c-.019-.071.007.073,0,0-.007-.056,0-.944,0-1h0v-40l-9-5-6-3Zm16-11-15,8,15,9,15-9-15-8Zm8,53,9-5v-37l-7,3-8,5v38Zm46-43-15,8,15,9,15-9Zm-2,20-8-5-7-4v17l9,5,6,4Zm-34,38,22-13,11-6-15-8-17,9-16,9Z" transform="translate(0 0)" fill="#fff"/>
    </g>
  </g>
</svg>
