<svg xmlns="http://www.w3.org/2000/svg" width="121" height="55" viewBox="0 0 121 55">
  <g id="laravel" transform="translate(0 -0.448)">
    <rect id="box" width="121" height="55" rx="10" transform="translate(0 0.448)" fill="#fc2c20"/>
    <g id="laravel-2" data-name="laravel" transform="translate(43.683 7.315)">
      <path id="Path_144" data-name="Path 144" d="M39.95,9.462c.015.055,0-.057,0,0v9.084c0,.231-.233.318-.433.433L32.164,23.3v8.219c0,.23.2.749,0,.865L16.591,41.04c-.035.02.039-.014,0,0-.014,0-.417,0-.433,0-.108.028.108.028,0,0-.018,0,.017.006,0,0-.035-.013-.4.019-.433,0L.586,32.389a1.4,1.4,0,0,1-.433-.865V5.137c0-.058-.014.055,0,0,0-.018-.006.018,0,0,.012-.034-.018.031,0,0s-.014-.413,0-.433-.022.023,0,0-.021.016,0,0,.406.015.433,0h0L7.94.378a1.132,1.132,0,0,1,.865,0L16.591,4.7h0c.026.016-.023-.018,0,0s-.018-.018,0,0-.019-.026,0,0-.011.412,0,.433-.013-.034,0,0c.006.018,0-.019,0,0,.015.055.432-.057.433,0v16.87l6.056-3.893V9.462c0-.056-.014.054,0,0,.006-.019.426.018.433,0,.013-.034-.018.031,0,0s-.014.019,0,0-.023-.41,0-.433-.021.016,0,0-.026.015,0,0h0L31.3,4.7a1.13,1.13,0,0,1,.865,0L39.518,9.03c.027.016.408-.018.433,0s-.019-.018,0,0-.019.407,0,.433-.011-.021,0,0-.013-.034,0,0C39.957,9.481,39.945,9.443,39.95,9.462Zm-1.3,8.651V10.76l-2.6,1.73-3.893,2.163v7.354l6.489-3.893Zm-7.786,13.41V24.17L27.406,25.9,17.024,31.956V39.31ZM1.451,6.434V31.524L15.726,39.31V31.956L7.94,28.063h0c-.025-.014.023.018,0,0s.018-.415,0-.433h0c-.021-.02.018.023,0,0s.013.023,0,0h0c-.014-.024.01.027,0,0s.006.026,0,0h0c-.008-.031,0,.031,0,0s0-.408,0-.433h0V9.9L4.047,7.732l-2.6-1.3ZM8.373,1.676,1.884,5.137,8.373,9.03l6.489-3.893L8.373,1.676ZM11.833,24.6l3.893-2.163V6.434L12.7,7.732,9.238,9.9V26.333ZM31.731,6,25.243,9.462l6.489,3.893L38.22,9.462Zm-.865,8.651L27.406,12.49l-3.028-1.73v7.354l3.893,2.163,2.6,1.73ZM16.159,31.091l9.517-5.623,4.758-2.6-6.489-3.461L16.591,23.3,9.67,27.2Z" transform="translate(-0.147 -0.293)" fill="#fff"/>
    </g>
  </g>
</svg>
