<svg xmlns="http://www.w3.org/2000/svg" width="84" height="38" viewBox="0 0 84 38">
  <g id="laravel" transform="translate(0 0.057)">
    <rect id="box" width="84" height="38" rx="10" transform="translate(0 -0.057)" fill="#fc2c20"/>
    <g id="laravel-2" data-name="laravel" transform="translate(30.27 4.467)">
      <path id="Path_144" data-name="Path 144" d="M27.728,6.647c.01.038,0-.039,0,0v6.295c0,.16-.161.22-.3.3l-5.1,3v5.7c0,.159.138.519,0,.6L11.542,28.528c-.025.014.027-.009,0,0-.01,0-.289,0-.3,0-.075.02.075.02,0,0-.012,0,.012,0,0,0s-.276.013-.3,0L.451,22.533a.967.967,0,0,1-.3-.6V3.649c0-.04-.01.038,0,0,0-.013,0,.013,0,0s-.012.022,0,0-.01-.286,0-.3-.015.016,0,0-.014.011,0,0,.281.011.3,0h0l5.1-3a.784.784,0,0,1,.6,0l5.4,3h0c.018.011-.016-.013,0,0s-.013-.012,0,0-.013-.018,0,0-.008.285,0,.3-.009-.023,0,0,0-.013,0,0c.01.038.3-.039.3,0v11.69l4.2-2.7V6.647c0-.039-.01.037,0,0,0-.013.3.013.3,0s-.012.022,0,0-.009.013,0,0-.016-.284,0-.3-.014.011,0,0-.018.011,0,0h0l5.4-3a.783.783,0,0,1,.6,0l5.1,3c.019.011.283-.013.3,0s-.013-.012,0,0-.013.282,0,.3-.008-.014,0,0-.009-.023,0,0S27.725,6.633,27.728,6.647Zm-.9,5.995v-5.1l-1.8,1.2-2.7,1.5v5.1l4.5-2.7Zm-5.4,9.292v-5.1l-2.4,1.2-7.194,4.2v5.1ZM1.051,4.549V21.934l9.892,5.4v-5.1l-5.4-2.7h0c-.017-.01.016.012,0,0s.012-.287,0-.3h0c-.014-.014.012.016,0,0s.009.016,0,0h0c-.01-.017.007.019,0,0s0,.018,0,0h0c-.006-.021,0,.022,0,0s0-.283,0-.3h0V6.947l-2.7-1.5-1.8-.9Zm4.8-3.3-4.5,2.4,4.5,2.7,4.5-2.7-4.5-2.4Zm2.4,15.887,2.7-1.5V4.549l-2.1.9-2.4,1.5v11.39ZM22.033,4.249l-4.5,2.4,4.5,2.7,4.5-2.7Zm-.6,5.995-2.4-1.5-2.1-1.2v5.1l2.7,1.5,1.8,1.2ZM11.242,21.634l6.594-3.9,3.3-1.8-4.5-2.4-5.1,2.7-4.8,2.7Z" transform="translate(-0.147 -0.293)" fill="#fff"/>
    </g>
  </g>
</svg>
