<svg xmlns="http://www.w3.org/2000/svg" width="122" height="55" viewBox="0 0 122 55">
  <g id="less" transform="translate(-0.434 -0.459)">
    <rect id="box" width="122" height="55" rx="10" transform="translate(0.434 0.459)" fill="#24406a"/>
    <g id="less-2" data-name="less" transform="translate(30.137 14.454)">
      <g id="Group_17" data-name="Group 17" transform="translate(0 0)">
        <path id="Path_224" data-name="Path 224" d="M-15.973.938h60.56V26.893h-60.56" transform="translate(15.973 -0.938)" fill="none"/>
        <path id="Path_225" data-name="Path 225" d="M211.639,10.022c0-1.941.433-3.1.433-5.191,0-3.235-1.255-3.893-3.893-3.893h-1.73V3.1h.433c1.344,0,1.73.52,1.73,2.163,0,1.543-.433,2.966-.433,4.758,0,2.289,1.1,3.112,2.6,3.461h0c-1.493.348-2.6,1.6-2.6,3.893,0,1.792.433,3.116.433,4.758,0,1.692-.436,2.163-1.73,2.163h-.433v2.6h1.73c2.638,0,3.893-1.091,3.893-4.326,0-2.14-.433-3.25-.433-5.191a2.551,2.551,0,0,1,2.6-2.6v-2.6c-1.941-.05-2.6-1.118-2.6-2.163" transform="translate(-153.674 -0.938)" fill="#faf9f8" fill-rule="evenodd"/>
        <path id="Path_226" data-name="Path 226" d="M110.815,31.936c-1.543-.6-3.028-.735-3.028-1.73,0-.746.635-1.3,1.73-1.3a6.227,6.227,0,0,1,3.461,1.3l1.73-2.6a8.458,8.458,0,0,0-5.191-2.163c-3.384,0-5.623,2.021-5.623,4.758,0,2.439,2.1,3.629,3.893,4.326,1.543.6,3.028,1.168,3.028,2.163,0,.747-.387,1.3-1.73,1.3a5.993,5.993,0,0,1-3.893-1.3l-2.163,2.6a9.522,9.522,0,0,0,5.623,2.163c3.982,0,6.489-2.021,6.489-4.758s-2.385-4.111-4.326-4.758" transform="translate(-74.912 -19.824)" fill="#faf9f8" fill-rule="evenodd"/>
        <path id="Path_227" data-name="Path 227" d="M161.834,31.936c-1.493-.6-3.028-.735-3.028-1.73,0-.746.635-1.3,1.73-1.3a6.227,6.227,0,0,1,3.461,1.3l1.73-2.6a8.458,8.458,0,0,0-5.191-2.163c-3.385,0-5.623,2.021-5.623,4.758,0,2.439,2.1,3.629,3.893,4.326,1.543.6,3.028,1.168,3.028,2.163,0,.747-.386,1.3-1.73,1.3a5.993,5.993,0,0,1-3.893-1.3l-2.163,2.6a9.522,9.522,0,0,0,5.623,2.163c3.982,0,6.056-2.021,6.056-4.758s-1.952-4.111-3.893-4.758" transform="translate(-113.819 -19.824)" fill="#faf9f8" fill-rule="evenodd"/>
        <path id="Path_228" data-name="Path 228" d="M48.619,31.841c.3-1.991,1.2-3.028,2.6-3.028,1.792,0,2.6,1.336,2.6,3.028Zm9.084.865c.05-4.032-2.308-7.354-6.489-7.354-3.633,0-7.021,3.008-6.921,7.786,0,4.927,3.073,7.786,7.354,7.786a10.534,10.534,0,0,0,5.623-1.3L55.54,36.6c-1.095.647-1.933,1.3-3.028,1.3a3.78,3.78,0,0,1-3.893-3.461H57.7c.05-.348,0-.934,0-1.73Z" transform="translate(-30.018 -19.729)" fill="#faf9f8" fill-rule="evenodd"/>
        <path id="Path_229" data-name="Path 229" d="M-2.158,18.674c-.348,0-.433.081-.433-.865V.938H-9.944c-2.687,0-3.893.658-3.893,3.893,0,2.14.433,3.349.433,5.191a2.551,2.551,0,0,1-2.6,2.6v2.6c1.941.05,2.6,1.118,2.6,2.163,0,1.842-.433,2.618-.433,4.758,0,3.235,1.255,4.326,3.893,4.326h2.163V24.3h-.865c-1.244,0-1.73-.52-1.73-2.163s.433-2.917.433-4.758c0-2.289-.67-3.112-2.163-3.461v-.433c1.493-.349,2.163-1.171,2.163-3.461,0-1.792-.433-3.116-.433-4.758S-9.94,3.1-8.646,3.1h1.3V17.376c0,3.036,1.29,5.191,4.326,5.191A5.9,5.9,0,0,0-.86,22.134l-.433-3.461a4.943,4.943,0,0,1-.865,0" transform="translate(16 -0.938)" fill="#faf9f8" fill-rule="evenodd"/>
      </g>
    </g>
  </g>
</svg>
