<svg xmlns="http://www.w3.org/2000/svg" width="281" height="128" viewBox="0 0 281 128">
  <g id="less" transform="translate(-232 -163)">
    <rect id="box" width="281" height="128" rx="10" transform="translate(232 163)" fill="#24406a"/>
    <g id="less-2" data-name="less" transform="translate(302 196.062)">
      <g id="Group_17" data-name="Group 17" transform="translate(0 0.496)">
        <path id="Path_224" data-name="Path 224" d="M-15.973.938h140v60h-140" transform="translate(15.973 -0.496)" fill="none"/>
        <path id="Path_225" data-name="Path 225" d="M218.448,21.938c0-4.487,1-7.168,1-12,0-7.479-2.9-9-9-9h-4v5h1c3.107,0,4,1.2,4,5,0,3.567-1,6.858-1,11,0,5.293,2.548,7.195,6,8h0c-3.452.805-6,3.707-6,9,0,4.142,1,7.2,1,11,0,3.912-1.008,5-4,5h-1v6h4c6.1,0,9-2.522,9-10,0-4.948-1-7.513-1-12a5.9,5.9,0,0,1,6-6v-6c-4.487-.115-6-2.584-6-5" transform="translate(-84.448 -0.496)" fill="#faf9f8" fill-rule="evenodd"/>
        <path id="Path_226" data-name="Path 226" d="M121.029,40.448c-3.567-1.381-7-1.7-7-4,0-1.726,1.469-3,4-3a14.4,14.4,0,0,1,8,3l4-6c-2.877-2.186-6.707-5-12-5-7.824,0-13,4.672-13,11,0,5.638,4.858,8.389,9,10,3.567,1.381,7,2.7,7,5,0,1.726-.894,3-4,3a13.855,13.855,0,0,1-9-3l-5,6a22.012,22.012,0,0,0,13,5c9.205,0,15-4.672,15-11s-5.513-9.5-10-11" transform="translate(-38.029 -12.006)" fill="#faf9f8" fill-rule="evenodd"/>
        <path id="Path_227" data-name="Path 227" d="M172.048,40.448c-3.452-1.381-7-1.7-7-4,0-1.726,1.469-3,4-3a14.4,14.4,0,0,1,8,3l4-6c-2.877-2.186-6.707-5-12-5-7.824,0-13,4.672-13,11,0,5.638,4.858,8.389,9,10,3.567,1.381,7,2.7,7,5,0,1.726-.893,3-4,3a13.855,13.855,0,0,1-9-3l-5,6a22.013,22.013,0,0,0,13,5c9.2,0,14-4.672,14-11s-4.513-9.5-9-11" transform="translate(-61.048 -12.006)" fill="#faf9f8" fill-rule="evenodd"/>
        <path id="Path_228" data-name="Path 228" d="M54.3,40.353c.69-4.6,2.778-7,6-7,4.142,0,6,3.088,6,7Zm21,2c.115-9.32-5.335-17-15-17-8.4,0-16.23,6.954-16,18,0,11.391,7.105,18,17,18,4.142,0,9.433-.584,13-3l-4-7c-2.531,1.5-4.469,3-7,3-4.6,0-8.08-2.707-9-8h21c.115-.805,0-2.159,0-4Z" transform="translate(-11.296 -11.911)" fill="#faf9f8" fill-rule="evenodd"/>
        <path id="Path_229" data-name="Path 229" d="M16,41.938c-.805,0-1,.186-1-2v-39H-2c-6.213,0-9,1.521-9,9,0,4.947,1,7.743,1,12a5.9,5.9,0,0,1-6,6v6c4.487.115,6,2.584,6,5,0,4.257-1,6.052-1,11,0,7.479,2.9,10,9,10H3v-5H1c-2.876,0-4-1.2-4-5s1-6.743,1-11c0-5.293-1.548-7.195-5-8v-1c3.452-.806,5-2.707,5-8,0-4.142-1-7.2-1-11s1.008-5,4-5H4v33c0,7.019,2.981,12,10,12a13.641,13.641,0,0,0,5-1l-1-8a11.427,11.427,0,0,1-2,0" transform="translate(16 -0.496)" fill="#faf9f8" fill-rule="evenodd"/>
      </g>
    </g>
  </g>
</svg>
