<svg xmlns="http://www.w3.org/2000/svg" width="85" height="37" viewBox="0 0 85 37">
  <g id="less" transform="translate(0.029 -0.282)">
    <rect id="box" width="85" height="37" rx="10" transform="translate(-0.029 0.282)" fill="#24406a"/>
    <g id="less-2" data-name="less" transform="translate(20.872 9.391)">
      <g id="Group_17" data-name="Group 17" transform="translate(0 0)">
        <path id="Path_224" data-name="Path 224" d="M-15.973.938H25.992V18.923H-15.973" transform="translate(15.973 -0.938)" fill="none"/>
        <path id="Path_225" data-name="Path 225" d="M210.045,7.233c0-1.345.3-2.149.3-3.6,0-2.242-.87-2.7-2.7-2.7h-1.2v1.5h.3c.931,0,1.2.361,1.2,1.5,0,1.069-.3,2.056-.3,3.3a2.122,2.122,0,0,0,1.8,2.4h0a2.456,2.456,0,0,0-1.8,2.7c0,1.242.3,2.159.3,3.3,0,1.173-.3,1.5-1.2,1.5h-.3v1.8h1.2c1.828,0,2.7-.756,2.7-3,0-1.483-.3-2.252-.3-3.6a1.768,1.768,0,0,1,1.8-1.8v-1.8c-1.345-.034-1.8-.774-1.8-1.5" transform="translate(-169.879 -0.938)" fill="#faf9f8" fill-rule="evenodd"/>
        <path id="Path_226" data-name="Path 226" d="M108.424,29.944c-1.069-.414-2.1-.509-2.1-1.2,0-.517.44-.9,1.2-.9a4.315,4.315,0,0,1,2.4.9l1.2-1.8a5.861,5.861,0,0,0-3.6-1.5c-2.345,0-3.9,1.4-3.9,3.3,0,1.69,1.456,2.515,2.7,3,1.069.414,2.1.809,2.1,1.5,0,.517-.268.9-1.2.9a4.153,4.153,0,0,1-2.7-.9l-1.5,1.8a6.6,6.6,0,0,0,3.9,1.5c2.759,0,4.5-1.4,4.5-3.3s-1.652-2.849-3-3.3" transform="translate(-83.545 -21.551)" fill="#faf9f8" fill-rule="evenodd"/>
        <path id="Path_227" data-name="Path 227" d="M159.443,29.944c-1.035-.414-2.1-.509-2.1-1.2,0-.517.44-.9,1.2-.9a4.315,4.315,0,0,1,2.4.9l1.2-1.8a5.861,5.861,0,0,0-3.6-1.5c-2.345,0-3.9,1.4-3.9,3.3,0,1.69,1.456,2.515,2.7,3,1.069.414,2.1.809,2.1,1.5,0,.517-.268.9-1.2.9a4.153,4.153,0,0,1-2.7-.9l-1.5,1.8a6.6,6.6,0,0,0,3.9,1.5c2.759,0,4.2-1.4,4.2-3.3a3.451,3.451,0,0,0-2.7-3.3" transform="translate(-126.171 -21.551)" fill="#faf9f8" fill-rule="evenodd"/>
        <path id="Path_228" data-name="Path 228" d="M47.29,29.849c.207-1.38.833-2.1,1.8-2.1,1.242,0,1.8.926,1.8,2.1Zm6.295.6c.034-2.794-1.6-5.1-4.5-5.1a4.96,4.96,0,0,0-4.8,5.4c0,3.414,2.13,5.4,5.1,5.4a7.3,7.3,0,0,0,3.9-.9l-1.2-2.1a4.279,4.279,0,0,1-2.1.9,2.619,2.619,0,0,1-2.7-2.4h6.295c.034-.241,0-.647,0-1.2Z" transform="translate(-34.401 -21.456)" fill="#faf9f8" fill-rule="evenodd"/>
        <path id="Path_229" data-name="Path 229" d="M-6.408,13.228c-.241,0-.3.056-.3-.6V.938h-5.1c-1.862,0-2.7.456-2.7,2.7,0,1.483.3,2.321.3,3.6a1.768,1.768,0,0,1-1.8,1.8v1.8c1.345.034,1.8.774,1.8,1.5,0,1.276-.3,1.814-.3,3.3,0,2.242.87,3,2.7,3h1.5v-1.5h-.6c-.862,0-1.2-.361-1.2-1.5s.3-2.021.3-3.3c0-1.586-.464-2.157-1.5-2.4v-.3c1.035-.242,1.5-.812,1.5-2.4,0-1.242-.3-2.159-.3-3.3s.3-1.5,1.2-1.5h.9v9.892c0,2.1.894,3.6,3,3.6a4.089,4.089,0,0,0,1.5-.3l-.3-2.4a3.425,3.425,0,0,1-.6,0" transform="translate(16 -0.938)" fill="#faf9f8" fill-rule="evenodd"/>
      </g>
    </g>
  </g>
</svg>
