<svg xmlns="http://www.w3.org/2000/svg" width="281" height="128" viewBox="0 0 281 128">
  <g id="linkerd" transform="translate(-232 -163)">
    <rect id="box" width="281" height="128" rx="10" transform="translate(232 163)" fill="#4185c0"/>
    <g id="linkerd-2" data-name="linkerd" transform="translate(323 180.08)">
      <g id="Group_8" data-name="Group 8" transform="translate(0 17.722)">
        <path id="Path_146" data-name="Path 146" d="M238.229,38.006l7,4v-37l-7-4Z" transform="translate(-145.229 -0.808)" fill="#fff"/>
        <path id="Path_147" data-name="Path 147" d="M0,5.007v37l7-4v-37Z" transform="translate(0 -0.809)" fill="#fff"/>
        <path id="Path_148" data-name="Path 148" d="M78.694,168.493l6,4,17-9-7-4Z" transform="translate(-47.694 -97.295)" fill="#fff"/>
        <path id="Path_149" data-name="Path 149" d="M102.865,163.493l7,4,7-4-7-4Z" transform="translate(-62.865 -97.295)" fill="#fff"/>
      </g>
      <g id="Group_9" data-name="Group 9" transform="translate(34.004 52.156)">
        <path id="Path_150" data-name="Path 150" d="M32,25.9v-9L2-.1,0,.9H0v6Z" transform="translate(-0.001 -0.132)" fill="#fff"/>
        <path id="Path_151" data-name="Path 151" d="M0,50.592l28,16,7-4-35-20Z" transform="translate(-0.006 -25.828)" fill="#fff"/>
      </g>
      <g id="Group_10" data-name="Group 10" transform="translate(0.007 0.098)">
        <path id="Path_152" data-name="Path 152" d="M194.706,55.453l7,4,17-10-7-4Z" transform="translate(-118.713 -27.632)" fill="#fff"/>
        <path id="Path_153" data-name="Path 153" d="M100.689,118.341l-6-4-16,9,6,4Z" transform="translate(-47.696 -69.52)" fill="#fff"/>
        <path id="Path_154" data-name="Path 154" d="M179.867,26.689l-7-4-17,10,7,4Z" transform="translate(-94.874 -13.867)" fill="#fff"/>
        <path id="Path_155" data-name="Path 155" d="M61.85,95.578l-7-4-16,9,7,4Z" transform="translate(-23.858 -55.756)" fill="#fff"/>
        <path id="Path_156" data-name="Path 156" d="M116.028,9.926l7,4,17-10-7-4Z" transform="translate(-71.036 -0.104)" fill="#fff"/>
        <path id="Path_157" data-name="Path 157" d="M.012,77.814l7,4,16-9-7-4Z" transform="translate(-0.019 -41.992)" fill="#fff"/>
      </g>
      <g id="Group_11" data-name="Group 11" transform="translate(0.004 36.153)">
        <path id="Path_158" data-name="Path 158" d="M238.229,3.792v35l7-4v-35Z" transform="translate(-145.232 -0.026)" fill="#fff"/>
        <path id="Path_159" data-name="Path 159" d="M206.384,57.559v-35l-7,4v35Z" transform="translate(-121.388 -13.792)" fill="#fff"/>
        <path id="Path_160" data-name="Path 160" d="M159.54,49.324v35l7-4v-35Z" transform="translate(-97.543 -27.558)" fill="#fff"/>
        <path id="Path_161" data-name="Path 161" d="M78.694,80.324l6,4v-35l-6-4Z" transform="translate(-47.698 -27.558)" fill="#fff"/>
        <path id="Path_162" data-name="Path 162" d="M45.85,26.558v35l-7-4v-35Z" transform="translate(-23.854 -13.792)" fill="#fff"/>
        <path id="Path_163" data-name="Path 163" d="M.006,34.792l7,4v-35l-7-4Z" transform="translate(-0.01 -0.025)" fill="#fff"/>
      </g>
      <g id="Group_12" data-name="Group 12" transform="translate(9.721 26.919)">
        <path id="Path_164" data-name="Path 164" d="M77.971,49.785l7,4,6-3-6-4Z" transform="translate(-47.692 -28.784)" fill="#fff"/>
        <path id="Path_165" data-name="Path 165" d="M.294,5.258l7,4,6-4-7-4Z" transform="translate(-0.015 -1.257)" fill="#fff"/>
        <path id="Path_166" data-name="Path 166" d="M39.132,27.022l7,4,6-3-7-4Z" transform="translate(-23.853 -15.021)" fill="#fff"/>
      </g>
      <g id="Group_13" data-name="Group 13" transform="translate(0 0.094)">
        <path id="Path_167" data-name="Path 167" d="M84.688-.08l-6,4,62,36,7-4Z" transform="translate(-47.688 -0.094)" fill="#fff"/>
        <path id="Path_168" data-name="Path 168" d="M45.844,22.686l-7,4,63,36,7-4Z" transform="translate(-23.844 -13.861)" fill="#fff"/>
        <path id="Path_169" data-name="Path 169" d="M0,49.453l62,36,7-4-62-36Z" transform="translate(0 -27.627)" fill="#fff"/>
      </g>
    </g>
  </g>
</svg>
