<svg xmlns="http://www.w3.org/2000/svg" width="281" height="128" viewBox="0 0 281 128">
  <g id="maxcdn" transform="translate(-232 -163)">
    <rect id="box" width="281" height="128" rx="10" transform="translate(232 163)" fill="#fc6600"/>
    <g id="maxcdn-2" data-name="maxcdn" transform="translate(276 204.742)">
      <path id="Path_205" data-name="Path 205" d="M185,39.258c-.517,2.325-3.675,4-6,4H4c-2.411,0-3.517-1.675-3-4l8-35c.6-2.325,3.589-4,6-4H189c2.411,0,4.517,1.675,4,4l-8,35" fill="#fff"/>
      <path id="Path_206" data-name="Path 206" d="M165.093,29.627l-4,18h-18c-1.98,0-3.881-.364-5-2a8.006,8.006,0,0,1-1-6,8.5,8.5,0,0,1,3-5c1.809-1.636,4.02-3,6-3h12v-2c.086-.517.258-.656,0-1-.258-.43-.483-1-1-1h-16l2-6h16c2.153,0,3.795.278,5,2a7.448,7.448,0,0,1,1,6Zm-19,8c-.517,0-1.57-.43-2,0s.086,1.483,0,2c-.086.258-.086-.258,0,0s-.086.828,0,1c.172.172-.172-.086,0,0s.742,1,1,1h11l1-4Zm34-3,6,13h-8l-3-7-6,7h-8l11-13-6-13h9l2,7,7-7h8l-12,13Z" transform="translate(-85.093 -13.369)" fill="#fc6600"/>
      <path id="Path_207" data-name="Path 207" d="M148.755,27.484h-12c-.6,0-.483.57-1,1a4.4,4.4,0,0,0-1,2l-2,8c-.172.689-.344,1.57,0,2a3.424,3.424,0,0,0,2,1h13l-1,6h-15c-2.152,0-3.794-.364-5-2a7.512,7.512,0,0,1-1-6l2-10a11.977,11.977,0,0,1,4-6,8.46,8.46,0,0,1,6-2h13l-2,6Zm28,7a10.386,10.386,0,0,0-2-9,9.773,9.773,0,0,0-8-4h-13l-5,26h14c6.372-.43,12.622-4.714,14-11v-2Zm-6-2-1,2c-.689,3.358-4.47,7-8,7h-5l3-14h7c1.378,0,2.225,1.139,3,2a3.193,3.193,0,0,1,1,3Zm34-3-4,18h-6l3-17a1.959,1.959,0,0,0,0-1c-.086-.258.172-.742,0-1-.172-.172-.742.172-1,0-.258-.086.258-1,0-1h-11l-4,20h-6l5-26h18c2.152,0,3.795.278,5,2a7.8,7.8,0,0,1,1,6Zm-130-5a8.7,8.7,0,0,0-7-3h-26l3,7-4,19h7l4-19h6l-4,19h7l4-19h3c.775,0,1.655-.431,2,0s1.172,1.311,1,2l-4,17h7l3-15a10.471,10.471,0,0,0-2-8Z" transform="translate(-24.756 -13.226)" fill="#fc6600"/>
    </g>
  </g>
</svg>
