<svg xmlns="http://www.w3.org/2000/svg" width="85" height="38" viewBox="0 0 85 38">
  <g id="maxcdn" transform="translate(0.058 -0.073)">
    <rect id="box" width="85" height="38" rx="10" transform="translate(-0.058 0.073)" fill="#fc6600"/>
    <g id="maxcdn-2" data-name="maxcdn" transform="translate(13.831 12.864)">
      <path id="Path_205" data-name="Path 205" d="M56.066,11.948a1.933,1.933,0,0,1-1.8,1.2H1.812c-.723,0-1.054-.5-.9-1.2L3.31,1.457a1.933,1.933,0,0,1,1.8-1.2H57.265c.723,0,1.354.5,1.2,1.2l-2.4,10.491" transform="translate(-0.875 -0.258)" fill="#fff"/>
      <path id="Path_206" data-name="Path 206" d="M145.356,24.025l-1.2,5.4h-5.4a1.678,1.678,0,0,1-1.5-.6,2.4,2.4,0,0,1-.3-1.8,2.549,2.549,0,0,1,.9-1.5,2.994,2.994,0,0,1,1.8-.9h3.6v-.6c.026-.155.077-.2,0-.3-.077-.129-.145-.3-.3-.3h-4.8l.6-1.8h4.8a1.594,1.594,0,0,1,1.5.6,2.233,2.233,0,0,1,.3,1.8Zm-5.7,2.4c-.155,0-.47-.129-.6,0s.026.445,0,.6c-.026.077-.026-.077,0,0s-.026.248,0,.3c.052.052-.052-.026,0,0s.222.3.3.3h3.3l.3-1.2Zm10.191-.9,1.8,3.9h-2.4l-.9-2.1-1.8,2.1h-2.4l3.3-3.9-1.8-3.9h2.7l.6,2.1,2.1-2.1h2.4l-3.6,3.9Z" transform="translate(-121.638 -19.229)" fill="#fc6600"/>
      <path id="Path_207" data-name="Path 207" d="M73.128,23.283h-3.6c-.181,0-.145.171-.3.3a1.319,1.319,0,0,0-.3.6l-.6,2.4c-.052.206-.1.47,0,.6a1.026,1.026,0,0,0,.6.3h3.9l-.3,1.8h-4.5a1.652,1.652,0,0,1-1.5-.6,2.252,2.252,0,0,1-.3-1.8l.6-3a3.59,3.59,0,0,1,1.2-1.8,2.536,2.536,0,0,1,1.8-.6h3.9l-.6,1.8Zm8.393,2.1a3.113,3.113,0,0,0-.6-2.7,2.929,2.929,0,0,0-2.4-1.2h-3.9l-1.5,7.793h4.2a4.551,4.551,0,0,0,4.2-3.3v-.6Zm-1.8-.6-.3.6a2.814,2.814,0,0,1-2.4,2.1h-1.5l.9-4.2h2.1c.413,0,.667.341.9.6a.957.957,0,0,1,.3.9Zm10.191-.9-1.2,5.4h-1.8l.9-5.1a.587.587,0,0,0,0-.3c-.026-.077.052-.222,0-.3-.052-.052-.222.052-.3,0-.077-.026.077-.3,0-.3h-3.3l-1.2,5.995h-1.8l1.5-7.793h5.4a1.594,1.594,0,0,1,1.5.6,2.338,2.338,0,0,1,.3,1.8Zm-38.967-1.5a2.607,2.607,0,0,0-2.1-.9H41.055l.9,2.1-1.2,5.7h2.1l1.2-5.7h1.8l-1.2,5.7h2.1l1.2-5.7h.9c.232,0,.5-.129.6,0s.351.393.3.6l-1.2,5.1h2.1l.9-4.5a3.139,3.139,0,0,0-.6-2.4Z" transform="translate(-36.222 -19.086)" fill="#fc6600"/>
    </g>
  </g>
</svg>
