<svg xmlns="http://www.w3.org/2000/svg" width="121" height="54" viewBox="0 0 121 54">
  <g id="maxcdn" transform="translate(0.056 -0.492)">
    <rect id="box" width="121" height="54" rx="10" transform="translate(-0.056 0.492)" fill="#fc6600"/>
    <g id="maxcdn-2" data-name="maxcdn" transform="translate(19.066 17.603)">
      <path id="Path_205" data-name="Path 205" d="M80.522,17.128a2.79,2.79,0,0,1-2.6,1.73H2.227c-1.043,0-1.521-.725-1.3-1.73L4.39,1.988a2.79,2.79,0,0,1,2.6-1.73H82.252c1.043,0,1.954.725,1.73,1.73l-3.461,15.14" transform="translate(-0.875 -0.258)" fill="#fff"/>
      <path id="Path_206" data-name="Path 206" d="M149.1,25.088l-1.73,7.786h-7.786a2.422,2.422,0,0,1-2.163-.865,3.463,3.463,0,0,1-.433-2.6,3.678,3.678,0,0,1,1.3-2.163,4.321,4.321,0,0,1,2.6-1.3h5.191v-.865c.037-.223.112-.284,0-.433-.112-.186-.209-.433-.433-.433h-6.921l.865-2.6H146.5a2.3,2.3,0,0,1,2.163.865,3.222,3.222,0,0,1,.433,2.6Zm-8.219,3.461c-.223,0-.679-.186-.865,0s.037.642,0,.865c-.037.112-.037-.112,0,0s-.037.358,0,.433c.075.075-.074-.037,0,0s.321.433.433.433h4.758l.433-1.73Zm14.707-1.3,2.6,5.623h-3.461l-1.3-3.028-2.6,3.028h-3.461l4.758-5.623-2.6-5.623h3.893l.865,3.028,3.028-3.028h3.461l-5.191,5.623Z" transform="translate(-114.873 -18.167)" fill="#fc6600"/>
      <path id="Path_207" data-name="Path 207" d="M87.473,24.08H82.282c-.261,0-.209.246-.433.433a1.9,1.9,0,0,0-.433.865l-.865,3.461c-.075.3-.149.679,0,.865a1.481,1.481,0,0,0,.865.433h5.623l-.433,2.6H80.119a2.384,2.384,0,0,1-2.163-.865,3.249,3.249,0,0,1-.433-2.6l.865-4.326a5.181,5.181,0,0,1,1.73-2.6,3.66,3.66,0,0,1,2.6-.865h5.623l-.865,2.6Zm12.112,3.028a4.493,4.493,0,0,0-.865-3.893,4.227,4.227,0,0,0-3.461-1.73H89.636L87.473,32.731h6.056a6.567,6.567,0,0,0,6.056-4.758v-.865Zm-2.6-.865-.433.865A4.061,4.061,0,0,1,93.1,30.136H90.934l1.3-6.056h3.028c.6,0,.962.493,1.3.865a1.381,1.381,0,0,1,.433,1.3Zm14.707-1.3-1.73,7.786h-2.6l1.3-7.354a.847.847,0,0,0,0-.433c-.037-.112.075-.321,0-.433-.075-.075-.321.074-.433,0-.112-.037.112-.433,0-.433h-4.758l-1.73,8.651h-2.6l2.163-11.247H109.1a2.3,2.3,0,0,1,2.163.865,3.374,3.374,0,0,1,.433,2.6ZM55.463,22.782a3.762,3.762,0,0,0-3.028-1.3H41.188l1.3,3.028-1.73,8.219h3.028l1.73-8.219h2.6l-1.73,8.219h3.028l1.73-8.219h1.3c.335,0,.716-.186.865,0s.507.567.433.865L52,32.731H55.03l1.3-6.489a4.529,4.529,0,0,0-.865-3.461Z" transform="translate(-34.213 -18.024)" fill="#fc6600"/>
    </g>
  </g>
</svg>
