<svg xmlns="http://www.w3.org/2000/svg" width="281" height="128" viewBox="0 0 281 128">
  <g id="mongodb" transform="translate(-232 -163)">
    <rect id="box" width="281" height="128" rx="10" transform="translate(232 163)" fill="#499d4a"/>
    <g id="mongodb-2" data-name="mongodb" transform="translate(265.462 195.252)">
      <g id="Group_6" data-name="Group 6" transform="translate(0 0.203)">
        <path id="Path_77" data-name="Path 77" d="M421.88,57.733c-.194.039-1-.233-1,0-.039,1.552,0,6.207,0,9a4.273,4.273,0,0,0,1,0c.582.039,1.8,0,3,0,1.668,0,2.457.233,3,0a4.272,4.272,0,0,0,2-4c0-3.763-2.082-5-6-5a8.536,8.536,0,0,0-2,0Zm10,17c0-3.841-2.879-6-8-6a17.122,17.122,0,0,0-2,0c-.117.039-1-.117-1,0,0,2.754-.117,7.293,0,9,.077.737,1.34,1.69,2,2a6.861,6.861,0,0,0,3,1,5.732,5.732,0,0,0,6-6Zm-18-19h12c3.375,0,8,.957,8,6,0,2.483-1.711,4.03-4,5a1.478,1.478,0,0,0,0,1c3.259.815,6,2.2,6,6,0,3.724-1.625,6.526-5,8a17.508,17.508,0,0,1-7,1c-1.979,0-8.052-.078-11,0-.31-.117.728-1.767,1-2a6.914,6.914,0,0,0,2,0c1.048-.272.845-.409,1-2,.078-1.358,0-6.586,0-10,0-4.694.039-7.448,0-9-.039-1.2-.147-1.767-1-2-.66-.116-2.108-.884-3-1-.194-.194.767-.845,1-1Zm-22,24a6.525,6.525,0,0,0,4,1,7.9,7.9,0,0,0,6-2,13.616,13.616,0,0,0,4-10c0-4.384-1.586-7.905-5-10-1.94-1.2-5.129-1-8-1-.853,0-1.5-.233-2,0-.117.078,0-.194,0,0-.078.776,0,7.508,0,11,0,3.608-.078,8.418,0,9a2.856,2.856,0,0,0,1,2Zm-9-24h14a13.063,13.063,0,0,1,9,3c2.832,2.444,4,5.888,4,10,0,5.858-2.323,9.06-5,11-2.677,1.979-6.034,3-11,3-2.638,0-7.237.039-11,0h0c-.194-.349-.31-1.961,0-2,1.009-.117,1.5.194,2,0,.815-.31.884-.565,1-2,.116-2.677,0-6.353,0-10,0-2.6.078-7.371,0-9-.116-1.358-.836-1.767-2-2-.582-.116-.914-.884-2-1-.155-.272.806-.767,1-1Z" transform="translate(-221.342 -32.188)" fill="#fff" fill-rule="evenodd"/>
        <path id="Path_78" data-name="Path 78" d="M162.448,93.141c-.97-.117-2.146.388-3,0-.116-.078,0-.845,0-1-.078-1.358,0-5.4,0-8,0-2.1-.107-3.72-1-5-1.048-1.474-3.06-2-5-2a9.2,9.2,0,0,0-6,2c-.039.038-.039.427,0,0,0-.427-.039-1.418,0-2h0c-1.242.621-4.72.884-6,1a1.057,1.057,0,0,0,0,2h0a6.32,6.32,0,0,1,2,1c.388.31,0,.651,0,1,.039,2.91.116,7.556,0,10-.039.97-.3.845-1,1h0c-.543.117-.34-.078-1,0a2.952,2.952,0,0,0,0,2h9a3.2,3.2,0,0,0,0-2,11.378,11.378,0,0,1-2,0c-.7-.155-.961-.185-1-1-.077-2.056,0-7.052,0-10,0-.815.767-.767,1-1a4.04,4.04,0,0,1,3-1c1.241,0,2.379-.5,3,0,.853.7.883,2.263,1,3,.194,1.668,0,5.129,0,8,0,1.552.582,1.806,0,2-.271.117-1.185-.077-2,0a2.953,2.953,0,0,0,0,2h9a3.881,3.881,0,0,0,0-2Zm11-15c-2.056,0-4,2.517-4,5a4.882,4.882,0,0,0,5,5,3.29,3.29,0,0,0,2-1,3.66,3.66,0,0,0,1-3c0-3.22-1.362-6-4-6Zm-1,18c-.776,0-.651-.194-1,0-1.63,1.047-3,1.8-3,3,0,1.125,1.069,2.224,2,3,1.125.97,2.021,2,4,2,3.957,0,6-2.905,6-5a2.773,2.773,0,0,0-2-3c-1.086-.466-3.633,0-6,0Zm1,10a10.1,10.1,0,0,1-6-2,5.319,5.319,0,0,1-2-4,3.85,3.85,0,0,1,1-2,10.183,10.183,0,0,1,3-3c.077-.039,0,.078,0,0s.077.038,0,0c-1.824-.7-1.845-1.379-2-2h0c-.038-.233-.349-.767,0-1,.271-.194.574-.728,1-1,.66-.388,1.573-.651,2-1,.078-.078,0,.078,0,0s.078.038,0,0c-2.715-.893-4-2.974-4-6,0-1.979.409-3.875,2-5a13.1,13.1,0,0,1,6-2h0a10.453,10.453,0,0,1,4,1,11.064,11.064,0,0,0,3,0c1.513,0,1.457-.457,2-1,.039.077.961.5,1,1a4.616,4.616,0,0,1-1,2c-.31.426-1.3,0-2,0h0a3.14,3.14,0,0,0-1,0h0a4.3,4.3,0,0,0,0,1h0a4.312,4.312,0,0,1,0,1c0,3.181-.642,4.952-2,6a10.9,10.9,0,0,1-5,2c-.039,0,.349-.039,0,0h-1c-.31.077-1,.34-1,1,0,.582.332.883,2,1,.349.039.612-.039,1,0a29.045,29.045,0,0,1,6,1,4.243,4.243,0,0,1,3,4,9.032,9.032,0,0,1-5,8,11.646,11.646,0,0,1-5,1Zm22-27c-.815,0-1.457-.388-2,0a7.311,7.311,0,0,0-3,6c0,5.082,3.353,8,7,8,1.086,0,1.263-.379,2-1,1.125-.931,2-2.4,2-5,0-5.043-2.315-8-6-8Zm0,16c-6.6,0-9-4.461-9-9,0-3.181,1.44-5.254,4-7a12.276,12.276,0,0,1,6-2,8.814,8.814,0,0,1,9,9c0,3.53-1.323,6.293-4,8-1.28.853-4.176,1-6,1Zm-69-16c-.815,0-1.457-.388-2,0-1.513.931-2,3.285-2,6,0,5.082,2.353,8,6,8a4.893,4.893,0,0,0,3-1c1.125-.931,1-2.4,1-5,0-5.043-2.276-8-6-8Zm1,16c-6.6,0-9-4.461-9-9,0-3.181,1.44-5.254,4-7a12.276,12.276,0,0,1,6-2c5.044,0,8,3.8,8,9,0,3.53-1.323,6.293-4,8-1.241.853-3.138,1-5,1Zm-44,0c-.078-.116-1.039-.573-1-1,0-.31.961-.923,1-1,.815-.117.535.116,1,0,.776-.194.961-1.03,1-2,.117-2.328,1.039-5.935,1-9h0a4.239,4.239,0,0,0-1-2,6.417,6.417,0,0,0-2-1c-.349-.116-1.039.233-1,0a1.5,1.5,0,0,1,1-1,27.328,27.328,0,0,0,6-1c.078.077,0-.31,0,0v1a8.562,8.562,0,0,0,0,1c0,.155-.155,1,0,1a8.591,8.591,0,0,0,1,0c2.483-1.94,3.836-3,5-3a6.045,6.045,0,0,1,5,3c.077.117-.117,0,0,0,.078,0-.039.078,0,0,2.289-1.746,5.487-3,7-3,3.608,0,5,2.461,5,7,0,1.28.039,3.487,0,5v3a1.907,1.907,0,0,0,1,1,5.635,5.635,0,0,0,2,1h0c.078.271.155.806,0,1a8.476,8.476,0,0,1-1,0c-.737-.039-1.836,0-3,0-2.405,0-3.8-.078-5,0a1.754,1.754,0,0,1,0-1c.7-.116,1.573-.883,2-1,.776-.233.961.009,1-1,0-.737.233-7.487,0-9-.233-1.552-1.44-3-4-3a5.925,5.925,0,0,0-4,1,8.131,8.131,0,0,0-1,1h0c.155.815,1,1.565,1,3v2c0,1.746-.039,3.759,0,5,0,.854.573.845,1,1,.233.038-.194-.039,0,0,.349.078.457.884,1,1a1.685,1.685,0,0,1,0,1c-.039.233.038-.039,0,0-1.319-.039-2.021,0-4,0h-5a8,8,0,0,1,0-1c0-.349-.078.078,0,0,.194-.039.806-1,1-1,.465-.078.612.078,1,0,.66-.194.961-.147,1-1a69.515,69.515,0,0,0,0-9c-.465-2.25-1.944-3-4-3a6.491,6.491,0,0,0-4,1c-.194.155,0,.651,0,1v2c0,2.793-.039,6.487,0,8,.039.465.107.806,1,1,.194.039.612-.039,1,0l1,1a1.47,1.47,0,0,1,0,1h-2c-.815-.039-1.836,0-3,0-1.358,0-2.224-.039-3,0a4.291,4.291,0,0,0-1,0Z" transform="translate(-47.911 -44.597)" fill="#fff" fill-rule="evenodd"/>
        <g id="Group_5" data-name="Group 5">
          <path id="Path_79" data-name="Path 79" d="M28,70.088H27s-.09-8.418-3-9c-1.94-2.25.017-95.126,7,0,0,0-2.573.944-3,3a24.228,24.228,0,0,0,0,6Z" transform="translate(-13.461 -10.544)" fill="#fff" fill-rule="evenodd"/>
          <path id="Path_80" data-name="Path 80" d="M28,70.088H27s-.09-8.418-3-9c-1.94-2.25.017-95.126,7,0,0,0-2.573.944-3,3a24.228,24.228,0,0,0,0,6Z" transform="translate(-13.461 -10.544)" fill="#fff" fill-rule="evenodd"/>
          <path id="Path_81" data-name="Path 81" d="M33.662,51.962s14.259-8.951,11-28c-3.142-13.85-11.185-18.254-12-20a6.572,6.572,0,0,1-1-3v38c0,.039-1.065,11.564,2,13" transform="translate(-18.124 -0.417)" fill="#fff" fill-rule="evenodd"/>
          <path id="Path_82" data-name="Path 82" d="M33.662,51.962s14.259-8.951,11-28c-3.142-13.85-11.185-18.254-12-20a6.572,6.572,0,0,1-1-3v38c0,.039-1.065,11.564,2,13" transform="translate(-18.124 -0.417)" fill="#fff" fill-rule="evenodd"/>
          <path id="Path_83" data-name="Path 83" d="M12.538,52.748s-13.776-9.288-13-25c.737-15.712,10.216-23.6,12-25,1.164-1.241,1.922-1.759,2-3,.815,1.746-.116,26.129,0,29,.349,11.057-.108,21.905-1,24Z" transform="translate(0 -0.203)" fill="#fff" fill-rule="evenodd"/>
          <path id="Path_84" data-name="Path 84" d="M12.538,52.748s-13.776-9.288-13-25c.737-15.712,10.216-23.6,12-25,1.164-1.241,1.922-1.759,2-3,.815,1.746-.116,26.129,0,29,.349,11.057-.108,21.905-1,24Z" transform="translate(0 -0.203)" fill="#fff" fill-rule="evenodd"/>
        </g>
      </g>
    </g>
  </g>
</svg>
