<svg xmlns="http://www.w3.org/2000/svg" width="121" height="54" viewBox="0 0 121 54">
  <g id="mongodb" transform="translate(0.056 -0.492)">
    <rect id="box" width="121" height="54" rx="10" transform="translate(-0.056 0.492)" fill="#499d4a"/>
    <g id="mongodb-2" data-name="mongodb" transform="translate(13.916 13.573)">
      <g id="Group_6" data-name="Group 6" transform="translate(0 0)">
        <path id="Path_77" data-name="Path 77" d="M399.173,56.6c-.084.017-.433-.1-.433,0-.017.671,0,2.685,0,3.893a1.848,1.848,0,0,0,.433,0c.252.017.778,0,1.3,0a5.159,5.159,0,0,0,1.3,0,1.848,1.848,0,0,0,.865-1.73c0-1.628-.9-2.163-2.6-2.163a3.692,3.692,0,0,0-.865,0Zm4.326,7.354c0-1.661-1.245-2.6-3.461-2.6a7.409,7.409,0,0,0-.865,0c-.05.017-.433-.05-.433,0,0,1.191-.05,3.155,0,3.893.033.319.58.731.865.865a2.968,2.968,0,0,0,1.3.433,2.479,2.479,0,0,0,2.6-2.6Zm-7.786-8.219H400.9c1.46,0,3.461.414,3.461,2.6a2.384,2.384,0,0,1-1.73,2.163.639.639,0,0,0,0,.433c1.41.352,2.6.951,2.6,2.6a3.494,3.494,0,0,1-2.163,3.461,7.574,7.574,0,0,1-3.028.433c-.856,0-3.483-.034-4.758,0-.134-.05.315-.764.433-.865a2.99,2.99,0,0,0,.865,0c.453-.117.365-.177.433-.865.034-.587,0-2.849,0-4.326,0-2.031.017-3.222,0-3.893-.017-.52-.063-.764-.433-.865-.285-.05-.912-.382-1.3-.433-.084-.084.332-.366.433-.433ZM386.2,66.114a2.823,2.823,0,0,0,1.73.433,3.419,3.419,0,0,0,2.6-.865,5.89,5.89,0,0,0,1.73-4.326,4.747,4.747,0,0,0-2.163-4.326c-.839-.52-2.219-.433-3.461-.433-.369,0-.647-.1-.865,0-.05.034,0-.084,0,0-.034.336,0,3.248,0,4.758,0,1.561-.034,3.641,0,3.893a1.235,1.235,0,0,0,.433.865ZM382.3,55.733h6.056a5.651,5.651,0,0,1,3.893,1.3,5.406,5.406,0,0,1,1.73,4.326,5.41,5.41,0,0,1-2.163,4.758,7.581,7.581,0,0,1-4.758,1.3c-1.141,0-3.13.017-4.758,0h0c-.084-.151-.134-.848,0-.865.436-.05.647.084.865,0,.352-.134.382-.244.433-.865.05-1.158,0-2.748,0-4.326,0-1.124.034-3.188,0-3.893-.05-.587-.362-.764-.865-.865-.252-.05-.4-.382-.865-.433-.067-.118.349-.332.433-.433Z" transform="translate(-312.212 -45.351)" fill="#fff" fill-rule="evenodd"/>
        <path id="Path_78" data-name="Path 78" d="M117.053,83.926c-.42-.05-.928.168-1.3,0-.05-.034,0-.365,0-.433-.034-.587,0-2.336,0-3.461a3.677,3.677,0,0,0-.433-2.163A2.594,2.594,0,0,0,113.16,77a3.981,3.981,0,0,0-2.6.865c-.017.017-.017.185,0,0,0-.185-.017-.613,0-.865h0a10.626,10.626,0,0,1-2.6.433.457.457,0,0,0,0,.865h0a2.734,2.734,0,0,1,.865.433c.168.134,0,.282,0,.433.017,1.259.05,3.268,0,4.326-.017.42-.13.365-.433.433h0c-.235.05-.147-.034-.433,0a1.277,1.277,0,0,0,0,.865h3.893a1.385,1.385,0,0,0,0-.865,4.923,4.923,0,0,1-.865,0c-.3-.067-.416-.08-.433-.433-.033-.889,0-3.05,0-4.326,0-.352.332-.332.433-.433a1.748,1.748,0,0,1,1.3-.433c.537,0,1.029-.218,1.3,0,.369.3.382.979.433,1.3.084.722,0,2.219,0,3.461,0,.671.252.781,0,.865-.117.05-.513-.033-.865,0a1.277,1.277,0,0,0,0,.865h3.893a1.679,1.679,0,0,0,0-.865Zm4.758-6.489a2.187,2.187,0,0,0,.433,4.326,1.423,1.423,0,0,0,.865-.433,1.583,1.583,0,0,0,.433-1.3c0-1.393-.589-2.6-1.73-2.6Zm-.433,7.786c-.336,0-.282-.084-.433,0-.7.453-1.3.777-1.3,1.3a2.01,2.01,0,0,0,.865,1.3,2.465,2.465,0,0,0,4.326-1.3,1.2,1.2,0,0,0-.865-1.3,10.9,10.9,0,0,0-2.6,0Zm.433,4.326a4.37,4.37,0,0,1-2.6-.865,2.3,2.3,0,0,1-.865-1.73,1.665,1.665,0,0,1,.433-.865,4.4,4.4,0,0,1,1.3-1.3c.033-.017,0,.034,0,0s.033.017,0,0c-.789-.3-.8-.6-.865-.865h0c-.017-.1-.151-.332,0-.433.117-.084.248-.315.433-.433.285-.168.68-.282.865-.433.034-.034,0,.034,0,0s.034.017,0,0a2.934,2.934,0,0,1-.865-4.758,5.667,5.667,0,0,1,2.6-.865h0a4.522,4.522,0,0,1,1.73.433,4.786,4.786,0,0,0,1.3,0c.654,0,.63-.2.865-.433.017.033.416.214.433.433a2,2,0,0,1-.433.865c-.134.184-.563,0-.865,0h0a1.358,1.358,0,0,0-.433,0h0a1.86,1.86,0,0,0,0,.433h0a1.867,1.867,0,0,1,0,.433c0,1.376-.278,2.142-.865,2.6a4.717,4.717,0,0,1-2.163.865c-.017,0,.151-.017,0,0h-.433c-.134.033-.433.147-.433.433,0,.252.144.382.865.433.151.017.265-.017.433,0a12.564,12.564,0,0,1,2.6.433,1.835,1.835,0,0,1,1.3,1.73,3.907,3.907,0,0,1-2.163,3.461,5.038,5.038,0,0,1-2.163.433Zm9.517-11.679c-.352,0-.63-.168-.865,0a3.4,3.4,0,0,0,1.73,6.056c.47,0,.546-.164.865-.433a2.592,2.592,0,0,0,.865-2.163c0-2.182-1-3.461-2.6-3.461Zm0,6.921a3.591,3.591,0,0,1-3.893-3.893,3.431,3.431,0,0,1,1.73-3.028,5.31,5.31,0,0,1,2.6-.865,4.04,4.04,0,0,1,2.163,7.354,5.792,5.792,0,0,1-2.6.433ZM101.48,77.87c-.352,0-.63-.168-.865,0-.654.4-.865,1.421-.865,2.6,0,2.2,1.018,3.461,2.6,3.461a2.117,2.117,0,0,0,1.3-.433c.487-.4.433-1.038.433-2.163,0-2.182-.984-3.461-2.6-3.461Zm.433,6.921A3.591,3.591,0,0,1,98.02,80.9a3.431,3.431,0,0,1,1.73-3.028,5.31,5.31,0,0,1,2.6-.865c2.182,0,3.461,1.644,3.461,3.893a3.85,3.85,0,0,1-1.73,3.461,3.973,3.973,0,0,1-2.163.433Zm-19.033,0c-.034-.05-.449-.248-.433-.433,0-.134.416-.4.433-.433.352-.05.231.05.433,0,.336-.084.416-.446.433-.865.05-1.007.449-2.567.433-3.893h0a1.834,1.834,0,0,0-.433-.865,2.775,2.775,0,0,0-.865-.433c-.151-.05-.449.1-.433,0a.647.647,0,0,1,.433-.433,11.821,11.821,0,0,0,2.6-.433c.034.033,0-.134,0,0v.433a3.7,3.7,0,0,0,0,.433c0,.067-.067.433,0,.433a3.718,3.718,0,0,0,.433,0c1.074-.839,1.659-1.3,2.163-1.3a2.615,2.615,0,0,1,2.163,1.3c.033.05-.05,0,0,0,.034,0-.017.034,0,0A6.425,6.425,0,0,1,93.261,77c1.561,0,2.163,1.065,2.163,3.028,0,.554.017,1.508,0,2.163v1.3a.825.825,0,0,0,.433.433,2.438,2.438,0,0,0,.865.433h0c.034.117.067.349,0,.433a3.664,3.664,0,0,1-.433,0c-.319-.017-.794,0-1.3,0-1.041,0-1.643-.034-2.163,0a.759.759,0,0,1,0-.433c.3-.05.68-.382.865-.433.336-.1.416,0,.433-.433,0-.319.1-3.239,0-3.893a1.561,1.561,0,0,0-1.73-1.3,2.563,2.563,0,0,0-1.73.433,3.518,3.518,0,0,0-.433.433h0c.067.352.433.677.433,1.3v.865c0,.755-.017,1.626,0,2.163,0,.369.248.365.433.433.1.017-.084-.017,0,0,.151.034.2.382.433.433a.729.729,0,0,1,0,.433c-.017.1.017-.017,0,0-.571-.017-.874,0-1.73,0H87.638a3.463,3.463,0,0,1,0-.433c0-.151-.034.034,0,0,.084-.017.349-.433.433-.433.2-.034.265.034.433,0,.285-.084.416-.063.433-.433a30.071,30.071,0,0,0,0-3.893,1.532,1.532,0,0,0-1.73-1.3,2.808,2.808,0,0,0-1.73.433c-.084.067,0,.282,0,.433v.865c0,1.208-.017,2.806,0,3.461.017.2.046.349.433.433.084.017.265-.017.433,0l.433.433a.636.636,0,0,1,0,.433h-.865c-.352-.017-.794,0-1.3,0-.587,0-.962-.017-1.3,0a1.857,1.857,0,0,0-.433,0Z" transform="translate(-67.293 -62.73)" fill="#fff" fill-rule="evenodd"/>
        <g id="Group_5" data-name="Group 5">
          <path id="Path_79" data-name="Path 79" d="M25.327,40.705h-.433s-.039-3.641-1.3-3.893c-.839-.973.007-41.149,3.028,0,0,0-1.113.408-1.3,1.3a10.48,10.48,0,0,0,0,2.6Z" transform="translate(-18.825 -14.751)" fill="#fff" fill-rule="evenodd"/>
          <path id="Path_80" data-name="Path 80" d="M25.327,40.705h-.433s-.039-3.641-1.3-3.893c-.839-.973.007-41.149,3.028,0,0,0-1.113.408-1.3,1.3a10.48,10.48,0,0,0,0,2.6Z" transform="translate(-18.825 -14.751)" fill="#fff" fill-rule="evenodd"/>
          <path id="Path_81" data-name="Path 81" d="M32.425,23.023a11.949,11.949,0,0,0,4.758-12.112c-1.359-5.991-4.839-7.9-5.191-8.651a2.843,2.843,0,0,1-.433-1.3V17.4c0,.017-.461,5,.865,5.623" transform="translate(-25.49 -0.529)" fill="#fff" fill-rule="evenodd"/>
          <path id="Path_82" data-name="Path 82" d="M32.425,23.023a11.949,11.949,0,0,0,4.758-12.112c-1.359-5.991-4.839-7.9-5.191-8.651a2.843,2.843,0,0,1-.433-1.3V17.4c0,.017-.461,5,.865,5.623" transform="translate(-25.49 -0.529)" fill="#fff" fill-rule="evenodd"/>
          <path id="Path_83" data-name="Path 83" d="M5.143,22.674S-.816,18.656-.48,11.86A14.491,14.491,0,0,1,4.711,1.045c.5-.537.832-.761.865-1.3.352.755-.05,11.3,0,12.545.151,4.783-.047,9.476-.433,10.382Z" transform="translate(0.494 0.252)" fill="#fff" fill-rule="evenodd"/>
          <path id="Path_84" data-name="Path 84" d="M5.143,22.674S-.816,18.656-.48,11.86A14.491,14.491,0,0,1,4.711,1.045c.5-.537.832-.761.865-1.3.352.755-.05,11.3,0,12.545.151,4.783-.047,9.476-.433,10.382Z" transform="translate(0.494 0.252)" fill="#fff" fill-rule="evenodd"/>
        </g>
      </g>
    </g>
  </g>
</svg>
