<svg xmlns="http://www.w3.org/2000/svg" width="85" height="38" viewBox="0 0 85 38">
  <g id="mongodb" transform="translate(0.058 -0.499)">
    <rect id="box" width="85" height="38" rx="10" transform="translate(-0.058 0.499)" fill="#499d4a"/>
    <g id="mongodb-2" data-name="mongodb" transform="translate(10.262 9.791)">
      <g id="Group_6" data-name="Group 6" transform="translate(0 0)">
        <path id="Path_77" data-name="Path 77" d="M393.858,56.332c-.058.012-.3-.07-.3,0-.012.465,0,1.861,0,2.7a1.281,1.281,0,0,0,.3,0c.174.012.539,0,.9,0a3.575,3.575,0,0,0,.9,0,1.28,1.28,0,0,0,.6-1.2c0-1.128-.624-1.5-1.8-1.5a2.559,2.559,0,0,0-.6,0Zm3,5.1c0-1.151-.863-1.8-2.4-1.8a5.132,5.132,0,0,0-.6,0c-.035.012-.3-.035-.3,0,0,.826-.035,2.186,0,2.7.023.221.4.506.6.6a2.057,2.057,0,0,0,.9.3,1.718,1.718,0,0,0,1.8-1.8Zm-5.4-5.7h3.6c1.012,0,2.4.287,2.4,1.8a1.652,1.652,0,0,1-1.2,1.5.443.443,0,0,0,0,.3c.977.244,1.8.659,1.8,1.8a2.421,2.421,0,0,1-1.5,2.4,5.248,5.248,0,0,1-2.1.3c-.593,0-2.413-.023-3.3,0-.093-.035.218-.53.3-.6a2.072,2.072,0,0,0,.6,0c.314-.081.253-.123.3-.6.023-.407,0-1.974,0-3,0-1.407.012-2.233,0-2.7-.012-.36-.044-.53-.3-.6-.2-.035-.632-.265-.9-.3-.058-.058.23-.253.3-.3Zm-6.594,7.194a1.956,1.956,0,0,0,1.2.3,2.369,2.369,0,0,0,1.8-.6,4.081,4.081,0,0,0,1.2-3,3.289,3.289,0,0,0-1.5-3,5.01,5.01,0,0,0-2.4-.3c-.256,0-.448-.07-.6,0-.035.023,0-.058,0,0-.023.233,0,2.251,0,3.3,0,1.081-.023,2.523,0,2.7a.856.856,0,0,0,.3.6Zm-2.7-7.194h4.2a3.916,3.916,0,0,1,2.7.9,4.362,4.362,0,0,1-.3,6.295,5.253,5.253,0,0,1-3.3.9c-.791,0-2.169.012-3.3,0h0c-.058-.1-.093-.588,0-.6.3-.035.448.058.6,0,.244-.093.265-.169.3-.6.035-.8,0-1.9,0-3,0-.779.023-2.209,0-2.7-.035-.407-.251-.53-.6-.6-.174-.035-.274-.265-.6-.3-.047-.081.242-.23.3-.3Z" transform="translate(-333.599 -48.539)" fill="#fff" fill-rule="evenodd"/>
        <path id="Path_78" data-name="Path 78" d="M106.427,81.768c-.291-.035-.643.116-.9,0-.035-.023,0-.253,0-.3-.023-.407,0-1.619,0-2.4a2.548,2.548,0,0,0-.3-1.5,1.8,1.8,0,0,0-1.5-.6,2.758,2.758,0,0,0-1.8.6c-.012.012-.012.128,0,0s-.012-.425,0-.6h0a7.363,7.363,0,0,1-1.8.3.317.317,0,0,0,0,.6h0a1.9,1.9,0,0,1,.6.3c.116.093,0,.2,0,.3.012.872.035,2.265,0,3-.012.291-.09.253-.3.3h0c-.163.035-.1-.023-.3,0a.885.885,0,0,0,0,.6h2.7a.96.96,0,0,0,0-.6,3.411,3.411,0,0,1-.6,0c-.209-.047-.288-.055-.3-.3-.023-.616,0-2.114,0-3,0-.244.23-.23.3-.3a1.211,1.211,0,0,1,.9-.3c.372,0,.713-.151.9,0,.256.209.265.678.3.9.058.5,0,1.537,0,2.4,0,.465.174.541,0,.6-.081.035-.355-.023-.6,0a.885.885,0,0,0,0,.6h2.7a1.163,1.163,0,0,0,0-.6Zm3.3-4.5a1.515,1.515,0,0,0,.3,3,.986.986,0,0,0,.6-.3,1.1,1.1,0,0,0,.3-.9c0-.965-.408-1.8-1.2-1.8Zm-.3,5.4c-.232,0-.2-.058-.3,0-.489.314-.9.539-.9.9a1.393,1.393,0,0,0,.6.9,1.708,1.708,0,0,0,3-.9.831.831,0,0,0-.6-.9,7.553,7.553,0,0,0-1.8,0Zm.3,3a3.028,3.028,0,0,1-1.8-.6,1.594,1.594,0,0,1-.6-1.2,1.154,1.154,0,0,1,.3-.6,3.052,3.052,0,0,1,.9-.9c.023-.012,0,.023,0,0s.023.012,0,0c-.547-.209-.553-.413-.6-.6h0c-.012-.07-.1-.23,0-.3.081-.058.172-.218.3-.3.2-.116.472-.2.6-.3.023-.023,0,.023,0,0s.023.012,0,0a2.033,2.033,0,0,1-.6-3.3,3.927,3.927,0,0,1,1.8-.6h0a3.134,3.134,0,0,1,1.2.3,3.316,3.316,0,0,0,.9,0c.453,0,.437-.137.6-.3.012.023.288.149.3.3a1.384,1.384,0,0,1-.3.6c-.093.128-.39,0-.6,0h0a.941.941,0,0,0-.3,0h0a1.29,1.29,0,0,0,0,.3h0a1.293,1.293,0,0,1,0,.3c0,.954-.192,1.484-.6,1.8a3.269,3.269,0,0,1-1.5.6c-.012,0,.1-.012,0,0h-.3c-.093.023-.3.1-.3.3,0,.174.1.265.6.3.1.012.183-.012.3,0a8.706,8.706,0,0,1,1.8.3,1.272,1.272,0,0,1,.9,1.2,2.707,2.707,0,0,1-1.5,2.4,3.491,3.491,0,0,1-1.5.3Zm6.594-8.093c-.244,0-.437-.116-.6,0a2.358,2.358,0,0,0,1.2,4.2c.326,0,.379-.114.6-.3a1.8,1.8,0,0,0,.6-1.5c0-1.512-.694-2.4-1.8-2.4Zm0,4.8a2.489,2.489,0,0,1-2.7-2.7,2.378,2.378,0,0,1,1.2-2.1,3.68,3.68,0,0,1,1.8-.6,2.8,2.8,0,0,1,1.5,5.1,4.014,4.014,0,0,1-1.8.3Zm-20.683-4.8c-.244,0-.437-.116-.6,0-.453.279-.6.985-.6,1.8,0,1.523.705,2.4,1.8,2.4a1.467,1.467,0,0,0,.9-.3c.337-.279.3-.72.3-1.5,0-1.512-.682-2.4-1.8-2.4Zm.3,4.8a2.489,2.489,0,0,1-2.7-2.7,2.378,2.378,0,0,1,1.2-2.1,3.68,3.68,0,0,1,1.8-.6,2.41,2.41,0,0,1,2.4,2.7,2.668,2.668,0,0,1-1.2,2.4,2.753,2.753,0,0,1-1.5.3Zm-13.189,0c-.023-.035-.311-.172-.3-.3,0-.093.288-.277.3-.3.244-.035.16.035.3,0,.233-.058.288-.309.3-.6.035-.7.311-1.779.3-2.7h0a1.271,1.271,0,0,0-.3-.6,1.924,1.924,0,0,0-.6-.3c-.1-.035-.311.07-.3,0a.448.448,0,0,1,.3-.3,8.191,8.191,0,0,0,1.8-.3c.023.023,0-.093,0,0v.3a2.566,2.566,0,0,0,0,.3c0,.046-.046.3,0,.3a2.577,2.577,0,0,0,.3,0c.744-.581,1.15-.9,1.5-.9a1.812,1.812,0,0,1,1.5.9c.023.035-.035,0,0,0s-.012.023,0,0a4.452,4.452,0,0,1,2.1-.9c1.081,0,1.5.738,1.5,2.1,0,.384.012,1.045,0,1.5v.9a.572.572,0,0,0,.3.3,1.689,1.689,0,0,0,.6.3h0c.023.081.046.242,0,.3a2.54,2.54,0,0,1-.3,0c-.221-.012-.55,0-.9,0-.721,0-1.138-.023-1.5,0a.526.526,0,0,1,0-.3c.209-.035.472-.265.6-.3.233-.07.288,0,.3-.3,0-.221.07-2.244,0-2.7a1.082,1.082,0,0,0-1.2-.9,1.776,1.776,0,0,0-1.2.3,2.438,2.438,0,0,0-.3.3h0c.046.244.3.469.3.9v.6c0,.523-.012,1.127,0,1.5,0,.256.172.253.3.3.07.012-.058-.012,0,0,.1.023.137.265.3.3a.505.505,0,0,1,0,.3c-.012.07.012-.012,0,0-.4-.012-.606,0-1.2,0h-1.5a2.4,2.4,0,0,1,0-.3c0-.1-.023.023,0,0,.058-.012.242-.3.3-.3.139-.023.183.023.3,0,.2-.058.288-.044.3-.3a20.837,20.837,0,0,0,0-2.7,1.062,1.062,0,0,0-1.2-.9,1.946,1.946,0,0,0-1.2.3c-.058.046,0,.2,0,.3v.6c0,.837-.012,1.944,0,2.4.012.139.032.242.3.3.058.012.183-.012.3,0l.3.3a.44.44,0,0,1,0,.3h-.6c-.244-.012-.55,0-.9,0-.407,0-.667-.012-.9,0a1.287,1.287,0,0,0-.3,0Z" transform="translate(-71.946 -67.081)" fill="#fff" fill-rule="evenodd"/>
        <g id="Group_5" data-name="Group 5">
          <path id="Path_79" data-name="Path 79" d="M24.7,33.827h-.3s-.027-2.523-.9-2.7c-.581-.674.005-28.514,2.1,0,0,0-.771.283-.9.9a7.262,7.262,0,0,0,0,1.8Z" transform="translate(-20.196 -15.843)" fill="#fff" fill-rule="evenodd"/>
          <path id="Path_80" data-name="Path 80" d="M24.7,33.827h-.3s-.027-2.523-.9-2.7c-.581-.674.005-28.514,2.1,0,0,0-.771.283-.9.9a7.262,7.262,0,0,0,0,1.8Z" transform="translate(-20.196 -15.843)" fill="#fff" fill-rule="evenodd"/>
          <path id="Path_81" data-name="Path 81" d="M32.136,16.249a8.28,8.28,0,0,0,3.3-8.393c-.942-4.151-3.353-5.472-3.6-5.995a1.97,1.97,0,0,1-.3-.9v11.39c0,.012-.319,3.466.6,3.9" transform="translate(-27.33 -0.662)" fill="#fff" fill-rule="evenodd"/>
          <path id="Path_82" data-name="Path 82" d="M32.136,16.249a8.28,8.28,0,0,0,3.3-8.393c-.942-4.151-3.353-5.472-3.6-5.995a1.97,1.97,0,0,1-.3-.9v11.39c0,.012-.319,3.466.6,3.9" transform="translate(-27.33 -0.662)" fill="#fff" fill-rule="evenodd"/>
          <path id="Path_83" data-name="Path 83" d="M3.412,15.634S-.717,12.85-.484,8.141A10.041,10.041,0,0,1,3.113.647c.349-.372.576-.527.6-.9.244.523-.035,7.832,0,8.693a33.078,33.078,0,0,1-.3,7.194Z" transform="translate(0.494 0.252)" fill="#fff" fill-rule="evenodd"/>
          <path id="Path_84" data-name="Path 84" d="M3.412,15.634S-.717,12.85-.484,8.141A10.041,10.041,0,0,1,3.113.647c.349-.372.576-.527.6-.9.244.523-.035,7.832,0,8.693a33.078,33.078,0,0,1-.3,7.194Z" transform="translate(0.494 0.252)" fill="#fff" fill-rule="evenodd"/>
        </g>
      </g>
    </g>
  </g>
</svg>
