<svg xmlns="http://www.w3.org/2000/svg" width="85" height="38" viewBox="0 0 85 38">
  <g id="mysql" transform="translate(0.058 -0.138)">
    <rect id="box" width="85" height="38" rx="10" transform="translate(-0.058 0.138)" fill="#09546b"/>
    <g id="mysql-2" data-name="mysql" transform="translate(29.347 7.005)">
      <path id="Path_212" data-name="Path 212" d="M24.052,20.113a9.261,9.261,0,0,0-3.6.3c-.268.107-.564.26-.6.6.143.143.175.4.3.6a3.314,3.314,0,0,0,.9.9c.375.286.806.649,1.2.9.7.429,1.419.77,2.1,1.2.394.25.806.631,1.2.9a2.1,2.1,0,0,0,.6.3h0c-.125-.161-.175-.421-.3-.6l-.6-.6a8.171,8.171,0,0,0-1.8-1.8c-.572-.393-1.866-.837-2.1-1.5h0a6.916,6.916,0,0,0,1.2-.3c.608-.161,1.173-.139,1.8-.3.286-.072.613-.21.9-.3h0c-.322-.322-.559-.895-.9-1.2a23.626,23.626,0,0,0-3-2.1c-.554-.358-1.208-.6-1.8-.9-.214-.107-.774-.121-.9-.3a7.935,7.935,0,0,1-.6-1.5c-.518-.984-1.052-1.96-1.5-3a19.967,19.967,0,0,0-.9-2.1A18.486,18.486,0,0,0,8.765,2.428a9.417,9.417,0,0,0-2.4-.6c-.447-.018-.752.018-1.2,0a7.864,7.864,0,0,1-.9-.6C3.25.585.524-.913-.228.929c-.483,1.162.788,2.407,1.2,3a7.228,7.228,0,0,1,.9,1.2c.125.3.175.577.3.9a21.355,21.355,0,0,0,.9,2.4,9.376,9.376,0,0,0,.6,1.2c.143.2.546.278.6.6-.25.358-.157,1.052-.3,1.5a7.872,7.872,0,0,0,.3,5.995c.286.447,1.186,1.275,2.1.9.8-.322.367-1.2.6-2.1a1.885,1.885,0,0,1,.3-.6h0c.25.5.367,1,.6,1.5a10.527,10.527,0,0,0,2.4,2.4c.429.322.663,1,1.2,1.2v-.3h0a1.2,1.2,0,0,0-.3-.3,7.114,7.114,0,0,1-.9-.9,24,24,0,0,1-2.1-3.3c-.286-.554-.367-1.244-.6-1.8-.107-.215-.121-.492-.3-.6a6.772,6.772,0,0,0-.9,1.2,9.979,9.979,0,0,0-.6,2.7c-.071.018.036-.036,0,0-.572-.143-.685-.7-.9-1.2a7.794,7.794,0,0,1-.3-4.8c.125-.376.514-1.441.3-1.8a3.434,3.434,0,0,0-.6-.9,7.5,7.5,0,0,1-.6-1.2c-.429-1-.734-2-1.2-3a10.72,10.72,0,0,0-.9-1.5,6.776,6.776,0,0,1-.9-1.2,1.2,1.2,0,0,1,0-.9.423.423,0,0,1,.3-.3c.232-.2.967.192,1.2.3a6.942,6.942,0,0,1,1.5.9,3.434,3.434,0,0,0,.9.6h.3c.572.125,1.262.139,1.8.3a12.34,12.34,0,0,1,2.7,1.2,15.819,15.819,0,0,1,5.7,5.995c.215.411.1.77.3,1.2.376.876.824,1.839,1.2,2.7a12.6,12.6,0,0,0,1.5,2.4c.268.375,1.316.4,1.8.6a12.483,12.483,0,0,1,1.2.6c.608.375,1.226.788,1.8,1.2.286.214,1.145.841,1.2,1.2Z" transform="translate(0.335 -0.042)" fill="#fff"/>
      <path id="Path_213" data-name="Path 213" d="M51.455,43.214a5.009,5.009,0,0,0-.9,0h.3a7.869,7.869,0,0,0,.6.9l.3.6h0c.251-.179.3-.47.3-.9-.107-.125.089-.175,0-.3-.107-.179-.456-.157-.6-.3Z" transform="translate(-45.352 -38.731)" fill="#fff"/>
    </g>
  </g>
</svg>
