<svg xmlns="http://www.w3.org/2000/svg" width="121" height="56" viewBox="0 0 121 56">
  <g id="mysql" transform="translate(0.056 -0.361)">
    <rect id="box" width="121" height="56" rx="10" transform="translate(-0.056 0.361)" fill="#09546b"/>
    <g id="mysql-2" data-name="mysql" transform="translate(41.458 10.078)">
      <path id="Path_212" data-name="Path 212" d="M34.859,29.006c-2.065-.051-3.849-.135-5.191.433-.387.155-.814.375-.865.865.207.207.252.581.433.865a4.782,4.782,0,0,0,1.3,1.3c.542.413,1.163.936,1.73,1.3,1.007.619,2.047,1.111,3.028,1.73.568.361,1.163.911,1.73,1.3a3.025,3.025,0,0,0,.865.433h0c-.181-.232-.252-.607-.433-.865l-.865-.865a11.792,11.792,0,0,0-2.6-2.6c-.826-.568-2.693-1.208-3.028-2.163h0A9.981,9.981,0,0,0,32.7,30.3c.877-.232,1.692-.2,2.6-.433.413-.1.885-.3,1.3-.433h0c-.464-.465-.807-1.292-1.3-1.73a34.1,34.1,0,0,0-4.326-3.028c-.8-.516-1.744-.859-2.6-1.3-.31-.155-1.117-.175-1.3-.433a11.452,11.452,0,0,1-.865-2.163c-.748-1.42-1.518-2.829-2.163-4.326a28.814,28.814,0,0,0-1.3-3.028A26.678,26.678,0,0,0,12.8,3.485a13.59,13.59,0,0,0-3.461-.865c-.645-.026-1.085.026-1.73,0a11.349,11.349,0,0,1-1.3-.865C4.838.825.9-1.336-.18,1.322-.877,3,.957,4.8,1.551,5.647a10.431,10.431,0,0,1,1.3,1.73c.181.438.252.833.433,1.3a30.818,30.818,0,0,0,1.3,3.461,13.53,13.53,0,0,0,.865,1.73c.206.284.788.4.865.865-.361.516-.226,1.518-.433,2.163-.929,2.916-.883,6.51.433,8.651.413.645,1.712,1.84,3.028,1.3,1.161-.464.53-1.738.865-3.028a2.72,2.72,0,0,1,.433-.865h0c.361.723.53,1.44.865,2.163a15.191,15.191,0,0,0,3.461,3.461c.62.464.956,1.446,1.73,1.73v-.433h0a1.724,1.724,0,0,0-.433-.433,10.266,10.266,0,0,1-1.3-1.3,34.63,34.63,0,0,1-3.028-4.758c-.413-.8-.53-1.8-.865-2.6-.155-.31-.175-.71-.433-.865a9.772,9.772,0,0,0-1.3,1.73,14.4,14.4,0,0,0-.865,3.893c-.1.026.052-.052,0,0-.826-.207-.988-1.008-1.3-1.73a11.247,11.247,0,0,1-.433-6.921c.181-.542.742-2.079.433-2.6A4.955,4.955,0,0,0,6.309,13a10.824,10.824,0,0,1-.865-1.73c-.619-1.445-1.059-2.88-1.73-4.326a15.471,15.471,0,0,0-1.3-2.163,9.779,9.779,0,0,1-1.3-1.73,1.737,1.737,0,0,1,0-1.3.611.611,0,0,1,.433-.433c.335-.284,1.395.278,1.73.433a10.018,10.018,0,0,1,2.163,1.3,4.955,4.955,0,0,0,1.3.865h.433C8,4.1,9,4.118,9.769,4.35a17.808,17.808,0,0,1,3.893,1.73,22.828,22.828,0,0,1,8.219,8.651c.31.593.149,1.111.433,1.73.542,1.265,1.188,2.654,1.73,3.893a18.178,18.178,0,0,0,2.163,3.461c.387.542,1.9.581,2.6.865a18.014,18.014,0,0,1,1.73.865c.877.542,1.77,1.137,2.6,1.73.413.31,1.653,1.214,1.73,1.73Z" transform="translate(0.335 -0.042)" fill="#fff"/>
      <path id="Path_213" data-name="Path 213" d="M51.853,43.225a7.228,7.228,0,0,0-1.3,0h.433a11.356,11.356,0,0,0,.865,1.3l.433.865h0c.362-.258.433-.678.433-1.3-.155-.181.129-.252,0-.433-.155-.258-.659-.226-.865-.433Z" transform="translate(-43.046 -36.754)" fill="#fff"/>
    </g>
  </g>
</svg>
