<svg xmlns="http://www.w3.org/2000/svg" width="281" height="128" viewBox="0 0 281 128">
  <g id="netlify" transform="translate(-232 -163)">
    <rect id="box" width="281" height="128" rx="10" transform="translate(232 163)" fill="#4d9abf"/>
    <g id="netlify-2" data-name="netlify" transform="translate(322 176.985)">
      <path id="Path_201" data-name="Path 201" d="M72,35.015h0c-.021-.008.018.018,0,0a4.437,4.437,0,0,1,0-1l2-12,10,10-10,4c-.027.011.029,0,0,0h0c-.013-.008.026.026,0,0A8.55,8.55,0,0,0,72,35.015Zm14-1,10,10c2.1,2.1,3.616,2.784,4,4,.057.18-.037.815,0,1l-24-10h0c-.1-.039,0,.1,0,0s-.1-.961,0-1h0Zm14,18c-.522.981-2.277,2.276-4,4l-11,11-15-3h0c-.131-.021,0,.117,0,0a4.6,4.6,0,0,0-2-3c-.06-.06-.018.086,0,0,0-.013-.005.01,0,0l3-17h0c.016-.13-.118-1,0-1,1.2-.149,2.264-.04,3-1,.024-.026-.031.016,0,0,.084-.039-.086-.037,0,0l26,10Zm-18,18-18,19,3-20h0c0-.026-.008.023,0,0,.026-.063-.065.026,0,0h0a7.6,7.6,0,0,0,2-2c.063-.073-.1.013,0,0,.025,0-.025,0,0,0l13,3Zm-22,23-3,2-23-34c-.008-.012.009.012,0,0-.037-.05-.008.057,0,0,0-.042-.029.031,0,0h0c.071-.1-.065-.888,0-1h0c.037-.063-.063.034,0,0a8.531,8.531,0,0,1,1,0l26,5c.072.011-.058.955,0,1,.034.034-.008-.042,0,0,.366,1.384.675,2.453,2,3,.073.037.034-.086,0,0-.017.038.009-.04,0,0C62.674,71,60.752,88.411,60,93.015Zm-5,4c-1.559,1.542-1.961,2.671-3,3a8.36,8.36,0,0,1-4,0c-1.217-.386-1.9-1.9-4-4l-23-23,6-10c.029-.047-.047.034,0,0,.065-.047-.078-.026,0,0a5.58,5.58,0,0,0,4,0,4.42,4.42,0,0,1,1,0c.027.025-.021-.03,0,0l23,34Zm-37-26-5-6,11-4c.027-.012-.03,0,0,0,.089,0-.047-.081,0,0,.107.164-.119-.156,0,0h0c.031.044.031-.042,0,0l-6,10Zm-7-8-7-7c-1.159-1.158-2.415-2.277-3-3l21,5h0c.128.021,0-.12,0,0s.131-.05,0,0h0Zm-11-13a12.273,12.273,0,0,1,0-2c.386-1.216,1.9-1.9,4-4l8-9c4.016,5.822,8.963,12.193,13,18,.071.094.081-.078,0,0-.381.42-.731.5-1,1-.029.064-.944.958-1,1-.034.021.039.008,0,0h0l-23-5Zm15-17,12-12c1.1.483,4.412,2.487,8,4,2.716,1.148,5.222,2.661,6,3,.078.031-.034-.078,0,0,.021.047.01-.05,0,0-.377,1.718.77,3.741,2,5,.078.078.068-.1,0,0h0l-12,18c-.031.052.052-.034,0,0a5.818,5.818,0,0,1-1,0c-.463-.121-.521.007-1,0a3.885,3.885,0,0,0-1,0h0c-.052.008.042.031,0,0s-.968.05-1,0Zm14-14,15-15c2.1-2.1,2.783-3.617,4-4a8.36,8.36,0,0,1,4,0c1.217.383,1.9,1.9,4,4l3,3-11,17c-.027.049.044-.034,0,0-.065.044.078.026,0,0a5.467,5.467,0,0,0-5,1c-.071.073.089.039,0,0C41.59,24.4,30.569,19.68,29,19.015Zm33-10,10,10-3,15h0c0,.034.012-.032,0,0-.026.052.052-.016,0,0-.514.155-.566.684-1,1-.019.013.016-.016,0,0-.029.031-.953-.005-1,0s.036.013,0,0l-15-6h0c-.1-.039,0,.1,0,0a8.98,8.98,0,0,0-1-3c-.073-.12-.063.123,0,0Zm-11,23,15,6c.078.037-.034-.081,0,0,.014.049.014-.049,0,0a7.981,7.981,0,0,0,0,1h0c0,.1-.906-.039-1,0h0c-2.256.963-30.956,14-31,14s.044.044,0,0c-.078-.078-.071.1,0,0,.012-.017-.012-.982,0-1l11-18h0c.068-.11.875,0,1,0h0a9.13,9.13,0,0,0,1,0,4.3,4.3,0,0,0,4-2c.024-.039-.035.03,0,0C51.07,31.963,50.919,31.978,51,32.015Zm-16,24,32-14h0c.175.175.856.89,1,1h0c.065.037-.005-.068,0,0,0,.026.005-.023,0,0l-3,17h0c-.018.13.123,0,0,0a5.075,5.075,0,0,0-4,2h0c-.037.06.06-.031,0,0s.057.013,0,0l-26-5C34.974,57.01,35.029,56.017,35,56.015Z" transform="translate(0 0)" fill="#fff"/>
    </g>
  </g>
</svg>
