<svg xmlns="http://www.w3.org/2000/svg" width="121" height="54" viewBox="0 0 121 54">
  <g id="netlify" transform="translate(0 -0.492)">
    <rect id="box" width="121" height="54" rx="10" transform="translate(0 0.492)" fill="#4d9abf"/>
    <g id="netlify-2" data-name="netlify" transform="translate(38.908 5.386)">
      <path id="Path_201" data-name="Path 201" d="M31.115,15.017h0c-.009,0,.008.008,0,0a1.919,1.919,0,0,1,0-.433l.865-5.191,4.326,4.326L31.98,15.45c-.012,0,.013,0,0,0h0c-.006,0,.011.011,0,0A3.7,3.7,0,0,0,31.115,15.017Zm6.056-.433L41.5,18.91c.909.909,1.564,1.2,1.73,1.73.025.078-.016.352,0,.433L32.845,16.747h0c-.042-.017,0,.043,0,0s-.042-.416,0-.433h0Zm6.056,7.786A13.808,13.808,0,0,1,41.5,24.1l-4.758,4.758-6.489-1.3h0c-.056-.009,0,.051,0,0a1.988,1.988,0,0,0-.865-1.3c-.026-.026-.008.037,0,0,0-.006,0,0,0,0l1.3-7.354h0c.007-.056-.051-.433,0-.433.52-.065.979-.017,1.3-.433.01-.011-.014.007,0,0,.036-.017-.037-.016,0,0l11.247,4.326ZM35.44,30.157l-7.786,8.219,1.3-8.651h0c0-.011,0,.01,0,0,.011-.027-.028.011,0,0h0a3.287,3.287,0,0,0,.865-.865c.027-.032-.042.006,0,0,.011,0-.011,0,0,0l5.623,1.3Zm-9.517,9.949-1.3.865L14.677,26.264h0c-.016-.021,0,.025,0,0s-.012.014,0,0h0c.03-.045-.028-.384,0-.433h0c.016-.027-.027.015,0,0a3.691,3.691,0,0,1,.433,0l11.247,2.163c.031,0-.025.413,0,.433s0-.018,0,0c.158.6.292,1.061.865,1.3.032.016.015-.037,0,0-.007.016,0-.017,0,0C27.08,30.582,26.249,38.115,25.924,40.106Zm-2.163,1.73c-.674.667-.848,1.156-1.3,1.3a3.616,3.616,0,0,1-1.73,0c-.526-.167-.821-.821-1.73-1.73L9.053,31.455l2.6-4.326c.012-.02-.02.015,0,0s-.034-.011,0,0a2.414,2.414,0,0,0,1.73,0,1.912,1.912,0,0,1,.433,0c.012.011-.009-.013,0,0l9.949,14.707ZM7.756,30.59l-2.163-2.6,4.758-1.73c.012-.005-.013,0,0,0,.038,0-.02-.035,0,0,.046.071-.052-.067,0,0h0c.014.019.014-.018,0,0l-2.6,4.326ZM4.728,27.129,1.7,24.1c-.5-.5-1.045-.985-1.3-1.3l9.084,2.163h0c.055.009,0-.052,0,0s.056-.021,0,0h0ZM-.031,21.506a5.309,5.309,0,0,1,0-.865c.167-.526.82-.821,1.73-1.73L5.16,15.017C6.9,17.535,9.037,20.292,10.784,22.8c.03.041.035-.034,0,0-.165.182-.316.217-.433.433-.013.028-.408.414-.433.433s.017,0,0,0h0L-.031,21.506Zm6.489-7.354,5.191-5.191c.477.209,1.909,1.076,3.461,1.73,1.175.5,2.259,1.151,2.6,1.3.034.014-.015-.034,0,0s0-.021,0,0a2.649,2.649,0,0,0,.865,2.163c.034.034.029-.042,0,0h0l-5.191,7.786c-.014.023.023-.015,0,0a2.517,2.517,0,0,1-.433,0c-.2-.052-.225,0-.433,0a1.681,1.681,0,0,0-.433,0h0c-.023,0,.018.014,0,0s-.419.022-.433,0ZM12.514,8.1,19,1.607c.909-.908,1.2-1.564,1.73-1.73a3.616,3.616,0,0,1,1.73,0c.526.166.821.822,1.73,1.73l1.3,1.3-4.758,7.354c-.012.021.019-.015,0,0s.034.011,0,0a2.365,2.365,0,0,0-2.163.433c-.03.032.038.017,0,0C17.96,10.426,13.193,8.384,12.514,8.1ZM26.789,3.77,31.115,8.1l-1.3,6.489h0c0,.015.005-.014,0,0s.023-.007,0,0c-.222.067-.245.3-.433.433-.008.006.007-.007,0,0s-.412,0-.433,0,.016.006,0,0l-6.489-2.6h0c-.042-.017,0,.043,0,0a3.884,3.884,0,0,0-.433-1.3c-.032-.052-.027.053,0,0Zm-4.758,9.949,6.489,2.6c.034.016-.015-.035,0,0s.006-.021,0,0a3.452,3.452,0,0,0,0,.433h0c0,.043-.392-.017-.433,0h0c-.976.416-13.391,6.056-13.41,6.056s.019.019,0,0-.03.043,0,0c.005-.007-.005-.425,0-.433l4.758-7.786h0c.029-.047.378,0,.433,0h0a3.949,3.949,0,0,0,.433,0,1.861,1.861,0,0,0,1.73-.865c.01-.017-.015.013,0,0C22.061,13.7,22,13.7,22.031,13.719ZM15.109,24.1l13.842-6.056h0c.076.076.37.385.433.433h0c.028.016,0-.029,0,0,0,.011,0-.01,0,0l-1.3,7.354h0c-.008.056.053,0,0,0a2.2,2.2,0,0,0-1.73.865h0c-.016.026.026-.014,0,0s.025.006,0,0L15.109,24.534C15.1,24.531,15.122,24.1,15.109,24.1Z" transform="translate(0.054 0.228)" fill="#fff"/>
    </g>
  </g>
</svg>
