<svg xmlns="http://www.w3.org/2000/svg" width="84" height="38" viewBox="0 0 84 38">
  <g id="netlify" transform="translate(0 -0.073)">
    <rect id="box" width="84" height="38" rx="10" transform="translate(0 0.073)" fill="#4d9abf"/>
    <g id="netlify-2" data-name="netlify" transform="translate(26.961 4.399)">
      <path id="Path_201" data-name="Path 201" d="M21.544,10.336h0c-.006,0,.005.005,0,0a1.33,1.33,0,0,1,0-.3l.6-3.6,3,3-3,1.2c-.008,0,.009,0,0,0h0s.008.008,0,0A2.563,2.563,0,0,0,21.544,10.336Zm4.2-.3,3,3c.63.63,1.084.835,1.2,1.2.017.054-.011.244,0,.3l-7.194-3h0c-.029-.012,0,.03,0,0s-.029-.288,0-.3h0Zm4.2,5.4a9.568,9.568,0,0,1-1.2,1.2l-3.3,3.3-4.5-.9h0c-.039-.006,0,.035,0,0a1.377,1.377,0,0,0-.6-.9c-.018-.018-.005.026,0,0,0,0,0,0,0,0l.9-5.1h0c0-.039-.035-.3,0-.3.36-.045.679-.012.9-.3.007-.008-.009,0,0,0,.025-.012-.026-.011,0,0l7.793,3Zm-5.4,5.4-5.4,5.7.9-5.995h0c0-.008,0,.007,0,0s-.02.008,0,0h0a2.277,2.277,0,0,0,.6-.6c.019-.022-.029,0,0,0,.008,0-.008,0,0,0l3.9.9Zm-6.594,6.894-.9.6L10.154,18.129h0c-.011-.015,0,.017,0,0s-.009.009,0,0h0c.021-.031-.02-.266,0-.3h0c.011-.019-.019.01,0,0a2.557,2.557,0,0,1,.3,0l7.793,1.5c.022,0-.017.286,0,.3s0-.013,0,0c.11.415.2.735.6.9.022.011.01-.026,0,0s0-.012,0,0C18.748,21.122,18.172,26.341,17.947,27.721Zm-1.5,1.2c-.467.462-.588.8-.9.9a2.506,2.506,0,0,1-1.2,0c-.365-.116-.569-.569-1.2-1.2L6.257,21.726l1.8-3c.009-.014-.014.01,0,0s-.023-.008,0,0a1.673,1.673,0,0,0,1.2,0,1.325,1.325,0,0,1,.3,0c.008.007-.006-.009,0,0L16.448,28.92ZM5.358,21.127l-1.5-1.8,3.3-1.2c.008,0-.009,0,0,0,.027,0-.014-.024,0,0,.032.049-.036-.047,0,0h0c.009.013.009-.013,0,0l-1.8,3Zm-2.1-2.4-2.1-2.1c-.348-.347-.724-.683-.9-.9l6.295,1.5h0c.038.006,0-.036,0,0s.039-.015,0,0h0Zm-3.3-3.9a3.679,3.679,0,0,1,0-.6c.116-.364.568-.569,1.2-1.2l2.4-2.7c1.2,1.745,2.686,3.655,3.9,5.4.021.028.024-.023,0,0-.114.126-.219.15-.3.3-.009.019-.283.287-.3.3s.012,0,0,0h0l-6.894-1.5Zm4.5-5.1,3.6-3.6c.33.145,1.323.746,2.4,1.2.814.344,1.565.8,1.8.9.023.009-.01-.023,0,0s0-.015,0,0a1.836,1.836,0,0,0,.6,1.5c.023.023.02-.029,0,0h0l-3.6,5.4c-.009.016.016-.01,0,0a1.744,1.744,0,0,1-.3,0c-.139-.036-.156,0-.3,0a1.164,1.164,0,0,0-.3,0h0c-.016,0,.013.009,0,0s-.29.015-.3,0Zm4.2-4.2,4.5-4.5c.63-.629.834-1.084,1.2-1.2a2.506,2.506,0,0,1,1.2,0c.365.115.569.57,1.2,1.2l.9.9-3.3,5.1c-.008.015.013-.01,0,0s.023.008,0,0a1.639,1.639,0,0,0-1.5.3c-.021.022.027.012,0,0C12.429,7.155,9.125,5.739,8.655,5.54Zm9.892-3,3,3-.9,4.5h0c0,.01,0-.01,0,0s.016,0,0,0c-.154.047-.17.205-.3.3-.006,0,0,0,0,0s-.286,0-.3,0,.011,0,0,0l-4.5-1.8h0c-.029-.012,0,.03,0,0a2.692,2.692,0,0,0-.3-.9c-.022-.036-.019.037,0,0Zm-3.3,6.894,4.5,1.8c.023.011-.01-.024,0,0s0-.015,0,0a2.392,2.392,0,0,0,0,.3h0c0,.03-.272-.012-.3,0h0c-.676.289-9.279,4.2-9.292,4.2s.013.013,0,0-.021.03,0,0c0-.005,0-.294,0-.3l3.3-5.4h0c.02-.033.262,0,.3,0h0a2.736,2.736,0,0,0,.3,0,1.29,1.29,0,0,0,1.2-.6c.007-.012-.011.009,0,0S15.225,9.426,15.249,9.437Zm-4.8,7.194,9.592-4.2h0c.052.052.257.267.3.3h0c.02.011,0-.02,0,0s0-.007,0,0l-.9,5.1h0c-.005.039.037,0,0,0a1.521,1.521,0,0,0-1.2.6h0c-.011.018.018-.009,0,0s.017,0,0,0l-7.793-1.5C10.446,16.929,10.462,16.632,10.453,16.631Z" transform="translate(0.054 0.228)" fill="#fff"/>
    </g>
  </g>
</svg>
