<svg xmlns="http://www.w3.org/2000/svg" width="281" height="128" viewBox="0 0 281 128">
  <g id="new-relic" transform="translate(-224 -159)">
    <g id="box" transform="translate(224 159)" fill="#fff" stroke="#707070" stroke-width="1">
      <rect width="281" height="128" rx="10" stroke="none"/>
      <rect x="0.5" y="0.5" width="280" height="127" rx="9.5" fill="none"/>
    </g>
    <g id="new-relic-2" data-name="new-relic" transform="translate(304.004 174.769)">
      <path id="Path_262" data-name="Path 262" d="M58.336,80.4A32.718,32.718,0,1,1,91.053,47.68,32.717,32.717,0,0,1,58.336,80.4Zm60.809-44.786C113.564,9.952,82.788-5.145,50.4,1.9S-3.711,35.452,1.87,61.115s36.357,40.76,68.742,33.719,54.113-33.556,48.534-59.217Z" transform="translate(0 0)" fill="#37808c"/>
      <path id="Path_263" data-name="Path 263" d="M85.222,87.752a32.166,32.166,0,1,1,32.164-32.169A32.165,32.165,0,0,1,85.222,87.752Zm8.15-72.686a41.843,41.843,0,1,0,41.845,41.843A41.846,41.846,0,0,0,93.371,15.067Z" transform="translate(-27.038 -7.972)" fill="#9bd3cd"/>
      <g id="Group_19" data-name="Group 19" transform="translate(36.995 28.568)">
        <path id="Path_264" data-name="Path 264" d="M11.949,15.919,8.44,8.561A46.946,46.946,0,0,1,6.447,3.919l-.068.068c.113,1.313.136,2.966.159,4.347l.09,7.584H4.071V.252H7.013l3.8,7.652a28.541,28.541,0,0,1,1.607,4.03l.068-.068c-.068-.792-.226-3.034-.226-4.46L12.221.252h2.468V15.919H11.949" transform="translate(-2.376 -0.252)" fill="#1b1a19"/>
        <path id="Path_265" data-name="Path 265" d="M35.982,10.6c-1.4,0-2.173,1.109-2.173,2.966h4.234c0-1.856-.815-2.966-2.06-2.966Zm-2.2,4.8v.181c0,1.585.589,3.26,2.83,3.26a4.222,4.222,0,0,0,2.853-1.132l.974,1.517a6.188,6.188,0,0,1-4.12,1.517c-3.238,0-5.275-2.332-5.275-6a6.248,6.248,0,0,1,1.426-4.483,4.357,4.357,0,0,1,3.509-1.54A4.424,4.424,0,0,1,39.129,9.9c1,.906,1.494,2.309,1.494,4.981V15.4Z" transform="translate(-16.809 -4.785)" fill="#1b1a19"/>
        <path id="Path_266" data-name="Path 266" d="M66.19,20.6H63.858l-1.4-5.275c-.362-1.358-.747-3.124-.747-3.124h-.045s-.181,1.132-.747,3.238L59.533,20.6H57.2L54.077,9.259l2.468-.34,1.245,5.547c.317,1.426.589,3.011.589,3.011h.068A31.072,31.072,0,0,1,59.1,14.4l1.472-5.3H63.02l1.29,5.162c.475,1.856.725,3.26.725,3.26H65.1s.272-1.743.566-3.079L66.846,9.1h2.581L66.19,20.6" transform="translate(-29.133 -4.889)" fill="#1b1a19"/>
        <path id="Path_267" data-name="Path 267" d="M4.409,45.73H2.983v4.958H4.319c1.358,0,2.083-.181,2.558-.657a2.638,2.638,0,0,0,.7-1.9c0-1.585-.86-2.4-3.17-2.4ZM8.032,59.292,6.674,56.869A17.277,17.277,0,0,0,4,53a1.328,1.328,0,0,0-1.019-.475v6.769H.425V43.625H5.2c3.509,0,5.094,2.038,5.094,4.483,0,2.242-1.449,4.3-3.894,4.3a11.874,11.874,0,0,1,2.422,3.124l2.309,3.758Z" transform="translate(-0.425 -23.459)" fill="#1b1a19"/>
        <path id="Path_268" data-name="Path 268" d="M29.852,53.977c-1.4,0-2.173,1.11-2.173,2.966h4.234c0-1.856-.815-2.966-2.06-2.966Zm-2.2,4.8v.181c0,1.585.589,3.26,2.83,3.26a4.223,4.223,0,0,0,2.853-1.132l.973,1.517a6.188,6.188,0,0,1-4.12,1.517c-3.238,0-5.275-2.332-5.275-6a6.247,6.247,0,0,1,1.427-4.483,4.356,4.356,0,0,1,3.509-1.54A4.425,4.425,0,0,1,33,53.275c1,.906,1.494,2.309,1.494,4.981v.521Z" transform="translate(-13.53 -27.993)" fill="#1b1a19"/>
        <path id="Path_269" data-name="Path 269" d="M52.392,58.394c-2.513,0-2.513-2.264-2.513-3.238V45.4a18.553,18.553,0,0,0-.227-3.351l2.558-.566a13.849,13.849,0,0,1,.2,3.147v9.713c0,1.54.068,1.788.249,2.06a.7.7,0,0,0,.815.181l.407,1.539a3.9,3.9,0,0,1-1.494.272" transform="translate(-26.765 -22.313)" fill="#1b1a19"/>
        <path id="Path_270" data-name="Path 270" d="M61.75,58.354V47.079l2.513-.453V58.354ZM62.995,45.2a1.624,1.624,0,0,1-1.608-1.653A1.641,1.641,0,1,1,62.995,45.2Z" transform="translate(-33.044 -22.521)" fill="#1b1a19"/>
        <path id="Path_271" data-name="Path 271" d="M77.308,64.093c-3.124,0-4.868-2.2-4.868-5.887,0-4.166,2.49-6.158,5.049-6.158a4.172,4.172,0,0,1,3.169,1.245l-1.245,1.653a2.815,2.815,0,0,0-1.924-.883,1.947,1.947,0,0,0-1.811,1.155,7.745,7.745,0,0,0-.475,3.192,4.612,4.612,0,0,0,.77,3.124,2.013,2.013,0,0,0,1.517.657A3.3,3.3,0,0,0,79.8,61.06l1.177,1.517a4.77,4.77,0,0,1-3.668,1.517" transform="translate(-38.958 -27.966)" fill="#1b1a19"/>
        <path id="Path_272" data-name="Path 272" d="M93.573,71.686a.757.757,0,0,0-.212-.027h-.136v.511h.127c.163,0,.235-.018.285-.063a.267.267,0,0,0,.072-.19.222.222,0,0,0-.136-.231Zm.2,1.555c-.072-.126-.1-.176-.176-.312-.185-.339-.244-.434-.312-.461a.125.125,0,0,0-.059-.014v.786h-.37V71.356h.7a.523.523,0,0,1,.556.551.484.484,0,0,1-.42.52.431.431,0,0,1,.077.081c.108.136.452.732.452.732Zm-.33-2.278a1.353,1.353,0,1,0,1.293,1.347,1.313,1.313,0,0,0-1.293-1.347Zm0,3.028a1.681,1.681,0,1,1,1.673-1.681,1.674,1.674,0,0,1-1.673,1.681Z" transform="translate(-49.3 -37.908)" fill="#1b1a19"/>
      </g>
    </g>
  </g>
</svg>
