<svg xmlns="http://www.w3.org/2000/svg" width="84" height="39" viewBox="0 0 84 39">
  <g id="new-relic" transform="translate(-0.011 -0.372)">
    <g id="box" transform="translate(0.011 0.372)" fill="#fff" stroke="#707070" stroke-width="1">
      <rect width="84" height="39" rx="10" stroke="none"/>
      <rect x="0.5" y="0.5" width="83" height="38" rx="9.5" fill="none"/>
    </g>
    <g id="new-relic-2" data-name="new-relic" transform="translate(23.509 5.781)">
      <path id="Path_262" data-name="Path 262" d="M18.184,24.217a9.807,9.807,0,1,1,9.807-9.808,9.807,9.807,0,0,1-9.807,9.808ZM36.411,10.793C34.738,3.1,25.513-1.425,15.806.686S-.415,10.744,1.258,18.436s10.9,12.218,20.605,10.107,16.22-10.058,14.548-17.75Z" transform="translate(-0.996 -0.167)" fill="#37808c"/>
      <path id="Path_263" data-name="Path 263" d="M61.627,36.854a9.642,9.642,0,1,1,9.641-9.643,9.641,9.641,0,0,1-9.641,9.643ZM64.07,15.067A12.542,12.542,0,1,0,76.613,27.609,12.543,12.543,0,0,0,64.07,15.067Z" transform="translate(-44.485 -12.99)" fill="#9bd3cd"/>
      <g id="Group_19" data-name="Group 19" transform="translate(10.791 8.513)">
        <path id="Path_264" data-name="Path 264" d="M6.432,4.948,5.38,2.742a14.072,14.072,0,0,1-.6-1.391l-.02.02c.034.394.041.889.048,1.3l.027,2.273H4.071V.252h.882l1.14,2.294a8.555,8.555,0,0,1,.482,1.208l.02-.02c-.02-.238-.068-.909-.068-1.337L6.514.252h.74v4.7H6.432" transform="translate(-3.562 -0.252)" fill="#1b1a19"/>
        <path id="Path_265" data-name="Path 265" d="M32.526,9.288c-.421,0-.651.333-.651.889h1.269c0-.556-.244-.889-.618-.889Zm-.658,1.439v.054c0,.475.176.977.848.977a1.266,1.266,0,0,0,.855-.339l.292.455a1.855,1.855,0,0,1-1.235.455,1.584,1.584,0,0,1-1.581-1.8,1.873,1.873,0,0,1,.428-1.344,1.306,1.306,0,0,1,1.052-.461,1.326,1.326,0,0,1,.943.353,1.861,1.861,0,0,1,.448,1.493v.156Z" transform="translate(-26.779 -7.544)" fill="#1b1a19"/>
        <path id="Path_266" data-name="Path 266" d="M57.708,12.421h-.7l-.421-1.581c-.109-.407-.224-.936-.224-.936h-.014s-.054.339-.224.97l-.414,1.547h-.7l-.936-3.4.74-.1.373,1.663c.095.427.176.9.176.9h.02a9.314,9.314,0,0,1,.2-.923l.441-1.588h.733l.387,1.547c.143.556.217.977.217.977h.02s.081-.523.17-.923l.353-1.6h.774l-.97,3.447" transform="translate(-46.6 -7.711)" fill="#1b1a19"/>
        <path id="Path_267" data-name="Path 267" d="M1.619,44.256H1.192v1.486h.4a1.022,1.022,0,0,0,.767-.2.791.791,0,0,0,.21-.57c0-.475-.258-.719-.95-.719Zm1.086,4.065L2.3,47.595a5.179,5.179,0,0,0-.8-1.16.4.4,0,0,0-.305-.142v2.029H.425v-4.7H1.857c1.052,0,1.527.611,1.527,1.344a1.2,1.2,0,0,1-1.167,1.289,3.559,3.559,0,0,1,.726.936l.692,1.127Z" transform="translate(-0.425 -37.58)" fill="#1b1a19"/>
        <path id="Path_268" data-name="Path 268" d="M26.4,52.661c-.421,0-.651.333-.651.889h1.269c0-.556-.244-.889-.618-.889ZM25.738,54.1v.054c0,.475.176.977.848.977a1.266,1.266,0,0,0,.855-.339l.292.455A1.855,1.855,0,0,1,26.5,55.7a1.584,1.584,0,0,1-1.581-1.8,1.873,1.873,0,0,1,.428-1.344A1.306,1.306,0,0,1,26.4,52.1a1.326,1.326,0,0,1,.943.353,1.862,1.862,0,0,1,.448,1.493V54.1Z" transform="translate(-21.504 -44.872)" fill="#1b1a19"/>
        <path id="Path_269" data-name="Path 269" d="M50.474,46.551c-.753,0-.753-.679-.753-.97V42.656a5.561,5.561,0,0,0-.068-1l.767-.17a4.151,4.151,0,0,1,.061.943v2.911c0,.461.02.536.075.618a.21.21,0,0,0,.244.054l.122.461a1.169,1.169,0,0,1-.448.082" transform="translate(-42.792 -35.736)" fill="#1b1a19"/>
        <path id="Path_270" data-name="Path 270" d="M61.5,46.812v-3.38l.753-.136v3.515Zm.373-3.943a.487.487,0,0,1-.482-.5.492.492,0,1,1,.482.5Z" transform="translate(-52.891 -36.071)" fill="#1b1a19"/>
        <path id="Path_271" data-name="Path 271" d="M73.9,55.659c-.937,0-1.459-.658-1.459-1.764,0-1.249.747-1.846,1.513-1.846a1.251,1.251,0,0,1,.95.373l-.373.5a.844.844,0,0,0-.577-.265.584.584,0,0,0-.543.346,2.321,2.321,0,0,0-.142.957,1.382,1.382,0,0,0,.231.937.6.6,0,0,0,.455.2.989.989,0,0,0,.692-.339L75,55.2a1.43,1.43,0,0,1-1.1.455" transform="translate(-62.404 -44.83)" fill="#1b1a19"/>
        <path id="Path_272" data-name="Path 272" d="M92.31,70.945a.227.227,0,0,0-.064-.008h-.041v.153h.038c.049,0,.07-.005.085-.019a.08.08,0,0,0,.022-.057.066.066,0,0,0-.041-.069Zm.06.466c-.022-.038-.031-.053-.053-.093-.056-.1-.073-.13-.093-.138a.038.038,0,0,0-.018,0v.236H92.1v-.565h.21a.157.157,0,0,1,.167.165.145.145,0,0,1-.126.156.129.129,0,0,1,.023.024c.032.041.135.219.135.219Zm-.1-.683a.406.406,0,1,0,.388.4.393.393,0,0,0-.388-.4Zm0,.908a.5.5,0,1,1,.5-.5.5.5,0,0,1-.5.5Z" transform="translate(-79.04 -60.82)" fill="#1b1a19"/>
      </g>
    </g>
  </g>
</svg>
