<svg xmlns="http://www.w3.org/2000/svg" width="122" height="56" viewBox="0 0 122 56">
  <g id="new-relic" transform="translate(-0.434 -0.351)">
    <g id="box" transform="translate(0.434 0.35)" fill="#fff" stroke="#707070" stroke-width="1">
      <rect width="122" height="56" rx="10" stroke="none"/>
      <rect x="0.5" y="0.5" width="121" height="55" rx="9.5" fill="none"/>
    </g>
    <g id="new-relic-2" data-name="new-relic" transform="translate(35.327 7.875)">
      <path id="Path_262" data-name="Path 262" d="M25.8,34.875A14.153,14.153,0,1,1,39.952,20.72,14.153,14.153,0,0,1,25.8,34.875ZM52.1,15.5C49.69,4.4,36.377-2.131,22.368.916S-1.04,15.431,1.374,26.531,17.1,44.163,31.11,41.117,54.518,26.6,52.1,15.5Z" transform="translate(-0.996 -0.167)" fill="#37808c"/>
      <path id="Path_263" data-name="Path 263" d="M66.1,46.508A13.914,13.914,0,1,1,80.016,32.593,13.914,13.914,0,0,1,66.1,46.508Zm3.525-31.442a18.1,18.1,0,1,0,18.1,18.1,18.1,18.1,0,0,0-18.1-18.1Z" transform="translate(-41.365 -12.07)" fill="#9bd3cd"/>
      <g id="Group_19" data-name="Group 19" transform="translate(15.572 12.285)">
        <path id="Path_264" data-name="Path 264" d="M7.479,7.029,5.961,3.846A20.307,20.307,0,0,1,5.1,1.838l-.029.029c.049.568.059,1.283.069,1.88l.039,3.281H4.071V.252H5.344l1.645,3.31a12.346,12.346,0,0,1,.7,1.743l.029-.029c-.029-.343-.1-1.312-.1-1.929L7.6.252H8.664V7.029H7.479" transform="translate(-3.337 -0.252)" fill="#1b1a19"/>
        <path id="Path_265" data-name="Path 265" d="M33.181,9.537c-.607,0-.94.48-.94,1.283h1.831c0-.8-.353-1.283-.891-1.283Zm-.95,2.076v.078c0,.686.255,1.41,1.224,1.41a1.826,1.826,0,0,0,1.234-.49l.421.656a2.677,2.677,0,0,1-1.782.656c-1.4,0-2.282-1.009-2.282-2.6a2.7,2.7,0,0,1,.617-1.939,1.885,1.885,0,0,1,1.518-.666,1.914,1.914,0,0,1,1.361.509,2.686,2.686,0,0,1,.646,2.155v.225Z" transform="translate(-24.888 -7.02)" fill="#1b1a19"/>
        <path id="Path_266" data-name="Path 266" d="M59.317,13.973H58.308L57.7,11.691c-.157-.588-.323-1.351-.323-1.351h-.02s-.078.49-.323,1.4l-.6,2.233H55.429L54.077,9.066l1.067-.147.539,2.4c.137.617.255,1.3.255,1.3h.029a13.441,13.441,0,0,1,.284-1.332L56.888,9h1.058l.558,2.233c.206.8.313,1.41.313,1.41h.029s.117-.754.245-1.332L59.6,9h1.116l-1.4,4.975" transform="translate(-43.287 -7.176)" fill="#1b1a19"/>
        <path id="Path_267" data-name="Path 267" d="M2.148,44.536H1.531V46.68h.578A1.475,1.475,0,0,0,3.216,46.4a1.141,1.141,0,0,0,.3-.823c0-.686-.372-1.038-1.371-1.038ZM3.715,50.4l-.588-1.048a7.474,7.474,0,0,0-1.156-1.675.574.574,0,0,0-.441-.206V50.4H.425V43.625H2.491c1.518,0,2.2.881,2.2,1.939A1.733,1.733,0,0,1,3.01,47.425a5.136,5.136,0,0,1,1.048,1.351l1,1.626Z" transform="translate(-0.425 -34.902)" fill="#1b1a19"/>
        <path id="Path_268" data-name="Path 268" d="M27.052,52.91c-.607,0-.94.48-.94,1.283h1.831c0-.8-.353-1.283-.891-1.283Zm-.95,2.076v.078c0,.686.255,1.41,1.224,1.41a1.827,1.827,0,0,0,1.234-.49l.421.656A2.677,2.677,0,0,1,27.2,57.3c-1.4,0-2.282-1.009-2.282-2.6a2.7,2.7,0,0,1,.617-1.939,1.884,1.884,0,0,1,1.518-.666,1.914,1.914,0,0,1,1.361.509,2.687,2.687,0,0,1,.646,2.155v.225Z" transform="translate(-19.991 -41.67)" fill="#1b1a19"/>
        <path id="Path_269" data-name="Path 269" d="M50.838,48.8c-1.087,0-1.087-.979-1.087-1.4V43.176a8.026,8.026,0,0,0-.1-1.449l1.107-.245a5.99,5.99,0,0,1,.088,1.361v4.2c0,.666.029.774.108.891a.3.3,0,0,0,.353.078l.176.666a1.687,1.687,0,0,1-.646.118" transform="translate(-39.752 -33.19)" fill="#1b1a19"/>
        <path id="Path_270" data-name="Path 270" d="M61.544,49V44.124l1.087-.2V49Zm.539-5.69a.7.7,0,0,1-.7-.715.71.71,0,1,1,.7.715Z" transform="translate(-49.127 -33.501)" fill="#1b1a19"/>
        <path id="Path_271" data-name="Path 271" d="M74.546,57.259c-1.351,0-2.106-.95-2.106-2.546,0-1.8,1.077-2.664,2.184-2.664A1.8,1.8,0,0,1,76,52.587l-.539.715a1.218,1.218,0,0,0-.832-.382.842.842,0,0,0-.784.5,3.35,3.35,0,0,0-.206,1.381,2,2,0,0,0,.333,1.352.871.871,0,0,0,.656.284,1.428,1.428,0,0,0,1-.49l.509.656a2.064,2.064,0,0,1-1.587.656" transform="translate(-57.957 -41.631)" fill="#1b1a19"/>
        <path id="Path_272" data-name="Path 272" d="M92.55,71.086a.327.327,0,0,0-.092-.012H92.4v.221h.055c.07,0,.1-.008.123-.027a.115.115,0,0,0,.031-.082.1.1,0,0,0-.059-.1Zm.086.673c-.031-.055-.045-.076-.076-.135-.08-.147-.106-.188-.135-.2a.054.054,0,0,0-.025-.006v.34h-.16v-.815h.3a.226.226,0,0,1,.24.239.209.209,0,0,1-.182.225.187.187,0,0,1,.033.035c.047.059.2.317.2.317Zm-.143-.985a.585.585,0,1,0,.559.583.568.568,0,0,0-.559-.583Zm0,1.31a.727.727,0,1,1,.724-.727.724.724,0,0,1-.724.727Z" transform="translate(-73.399 -56.474)" fill="#1b1a19"/>
      </g>
    </g>
  </g>
</svg>
