<svg xmlns="http://www.w3.org/2000/svg" width="121" height="54" viewBox="0 0 121 54">
  <g id="nextjs" transform="translate(0 -0.47)">
    <rect id="box" width="121" height="54" rx="10" transform="translate(0 0.47)"/>
    <g id="nextjs-2" data-name="nextjs" transform="translate(24.224 5.365)">
      <path id="Path_170" data-name="Path 170" d="M17.3,11.363h13.41v.865H18.6v8.219H30.28v1.3H18.6v9.084H31.145v.865H17.3Zm14.707,0h1.73l6.489,9.084,6.489-9.084L55.8-.317,41.094,21.312l7.354,10.382h-1.3l-6.921-9.517-6.921,9.517h-1.73l7.786-10.382Zm16.87.865v-.865H64.886v.865H57.532V31.694h-1.3V12.228ZM0,11.363H1.73L23.359,43.806,14.275,31.694,1.3,12.661V31.694H0ZM64.453,30.4a.433.433,0,1,1,.433-.433A.411.411,0,0,1,64.453,30.4Zm1.3-1.3h.865c.009.365.041.865.433.865a.881.881,0,0,0,.865-.865V26.07h.433V29.1a1.143,1.143,0,0,1-1.3,1.3A1.225,1.225,0,0,1,65.751,29.1Zm3.893,0h.433a1.367,1.367,0,0,0,1.3.865.87.87,0,0,0,.865-.865c0-.337-.28-.295-.865-.433l-.865-.433c-.8-.187-.865-.648-.865-1.3,0-.788.766-1.3,1.73-1.3a1.2,1.2,0,0,1,1.3,1.3h-.433c-.064-.408-.783-.433-1.3-.433-.542,0-.865.034-.865.433a1.011,1.011,0,0,0,.865.865h.433c.906.212,1.3.632,1.3,1.3,0,.846-.683,1.3-1.73,1.3C69.962,30.4,69.693,29.889,69.644,29.1Z" transform="translate(0 0.317)" fill="#fff"/>
    </g>
  </g>
</svg>
