<svg xmlns="http://www.w3.org/2000/svg" width="84" height="38" viewBox="0 0 84 38">
  <g id="nextjs" transform="translate(0 -0.008)">
    <rect id="box" width="84" height="38" rx="10" transform="translate(0 0.008)"/>
    <g id="nextjs-2" data-name="nextjs" transform="translate(16.786 3.75)">
      <path id="Path_170" data-name="Path 170" d="M11.99,7.777h9.292v.6H12.889v5.7h8.093v.9H12.889v6.295h8.693v.6H11.99Zm10.191,0h1.2l4.5,6.295,4.5-6.295L38.667-.317,28.476,14.671l5.1,7.194h-.9l-4.8-6.594-4.8,6.594h-1.2l5.4-7.194Zm11.69.6v-.6H44.962v.6h-5.1V21.865h-.9V8.376ZM0,7.777H1.2L16.186,30.258,9.892,21.865.9,8.676V21.865H0ZM44.662,20.965a.3.3,0,1,1,.3-.3A.285.285,0,0,1,44.662,20.965Zm.9-.9h.6c.006.253.028.6.3.6a.61.61,0,0,0,.6-.6v-2.1h.3v2.1a.792.792,0,0,1-.9.9A.849.849,0,0,1,45.562,20.066Zm2.7,0h.3a.947.947,0,0,0,.9.6.6.6,0,0,0,.6-.6c0-.234-.194-.2-.6-.3l-.6-.3c-.554-.13-.6-.449-.6-.9,0-.546.531-.9,1.2-.9a.833.833,0,0,1,.9.9h-.3c-.045-.283-.543-.3-.9-.3-.376,0-.6.024-.6.3a.7.7,0,0,0,.6.6h.3c.628.147.9.438.9.9,0,.586-.473.9-1.2.9C48.479,20.965,48.293,20.614,48.259,20.066Z" transform="translate(0 0.317)" fill="#fff"/>
    </g>
  </g>
</svg>
