<svg xmlns="http://www.w3.org/2000/svg" width="281" height="128" viewBox="0 0 281 128">
  <g id="nextjs" transform="translate(-232 -163)">
    <rect id="box" width="281" height="128" rx="10" transform="translate(232 163)"/>
    <g id="nextjs-2" data-name="nextjs" transform="translate(288 176.317)">
      <path id="Path_170" data-name="Path 170" d="M40,26.683H71v2H43v19H70v3H43v21H72v2H40Zm34,0h4l15,21,15-21,21-27-34,50,17,24h-3l-16-22-16,22H73l18-24Zm39,2v-2h37v2H133v45h-3v-45Zm-113-2H4l50,75-21-28-30-44v44H0Zm149,44a1,1,0,1,1,1-1A.95.95,0,0,1,149,70.683Zm3-3h2c.021.844.094,2,1,2a2.036,2.036,0,0,0,2-2v-7h1v7c0,2.056-1.032,3-3,3A2.831,2.831,0,0,1,152,67.683Zm9,0h1c.135.971,1.634,2,3,2a2.012,2.012,0,0,0,2-2c0-.78-.648-.681-2-1l-2-1c-1.848-.432-2-1.5-2-3,0-1.822,1.77-3,4-3,2.074,0,2.908,1.277,3,3h-1c-.149-.943-1.811-1-3-1-1.253,0-2,.078-2,1a2.337,2.337,0,0,0,2,2h1c2.1.489,3,1.462,3,3,0,1.957-1.579,3-4,3C161.735,70.683,161.113,69.512,161,67.683Z" fill="#fff"/>
    </g>
  </g>
</svg>
