<svg xmlns="http://www.w3.org/2000/svg" width="85" height="37" viewBox="0 0 85 37">
  <g id="nginx" transform="translate(0.087 -0.37)">
    <rect id="box" width="85" height="37" rx="10" transform="translate(-0.087 0.37)" fill="#179900"/>
    <g id="nginx-2" data-name="nginx" transform="translate(15.257 12.762)">
      <path id="Path_33" data-name="Path 33" d="M10.507,11.492a1.28,1.28,0,0,1-.9-.3L2.713,4v6.295a1.2,1.2,0,0,1-2.4,0V1.3A1.225,1.225,0,0,1,.915.1a1.552,1.552,0,0,1,1.5.3L9.308,7.6V1.3a1.2,1.2,0,1,1,2.4,0v8.992a1.226,1.226,0,0,1-.6,1.2,1.975,1.975,0,0,1-.6,0" transform="translate(-0.315 -0.021)" fill="#fff"/>
      <path id="Path_34" data-name="Path 34" d="M121.143.363l-.3.6-2.7,4.5-.3.6.3.6,2.7,4.5.3.6h6.594l.3-.6,1.8-3.9.9-1.8h-6.594a1.237,1.237,0,0,0-1.2,1.2,1.237,1.237,0,0,0,1.2,1.2h2.7l-.6,1.5h-3.9l-1.8-3.3,1.8-3.3h4.2l.9,1.8h2.4l-1.5-3.6-.3-.6h-6.894" transform="translate(-105.257 -0.282)" fill="#fff"/>
      <path id="Path_35" data-name="Path 35" d="M250.4.274a1.251,1.251,0,0,0-1.2,1.2v3h2.4v-3a1.226,1.226,0,0,0-1.2-1.2" transform="translate(-222.527 -0.193)" fill="#fff"/>
      <path id="Path_36" data-name="Path 36" d="M286.2,11.631a1.975,1.975,0,0,1-.6,0,1.226,1.226,0,0,1-.6-1.2V1.44a1.2,1.2,0,1,1,2.4,0V7.734L294.294.54a1.553,1.553,0,0,1,1.5-.3,1.226,1.226,0,0,1,.6,1.2v8.992a1.2,1.2,0,1,1-2.4,0V4.437L287.1,11.331a1.281,1.281,0,0,1-.9.3" transform="translate(-254.428 -0.159)" fill="#fff"/>
      <path id="Path_37" data-name="Path 37" d="M412.135,5.991l3.9-3.6a1.333,1.333,0,0,0,0-1.8,1.333,1.333,0,0,0-1.8,0l-3.6,3.6-3.9-3.6a.979.979,0,0,0-1.5,0,1.333,1.333,0,0,0,0,1.8l3.6,3.6-3.6,3.6a1.332,1.332,0,0,0,0,1.8,1.267,1.267,0,0,0,.9.3c.3,0,.367-.068.6-.3l3.9-3.6,3.6,3.6a1.5,1.5,0,0,0,1.8,0,1.333,1.333,0,0,0,0-1.8l-3.9-3.6" transform="translate(-361.477 -0.214)" fill="#fff"/>
      <path id="Path_38" data-name="Path 38" d="M250.4,55.126a1.251,1.251,0,0,1-1.2-1.2v-5.1h2.4v5.1a1.227,1.227,0,0,1-1.2,1.2" transform="translate(-222.527 -43.654)" fill="#fff"/>
    </g>
  </g>
</svg>
