<svg xmlns="http://www.w3.org/2000/svg" width="281" height="128" viewBox="0 0 281 128">
  <g id="nginx" transform="translate(-232 -163)">
    <rect id="box" width="281" height="128" rx="10" transform="translate(232 163)" fill="#179900"/>
    <g id="nginx-2" data-name="nginx" transform="translate(280.685 207.726)">
      <path id="Path_33" data-name="Path 33" d="M34.315,38.292a4.271,4.271,0,0,1-3-1l-23-24v21a4,4,0,0,1-8,0v-30c0-1.609.515-3.385,2-4a5.179,5.179,0,0,1,5,1l23,24v-21a4,4,0,0,1,8,0v30c0,1.608-.515,3.385-2,4a6.588,6.588,0,0,1-2,0" transform="translate(0 -0.018)" fill="#fff"/>
      <path id="Path_34" data-name="Path 34" d="M128.846.363l-1,2-9,15-1,2,1,2,9,15,1,2h22l1-2,6-13,3-6h-22a4.127,4.127,0,0,0-4,4,4.126,4.126,0,0,0,4,4h9l-2,5h-13l-6-11,6-11h14l3,6h8l-5-12-1-2h-23" transform="translate(-75.531 -0.089)" fill="#fff"/>
      <path id="Path_35" data-name="Path 35" d="M253.205.274a4.173,4.173,0,0,0-4,4v10h8v-10a4.091,4.091,0,0,0-4-4" transform="translate(-159.89 0)" fill="#fff"/>
      <path id="Path_36" data-name="Path 36" d="M289,38.43a6.588,6.588,0,0,1-2,0c-1.485-.615-2-2.392-2-4v-30a4,4,0,0,1,8,0v21l23-24a5.182,5.182,0,0,1,5-1c1.485.615,2,2.392,2,4v30a4,4,0,0,1-8,0v-20l-23,23a4.274,4.274,0,0,1-3,1" transform="translate(-182.687 -0.156)" fill="#fff"/>
      <path id="Path_37" data-name="Path 37" d="M429.056,19.411l13-12a4.446,4.446,0,0,0,0-6,4.448,4.448,0,0,0-6,0l-12,12-13-12a3.266,3.266,0,0,0-5,0,4.448,4.448,0,0,0,0,6l12,12-12,12a4.444,4.444,0,0,0,0,6,4.227,4.227,0,0,0,3,1c1.015,0,1.224-.226,2-1l13-12,12,12a5,5,0,0,0,6,0,4.448,4.448,0,0,0,0-6l-13-12" transform="translate(-259.741 -0.136)" fill="#fff"/>
      <path id="Path_38" data-name="Path 38" d="M253.205,69.831a4.173,4.173,0,0,1-4-4v-17h8v17a4.093,4.093,0,0,1-4,4" transform="translate(-159.89 -31.557)" fill="#fff"/>
    </g>
  </g>
</svg>
