<svg xmlns="http://www.w3.org/2000/svg" width="121" height="56" viewBox="0 0 121 56">
  <g id="nginx" transform="translate(-0.378 -0.448)">
    <rect id="box" width="121" height="56" rx="10" transform="translate(0.378 0.448)" fill="#179900"/>
    <g id="nginx-2" data-name="nginx" transform="translate(21.14 19.692)">
      <path id="Path_33" data-name="Path 33" d="M15.023,16.576a1.848,1.848,0,0,1-1.3-.433L3.776,5.761v9.084a1.73,1.73,0,1,1-3.461,0V1.868A1.768,1.768,0,0,1,1.181.138,2.24,2.24,0,0,1,3.343.57l9.949,10.382V1.868a1.73,1.73,0,1,1,3.461,0V14.845a1.769,1.769,0,0,1-.865,1.73,2.85,2.85,0,0,1-.865,0" transform="translate(-0.315 -0.021)" fill="#fff"/>
      <path id="Path_34" data-name="Path 34" d="M122.6.363l-.433.865-3.893,6.489-.433.865.433.865,3.893,6.489.433.865h9.517l.433-.865,2.6-5.623,1.3-2.6H126.93a1.785,1.785,0,0,0-1.73,1.73,1.785,1.785,0,0,0,1.73,1.73h3.893l-.865,2.163h-5.623l-2.6-4.758,2.6-4.758h6.056l1.3,2.6h3.461l-2.163-5.191-.433-.865H122.6" transform="translate(-99.678 -0.246)" fill="#fff"/>
      <path id="Path_35" data-name="Path 35" d="M250.935.274A1.805,1.805,0,0,0,249.2,2V6.33h3.461V2a1.77,1.77,0,0,0-1.73-1.73" transform="translate(-210.706 -0.157)" fill="#fff"/>
      <path id="Path_36" data-name="Path 36" d="M286.732,16.714a2.85,2.85,0,0,1-.865,0,1.769,1.769,0,0,1-.865-1.73V2.007a1.73,1.73,0,0,1,3.461,0v9.084L298.412.709a2.241,2.241,0,0,1,2.163-.433,1.769,1.769,0,0,1,.865,1.73V14.984a1.73,1.73,0,0,1-3.461,0V6.333l-9.949,9.949a1.849,1.849,0,0,1-1.3.433" transform="translate(-240.88 -0.159)" fill="#fff"/>
      <path id="Path_37" data-name="Path 37" d="M415.344,8.536l5.623-5.191a1.923,1.923,0,0,0,0-2.6,1.924,1.924,0,0,0-2.6,0l-5.191,5.191L407.558.75a1.413,1.413,0,0,0-2.163,0,1.924,1.924,0,0,0,0,2.6l5.191,5.191L405.4,13.727a1.923,1.923,0,0,0,0,2.6,1.829,1.829,0,0,0,1.3.433c.439,0,.529-.1.865-.433l5.623-5.191,5.191,5.191a2.163,2.163,0,0,0,2.6,0,1.924,1.924,0,0,0,0-2.6l-5.623-5.191" transform="translate(-342.24 -0.2)" fill="#fff"/>
      <path id="Path_38" data-name="Path 38" d="M250.935,57.915a1.805,1.805,0,0,1-1.73-1.73V48.831h3.461v7.354a1.771,1.771,0,0,1-1.73,1.73" transform="translate(-210.706 -41.36)" fill="#fff"/>
    </g>
  </g>
</svg>
