<svg xmlns="http://www.w3.org/2000/svg" width="121" height="54" viewBox="0 0 121 54">
  <g id="nodejs" transform="translate(0.056 -0.47)">
    <rect id="box" width="121" height="54" rx="10" transform="translate(-0.056 0.47)" fill="#539e43"/>
    <g id="nodejs-icon" transform="translate(41.181 5.809)">
      <path id="Path_199" data-name="Path 199" d="M19.466,43.737a3.688,3.688,0,0,1-1.73-.433l-5.191-3.028c-.8-.441-.673-.352-.433-.433a12.06,12.06,0,0,0,2.6-1.3.419.419,0,0,1,.433,0l3.893,2.6a.417.417,0,0,0,.433,0l16.005-9.517c.16-.08.433-.232.433-.433V13.024c0-.2-.272-.352-.433-.433L19.466,3.075a.417.417,0,0,0-.433,0L3.028,12.592c-.16.08,0,.272,0,.433V31.192c0,.16-.16.352,0,.433l4.326,2.6c2.366,1.2,3.893.106,3.893-1.3v-18.6a.407.407,0,0,1,.433-.433h2.163a.407.407,0,0,1,.433.433v18.6c0,3.169-1.75,4.758-4.758,4.758a5.733,5.733,0,0,1-3.461-.865L1.73,34.22A3.593,3.593,0,0,1,0,31.192V13.024A3.593,3.593,0,0,1,1.73,10L17.735.912a3.765,3.765,0,0,1,3.461,0L37.2,10a3.593,3.593,0,0,1,1.73,3.028V31.192A3.593,3.593,0,0,1,37.2,34.22L21.2,43.737c-.521.241-1.169,0-1.73,0Zm4.758-12.545c-7.019,0-8.219-3.329-8.219-6.056a.407.407,0,0,1,.433-.433H18.6a.43.43,0,0,1,.433.433c.321,2.126.939,3.028,5.191,3.028,3.369,0,4.758-.358,4.758-2.163,0-1.043-.369-2.074-5.623-2.6-4.372-.441-6.921-1.269-6.921-4.758,0-3.249,2.781-5.191,7.354-5.191,5.134,0,7.465,1.773,7.786,5.623,0,.12.08.312,0,.433-.08.08-.312,0-.433,0H28.982c-.2,0-.392-.232-.433-.433-.481-2.206-1.469-3.028-4.758-3.028-3.69,0-4.326,1.633-4.326,2.6,0,1.163.65,1.521,5.623,2.163,4.933.642,7.354,1.309,7.354,4.758-.04,3.53-3.125,5.623-8.219,5.623Z" transform="translate(0 -0.491)" fill="#fff"/>
    </g>
  </g>
</svg>
