<svg xmlns="http://www.w3.org/2000/svg" width="281" height="128" viewBox="0 0 281 128">
  <g id="nodejs" transform="translate(-232 -163)">
    <rect id="box" width="281" height="128" rx="10" transform="translate(232 163)" fill="#539e43"/>
    <g id="nodejs-icon" transform="translate(328 176.535)">
      <path id="Path_199" data-name="Path 199" d="M45,100.465a8.526,8.526,0,0,1-4-1l-12-7c-1.854-1.02-1.556-.815-1-1a27.879,27.879,0,0,0,6-3,.968.968,0,0,1,1,0l9,6a.965.965,0,0,0,1,0l37-22c.371-.185,1-.536,1-1v-42c0-.464-.629-.815-1-1l-37-22a.965.965,0,0,0-1,0l-37,22c-.371.185,0,.629,0,1v42c0,.371-.371.815,0,1l10,6c5.471,2.782,9,.245,9-3v-43a.941.941,0,0,1,1-1h5a.941.941,0,0,1,1,1v43c0,7.325-4.046,11-11,11-2.133,0-3.271.318-8-2l-10-6a8.307,8.307,0,0,1-4-7v-42a8.307,8.307,0,0,1,4-7l37-21a8.7,8.7,0,0,1,8,0l37,21a8.307,8.307,0,0,1,4,7v42a8.307,8.307,0,0,1-4,7l-37,22c-1.205.556-2.7,0-4,0Zm11-29c-16.226,0-19-7.695-19-14a.941.941,0,0,1,1-1h5a1,1,0,0,1,1,1c.742,4.914,2.171,7,12,7,7.789,0,11-.827,11-5,0-2.411-.853-4.795-13-6-10.107-1.02-16-2.933-16-11,0-7.511,6.43-12,17-12,11.868,0,17.258,4.1,18,13,0,.278.185.722,0,1-.185.185-.722,0-1,0H67c-.464,0-.907-.536-1-1-1.113-5.1-3.4-7-11-7-8.53,0-10,3.775-10,6,0,2.689,1.5,3.516,13,5,11.4,1.484,17,3.026,17,11-.093,8.16-7.224,13-19,13Z" transform="translate(0 0)" fill="#fff"/>
    </g>
  </g>
</svg>
