<svg xmlns="http://www.w3.org/2000/svg" width="85" height="38" viewBox="0 0 85 38">
  <g id="nodejs" transform="translate(0.058 -0.008)">
    <rect id="box" width="85" height="38" rx="10" transform="translate(-0.058 0.008)" fill="#539e43"/>
    <g id="nodejs-icon" transform="translate(29.155 4.057)">
      <path id="Path_199" data-name="Path 199" d="M13.489,30.458a2.556,2.556,0,0,1-1.2-.3l-3.6-2.1c-.556-.306-.467-.244-.3-.3a8.357,8.357,0,0,0,1.8-.9.29.29,0,0,1,.3,0l2.7,1.8a.289.289,0,0,0,.3,0l11.091-6.594c.111-.056.3-.161.3-.3V9.176c0-.139-.189-.244-.3-.3L13.489,2.282a.289.289,0,0,0-.3,0L2.1,8.876c-.111.056,0,.189,0,.3V21.765c0,.111-.111.244,0,.3l3,1.8c1.64.834,2.7.074,2.7-.9V10.075a.282.282,0,0,1,.3-.3h1.5a.282.282,0,0,1,.3.3V22.964a2.962,2.962,0,0,1-3.3,3.3,3.973,3.973,0,0,1-2.4-.6l-3-1.8a2.49,2.49,0,0,1-1.2-2.1V9.176a2.49,2.49,0,0,1,1.2-2.1L12.29.783a2.609,2.609,0,0,1,2.4,0L25.778,7.078a2.49,2.49,0,0,1,1.2,2.1V21.765a2.49,2.49,0,0,1-1.2,2.1L14.688,30.458c-.361.167-.81,0-1.2,0Zm3.3-8.693c-4.864,0-5.7-2.307-5.7-4.2a.282.282,0,0,1,.3-.3h1.5a.3.3,0,0,1,.3.3c.222,1.473.651,2.1,3.6,2.1,2.335,0,3.3-.248,3.3-1.5,0-.723-.256-1.437-3.9-1.8-3.029-.306-4.8-.879-4.8-3.3,0-2.251,1.927-3.6,5.1-3.6,3.558,0,5.173,1.229,5.4,3.9,0,.083.056.216,0,.3-.056.056-.216,0-.3,0h-1.5c-.139,0-.272-.161-.3-.3-.334-1.529-1.018-2.1-3.3-2.1-2.557,0-3,1.131-3,1.8,0,.806.45,1.054,3.9,1.5,3.419.445,5.1.907,5.1,3.3-.028,2.446-2.165,3.9-5.7,3.9Z" transform="translate(0 -0.491)" fill="#fff"/>
    </g>
  </g>
</svg>
