<svg xmlns="http://www.w3.org/2000/svg" width="121" height="54" viewBox="0 0 121 54">
  <g id="npm" transform="translate(-0.378 -0.492)">
    <rect id="box" width="121" height="54" rx="10" transform="translate(0.378 0.492)" fill="#cb3837"/>
    <g id="npm-2" data-name="npm" transform="translate(22.87 16.169)">
      <path id="Path_85" data-name="Path 85" d="M0-.28V25.241H21.2v4.326h16.87V25.241H76.133V-.28Z" transform="translate(0 0.28)" fill="#cb3837"/>
      <path id="Path_86" data-name="Path 86" d="M22.71,14.21H14.491v16.87H22.71V18.536h4.326V31.081h4.326V14.21Z" transform="translate(-10.165 -9.885)" fill="#fff"/>
      <path id="Path_87" data-name="Path 87" d="M85.79,14.21v21.2h8.219V31.081h8.651V14.21ZM98.334,26.755H94.008V18.536h4.326v8.219Z" transform="translate(-60.268 -9.885)" fill="#fff"/>
      <path id="Path_88" data-name="Path 88" d="M165.307,14.21h-8.219v16.87h8.219V18.536h4.326V31.081h4.326V18.536h3.893V31.081h4.326V14.21Z" transform="translate(-110.371 -9.885)" fill="#fff"/>
    </g>
  </g>
</svg>
