<svg xmlns="http://www.w3.org/2000/svg" width="85" height="38" viewBox="0 0 85 38">
  <g id="npm" transform="translate(0.087 -0.499)">
    <rect id="box" width="85" height="38" rx="10" transform="translate(-0.087 0.499)" fill="#cb3837"/>
    <g id="npm-2" data-name="npm" transform="translate(16.456 11.59)">
      <path id="Path_85" data-name="Path 85" d="M0-.28V17.4H14.688v3h11.69v-3H52.755V-.28Z" transform="translate(0 0.28)" fill="#cb3837"/>
      <path id="Path_86" data-name="Path 86" d="M20.186,14.21h-5.7V25.9h5.7V17.208h3V25.9h3V14.21Z" transform="translate(-11.493 -11.213)" fill="#fff"/>
      <path id="Path_87" data-name="Path 87" d="M85.79,14.21V28.9h5.7v-3H97.48V14.21ZM94.482,22.9h-3v-5.7h3v5.7Z" transform="translate(-68.104 -11.213)" fill="#fff"/>
      <path id="Path_88" data-name="Path 88" d="M162.784,14.21h-5.7V25.9h5.7V17.208h3V25.9h3V17.208h2.7V25.9h3V14.21Z" transform="translate(-124.716 -11.213)" fill="#fff"/>
    </g>
  </g>
</svg>
