<svg xmlns="http://www.w3.org/2000/svg" width="121" height="56" viewBox="0 0 121 56">
  <g id="nuxt" transform="translate(0 -0.437)">
    <rect id="box" width="121" height="56" rx="10" transform="translate(0 0.437)" fill="#2f495e"/>
    <g id="nuxt-icon" transform="translate(36.418 9.865)">
      <g id="Group_7" data-name="Group 7" transform="translate(0 0)">
        <path id="Path_89" data-name="Path 89" d="M14.815,34.585c-.036-.064.028.068,0,0a3.66,3.66,0,0,1,0-1.73H3.135l17.3-29.847,5.623,9.949,1.3-3.028L22.6,1.277a3.533,3.533,0,0,0-2.6-1.73c-.644,0-1.412.412-2.163,1.73L.54,31.99a2.6,2.6,0,0,0,0,2.6,2.8,2.8,0,0,0,2.6,1.3H17.41A2.8,2.8,0,0,1,14.815,34.585Z" transform="translate(-0.189 0.453)" fill="#fff" fill-rule="evenodd"/>
        <path id="Path_90" data-name="Path 90" d="M164.4,55.21,150.123,30.121c-.147-.264-.733-1.73-2.163-1.73-.644,0-1.412.412-2.163,1.73l-2.163,3.028,1.73,3.028,2.6-4.758,14.275,24.657h-5.623a2.71,2.71,0,0,1,0,1.3c-.03.086.044.353,0,.433h0a3.094,3.094,0,0,1-2.6,1.3h8.219a3.089,3.089,0,0,0,2.6-1.3C165.15,57.247,165.163,56.518,164.4,55.21Z" transform="translate(-116.464 -22.767)" fill="#fff" fill-rule="evenodd"/>
        <path id="Path_91" data-name="Path 91" d="M102.1,78.233h0c.044-.079-.03-.347,0-.433a2.709,2.709,0,0,0,0-1.3c-.079-.441-.2-.481-.433-.865L90.857,56.6l-1.73-3.028-1.3,3.028L77.014,75.637c-.209.389-.367.428-.433.865a3.665,3.665,0,0,0,0,1.73c.028.068-.036-.064,0,0a2.8,2.8,0,0,0,2.6,1.3H99.508a3.079,3.079,0,0,0,2.6-1.3ZM89.126,59.2l9.949,17.3H79.61Z" transform="translate(-61.956 -43.194)" fill="#fff" fill-rule="evenodd"/>
      </g>
    </g>
  </g>
</svg>
