<svg xmlns="http://www.w3.org/2000/svg" width="84" height="40" viewBox="0 0 84 40">
  <g id="nuxt" transform="translate(0 0.436)">
    <rect id="box" width="84" height="40" rx="10" transform="translate(0 -0.436)" fill="#2f495e"/>
    <g id="nuxt-icon" transform="translate(25.235 7.216)">
      <g id="Group_7" data-name="Group 7" transform="translate(0 0)">
        <path id="Path_89" data-name="Path 89" d="M10.324,23.827c-.025-.044.019.047,0,0a2.536,2.536,0,0,1,0-1.2H2.23L14.22,1.945l3.9,6.894.9-2.1L15.719.746a2.448,2.448,0,0,0-1.8-1.2c-.446,0-.979.285-1.5,1.2L.432,22.028a1.8,1.8,0,0,0,0,1.8,1.942,1.942,0,0,0,1.8.9h9.892A1.937,1.937,0,0,1,10.324,23.827Z" transform="translate(-0.189 0.453)" fill="#fff" fill-rule="evenodd"/>
        <path id="Path_90" data-name="Path 90" d="M158.022,46.975,148.13,29.589c-.1-.183-.508-1.2-1.5-1.2-.446,0-.979.285-1.5,1.2l-1.5,2.1,1.2,2.1,1.8-3.3,9.892,17.086h-3.9a1.878,1.878,0,0,1,0,.9c-.021.06.031.245,0,.3h0a2.144,2.144,0,0,1-1.8.9h5.7a2.14,2.14,0,0,0,1.8-.9C158.543,48.387,158.553,47.881,158.022,46.975Z" transform="translate(-124.807 -24.494)" fill="#fff" fill-rule="evenodd"/>
        <path id="Path_91" data-name="Path 91" d="M94.234,70.662h0c.031-.055-.021-.24,0-.3a1.877,1.877,0,0,0,0-.9c-.055-.305-.141-.333-.3-.6L86.441,55.674l-1.2-2.1-.9,2.1L76.849,68.863c-.145.269-.254.3-.3.6a2.539,2.539,0,0,0,0,1.2c.019.047-.025-.044,0,0a1.942,1.942,0,0,0,1.8.9H92.436a2.133,2.133,0,0,0,1.8-.9ZM85.242,57.473l6.894,11.99H78.647Z" transform="translate(-66.414 -46.382)" fill="#fff" fill-rule="evenodd"/>
      </g>
    </g>
  </g>
</svg>
