<svg xmlns="http://www.w3.org/2000/svg" width="121" height="56" viewBox="0 0 121 56">
  <g id="prometheus" transform="translate(-0.378 -0.427)">
    <rect id="box" width="121" height="56" rx="10" transform="translate(0.378 0.426)" fill="#da4e31"/>
    <g id="prometheus-2" data-name="prometheus" transform="translate(40.173 7.707)">
      <path id="Path_143" data-name="Path 143" d="M20.763.67A20.55,20.55,0,0,0,0,21,20.919,20.919,0,0,0,20.763,41.764,20.55,20.55,0,0,0,41.094,21,20.18,20.18,0,0,0,20.763.67Zm0,38.5c-3.229,0-6.056-2.1-6.056-4.758H26.387c0,2.659-2.395,4.758-5.623,4.758ZM30.28,32.68H10.814V29.22H30.28V32.68Zm0-5.191H10.814c-.064-.074.062-.358,0-.433A14.805,14.805,0,0,1,7.786,22.3c-.008-.042,2.62.482,4.326.865,0,0,.88.2,2.163.433a8.332,8.332,0,0,1-2.163-5.191c0-4.119,3.3-7.905,2.163-10.814,1.109.09,2.083,2.537,2.163,6.056a12.857,12.857,0,0,0,1.73-6.489c0-1.889,1.35-3.818,2.6-3.893-1.11,1.829.055,3.031,1.3,6.921.466,1.461.505,4.064.865,5.623.119-3.239.973-7.885,3.028-9.517a6.591,6.591,0,0,0,.433,5.623c1.148,1.994,2.163,3.631,2.163,6.489A8.376,8.376,0,0,1,26.387,23.6c1.357-.255,2.6-.433,2.6-.433l4.326-.865a11.829,11.829,0,0,1-3.028,5.191Z" transform="translate(0 -0.67)" fill="#fff"/>
    </g>
  </g>
</svg>
