<svg xmlns="http://www.w3.org/2000/svg" width="281" height="128" viewBox="0 0 281 128">
  <g id="prometheus" transform="translate(-232 -163)">
    <rect id="box" width="281" height="128" rx="10" transform="translate(232 163)" fill="#da4e31"/>
    <g id="prometheus-2" data-name="prometheus" transform="translate(325 179.33)">
      <path id="Path_143" data-name="Path 143" d="M48,.67c-26.233,0-48,20.767-48,47a48.359,48.359,0,0,0,48,48c26.233,0,47-21.767,47-48a46.652,46.652,0,0,0-47-47Zm0,89c-7.464,0-14-4.852-14-11H61c0,6.148-5.536,11-13,11Zm22-15H25v-8H70v8Zm0-12H25c-.148-.17.143-.827,0-1-4.57-5.549-5.955-8.048-7-11-.018-.1,6.058,1.113,10,2,0,0,2.034.459,5,1-2.847-3.338-5-7.663-5-12,0-9.522,7.635-18.275,5-25,2.564.209,4.815,5.865,5,14,2.726-3.767,4-10.782,4-15,0-4.367,3.121-8.826,6-9-2.566,4.229.128,7.007,3,16,1.077,3.378,1.168,9.395,2,13,.276-7.488,2.25-18.228,7-22-2.1,4.75-.645,10.142,1,13,2.655,4.61,5,8.394,5,15,0,4.429-2.241,8.74-5,12,3.137-.588,6-1,6-1l10-2a27.345,27.345,0,0,1-7,12Z" fill="#fff"/>
    </g>
  </g>
</svg>
