<svg xmlns="http://www.w3.org/2000/svg" width="85" height="39" viewBox="0 0 85 39">
  <g id="prometheus" transform="translate(0.087 0.162)">
    <rect id="box" width="85" height="39" rx="10" transform="translate(-0.087 -0.162)" fill="#da4e31"/>
    <g id="prometheus-2" data-name="prometheus" transform="translate(28.446 5.064)">
      <path id="Path_143" data-name="Path 143" d="M14.388.67A14.24,14.24,0,0,0,0,14.758,14.5,14.5,0,0,0,14.388,29.146,14.24,14.24,0,0,0,28.476,14.758,13.984,13.984,0,0,0,14.388.67Zm0,26.677c-2.237,0-4.2-1.454-4.2-3.3h8.093c0,1.843-1.66,3.3-3.9,3.3Zm6.594-4.5H7.494v-2.4H20.982v2.4Zm0-3.6H7.494c-.044-.051.043-.248,0-.3a10.259,10.259,0,0,1-2.1-3.3c-.005-.029,1.816.334,3,.6,0,0,.61.138,1.5.3a5.774,5.774,0,0,1-1.5-3.6c0-2.854,2.288-5.478,1.5-7.494.769.063,1.443,1.758,1.5,4.2a8.909,8.909,0,0,0,1.2-4.5c0-1.309.936-2.646,1.8-2.7-.769,1.268.038,2.1.9,4.8.323,1.013.35,2.816.6,3.9.083-2.244.674-5.464,2.1-6.594a4.567,4.567,0,0,0,.3,3.9,8.089,8.089,0,0,1,1.5,4.5,5.8,5.8,0,0,1-1.5,3.6c.94-.176,1.8-.3,1.8-.3l3-.6a8.2,8.2,0,0,1-2.1,3.6Z" transform="translate(0 -0.67)" fill="#fff"/>
    </g>
  </g>
</svg>
