<svg xmlns="http://www.w3.org/2000/svg" width="281" height="128" viewBox="0 0 281 128">
  <g id="rabbitmq" transform="translate(-232 -163)">
    <rect id="box" width="281" height="128" rx="10" transform="translate(232 163)" fill="#fc6600"/>
    <g id="rabbitmq-2" data-name="rabbitmq" transform="translate(335 186.385)">
      <path id="Path_239" data-name="Path 239" d="M72.865,32.154H47.6a2.3,2.3,0,0,1-2.3-2.3V3.531A3.531,3.531,0,0,0,41.778,0H32.76a3.53,3.53,0,0,0-3.53,3.531V29.7a2.467,2.467,0,0,1-2.455,2.467l-8.278.039a2.466,2.466,0,0,1-2.479-2.471l.051-26.2A3.529,3.529,0,0,0,12.54,0H3.53A3.53,3.53,0,0,0,0,3.531V77.25a3.134,3.134,0,0,0,3.134,3.135H72.865A3.134,3.134,0,0,0,76,77.25V35.289a3.134,3.134,0,0,0-3.135-3.135ZM61.019,59.832a4.11,4.11,0,0,1-4.11,4.11H49.783a4.11,4.11,0,0,1-4.11-4.11V52.706a4.11,4.11,0,0,1,4.11-4.11h7.126a4.11,4.11,0,0,1,4.11,4.11v7.126Z" fill="#fff"/>
    </g>
  </g>
</svg>
