<svg xmlns="http://www.w3.org/2000/svg" width="85" height="38" viewBox="0 0 85 38">
  <g id="rabbitmq" transform="translate(0.058 -0.347)">
    <rect id="box" width="85" height="38" rx="10" transform="translate(-0.058 0.347)" fill="#fc6600"/>
    <g id="rabbitmq-2" data-name="rabbitmq" transform="translate(31.253 6.631)">
      <path id="Path_239" data-name="Path 239" d="M21.841,9.638H14.269a.689.689,0,0,1-.688-.688V1.058A1.059,1.059,0,0,0,12.523,0H9.82A1.058,1.058,0,0,0,8.762,1.058V8.9a.739.739,0,0,1-.736.739l-2.481.012A.739.739,0,0,1,4.8,8.913L4.817,1.06A1.058,1.058,0,0,0,3.759,0h-2.7A1.058,1.058,0,0,0,0,1.058v22.1a.939.939,0,0,0,.939.94h20.9a.94.94,0,0,0,.94-.94V10.578a.94.94,0,0,0-.94-.94Zm-3.551,8.3a1.232,1.232,0,0,1-1.232,1.232H14.922a1.232,1.232,0,0,1-1.232-1.232V15.8a1.232,1.232,0,0,1,1.232-1.232h2.136A1.232,1.232,0,0,1,18.29,15.8v2.136Z" fill="#fff"/>
    </g>
  </g>
</svg>
