<svg xmlns="http://www.w3.org/2000/svg" width="121" height="54" viewBox="0 0 121 54">
  <g id="rabbitmq" transform="translate(0.056 -0.481)">
    <rect id="box" width="121" height="54" rx="10" transform="translate(-0.056 0.481)" fill="#fc6600"/>
    <g id="rabbitmq-2" data-name="rabbitmq" transform="translate(44.209 9.555)">
      <path id="Path_239" data-name="Path 239" d="M31.519,13.909H20.592a.994.994,0,0,1-.993-.993V1.527A1.528,1.528,0,0,0,18.072,0h-3.9a1.527,1.527,0,0,0-1.527,1.527V12.847a1.067,1.067,0,0,1-1.062,1.067L8,13.931a1.067,1.067,0,0,1-1.072-1.069L6.951,1.53A1.526,1.526,0,0,0,5.424,0h-3.9A1.527,1.527,0,0,0,0,1.527V33.416a1.356,1.356,0,0,0,1.355,1.356H31.519a1.356,1.356,0,0,0,1.356-1.356V15.265a1.356,1.356,0,0,0-1.356-1.356ZM26.4,25.882a1.778,1.778,0,0,1-1.778,1.778H21.535a1.778,1.778,0,0,1-1.778-1.778V22.8a1.778,1.778,0,0,1,1.778-1.778h3.083A1.778,1.778,0,0,1,26.4,22.8v3.083Z" transform="translate(0)" fill="#fff"/>
    </g>
  </g>
</svg>
