<svg xmlns="http://www.w3.org/2000/svg" width="121" height="55" viewBox="0 0 121 55">
  <g id="raspberry-pi" transform="translate(0 -0.47)">
    <rect id="box" width="121" height="55" rx="10" transform="translate(0 0.47)" fill="#bc1142"/>
    <g id="raspberry-pi-2" data-name="raspberry-pi" transform="translate(42.825 6.093)">
      <path id="Path_39" data-name="Path 39" d="M-.186,0A1.932,1.932,0,0,0-1.051.43c-.66-.255-1.158-.518-1.73,0-.884-.115-1.08.156-1.3.433a2.743,2.743,0,0,0-2.163.865c-1.45-.172-1.817.775-1.3,1.73a1.172,1.172,0,0,0,0,1.73,1.512,1.512,0,0,0,.433,1.73c-.152.685.328.921.865,1.3a1.909,1.909,0,0,0,.865,1.73c.11.546.634,1.013,1.73,1.3a1.586,1.586,0,0,0,1.3,1.3c-2.108,1.225-3.905,2.965-3.893,6.921l-.433.433a6.611,6.611,0,0,0-1.3,9.949,18.289,18.289,0,0,0,1.3,3.028,7.606,7.606,0,0,0,4.326,6.056,14.69,14.69,0,0,0,4.326,2.163,7.992,7.992,0,0,0,5.623,2.6c.027,0,3.491-.842,5.191-2.6a17.583,17.583,0,0,0,4.758-2.163,7.607,7.607,0,0,0,4.326-6.056,19.094,19.094,0,0,0,.865-3.028,6.594,6.594,0,0,0-.865-9.949l-.433-.433c.012-3.955-1.785-5.7-3.893-6.921a1.586,1.586,0,0,0,1.3-1.3c1.1-.285,1.62-.752,1.73-1.3a1.909,1.909,0,0,0,.865-1.73c.537-.376,1.018-.613.865-1.3a1.512,1.512,0,0,0,.433-1.73,1.172,1.172,0,0,0,0-1.73c.519-.956.153-1.9-1.3-1.73A2.742,2.742,0,0,0,19.28.862c-.218-.276-.413-.547-1.3-.433-.573-.518-1.07-.255-1.73,0-.784-.619-1.57-.188-2.163,0-.95-.31-.831.259-1.3.433a2.117,2.117,0,0,0-2.163.433H10.2A6.8,6.8,0,0,0,7.6,5.188a6.8,6.8,0,0,0-2.6-3.893H4.573A2.117,2.117,0,0,0,2.41.862C1.943.689,1.63.119.679.43.29.307.236-.016-.186,0L-11,19.03" transform="translate(11 0.003)" fill="#fff"/>
      <path id="Path_40" data-name="Path 40" d="M23.888,11.322a26.6,26.6,0,0,1,7.786,5.623c-.676,2.709-4.334,2.671-5.623,2.6.264-.123.354-.207.433-.433-.324-.23-1.362.017-2.163-.433a1.459,1.459,0,0,0,.865-.433,7.249,7.249,0,0,1-2.163-.865c.259,0,.527.234.865,0a9.462,9.462,0,0,1-2.163-1.3c.35-.009.755.129.865,0a8.744,8.744,0,0,1-1.73-1.3c.49.059.747-.347.865-.433-.469-.48-1.015-.706-1.3-1.3.364.126.625.185.865,0-.159-.359-.472-.458-.865-1.3.383.037.784.084.865,0a5.123,5.123,0,0,0-.865-1.73,14.956,14.956,0,0,0,1.73,0l-.433-.433a3.938,3.938,0,0,1,2.163,0c.267-.211.326-.16,0-.433a7.029,7.029,0,0,1,1.73.433c.3-.268-.2-.6-.433-.865,1.052.2,1.287.152,1.73.433.321-.308.217-.164,0-.433a5.3,5.3,0,0,1,1.73.865c.146-.2.271-.39,0-.865a4.531,4.531,0,0,1,1.3,1.3c.349-.222,0-.585,0-.865a16.715,16.715,0,0,1,1.73,1.3c.092-.067-.071-.075,0-.433,1.4,1.355,3.295,4.7.433,6.056a25.573,25.573,0,0,0-8.219-4.758h0" transform="translate(-16.101 -7.429)" fill="#bc1142"/>
      <path id="Path_41" data-name="Path 41" d="M145.575,11.321a26.609,26.609,0,0,0-7.786,5.623c.676,2.709,4.334,2.671,5.623,2.6-.264-.123-.355-.207-.433-.433.324-.23,1.362.017,2.163-.433-.308-.064-.289-.206-.433-.433a4.72,4.72,0,0,0,1.73-.865c-.259,0-.527.234-.865,0a9.459,9.459,0,0,0,2.163-1.3c-.351-.009-.755.129-.865,0a8.744,8.744,0,0,0,1.73-1.3c-.49.059-.747-.347-.865-.433.469-.48,1.015-.706,1.3-1.3-.364.126-.625.185-.865,0,.159-.359.472-.458.865-1.3-.383.037-.784.084-.865,0a5.128,5.128,0,0,1,.865-1.73,14.955,14.955,0,0,1-1.73,0l.433-.433a3.94,3.94,0,0,0-2.163,0c-.267-.211-.326-.16,0-.433a7.023,7.023,0,0,0-1.73.433c-.3-.268.2-.6.433-.865-1.052.2-1.287.152-1.73.433-.321-.308-.217-.164,0-.433a5.3,5.3,0,0,0-1.73.865c-.146-.2-.271-.39,0-.865a4.533,4.533,0,0,0-1.3,1.3c-.349-.222,0-.586,0-.865a16.7,16.7,0,0,0-1.73,1.3c-.092-.067.071-.075,0-.433-1.4,1.355-3.295,4.7-.433,6.056a25.548,25.548,0,0,1,8.219-4.758h0" transform="translate(-116.16 -7.428)" fill="#bc1142"/>
      <path id="Path_42" data-name="Path 42" d="M101.864,207.294c.014,2.528-2.449,4.745-5.191,4.758a4.749,4.749,0,0,1-4.758-4.758c0-.016,0,.016,0,0-.014-2.528,2.017-4.312,4.758-4.326s5.176,1.8,5.191,4.326h0" transform="translate(-78.072 -175.715)" fill="#bc1142"/>
      <path id="Path_43" data-name="Path 43" d="M57.96,134.9c2.057,1.348,2.032,4.5.433,6.921s-4.432,3.078-6.489,1.73-2.465-4.5-.865-6.921a5.2,5.2,0,0,1,6.921-1.73" transform="translate(-41.955 -116.304)" fill="#bc1142"/>
      <path id="Path_44" data-name="Path 44" d="M136.634,132.778c-2.057,1.348-2.465,4.5-.865,6.921s4.864,3.511,6.921,2.163,2.465-4.5.865-6.921-4.864-3.51-6.921-2.163" transform="translate(-115.438 -114.61)" fill="#bc1142"/>
      <path id="Path_45" data-name="Path 45" d="M13.1,155.329c2.221-.6.509,9.022-1.3,8.219-1.988-1.6-2.387-6.115,1.3-8.219" transform="translate(-7.475 -134.565)" fill="#bc1142"/>
      <path id="Path_46" data-name="Path 46" d="M215.211,154.7c-2.221-.6-.509,9.021,1.3,8.219,1.988-1.6,2.387-6.115-1.3-8.219" transform="translate(-184.066 -133.934)" fill="#bc1142"/>
      <path id="Path_47" data-name="Path 47" d="M165.262,99.438c3.832-.647,7.05,1.468,6.921,5.623-.126,1.593-8.333-5.386-6.921-5.623" transform="translate(-141.471 -86.028)" fill="#bc1142"/>
      <path id="Path_48" data-name="Path 48" d="M41.716,98.806c-3.833-.647-7.05,1.468-6.921,5.623.126,1.593,8.333-5.386,6.921-5.623" transform="translate(-28.739 -85.396)" fill="#bc1142"/>
      <path id="Path_49" data-name="Path 49" d="M98.528,91.494c-2.287-.06-4.753,2.009-4.758,3.028-.006,1.238,2.063,2.563,4.758,2.6,2.752.02,4.317-1.317,4.326-2.6.01-1.448-2.3-3.05-4.326-3.028h0" transform="translate(-79.928 -79.382)" fill="#bc1142"/>
      <path id="Path_50" data-name="Path 50" d="M96.68,281.932c1.994-.087,4.753.763,4.758,1.73.033.94-2.377,3.069-4.758,3.028-2.466.106-4.79-2.291-4.758-3.028-.037-1.081,2.776-1.78,4.758-1.73" transform="translate(-78.08 -244.298)" fill="#bc1142"/>
      <path id="Path_51" data-name="Path 51" d="M35.731,223.332c1.42,1.711,2.05,4.737.865,5.623-1.121.676-3.689.184-5.623-2.6-1.3-2.333-1.349-4.494-.433-5.191,1.37-.835,3.561.272,5.191,2.163h0" transform="translate(-24.484 -191.322)" fill="#bc1142"/>
      <path id="Path_52" data-name="Path 52" d="M170.8,218.1c-1.536,1.8-2.418,5-1.3,6.056,1.072.821,3.931.785,6.056-2.163,1.543-1.98.881-5.61,0-6.489-1.309-1.013-3,.611-4.758,2.6h0" transform="translate(-144.846 -186.521)" fill="#bc1142"/>
    </g>
  </g>
</svg>
