<svg xmlns="http://www.w3.org/2000/svg" width="281" height="128" viewBox="0 0 281 128">
  <g id="raspberry-pi" transform="translate(-232 -163)">
    <rect id="box" width="281" height="128" rx="10" transform="translate(232 163)" fill="#bc1142"/>
    <g id="raspberry-pi-2" data-name="raspberry-pi" transform="translate(342 177.002)">
      <path id="Path_39" data-name="Path 39" d="M14,0a4.466,4.466,0,0,0-2,1C10.473.409,9.324-.2,8,1,5.956.733,5.5,1.359,5,2c-.449-.009-3.666.01-5,2-3.353-.4-4.2,1.791-3,4-.685,1.06-1.6,1.979,0,4-.566,1.125-.334,2.522,1,4-.352,1.583.758,2.13,2,3a4.412,4.412,0,0,0,2,4c.254,1.262,1.467,2.342,4,3a3.666,3.666,0,0,0,3,3C4.127,31.831-.028,35.853,0,45l-1,1C-6.588,49.4-11.862,60.12-4,69c.513,2.779,2.233,4.791,3,7C.147,84.9,7.026,89.5,9,90a33.961,33.961,0,0,0,10,5,18.475,18.475,0,0,0,13,6c.063,0,8.069-1.946,12-6,4.169-1.465,8.107-2.8,11-5,1.974-.493,8.853-5.1,10-14a44.142,44.142,0,0,0,2-7c7.861-8.878,3.588-19.6-2-23l-1-1c.028-9.144-4.127-13.167-9-16a3.666,3.666,0,0,0,3-3c2.533-.658,3.746-1.738,4-3a4.412,4.412,0,0,0,2-4c1.242-.87,2.352-1.418,2-3,1.335-1.478,1.566-2.874,1-4,1.6-2.02.684-2.94,0-4,1.2-2.209.354-4.4-3-4-1.334-1.99-4.55-2.009-5-2-.5-.639-.956-1.265-3-1C54.676-.2,53.527.409,52,1,50.187-.433,48.371.564,47,1c-2.2-.717-1.921.6-3,1-2.394-.506-3.852-.163-5,1H38c-3.611,2.128-5.364,6.772-6,9-.636-2.228-2.39-6.872-6-9H25c-1.149-1.163-2.606-1.506-5-1C18.921,1.6,18.2.28,16,1c-.9-.285-1.026-1.03-2-1L-11,44" transform="translate(0 0)" fill="#fff"/>
      <path id="Path_40" data-name="Path 40" d="M28.427,14.727c9.581,4.939,14.949,9.6,18,13-1.563,6.263-10.019,6.176-13,6,.61-.284.819-.477,1-1-.748-.532-3.148.04-5-1a3.374,3.374,0,0,0,2-1c-1.749-.558-3.892-1.076-5-2,.6.007,1.219.542,2,0-1.567-.844-3.7-1.709-5-3,.81-.02,1.746.3,2,0a20.215,20.215,0,0,1-4-3c1.134.137,1.726-.8,2-1-1.084-1.11-2.346-1.632-3-3,.841.29,1.445.427,2,0-.368-.831-1.091-1.058-2-3,.886.086,1.812.193,2,0a11.843,11.843,0,0,0-2-4,34.574,34.574,0,0,0,4,0l-1-1a9.1,9.1,0,0,1,5,0c.618-.487.754-.371,0-1a16.25,16.25,0,0,1,4,1c.687-.62-.452-1.38-1-2,2.432.461,2.976.351,4,1,.743-.712.5-.38,0-1a12.244,12.244,0,0,1,4,2c.337-.455.627-.9,0-2a10.475,10.475,0,0,1,3,3c.806-.513,0-1.353,0-2,1.353,1.1,2.949,1.856,4,3,.212-.154-.164-.173,0-1,3.228,3.132,7.617,10.872,1,14a59.119,59.119,0,0,0-19-11h0" transform="translate(-21.427 -5.729)" fill="#bc1142"/>
      <path id="Path_41" data-name="Path 41" d="M158.31,14.726c-9.579,4.94-14.949,9.6-18,13,1.563,6.263,10.019,6.176,13,6-.61-.284-.82-.477-1-1,.748-.532,3.149.04,5-1-.711-.148-.667-.475-1-1a10.912,10.912,0,0,0,4-2c-.6.007-1.219.542-2,0,1.567-.844,3.7-1.709,5-3-.81-.02-1.746.3-2,0a20.214,20.214,0,0,0,4-3c-1.134.137-1.726-.8-2-1,1.084-1.11,2.346-1.632,3-3-.842.29-1.445.427-2,0,.368-.831,1.092-1.058,2-3-.886.086-1.812.193-2,0a11.855,11.855,0,0,1,2-4,34.574,34.574,0,0,1-4,0l1-1a9.108,9.108,0,0,0-5,0c-.618-.487-.754-.371,0-1a16.235,16.235,0,0,0-4,1c-.687-.62.452-1.38,1-2-2.432.461-2.976.351-4,1-.743-.712-.5-.38,0-1a12.244,12.244,0,0,0-4,2c-.337-.455-.627-.9,0-2a10.479,10.479,0,0,0-3,3c-.806-.513,0-1.354,0-2-1.353,1.1-2.949,1.856-4,3-.212-.154.164-.173,0-1-3.228,3.132-7.617,10.872-1,14a59.06,59.06,0,0,1,19-11h0" transform="translate(-101.31 -5.728)" fill="#bc1142"/>
      <path id="Path_42" data-name="Path 42" d="M114.915,212.968c.033,5.844-5.662,10.969-12,11a10.98,10.98,0,0,1-11-11c0-.037,0,.037,0,0-.033-5.844,4.662-9.969,11-10s11.966,4.156,12,10h0" transform="translate(-70.915 -139.97)" fill="#bc1142"/>
      <path id="Path_43" data-name="Path 43" d="M68.324,135.808c4.755,3.116,4.7,10.4,1,16s-10.245,7.115-15,4-5.7-10.4-2-16,11.245-7.115,16-4" transform="translate(-42.324 -92.81)" fill="#bc1142"/>
      <path id="Path_44" data-name="Path 44" d="M139.054,133.545c-4.755,3.115-5.7,10.4-2,16s11.245,8.116,16,5,5.7-10.4,2-16-11.245-8.115-16-5" transform="translate(-101.054 -91.547)" fill="#bc1142"/>
      <path id="Path_45" data-name="Path 45" d="M16.758,155.364c5.134-1.376,1.177,20.856-3,19-4.595-3.7-5.519-14.135,3-19" transform="translate(-14.758 -107.366)" fill="#bc1142"/>
      <path id="Path_46" data-name="Path 46" d="M216.591,154.732c-5.134-1.376-1.177,20.856,3,19,4.595-3.7,5.519-14.136-3-19" transform="translate(-155.591 -106.735)" fill="#bc1142"/>
      <path id="Path_47" data-name="Path 47" d="M165.477,99.588c8.86-1.5,16.3,3.393,16,13-.291,3.683-19.264-12.451-16-13" transform="translate(-121.477 -68.591)" fill="#bc1142"/>
      <path id="Path_48" data-name="Path 48" d="M50.8,98.957c-8.86-1.5-16.3,3.394-16,13,.291,3.683,19.264-12.451,16-13" transform="translate(-31.799 -67.959)" fill="#bc1142"/>
      <path id="Path_49" data-name="Path 49" d="M104.77,91.5c-5.288-.138-10.988,4.644-11,7-.015,2.863,4.77,5.926,11,6,6.362.045,9.98-3.046,10-6,.023-3.347-5.308-7.052-10-7h0" transform="translate(-72.77 -63.498)" fill="#bc1142"/>
      <path id="Path_50" data-name="Path 50" d="M102.922,281.94c4.61-.2,10.988,1.763,11,4,.077,2.172-5.5,7.095-11,7-5.7.246-11.073-5.3-11-7-.086-2.5,6.418-4.115,11-4" transform="translate(-70.922 -194.942)" fill="#bc1142"/>
      <path id="Path_51" data-name="Path 51" d="M43.362,226.539c3.282,3.954,4.739,10.952,2,13-2.591,1.564-8.527.426-13-6-3.017-5.392-3.118-10.388-1-12,3.167-1.929,8.233.629,12,5h0" transform="translate(-28.362 -152.541)" fill="#bc1142"/>
      <path id="Path_52" data-name="Path 52" d="M173.165,221.91c-3.551,4.16-5.591,11.556-3,14,2.477,1.9,9.088,1.816,14-5,3.567-4.578,2.037-12.97,0-15-3.026-2.341-6.936,1.412-11,6h0" transform="translate(-124.165 -148.913)" fill="#bc1142"/>
    </g>
  </g>
</svg>
