<svg xmlns="http://www.w3.org/2000/svg" width="84" height="38" viewBox="0 0 84 38">
  <g id="raspberry-pi" transform="translate(0 -0.434)">
    <rect id="box" width="84" height="38" rx="10" transform="translate(0 0.434)" fill="#bc1142"/>
    <g id="raspberry-pi-2" data-name="raspberry-pi" transform="translate(29.675 3.973)">
      <path id="Path_39" data-name="Path 39" d="M-3.506,0a1.339,1.339,0,0,0-.6.3c-.458-.176-.8-.359-1.2,0-.613-.079-.748.108-.9.3a1.9,1.9,0,0,0-1.5.6c-1.005-.119-1.259.537-.9,1.2a.812.812,0,0,0,0,1.2,1.048,1.048,0,0,0,.3,1.2c-.106.474.227.638.6.9a1.323,1.323,0,0,0,.6,1.2c.076.378.44.7,1.2.9a1.1,1.1,0,0,0,.9.9,4.924,4.924,0,0,0-2.7,4.8l-.3.3a4.581,4.581,0,0,0-.9,6.894,12.673,12.673,0,0,0,.9,2.1,5.271,5.271,0,0,0,3,4.2,10.18,10.18,0,0,0,3,1.5,5.538,5.538,0,0,0,3.9,1.8,8.788,8.788,0,0,0,3.6-1.8,12.184,12.184,0,0,0,3.3-1.5,5.271,5.271,0,0,0,3-4.2,13.231,13.231,0,0,0,.6-2.1,4.569,4.569,0,0,0-.6-6.894l-.3-.3a4.924,4.924,0,0,0-2.7-4.8,1.1,1.1,0,0,0,.9-.9c.759-.2,1.123-.521,1.2-.9a1.323,1.323,0,0,0,.6-1.2c.372-.261.705-.425.6-.9a1.048,1.048,0,0,0,.3-1.2.812.812,0,0,0,0-1.2c.36-.662.106-1.318-.9-1.2a1.9,1.9,0,0,0-1.5-.6C9.831.405,9.7.217,9.083.3c-.4-.359-.741-.177-1.2,0C7.341-.132,6.8.167,6.385.3c-.658-.215-.576.18-.9.3a1.467,1.467,0,0,0-1.5.3h-.3a4.71,4.71,0,0,0-1.8,2.7A4.711,4.711,0,0,0,.091.9h-.3a1.467,1.467,0,0,0-1.5-.3c-.323-.12-.54-.515-1.2-.3-.27-.085-.308-.309-.6-.3L-11,13.186" transform="translate(11 0.003)" fill="#fff"/>
      <path id="Path_40" data-name="Path 40" d="M22.825,10.526a18.435,18.435,0,0,1,5.4,3.9c-.468,1.877-3,1.851-3.9,1.8.183-.085.246-.143.3-.3-.224-.159-.944.012-1.5-.3a1.011,1.011,0,0,0,.6-.3,5.024,5.024,0,0,1-1.5-.6c.179,0,.365.162.6,0a6.557,6.557,0,0,1-1.5-.9c.243-.006.523.089.6,0a6.059,6.059,0,0,1-1.2-.9c.34.041.517-.241.6-.3-.325-.333-.7-.489-.9-.9.252.087.433.128.6,0-.11-.249-.327-.317-.6-.9.266.026.543.058.6,0a3.55,3.55,0,0,0-.6-1.2,10.363,10.363,0,0,0,1.2,0l-.3-.3a2.729,2.729,0,0,1,1.5,0c.185-.146.226-.111,0-.3a4.871,4.871,0,0,1,1.2.3c.206-.186-.135-.414-.3-.6.729.138.892.105,1.2.3.223-.213.15-.114,0-.3a3.67,3.67,0,0,1,1.2.6c.1-.136.188-.27,0-.6a3.14,3.14,0,0,1,.9.9c.242-.154,0-.406,0-.6a11.583,11.583,0,0,1,1.2.9c.063-.046-.049-.052,0-.3.968.939,2.283,3.259.3,4.2a17.721,17.721,0,0,0-5.7-3.3h0" transform="translate(-17.43 -7.828)" fill="#bc1142"/>
      <path id="Path_41" data-name="Path 41" d="M142.594,10.524a18.438,18.438,0,0,0-5.4,3.9c.468,1.877,3,1.851,3.9,1.8-.183-.085-.246-.143-.3-.3.224-.159.944.012,1.5-.3-.213-.044-.2-.142-.3-.3a3.271,3.271,0,0,0,1.2-.6c-.179,0-.365.162-.6,0a6.554,6.554,0,0,0,1.5-.9c-.243-.006-.523.089-.6,0a6.06,6.06,0,0,0,1.2-.9c-.34.041-.517-.241-.6-.3.325-.333.7-.489.9-.9-.252.087-.433.128-.6,0,.11-.249.327-.317.6-.9-.266.026-.543.058-.6,0a3.553,3.553,0,0,1,.6-1.2,10.363,10.363,0,0,1-1.2,0l.3-.3a2.73,2.73,0,0,0-1.5,0c-.185-.146-.226-.111,0-.3a4.867,4.867,0,0,0-1.2.3c-.206-.186.135-.414.3-.6-.729.138-.892.105-1.2.3-.223-.213-.15-.114,0-.3a3.67,3.67,0,0,0-1.2.6c-.1-.136-.188-.27,0-.6a3.141,3.141,0,0,0-.9.9c-.241-.154,0-.406,0-.6a11.571,11.571,0,0,0-1.2.9c-.063-.046.049-.052,0-.3-.968.939-2.283,3.259-.3,4.2a17.7,17.7,0,0,1,5.7-3.3h0" transform="translate(-122.212 -7.826)" fill="#bc1142"/>
      <path id="Path_42" data-name="Path 42" d="M98.809,205.965a3.562,3.562,0,0,1-3.6,3.3,3.291,3.291,0,0,1-3.3-3.3c0-.011,0,.011,0,0a3.051,3.051,0,0,1,3.3-3c1.9-.009,3.587,1.246,3.6,3h0" transform="translate(-82.323 -184.083)" fill="#bc1142"/>
      <path id="Path_43" data-name="Path 43" d="M55.534,134.693c1.425.934,1.408,3.119.3,4.8a3.253,3.253,0,0,1-4.5,1.2,3.467,3.467,0,0,1-.6-4.8,3.6,3.6,0,0,1,4.8-1.2" transform="translate(-44.443 -121.804)" fill="#bc1142"/>
      <path id="Path_44" data-name="Path 44" d="M136.068,132.6a3.467,3.467,0,0,0-.6,4.8c1.108,1.677,3.371,2.433,4.8,1.5a3.467,3.467,0,0,0,.6-4.8c-1.108-1.677-3.371-2.433-4.8-1.5" transform="translate(-121.38 -120.009)" fill="#bc1142"/>
      <path id="Path_45" data-name="Path 45" d="M12.242,155.321c1.539-.412.353,6.251-.9,5.7a3.586,3.586,0,0,1,.9-5.7" transform="translate(-8.345 -140.932)" fill="#bc1142"/>
      <path id="Path_46" data-name="Path 46" d="M214.887,154.69c-1.539-.412-.353,6.251.9,5.7a3.586,3.586,0,0,0-.9-5.7" transform="translate(-193.306 -140.301)" fill="#bc1142"/>
      <path id="Path_47" data-name="Path 47" d="M165.212,99.4c2.656-.448,4.885,1.017,4.8,3.9-.087,1.1-5.774-3.732-4.8-3.9" transform="translate(-148.726 -90.11)" fill="#bc1142"/>
      <path id="Path_48" data-name="Path 48" d="M39.589,98.771c-2.656-.448-4.885,1.017-4.8,3.9.087,1.1,5.774-3.732,4.8-3.9" transform="translate(-30.597 -89.479)" fill="#bc1142"/>
      <path id="Path_49" data-name="Path 49" d="M97.067,91.494c-1.585-.041-3.294,1.392-3.3,2.1,0,.858,1.43,1.776,3.3,1.8,1.907.014,2.991-.913,3-1.8.007-1-1.591-2.114-3-2.1h0" transform="translate(-84.178 -83.1)" fill="#bc1142"/>
      <path id="Path_50" data-name="Path 50" d="M95.219,281.93c1.382-.06,3.294.528,3.3,1.2.023.651-1.647,2.127-3.3,2.1-1.709.074-3.319-1.588-3.3-2.1-.026-.749,1.924-1.233,3.3-1.2" transform="translate(-82.33 -255.852)" fill="#bc1142"/>
      <path id="Path_51" data-name="Path 51" d="M33.945,222.582c.984,1.185,1.421,3.283.6,3.9-.777.469-2.556.128-3.9-1.8-.9-1.616-.935-3.114-.3-3.6.949-.578,2.468.189,3.6,1.5h0" transform="translate(-26.151 -200.4)" fill="#bc1142"/>
      <path id="Path_52" data-name="Path 52" d="M170.247,217.207c-1.065,1.247-1.676,3.464-.9,4.2.743.569,2.724.544,4.2-1.5a4.271,4.271,0,0,0,0-4.5c-.907-.7-2.079.423-3.3,1.8h0" transform="translate(-152.262 -195.325)" fill="#bc1142"/>
    </g>
  </g>
</svg>
