<svg xmlns="http://www.w3.org/2000/svg" width="121" height="56" viewBox="0 0 121 56">
  <g id="react" transform="translate(0.056 -0.437)">
    <rect id="box" width="121" height="56" rx="10" transform="translate(-0.056 0.437)" fill="#29d8ff"/>
    <g id="react-2" data-name="react" transform="translate(35.558 5.863)">
      <path id="Path_93" data-name="Path 93" d="M40.662,14.156c-.513-.177-1.183-.274-1.73-.433.09-.367.359-.941.433-1.3C40.57,6.571,39.894,1.866,37.2.313,34.619-1.175,30.219.5,25.954,4.206c-.41.357-.887.9-1.3,1.3-.274-.262-.592-.623-.865-.865C19.322.671,14.8-1.244,12.112.313,9.533,1.807,8.864,6.445,9.949,11.993c.1.536.294,1.174.433,1.73-.634.18-1.145.228-1.73.433C3.412,15.982,0,18.972,0,21.942c0,3.067,3.627,5.921,9.084,7.786.431.147.837.3,1.3.433-.149.6-.323,1.155-.433,1.73-1.035,5.452.023,9.763,2.6,11.247,2.657,1.532,6.9.335,11.247-3.461.343-.3.52-.964.865-1.3.447.431,1.286.915,1.73,1.3,4.206,3.619,8.244,4.948,10.814,3.461,2.654-1.537,3.283-6.022,2.163-11.679-.086-.432.112-.848,0-1.3.313-.093.565-.333.865-.433,5.674-1.88,9.084-4.678,9.084-7.786,0-2.98-3.306-5.946-8.651-7.786ZM39.364,28c-.271.09-.582-.084-.865,0a43.267,43.267,0,0,0-2.163-6.056A45.4,45.4,0,0,0,38.5,15.886c.506.146.824.27,1.3.433,4.58,1.577,7.786,3.827,7.786,5.623,0,1.913-3.32,4.433-8.219,6.056Zm-1.73,3.893a17.08,17.08,0,0,1,0,6.489,4.3,4.3,0,0,1-1.73,3.028c-1.56.9-4.622-.365-8.219-3.461-.412-.355-.881-.464-1.3-.865a47.75,47.75,0,0,0,3.893-5.191,51.629,51.629,0,0,0,6.921-1.3c.1.407.355.907.433,1.3ZM16.87,41.408a4.222,4.222,0,0,1-3.461,0c-1.561-.9-2.183-4.422-1.3-9.084.1-.534.293-1.17.433-1.73a45.375,45.375,0,0,0,6.489,1.3,50.94,50.94,0,0,0,4.326,5.191c-.316.3-.552.592-.865.865a18.145,18.145,0,0,1-5.623,3.461ZM9.949,28A19.671,19.671,0,0,1,3.893,24.97a4.275,4.275,0,0,1-1.73-3.028c0-1.8,2.44-4.061,6.921-5.623.544-.19,1.14-.7,1.73-.865a55.686,55.686,0,0,0,2.6,6.489,55.089,55.089,0,0,0-2.6,6.489c-.421-.121-.473-.3-.865-.433ZM12.112,11.56c-.93-4.753-.257-8.184,1.3-9.084,1.656-.959,5.225.467,9.084,3.893.247.219.617.2.865.433a50.785,50.785,0,0,0-4.326,5.191,48.961,48.961,0,0,0-6.489,1.3c-.129-.518-.335-1.233-.433-1.73Zm21.2,5.191c-.49-.846-.785-1.792-1.3-2.6a42.329,42.329,0,0,1,4.326.865,41.806,41.806,0,0,1-1.3,4.326c-.449-.852-1.23-1.732-1.73-2.6ZM24.657,8.532a44.592,44.592,0,0,1,3.028,3.461c-.968-.046-2.04,0-3.028,0s-2.066-.045-3.028,0c.962-1.268,2.038-2.392,3.028-3.461Zm-8.651,8.219c-.489.848-.856,1.739-1.3,2.6-.616-1.46-1.3-2.939-1.73-4.326,1.412-.316,3.189-.669,4.758-.865-.52.811-1.24,1.745-1.73,2.6ZM17.735,29.3c-1.621-.181-3.347-.125-4.758-.433.437-1.411,1.1-2.834,1.73-4.326.443.856.806,1.745,1.3,2.6h0c.5.866,1.2,1.336,1.73,2.163Zm6.921,6.056c-1-1.081-1.619-2.174-2.6-3.461.948.037,1.614,0,2.6,0,1.009,0,2.046.044,3.028,0a43.02,43.02,0,0,1-3.028,3.461ZM35.038,24.1c.661,1.508,1.288,3.371,1.73,4.758-1.435.327-3.126.237-4.758.433.514-.814.8-1.3,1.3-2.163s1.278-2.156,1.73-3.028Zm-3.461,1.73c-.774,1.341-1.357,2.684-2.163,3.893-1.469.105-3.212,0-4.758,0s-2.883.094-4.326,0c-.839-1.225-1.827-2.565-2.6-3.893h0c-.767-1.324-1.523-2.565-2.163-3.893.639-1.331,1.4-2.571,2.163-3.893h0c.764-1.325,1.764-2.676,2.6-3.893,1.472-.111,2.8-.433,4.326-.433h0c1.532,0,3.287.32,4.758.433.818,1.208,1.4,2.568,2.163,3.893s1.518,2.591,2.163,3.893c-.643,1.325-1.39,2.553-2.163,3.893ZM35.9,2.476c1.657.956,2.339,4.462,1.3,9.517-.066.323.081.965,0,1.3a54.718,54.718,0,0,0-6.921-1.3A48.206,48.206,0,0,0,26.387,6.8c.38-.366.487-.536.865-.865,3.654-3.18,7.1-4.358,8.651-3.461ZM24.657,17.616a4.326,4.326,0,1,1-4.326,4.326,4.261,4.261,0,0,1,4.326-4.326Z" transform="translate(0 0.228)" fill="#fff"/>
    </g>
  </g>
</svg>
