<svg xmlns="http://www.w3.org/2000/svg" width="85" height="40" viewBox="0 0 85 40">
  <g id="react" transform="translate(0.058 0.436)">
    <rect id="box" width="85" height="40" rx="10" transform="translate(-0.058 -0.436)" fill="#29d8ff"/>
    <g id="react-2" data-name="react" transform="translate(25.258 4.443)">
      <path id="Path_93" data-name="Path 93" d="M28.176,9.739c-.356-.122-.819-.19-1.2-.3.062-.255.249-.652.3-.9.836-4.056.367-7.317-1.5-8.393-1.789-1.032-4.838.126-7.793,2.7-.284.247-.614.625-.9.9-.19-.182-.411-.432-.6-.6-3.1-2.75-6.229-4.077-8.093-3C6.606,1.182,6.142,4.4,6.894,8.24c.073.371.2.813.3,1.2-.439.125-.793.158-1.2.3C2.364,11,0,13.077,0,15.134c0,2.125,2.513,4.1,6.295,5.4.3.1.58.208.9.3-.1.417-.224.8-.3,1.2-.717,3.778.016,6.765,1.8,7.793,1.841,1.062,4.784.232,7.793-2.4.238-.208.36-.668.6-.9.31.3.891.634,1.2.9,2.915,2.508,5.713,3.429,7.494,2.4,1.839-1.065,2.275-4.173,1.5-8.093-.059-.3.077-.588,0-.9.217-.064.392-.231.6-.3,3.931-1.3,6.295-3.242,6.295-5.4,0-2.065-2.291-4.12-5.995-5.4Zm-.9,9.592c-.188.062-.4-.058-.6,0a29.982,29.982,0,0,0-1.5-4.2,31.463,31.463,0,0,0,1.5-4.2c.351.1.571.187.9.3,3.173,1.092,5.4,2.652,5.4,3.9,0,1.326-2.3,3.072-5.7,4.2Zm-1.2,2.7a11.835,11.835,0,0,1,0,4.5,2.978,2.978,0,0,1-1.2,2.1c-1.081.626-3.2-.253-5.7-2.4-.286-.246-.611-.322-.9-.6a33.088,33.088,0,0,0,2.7-3.6,35.776,35.776,0,0,0,4.8-.9c.07.282.246.629.3.9ZM11.69,28.623a2.926,2.926,0,0,1-2.4,0c-1.082-.624-1.513-3.064-.9-6.295.07-.37.2-.811.3-1.2a31.442,31.442,0,0,0,4.5.9,35.3,35.3,0,0,0,3,3.6c-.219.211-.383.41-.6.6a12.573,12.573,0,0,1-3.9,2.4Zm-4.8-9.292a13.631,13.631,0,0,1-4.2-2.1,2.962,2.962,0,0,1-1.2-2.1c0-1.249,1.691-2.814,4.8-3.9.377-.131.79-.483,1.2-.6a38.587,38.587,0,0,0,1.8,4.5,38.173,38.173,0,0,0-1.8,4.5c-.292-.084-.327-.207-.6-.3Zm1.5-11.39c-.644-3.294-.178-5.671.9-6.295,1.147-.664,3.621.323,6.295,2.7.171.152.427.135.6.3a35.191,35.191,0,0,0-3,3.6,33.927,33.927,0,0,0-4.5.9c-.089-.359-.232-.854-.3-1.2Zm14.688,3.6c-.339-.586-.544-1.242-.9-1.8a29.332,29.332,0,0,1,3,.6,28.969,28.969,0,0,1-.9,3c-.311-.591-.853-1.2-1.2-1.8Zm-5.995-5.7a30.9,30.9,0,0,1,2.1,2.4c-.671-.032-1.414,0-2.1,0s-1.432-.031-2.1,0c.666-.879,1.412-1.657,2.1-2.4Zm-5.995,5.7c-.339.588-.593,1.205-.9,1.8-.427-1.012-.9-2.037-1.2-3,.978-.219,2.21-.464,3.3-.6-.36.562-.859,1.209-1.2,1.8Zm1.2,8.693c-1.123-.125-2.319-.087-3.3-.3.3-.978.763-1.964,1.2-3,.307.593.558,1.209.9,1.8h0c.347.6.83.925,1.2,1.5Zm4.8,4.2c-.694-.749-1.122-1.507-1.8-2.4.657.026,1.118,0,1.8,0,.7,0,1.418.03,2.1,0a29.81,29.81,0,0,1-2.1,2.4Zm7.194-7.793c.458,1.045.892,2.336,1.2,3.3-.994.227-2.166.164-3.3.3.356-.564.554-.9.9-1.5s.885-1.494,1.2-2.1Zm-2.4,1.2c-.536.929-.94,1.86-1.5,2.7-1.018.073-2.226,0-3.3,0s-2,.065-3,0c-.581-.849-1.266-1.778-1.8-2.7h0c-.531-.918-1.056-1.778-1.5-2.7.443-.922.971-1.782,1.5-2.7h0c.53-.918,1.223-1.854,1.8-2.7,1.02-.077,1.941-.3,3-.3h0c1.062,0,2.278.222,3.3.3.567.837.967,1.779,1.5,2.7s1.052,1.8,1.5,2.7c-.445.918-.963,1.769-1.5,2.7Zm3-16.186c1.148.662,1.621,3.092.9,6.594-.046.223.056.669,0,.9a37.916,37.916,0,0,0-4.8-.9,33.4,33.4,0,0,0-2.7-3.6c.264-.254.337-.371.6-.6,2.532-2.2,4.917-3.02,5.995-2.4ZM17.086,12.137a3,3,0,1,1-3,3,2.953,2.953,0,0,1,3-3Z" transform="translate(0 0.228)" fill="#fff"/>
    </g>
  </g>
</svg>
