<svg xmlns="http://www.w3.org/2000/svg" width="281" height="128" viewBox="0 0 281 128">
  <g id="react" transform="translate(-232 -163)">
    <rect id="box" width="281" height="128" rx="10" transform="translate(232 163)" fill="#29d8ff"/>
    <g id="react-2" data-name="react" transform="translate(315 175.976)">
      <path id="Path_93" data-name="Path 93" d="M94,33.024c-1.187-.409-2.734-.634-4-1,.208-.849.83-2.176,1-3,2.788-13.533,1.224-24.411-5-28-5.968-3.442-16.142.421-26,9-.948.825-2.05,2.085-3,3-.633-.606-1.37-1.44-2-2-10.332-9.173-20.782-13.6-27-10-5.963,3.452-7.51,14.175-5,27,.242,1.239.68,2.714,1,4-1.466.416-2.646.528-4,1-12.113,4.223-20,11.135-20,18,0,7.09,8.384,13.688,21,18,1,.34,1.935.695,3,1-.346,1.391-.748,2.67-1,4-2.393,12.6.053,22.57,6,26,6.143,3.542,15.962.775,26-8,.793-.694,1.2-2.229,2-3,1.034,1,2.973,2.116,4,3,9.723,8.367,19.059,11.44,25,8,6.136-3.552,7.589-13.921,5-27-.2-1,.258-1.961,0-3,.724-.214,1.307-.77,2-1,13.116-4.346,21-10.815,21-18,0-6.89-7.643-13.746-20-18Zm-3,32c-.626.207-1.346-.194-2,0a100.024,100.024,0,0,0-5-14,104.965,104.965,0,0,0,5-14c1.17.339,1.905.623,3,1,10.587,3.645,18,8.848,18,13,0,4.423-7.675,10.248-19,14Zm-4,9a39.484,39.484,0,0,1,0,15c-.681,3.673-2.306,6.019-4,7-3.606,2.087-10.685-.844-19-8-.953-.82-2.037-1.073-3-2a110.385,110.385,0,0,0,9-12,119.353,119.353,0,0,0,16-3c.233.941.821,2.1,1,3Zm-48,22c-3.523,1.244-6.3.978-8,0-3.609-2.081-5.046-10.222-3-21,.234-1.234.678-2.7,1-4,4.687,1.036,9.456,2.551,15,3a117.761,117.761,0,0,0,10,12c-.73.7-1.277,1.368-2,2a41.947,41.947,0,0,1-13,8Zm-16-31c-5.579-1.907-10.842-4.3-14-7-2.838-2.43-4-5.042-4-7,0-4.166,5.641-9.388,16-13,1.257-.438,2.635-1.612,4-2a128.731,128.731,0,0,0,6,15,127.352,127.352,0,0,0-6,15c-.973-.28-1.093-.69-2-1Zm5-38c-2.15-10.988-.593-18.92,3-21,3.828-2.216,12.079,1.079,21,9,.57.506,1.426.452,2,1a117.4,117.4,0,0,0-10,12c-5.381.5-10.264,1.927-15,3-.3-1.2-.775-2.85-1-4Zm49,12c-1.132-1.955-1.815-4.143-3-6a97.855,97.855,0,0,1,10,2c-.986,3.16-1.553,6.613-3,10-1.038-1.97-2.844-4-4-6Zm-20-19a103.086,103.086,0,0,1,7,8c-2.238-.106-4.716,0-7,0-2.263,0-4.776-.1-7,0,2.223-2.931,4.71-5.53,7-8Zm-20,19c-1.131,1.961-1.979,4.021-3,6-1.423-3.375-3.005-6.8-4-10,3.264-.73,7.373-1.547,11-2-1.2,1.874-2.866,4.034-4,6Zm4,29c-3.747-.418-7.737-.29-11-1,1.01-3.262,2.547-6.552,4-10,1.024,1.978,1.862,4.035,3,6h0c1.159,2,2.768,3.088,4,5Zm16,14c-2.316-2.5-3.743-5.026-6-8,2.191.086,3.73,0,6,0,2.332,0,4.731.1,7,0a99.451,99.451,0,0,1-7,8Zm24-26c1.529,3.485,2.976,7.793,4,11-3.317.757-7.226.547-11,1,1.188-1.882,1.848-3,3-5,1.165-2.021,2.954-4.983,4-7Zm-8,4c-1.788,3.1-3.136,6.206-5,9-3.395.243-7.425,0-11,0s-6.665.216-10,0c-1.939-2.831-4.223-5.93-6-9h0c-1.772-3.061-3.522-5.93-5-9,1.478-3.077,3.238-5.944,5-9h0c1.767-3.064,4.079-6.187,6-9,3.4-.257,6.474-1,10-1h0c3.542,0,7.6.741,11,1,1.892,2.793,3.226,5.936,5,9,1.794,3.1,3.51,5.989,5,9-1.486,3.063-3.214,5.9-5,9Zm10-54c3.831,2.209,5.407,10.316,3,22-.154.746.188,2.23,0,3a126.5,126.5,0,0,0-16-3c-3.144-4.477-5.73-8.477-9-12,.879-.846,1.126-1.239,2-2,8.446-7.351,16.4-10.074,20-8Zm-26,35a10,10,0,1,1-10,10,9.851,9.851,0,0,1,10-10Z" fill="#fff"/>
    </g>
  </g>
</svg>
