<svg xmlns="http://www.w3.org/2000/svg" width="121" height="55" viewBox="0 0 121 55">
  <g id="redis" transform="translate(0 -0.459)">
    <g id="box" transform="translate(0 0.459)" fill="#fff" stroke="#707070" stroke-width="1">
      <rect width="121" height="55" rx="10" stroke="none"/>
      <rect x="0.5" y="0.5" width="120" height="54" rx="9.5" fill="none"/>
    </g>
    <g id="redis-2" data-name="redis" transform="translate(34.606 5.48)">
      <path id="Path_97" data-name="Path 97" d="M50.178,119.405c-2.787,1.453-17.256,7.481-20.331,9.084s-4.925,1.594-7.354.433S4.931,121.594,2.163,120.27C.779,119.609,0,119.067,0,118.54v-5.623s20.129-4.032,23.359-5.191,4.173-1.439,6.921-.433,19.345,4.2,22.061,5.191v5.191c0,.522-.744.991-2.163,1.73" transform="translate(0 -85.047)" fill="#912626"/>
      <path id="Path_98" data-name="Path 98" d="M50.316,97.6c-2.787,1.452-17.257,7.481-20.331,9.084s-4.925,1.594-7.354.433S5.069,99.353,2.3,98.03-.419,96.067,2.3,95s17.966-7.06,21.2-8.219,4.173-1.44,6.921-.433,17.182,6.792,19.9,7.786,2.787,2.008,0,3.461" transform="translate(-0.138 -68.43)" fill="#c6302b"/>
      <path id="Path_99" data-name="Path 99" d="M50.178,77.286c-2.787,1.453-17.256,7.481-20.331,9.084s-4.925,1.594-7.354.433S4.931,79.474,2.163,78.151C.779,77.49,0,76.948,0,76.421V71.23s20.129-4.465,23.359-5.623,4.173-1.439,6.921-.433,19.345,4.2,22.061,5.191v5.191c0,.522-.744.991-2.163,1.73" transform="translate(0 -51.579)" fill="#912626"/>
      <path id="Path_100" data-name="Path 100" d="M50.316,55.789c-2.787,1.453-17.257,7.481-20.331,9.084s-4.925,1.594-7.354.433S5.069,57.977,2.3,56.655s-2.719-2.4,0-3.461,17.966-7.06,21.2-8.219,4.173-1.007,6.921,0,17.182,6.359,19.9,7.354,2.787,2.008,0,3.461h0" transform="translate(-0.138 -35.274)" fill="#c6302b"/>
      <path id="Path_101" data-name="Path 101" d="M50.178,34.091c-2.787,1.453-17.256,7.048-20.331,8.651s-4.925,1.594-7.354.433S4.931,35.846,2.163,34.523C.779,33.862,0,33.32,0,32.793V27.6s20.129-4.465,23.359-5.623,4.173-1.007,6.921,0,19.345,3.763,22.061,4.758v5.191c0,.521-.744,1.423-2.163,2.163" transform="translate(0 -17.035)" fill="#912626"/>
      <path id="Path_102" data-name="Path 102" d="M50.316,12.539c-2.787,1.453-17.257,7.049-20.331,8.651s-4.925,1.593-7.354.433S5.069,14.294,2.3,12.972s-2.719-1.963,0-3.028,17.966-7.06,21.2-8.219,4.173-1.44,6.921-.433S47.6,8.083,50.316,9.078s2.787,2.008,0,3.461" transform="translate(-0.138 -0.674)" fill="#c6302b"/>
      <path id="Path_103" data-name="Path 103" d="M111.4,18.108l-4.326.433-1.3,2.163-1.3-2.6-5.191-.433,3.893-1.3-1.3-2.163,3.461,1.3,3.461-.865-.865,2.163,3.461,1.3" transform="translate(-78.957 -11.435)" fill="#fff"/>
      <path id="Path_104" data-name="Path 104" d="M98.175,69.337l-8.651-3.461,12.112-2.163-3.461,5.623" transform="translate(-71.356 -50.983)" fill="#fff"/>
      <path id="Path_105" data-name="Path 105" d="M49.006,39.581c3.545,0,6.489,1.221,6.489,2.6s-2.943,2.163-6.489,2.163-6.489-.789-6.489-2.163,2.944-2.6,6.489-2.6" transform="translate(-33.866 -31.61)" fill="#fff"/>
      <path id="Path_106" data-name="Path 106" d="M184.893,35.812l7.354,3.028-7.354,2.6V35.812" transform="translate(-147.259 -28.706)" fill="#621b1c"/>
      <path id="Path_107" data-name="Path 107" d="M146.532,38.84l7.786-3.028v5.623l-.433.433-7.354-3.028" transform="translate(-116.684 -28.706)" fill="#9a2928"/>
    </g>
  </g>
</svg>
