<svg xmlns="http://www.w3.org/2000/svg" width="84" height="38" viewBox="0 0 84 38">
  <g id="redis" transform="translate(0 0.331)">
    <g id="box" transform="translate(0 -0.331)" fill="#fff" stroke="#707070" stroke-width="1">
      <rect width="84" height="38" rx="10" stroke="none"/>
      <rect x="0.5" y="0.5" width="83" height="37" rx="9.5" fill="none"/>
    </g>
    <g id="redis-2" data-name="redis" transform="translate(23.98 3.852)">
      <path id="Path_97" data-name="Path 97" d="M34.771,115.5c-1.932,1.007-11.958,5.184-14.088,6.295s-3.413,1.1-5.1.3S3.417,117.013,1.5,116.1c-.959-.458-1.5-.834-1.5-1.2V111s13.948-2.794,16.186-3.6,2.891-1,4.8-.3,13.4,2.908,15.287,3.6v3.6c0,.362-.515.687-1.5,1.2" transform="translate(0 -91.688)" fill="#912626"/>
      <path id="Path_98" data-name="Path 98" d="M34.941,93.955c-1.932,1.006-11.958,5.184-14.088,6.295s-3.413,1.1-5.1.3S3.587,95.171,1.669,94.254s-1.884-1.36,0-2.1,12.449-4.892,14.688-5.7,2.891-1,4.8-.3,11.906,4.706,13.788,5.4,1.932,1.391,0,2.4" transform="translate(-0.17 -73.743)" fill="#c6302b"/>
      <path id="Path_99" data-name="Path 99" d="M34.771,73.377c-1.932,1.007-11.958,5.184-14.088,6.295s-3.413,1.1-5.1.3S3.417,74.894,1.5,73.977c-.959-.458-1.5-.834-1.5-1.2v-3.6s13.948-3.094,16.186-3.9,2.891-1,4.8-.3,13.4,2.907,15.287,3.6v3.6c0,.362-.515.687-1.5,1.2" transform="translate(0 -55.564)" fill="#912626"/>
      <path id="Path_100" data-name="Path 100" d="M34.941,52.219c-1.932,1.007-11.958,5.184-14.088,6.295s-3.413,1.1-5.1.3S3.587,53.735,1.669,52.819s-1.884-1.66,0-2.4,12.449-4.892,14.688-5.7a5.378,5.378,0,0,1,4.8,0c1.9.7,11.906,4.406,13.788,5.1s1.932,1.391,0,2.4h0" transform="translate(-0.17 -38.003)" fill="#c6302b"/>
      <path id="Path_101" data-name="Path 101" d="M34.771,30.122c-1.932,1.007-11.958,4.884-14.088,5.995s-3.413,1.1-5.1.3S3.417,31.338,1.5,30.422c-.959-.458-1.5-.834-1.5-1.2v-3.6s13.948-3.094,16.186-3.9a5.378,5.378,0,0,1,4.8,0c1.9.7,13.4,2.608,15.287,3.3v3.6c0,.361-.515.986-1.5,1.5" transform="translate(0 -18.304)" fill="#912626"/>
      <path id="Path_102" data-name="Path 102" d="M34.941,8.9C33.009,9.9,22.983,13.78,20.853,14.891s-3.413,1.1-5.1.3S3.587,10.112,1.669,9.2s-1.884-1.36,0-2.1S14.118,2.205,16.356,1.4s2.891-1,4.8-.3S33.059,5.808,34.941,6.5s1.932,1.391,0,2.4" transform="translate(-0.17 -0.674)" fill="#c6302b"/>
      <path id="Path_103" data-name="Path 103" d="M107.681,16.913l-3,.3-.9,1.5-.9-1.8-3.6-.3,2.7-.9-.9-1.5,2.4.9,2.4-.6-.6,1.5,2.4.9" transform="translate(-85.2 -12.289)" fill="#fff"/>
      <path id="Path_104" data-name="Path 104" d="M95.519,67.61l-5.995-2.4,8.393-1.5-2.4,3.9" transform="translate(-76.934 -54.892)" fill="#fff"/>
      <path id="Path_105" data-name="Path 105" d="M47.013,39.581c2.457,0,4.5.846,4.5,1.8s-2.04,1.5-4.5,1.5-4.5-.546-4.5-1.5,2.04-1.8,4.5-1.8" transform="translate(-36.522 -34.057)" fill="#fff"/>
      <path id="Path_106" data-name="Path 106" d="M184.893,35.812l5.1,2.1-5.1,1.8v-3.9" transform="translate(-158.815 -30.888)" fill="#621b1c"/>
      <path id="Path_107" data-name="Path 107" d="M146.532,37.91l5.4-2.1v3.9l-.3.3-5.1-2.1" transform="translate(-125.849 -30.888)" fill="#9a2928"/>
    </g>
  </g>
</svg>
