<svg xmlns="http://www.w3.org/2000/svg" width="281" height="128" viewBox="0 0 281 128">
  <g id="redis" transform="translate(-232 -163)">
    <g id="box" transform="translate(232 163)" fill="#fff" stroke="#707070" stroke-width="1">
      <rect width="281" height="128" rx="10" stroke="none"/>
      <rect x="0.5" y="0.5" width="280" height="127" rx="9.5" fill="none"/>
    </g>
    <g id="redis-2" data-name="redis" transform="translate(312 174.898)">
      <path id="Path_97" data-name="Path 97" d="M116,136.1c-6.444,3.359-39.893,17.3-47,21s-11.386,3.684-17,1-40.6-16.941-47-20c-3.2-1.529-5-2.781-5-4v-13s46.533-9.322,54-12,9.646-3.327,16-1,44.72,9.7,51,12v12c0,1.207-1.72,2.291-5,4" transform="translate(0 -56.001)" fill="#912626"/>
      <path id="Path_98" data-name="Path 98" d="M116,113.161c-6.444,3.358-39.893,17.3-47,21s-11.386,3.684-17,1-40.6-17.943-47-21-6.286-4.539,0-7,41.533-16.321,49-19,9.646-3.328,16-1,39.721,15.7,46,18,6.444,4.641,0,8" transform="translate(0 -45.059)" fill="#c6302b"/>
      <path id="Path_99" data-name="Path 99" d="M116,93.984c-6.444,3.359-39.893,17.294-47,21s-11.386,3.684-17,1-40.6-16.941-47-20c-3.2-1.529-5-2.781-5-4v-12s46.533-10.321,54-13,9.646-3.327,16-1,44.72,9.7,51,12v12c0,1.206-1.72,2.291-5,4" transform="translate(0 -33.882)" fill="#912626"/>
      <path id="Path_100" data-name="Path 100" d="M116,71.042c-6.444,3.358-39.893,17.294-47,21s-11.386,3.684-17,1S11.4,76.1,5,73.042s-6.286-5.538,0-8,41.533-16.322,49-19,9.646-2.328,16,0,39.721,14.7,46,17,6.444,4.642,0,8h0" transform="translate(0 -22.939)" fill="#c6302b"/>
      <path id="Path_101" data-name="Path 101" d="M116,51.045c-6.444,3.359-39.893,16.294-47,20s-11.386,3.684-17,1S11.4,55.1,5,52.045c-3.2-1.529-5-2.782-5-4v-12s46.533-10.322,54-13,9.646-2.327,16,0,44.72,8.7,51,11v12c0,1.205-1.72,3.291-5,5" transform="translate(0 -10.943)" fill="#912626"/>
      <path id="Path_102" data-name="Path 102" d="M116,28.1c-6.444,3.358-39.893,16.295-47,20s-11.386,3.683-17,1S11.4,32.16,5,29.1s-6.286-4.538,0-7S46.533,5.782,54,3.1s9.646-3.328,16-1,39.721,15.7,46,18,6.444,4.642,0,8" transform="translate(0 0)" fill="#c6302b"/>
      <path id="Path_103" data-name="Path 103" d="M127.288,23.215l-10,1-3,5-3-6-12-1,9-3-3-5,8,3,8-2-2,5,8,3" transform="translate(-52.288 -7.113)" fill="#fff"/>
      <path id="Path_104" data-name="Path 104" d="M109.524,76.713l-20-8,28-5-8,13" transform="translate(-47.524 -33.611)" fill="#fff"/>
      <path id="Path_105" data-name="Path 105" d="M57.517,39.581c8.2,0,15,2.823,15,6s-6.8,5-15,5-15-1.823-15-5,6.8-6,15-6" transform="translate(-22.517 -20.479)" fill="#fff"/>
      <path id="Path_106" data-name="Path 106" d="M184.893,35.812l17,7-17,6v-13" transform="translate(-97.893 -18.71)" fill="#621b1c"/>
      <path id="Path_107" data-name="Path 107" d="M146.532,42.812l18-7v13l-1,1-17-7" transform="translate(-77.532 -18.71)" fill="#9a2928"/>
    </g>
  </g>
</svg>
