<svg xmlns="http://www.w3.org/2000/svg" width="121" height="55" viewBox="0 0 121 55">
  <g id="sass" transform="translate(0 -0.459)">
    <rect id="box" width="121" height="55" rx="10" transform="translate(0 0.459)" fill="#cd6799"/>
    <g id="sass-2" data-name="sass" transform="translate(38.897 10.818)">
      <path id="Path_222" data-name="Path 222" d="M38.475,19.191a10.707,10.707,0,0,0-4.326.865,8.552,8.552,0,0,1-.865-2.163,5.654,5.654,0,0,1,0-1.73,16.7,16.7,0,0,1,.433-1.73c-.008-.08.02-.425-.865-.433s-1.642.2-1.73.433a7.956,7.956,0,0,0-.433,1.3,29.313,29.313,0,0,1-2.6,5.191,5.528,5.528,0,0,1-.433-1.73c-.08-.62-.529-.99-.433-1.73a5.854,5.854,0,0,1,.865-1.73c-.008-.08-.412-.425-1.3-.433s-1.642.2-1.73.433.185.767,0,1.3-2.465,5.249-3.028,6.489c-.29.636-.688,1.384-.865,1.73h0c-.153.3,0,.433,0,.433h0a1.058,1.058,0,0,1-.433.433,2.267,2.267,0,0,1,0-1.3c.322-1.666.873-4.67.865-4.758,0-.048.211-.2-.433-.433-.628-.233-.809,0-.865,0h0s.738-2.6-1.3-2.6c-1.272,0-3.024,1.34-3.893,2.6-.547.3-1.781,1.046-3.028,1.73-.475.266-.839.183-1.3.433-.032-.032-.4.032-.433,0C7.9,19.155,3.676,17.533,3.87,14c.072-1.288.418-4.98,8.651-9.084C19.3,1.576,24.565,2.432,25.5,4.484c1.336,2.929-2.947,8.728-9.949,9.517a4.872,4.872,0,0,1-4.326-1.3c-.37-.4-.3-.513-.433-.433-.225.121-.08.656,0,.865a4.221,4.221,0,0,0,2.6,1.73,12.551,12.551,0,0,0,8.219-.433c4.241-1.642,7.462-6.559,6.489-10.382C27.12.172,20.776-1.142,14.684,1.023A30.977,30.977,0,0,0,4.3,7.079C.946,10.218.192,12.858.409,14c.781,4.056,6.414,6.7,8.651,8.651-.113.064-.344.384-.433.433-1.119.555-5.426,2.833-6.489,5.191-1.207,2.672.372,4.5,1.3,4.758a6.814,6.814,0,0,0,7.354-3.028c1.585-2.366,1.6-5.513.865-6.921-.008-.016.016.016,0,0,.29-.169.575-.264.865-.433.571-.338.815-.608,1.3-.865a12.254,12.254,0,0,0-.433,3.028,5.2,5.2,0,0,0,1.3,3.893,2.164,2.164,0,0,0,1.3.433c.95,0,1.255-.8,1.73-1.73a11.693,11.693,0,0,0,.865-2.6s-.473,3.893,1.3,3.893c.644,0,1.441-.871,1.73-1.3h0c.064-.1,0-.433,0-.433h0c.258-.451.869-1.33,1.73-3.028,1.111-2.189,2.163-4.758,2.163-4.758a15.959,15.959,0,0,0,.433,1.73,12.839,12.839,0,0,0,.865,1.73,4.048,4.048,0,0,0-.433.865h0c-.209.274-.616.575-.865.865a13.894,13.894,0,0,0-1.73,2.6c-.169.41-.322.624,0,.865.233.177.871.024,1.3,0a2.649,2.649,0,0,0,1.3-.433c.427-.153,1.264-.087,1.73-.433a3.614,3.614,0,0,0,1.3-3.028,4.391,4.391,0,0,0-.433-1.73c.08-.113-.08-.32,0-.433,1.36-1.988,2.6-3.893,2.6-3.893a15.96,15.96,0,0,0,.433,1.73,9.07,9.07,0,0,0,.433,1.73,6.878,6.878,0,0,0-2.163,3.028c-.507,1.465-.316,2.01.433,2.163.338.072.944-.28,1.3-.433.451-.145,1.223-.062,1.73-.433a3.614,3.614,0,0,0,1.3-3.028c-.024-.547.2-.775,0-1.3a7.018,7.018,0,0,1,3.893-.433c3.831.451,4.9,2.455,4.758,3.461a2.614,2.614,0,0,1-1.3,1.73c-.266.169-.457.312-.433.433.032.177.207.465.433.433a3.725,3.725,0,0,0,2.163-3.028c.121-2.366-2.072-4.782-6.056-4.758ZM8.628,29.14c-1.272,1.384-2.7,1.74-3.461,1.3-.821-.475-.7-2.428.865-3.893A19.61,19.61,0,0,1,9.06,24.382c.185-.113.535-.231.865-.433h0a5.135,5.135,0,0,1-1.3,5.191Zm9.517-6.489c-.443,1.078-1.6,4.046-2.163,3.893-.483-.129-.684-2.257,0-4.326a8.634,8.634,0,0,1,1.73-2.6c.692-.773,1.113-1.179,1.3-.865.233.41-.592,3.217-.865,3.893ZM25.5,26.545a.445.445,0,0,1-.433,0c-.056-.032.433,0,.433,0s.919-1.264,1.3-1.73c.217-.274.159-.5.433-.865h0a3.6,3.6,0,0,1-1.73,2.6Zm6.056-1.3c-.137-.1-.026-.292.433-1.3a5.325,5.325,0,0,1,1.3-1.73c.08.258.008.2,0,.433a2.716,2.716,0,0,1-1.73,2.6Z" transform="translate(-0.374 0.017)" fill="#fff"/>
    </g>
  </g>
</svg>
