<svg xmlns="http://www.w3.org/2000/svg" width="281" height="128" viewBox="0 0 281 128">
  <g id="sass" transform="translate(-232 -163)">
    <rect id="box" width="281" height="128" rx="10" transform="translate(232 163)" fill="#cd6799"/>
    <g id="sass-2" data-name="sass" transform="translate(321.546 188.613)">
      <path id="Path_222" data-name="Path 222" d="M88.454,44.387a24.751,24.751,0,0,0-10,2,19.769,19.769,0,0,1-2-5,13.072,13.072,0,0,1,0-4,38.612,38.612,0,0,1,1-4c-.019-.186.047-.981-2-1s-3.8.46-4,1a18.392,18.392,0,0,0-1,3c-.353,1.86-3.86,8.521-6,12a12.779,12.779,0,0,1-1-4c-.186-1.433-1.223-2.288-1-4s2.019-3.814,2-4-.953-.981-3-1-3.8.46-4,1,.428,1.772,0,3-5.7,12.135-7,15c-.67,1.47-1.591,3.2-2,4h0c-.353.688,0,1,0,1h0a2.446,2.446,0,0,1-1,1,5.242,5.242,0,0,1,0-3c.744-3.851,2.019-10.8,2-11,0-.112.488-.46-1-1-1.451-.54-1.87,0-2,0h0s1.707-6-3-6c-2.94,0-6.991,3.1-9,6-1.265.688-4.116,2.419-7,4-1.1.614-1.94.423-3,1-.074-.074-.926.074-1,0-5.693-6.084-15.447-9.833-15-18,.167-2.977.967-11.512,20-21,15.665-7.721,27.842-5.744,30-1,3.088,6.772-6.814,20.177-23,22-6.177.688-9.181-2.107-10-3-.856-.93-.684-1.186-1-1-.521.279-.186,1.516,0,2,.484,1.265,2.633,2.9,6,4a29.015,29.015,0,0,0,19-1c9.8-3.8,17.251-15.163,15-24-2.251-8.968-16.916-12-31-7-8.372,2.977-17.47,7.9-24,14-7.758,7.256-9.5,13.358-9,16,1.8,9.377,14.828,15.479,20,20-.26.149-.8.888-1,1-2.586,1.284-12.544,6.549-15,12-2.791,6.177.86,10.4,3,11,6.642,1.842,13.335-1.53,17-7s3.693-12.744,2-16c-.019-.037.037.037,0,0,.67-.391,1.33-.609,2-1,1.321-.781,1.884-1.4,3-2a28.329,28.329,0,0,0-1,7c-.279,3.5,1.121,7.214,3,9a5,5,0,0,0,3,1c2.2,0,2.9-1.842,4-4a27.032,27.032,0,0,0,2-6s-1.093,9,3,9c1.488,0,3.33-2.014,4-3h0c.149-.242,0-1,0-1h0c.6-1.042,2.009-3.074,4-7,2.567-5.061,5-11,5-11a36.894,36.894,0,0,0,1,4c.447,1.507,1.256,2.4,2,4a9.358,9.358,0,0,0-1,2h0c-.484.633-1.423,1.33-2,2a32.12,32.12,0,0,0-4,6c-.391.949-.744,1.442,0,2,.54.409,2.014.056,3,0a6.124,6.124,0,0,0,3-1c.986-.353,2.921-.2,4-1a8.355,8.355,0,0,0,3-7,10.152,10.152,0,0,0-1-4c.186-.26-.186-.74,0-1,3.144-4.6,6-9,6-9a36.894,36.894,0,0,0,1,4c.372,1.3.33,2.623,1,4a15.9,15.9,0,0,0-5,7c-1.172,3.386-.73,4.647,1,5,.781.167,2.181-.647,3-1,1.042-.335,2.828-.144,4-1a8.355,8.355,0,0,0,3-7c-.056-1.265.465-1.791,0-3,2.512-1.042,4.87-1.484,9-1,8.856,1.042,11.335,5.674,11,8a6.044,6.044,0,0,1-3,4c-.614.391-1.056.721-1,1,.074.409.479,1.074,1,1,.726-.13,4.833-2.721,5-7,.279-5.47-4.791-11.056-14-11Zm-69,23c-2.94,3.2-6.233,4.023-8,3-1.9-1.1-1.609-5.614,2-9a45.333,45.333,0,0,1,7-5c.428-.26,1.237-.535,2-1h0a11.87,11.87,0,0,1-3,12Zm22-15c-1.023,2.493-3.7,9.353-5,9-1.116-.3-1.581-5.219,0-10,.8-2.4,3.014-4.884,4-6,1.6-1.786,2.572-2.726,3-2,.54.949-1.367,7.437-2,9Zm17,9a1.029,1.029,0,0,1-1,0c-.13-.074,1,0,1,0s2.126-2.921,3-4c.5-.633.367-1.163,1-2h0c0,2.847-2.772,5.219-4,6Zm14-3c-.316-.223-.06-.674,1-3a12.31,12.31,0,0,1,3-4c.186.6.019.46,0,1a6.279,6.279,0,0,1-4,6Z" transform="translate(0 0)" fill="#fff"/>
    </g>
  </g>
</svg>
