<svg xmlns="http://www.w3.org/2000/svg" width="84" height="37" viewBox="0 0 84 37">
  <g id="sass" transform="translate(0 -0.282)">
    <rect id="box" width="84" height="37" rx="10" transform="translate(0 0.282)" fill="#cd6799"/>
    <g id="sass-2" data-name="sass" transform="translate(26.953 6.872)">
      <path id="Path_222" data-name="Path 222" d="M26.776,13.293a7.419,7.419,0,0,0-3,.6,5.926,5.926,0,0,1-.6-1.5,3.918,3.918,0,0,1,0-1.2,11.576,11.576,0,0,1,.3-1.2c-.006-.056.014-.294-.6-.3s-1.138.138-1.2.3a5.513,5.513,0,0,0-.3.9,20.312,20.312,0,0,1-1.8,3.6,3.83,3.83,0,0,1-.3-1.2c-.056-.429-.367-.686-.3-1.2a4.057,4.057,0,0,1,.6-1.2c-.006-.056-.286-.294-.9-.3s-1.138.138-1.2.3.128.531,0,.9-1.708,3.637-2.1,4.5c-.2.441-.477.959-.6,1.2h0c-.106.206,0,.3,0,.3h0a.733.733,0,0,1-.3.3,1.571,1.571,0,0,1,0-.9c.223-1.154.605-3.236.6-3.3,0-.033.146-.138-.3-.3s-.56,0-.6,0h0s.512-1.8-.9-1.8a4.141,4.141,0,0,0-2.7,1.8c-.379.206-1.234.725-2.1,1.2-.329.184-.581.127-.9.3-.022-.022-.277.022-.3,0-1.706-1.824-4.63-2.947-4.5-5.4.05-.892.29-3.451,5.995-6.295,4.7-2.314,8.346-1.722,8.992-.3.926,2.03-2.042,6.048-6.894,6.594a3.376,3.376,0,0,1-3-.9c-.257-.279-.2-.356-.3-.3-.156.084-.056.455,0,.6a2.925,2.925,0,0,0,1.8,1.2,8.7,8.7,0,0,0,5.7-.3c2.939-1.138,5.171-4.545,4.5-7.194C18.907.114,14.512-.8,10.29.7A21.465,21.465,0,0,0,3.1,4.9C.771,7.075.248,8.9.4,9.7c.541,2.811,4.445,4.64,5.995,5.995-.078.045-.238.266-.3.3-.775.385-3.76,1.963-4.5,3.6-.837,1.851.258,3.119.9,3.3a4.722,4.722,0,0,0,5.1-2.1,5.354,5.354,0,0,0,.6-4.8c-.006-.011.011.011,0,0,.2-.117.4-.183.6-.3.4-.234.565-.421.9-.6a8.492,8.492,0,0,0-.3,2.1,3.6,3.6,0,0,0,.9,2.7,1.5,1.5,0,0,0,.9.3c.658,0,.87-.552,1.2-1.2a8.1,8.1,0,0,0,.6-1.8s-.328,2.7.9,2.7c.446,0,1-.6,1.2-.9h0c.045-.072,0-.3,0-.3h0c.178-.312.6-.922,1.2-2.1.77-1.517,1.5-3.3,1.5-3.3a11.059,11.059,0,0,0,.3,1.2,8.9,8.9,0,0,0,.6,1.2,2.805,2.805,0,0,0-.3.6h0c-.145.19-.427.4-.6.6a9.628,9.628,0,0,0-1.2,1.8c-.117.284-.223.432,0,.6.162.123.6.017.9,0a1.836,1.836,0,0,0,.9-.3c.3-.106.876-.06,1.2-.3a2.5,2.5,0,0,0,.9-2.1,3.043,3.043,0,0,0-.3-1.2c.056-.078-.056-.222,0-.3.942-1.377,1.8-2.7,1.8-2.7a11.059,11.059,0,0,0,.3,1.2,6.285,6.285,0,0,0,.3,1.2,4.766,4.766,0,0,0-1.5,2.1c-.351,1.015-.219,1.393.3,1.5.234.05.654-.194.9-.3.312-.1.848-.043,1.2-.3a2.5,2.5,0,0,0,.9-2.1c-.017-.379.139-.537,0-.9a4.863,4.863,0,0,1,2.7-.3c2.655.312,3.4,1.7,3.3,2.4a1.812,1.812,0,0,1-.9,1.2c-.184.117-.316.216-.3.3.022.123.144.322.3.3a2.581,2.581,0,0,0,1.5-2.1c.084-1.64-1.436-3.314-4.2-3.3ZM6.094,20.187c-.881.959-1.868,1.206-2.4.9-.569-.329-.482-1.683.6-2.7a13.589,13.589,0,0,1,2.1-1.5c.128-.078.371-.16.6-.3h0a3.558,3.558,0,0,1-.9,3.6Zm6.594-4.5c-.307.747-1.108,2.8-1.5,2.7-.335-.089-.474-1.564,0-3a5.983,5.983,0,0,1,1.2-1.8c.48-.535.771-.817.9-.6a8.417,8.417,0,0,1-.6,2.7Zm5.1,2.7a.309.309,0,0,1-.3,0c-.039-.022.3,0,.3,0s.637-.876.9-1.2c.151-.19.11-.349.3-.6h0a2.494,2.494,0,0,1-1.2,1.8Zm4.2-.9c-.095-.067-.018-.2.3-.9a3.69,3.69,0,0,1,.9-1.2c.056.178.006.138,0,.3a1.882,1.882,0,0,1-1.2,1.8Z" transform="translate(-0.374 0.017)" fill="#fff"/>
    </g>
  </g>
</svg>
