<svg xmlns="http://www.w3.org/2000/svg" width="281" height="128" viewBox="0 0 281 128">
  <g id="storybook" transform="translate(-232 -163)">
    <rect id="box" width="281" height="128" rx="10" transform="translate(232 163)" fill="#fc4785"/>
    <g id="storybook-icon" transform="translate(336 181.136)">
      <path id="Path_210" data-name="Path 210" d="M3,84.864l-3-76c-.094-2.513,1.49-4.843,4-5l65-4a4.456,4.456,0,0,1,5,4c.006.1,0,.9,0,1v83c0,2.56-2.44,4-5,4-.069,0,.069,0,0,0l-62-2c-2.409-.108-3.91-2.59-4-5Z" transform="translate(0 0)" fill="#fff"/>
      <path id="Path_211" data-name="Path 211" d="M101.742,10.864v-10l9-1v11c.013.382.382.987,0,1-.163.006-.872.1-1,0l-3-3-4,3a.722.722,0,0,1-1,0A3.228,3.228,0,0,1,101.742,10.864Zm-12,24c0,1.8,12.369,1.267,14,0,0-12.28-6.934-19-19-19s-18,6.17-18,16c0,17.12,23,17.662,23,27,0,2.621-1.176,4-4,4-3.68,0-5.171-1.611-5-8,0-1.386-14.572-1.818-15,0-1.09,15.484,8.961,20,20,20,10.7,0,19-5.679,19-16,0-18.349-24-17.907-24-27,0-3.686,3.374-4,5-4C87.454,27.864,90,27.983,89.742,34.864Z" transform="translate(-46.742 0)" fill="#fc4785"/>
    </g>
  </g>
</svg>
