<svg xmlns="http://www.w3.org/2000/svg" width="121" height="56" viewBox="0 0 121 56">
  <g id="storybook" transform="translate(-0.378 -0.361)">
    <rect id="box" width="121" height="56" rx="10" transform="translate(0.378 0.361)" fill="#fc4785"/>
    <g id="storybook-icon" transform="translate(44.929 8.758)">
      <path id="Path_210" data-name="Path 210" d="M1.3,36.627,0,3.751a1.97,1.97,0,0,1,1.73-2.163L29.845-.142a1.928,1.928,0,0,1,2.163,1.73c0,.042,0,.391,0,.433v35.9c0,1.107-1.056,1.73-2.163,1.73-.03,0,.03,0,0,0L3.026,38.789A2.081,2.081,0,0,1,1.3,36.627Z" transform="translate(0.004 0.147)" fill="#fff"/>
      <path id="Path_211" data-name="Path 211" d="M81.269,4.622V.3l3.893-.433V4.622c.006.165.165.427,0,.433-.071,0-.377.044-.433,0l-1.3-1.3-1.73,1.3a.312.312,0,0,1-.433,0A1.4,1.4,0,0,1,81.269,4.622ZM76.078,15c0,.78,5.351.548,6.056,0,0-5.312-3-8.219-8.219-8.219s-7.786,2.669-7.786,6.921c0,7.406,9.949,7.64,9.949,11.679a1.51,1.51,0,0,1-1.73,1.73c-1.592,0-2.237-.7-2.163-3.461,0-.6-6.3-.787-6.489,0-.471,6.7,3.876,8.651,8.651,8.651,4.627,0,8.219-2.456,8.219-6.921,0-7.937-10.382-7.746-10.382-11.679,0-1.595,1.46-1.73,2.163-1.73C75.088,11.976,76.189,12.028,76.078,15Z" transform="translate(-57.476 0.141)" fill="#fc4785"/>
    </g>
  </g>
</svg>
