<svg xmlns="http://www.w3.org/2000/svg" width="85" height="38" viewBox="0 0 85 38">
  <g id="storybook" transform="translate(0.087 -0.138)">
    <rect id="box" width="85" height="38" rx="10" transform="translate(-0.087 0.138)" fill="#fc4785"/>
    <g id="storybook-icon" transform="translate(31.742 6.09)">
      <path id="Path_210" data-name="Path 210" d="M.9,25.335,0,2.554a1.365,1.365,0,0,1,1.2-1.5L20.68-.144a1.336,1.336,0,0,1,1.5,1.2c0,.029,0,.271,0,.3V26.234c0,.767-.731,1.2-1.5,1.2h0L2.1,26.834a1.442,1.442,0,0,1-1.2-1.5Z" transform="translate(0.004 0.147)" fill="#fff"/>
      <path id="Path_211" data-name="Path 211" d="M76.477,3.161v-3l2.7-.3v3.3c0,.114.114.3,0,.3-.049,0-.261.03-.3,0l-.9-.9-1.2.9a.216.216,0,0,1-.3,0A.968.968,0,0,1,76.477,3.161Zm-3.6,7.194c0,.541,3.708.38,4.2,0,0-3.681-2.079-5.7-5.7-5.7s-5.4,1.849-5.4,4.8c0,5.132,6.894,5.294,6.894,8.093a1.047,1.047,0,0,1-1.2,1.2c-1.1,0-1.55-.483-1.5-2.4,0-.415-4.368-.545-4.5,0-.327,4.641,2.686,5.995,5.995,5.995,3.206,0,5.7-1.7,5.7-4.8,0-5.5-7.194-5.368-7.194-8.093,0-1.1,1.011-1.2,1.5-1.2C72.194,8.257,72.957,8.293,72.88,10.355Z" transform="translate(-59.989 0.139)" fill="#fc4785"/>
    </g>
  </g>
</svg>
