<svg xmlns="http://www.w3.org/2000/svg" width="281" height="128" viewBox="0 0 281 128">
  <g id="storybook" transform="translate(-232 -163)">
    <rect id="box" width="281" height="128" rx="10" transform="translate(232 163)" fill="#09546b"/>
    <g id="mysql" transform="translate(328.976 184)">
      <path id="Path_212" data-name="Path 212" d="M81.024,67c-4.773-.119-8.9-.312-12,1-.895.358-1.881.867-2,2,.478.478.582,1.344,1,2a11.055,11.055,0,0,0,3,3c1.253.954,2.688,2.165,4,3,2.327,1.432,4.733,2.568,7,4,1.313.835,2.687,2.105,4,3a6.994,6.994,0,0,0,2,1h0c-.418-.537-.583-1.4-1-2l-2-2a27.261,27.261,0,0,0-6-6c-1.909-1.313-6.224-2.793-7-5h0a23.073,23.073,0,0,0,4-1c2.029-.537,3.912-.463,6-1,.954-.239,2.046-.7,3-1h0c-1.073-1.074-1.866-2.986-3-4a78.82,78.82,0,0,0-10-7c-1.85-1.193-4.031-1.986-6-3-.716-.359-2.583-.4-3-1-1.074-1.313-1.225-3.449-2-5-1.729-3.282-3.509-6.54-5-10-1.073-2.327-1.687-4.852-3-7-6.145-10.142-12.739-16.974-23-23-2.207-1.253-5.2-1.344-8-2-1.491-.06-2.509.06-4,0a26.236,26.236,0,0,1-3-2c-3.4-2.148-12.494-7.145-15-1-1.611,3.878,2.628,8.031,4,10,1.015,1.372,2.284,2.449,3,4,.418,1.014.582,1.926,1,3a71.245,71.245,0,0,0,3,8,31.278,31.278,0,0,0,2,4c.477.656,1.821.926,2,2-.835,1.193-.522,3.509-1,5-2.148,6.741-2.042,15.048,1,20,.954,1.491,3.958,4.253,7,3,2.685-1.074,1.225-4.017,2-7a6.288,6.288,0,0,1,1-2h0c.835,1.67,1.225,3.33,2,5,1.85,2.923,5.315,5.971,8,8,1.432,1.073,2.21,3.344,4,4V69h0a3.986,3.986,0,0,0-1-1,23.732,23.732,0,0,1-3-3,80.056,80.056,0,0,1-7-11c-.954-1.849-1.225-4.151-2-6-.358-.716-.4-1.642-1-2-.895,1.312-2.344,2.389-3,4a33.292,33.292,0,0,0-2,9c-.238.06.119-.119,0,0-1.909-.478-2.284-2.329-3-4-1.79-4.236-2.551-11.108-1-16,.418-1.253,1.716-4.807,1-6a11.455,11.455,0,0,0-2-3,25.022,25.022,0,0,1-2-4c-1.432-3.341-2.449-6.659-4-10a35.764,35.764,0,0,0-3-5c-1.133-1.611-2.105-2.091-3-4a4.015,4.015,0,0,1,0-3,1.412,1.412,0,0,1,1-1c.775-.656,3.225.642,4,1a23.158,23.158,0,0,1,5,3,11.455,11.455,0,0,0,3,2h1c1.909.417,4.21.463,6,1a41.169,41.169,0,0,1,9,4,52.773,52.773,0,0,1,19,20c.716,1.372.344,2.568,1,4,1.253,2.923,2.747,6.136,4,9a42.023,42.023,0,0,0,5,8c.9,1.252,4.389,1.344,6,2a41.645,41.645,0,0,1,4,2c2.028,1.252,4.091,2.628,6,4,.955.716,3.821,2.807,4,4Z" transform="translate(0 0)" fill="#fff"/>
      <path id="Path_213" data-name="Path 213" d="M53.556,43.27a16.71,16.71,0,0,0-3,0h1a26.251,26.251,0,0,0,2,3l1,2h0c.836-.6,1-1.568,1-3-.358-.418.3-.582,0-1-.358-.6-1.523-.522-2-1Z" transform="translate(-33.531 -28.27)" fill="#fff"/>
    </g>
  </g>
</svg>
