<svg xmlns="http://www.w3.org/2000/svg" width="281" height="128" viewBox="0 0 281 128">
  <g id="svelte" transform="translate(-232 -163)">
    <rect id="box" width="281" height="128" rx="10" transform="translate(232 163)" fill="#fc3e01"/>
    <g id="svelte-icon" transform="translate(336 183)">
      <path id="Path_137" data-name="Path 137" d="M68,12C59.86.35,43.624-3.406,32,4L12,17A24.609,24.609,0,0,0,1,33c-.974,5.4.45,10.139,3,15a25.626,25.626,0,0,0-4,9c-1.175,6.609,1.1,13.538,5,19,8.141,11.651,23.378,15.405,35,8L61,71c5.577-3.508,8.837-9.515,10-16a25,25,0,0,0-2-16,25.626,25.626,0,0,0,4-9c1.176-6.609-1.1-12.538-5-18" transform="translate(0 0)" fill="#fff"/>
      <path id="Path_138" data-name="Path 138" d="M55.721,102.027c-6.582,1.711-13.124-.412-17-6a16.879,16.879,0,0,1-3-12c.118-.646.794-1.376,1-2v-1l1,1a26.427,26.427,0,0,0,8,4h1v1a4.631,4.631,0,0,0,1,3,4.564,4.564,0,0,0,5,2c.444-.119.613-.753,1-1l21-13c1.01-.636,1.788-.825,2-2a6.2,6.2,0,0,0-1-4,4.564,4.564,0,0,0-5-2,11.977,11.977,0,0,0-2,1l-7,5a14.55,14.55,0,0,1-4,2c-6.582,1.711-14.124-1.412-18-7-2.347-3.286-2.707-7.024-2-11,.7-3.9,2.645-7.891,6-10l20-13a14.506,14.506,0,0,1,4-2c6.582-1.711,14.124,1.412,18,7,2.347,3.286,2.707,7.024,2,11-.119.646.206,1.376,0,2v1h-1a26.4,26.4,0,0,0-8-4l-1-1h0a4.64,4.64,0,0,0-1-3,4.564,4.564,0,0,0-5-2c-.444.119-.613-.247-1,0l-21,13a4.676,4.676,0,0,0-2,3,3.729,3.729,0,0,0,1,3,4.564,4.564,0,0,0,5,2c.444-.119.612.246,1,0l8-5a14.507,14.507,0,0,1,4-2c6.582-1.711,14.124,1.412,18,7,2.347,3.286,2.707,7.024,2,11a12.783,12.783,0,0,1-6,9l-20,13a20.981,20.981,0,0,1-5,2" transform="translate(-25.721 -25.027)" fill="#fc3e01"/>
    </g>
  </g>
</svg>
