<svg xmlns="http://www.w3.org/2000/svg" width="121" height="54" viewBox="0 0 121 54">
  <g id="svelte" transform="translate(-0.378 -0.481)">
    <rect id="box" width="121" height="54" rx="10" transform="translate(0.378 0.481)" fill="#fc3e01"/>
    <g id="svelte-icon" transform="translate(44.797 8.468)">
      <path id="Path_137" data-name="Path 137" d="M29.239,5.3C25.718.257,18.695-1.368,13.666,1.836L5.015,7.459A10.645,10.645,0,0,0,.257,14.38a9.762,9.762,0,0,0,1.3,6.489,11.085,11.085,0,0,0-1.73,3.893,11.123,11.123,0,0,0,2.163,8.219c3.522,5.04,10.113,6.664,15.14,3.461l9.084-5.623A10.079,10.079,0,0,0,30.537,23.9a10.813,10.813,0,0,0-.865-6.921,11.085,11.085,0,0,0,1.73-3.893A10.1,10.1,0,0,0,29.239,5.3" transform="translate(0.31 -0.186)" fill="#fff"/>
      <path id="Path_138" data-name="Path 138" d="M44.266,63.743a6.652,6.652,0,0,1-7.354-2.6,7.3,7.3,0,0,1-1.3-5.191c.051-.28.343-.6.433-.865v-.433l.433.433a11.432,11.432,0,0,0,3.461,1.73h.433v.433a2,2,0,0,0,.433,1.3,1.974,1.974,0,0,0,2.163.865c.192-.051.265-.326.433-.433l9.084-5.623c.437-.275.773-.357.865-.865a2.682,2.682,0,0,0-.433-1.73,1.974,1.974,0,0,0-2.163-.865,5.181,5.181,0,0,0-.865.433L46.862,52.5a6.294,6.294,0,0,1-1.73.865,7.541,7.541,0,0,1-7.786-3.028,6.014,6.014,0,0,1-.865-4.758,6.391,6.391,0,0,1,2.6-4.326l8.651-5.623a6.275,6.275,0,0,1,1.73-.865,7.541,7.541,0,0,1,7.786,3.028,6.015,6.015,0,0,1,.865,4.758c-.051.279.089.6,0,.865v.433h-.433a11.419,11.419,0,0,0-3.461-1.73l-.433-.433h0a2.007,2.007,0,0,0-.433-1.3,1.974,1.974,0,0,0-2.163-.865c-.192.051-.265-.107-.433,0l-9.084,5.623a2.023,2.023,0,0,0-.865,1.3,1.613,1.613,0,0,0,.433,1.3A1.974,1.974,0,0,0,43.4,48.6c.192-.051.265.107.433,0l3.461-2.163a6.275,6.275,0,0,1,1.73-.865A7.541,7.541,0,0,1,56.811,48.6a6.014,6.014,0,0,1,.865,4.758,5.529,5.529,0,0,1-2.6,3.893l-8.651,5.623a9.076,9.076,0,0,1-2.163.865" transform="translate(-31.155 -30.515)" fill="#fc3e01"/>
    </g>
  </g>
</svg>
