<svg xmlns="http://www.w3.org/2000/svg" width="85" height="40" viewBox="0 0 85 40">
  <g id="svelte" transform="translate(0.087 0.266)">
    <rect id="box" width="85" height="40" rx="10" transform="translate(-0.087 -0.266)" fill="#fc3e01"/>
    <g id="svelte-icon" transform="translate(31.65 6.557)">
      <path id="Path_137" data-name="Path 137" d="M20.166,3.727a8.106,8.106,0,0,0-10.791-2.4L3.38,5.226a7.377,7.377,0,0,0-3.3,4.8,6.764,6.764,0,0,0,.9,4.5,7.681,7.681,0,0,0-1.2,2.7,7.707,7.707,0,0,0,1.5,5.7,7.741,7.741,0,0,0,10.491,2.4l6.295-3.9a6.984,6.984,0,0,0,3-4.8,7.492,7.492,0,0,0-.6-4.8,7.681,7.681,0,0,0,1.2-2.7,7,7,0,0,0-1.5-5.4" transform="translate(0.31 -0.186)" fill="#fff"/>
      <path id="Path_138" data-name="Path 138" d="M41.585,54.782a4.609,4.609,0,0,1-5.1-1.8,5.059,5.059,0,0,1-.9-3.6c.036-.194.238-.413.3-.6v-.3l.3.3a7.921,7.921,0,0,0,2.4,1.2h.3v.3a1.388,1.388,0,0,0,.3.9,1.368,1.368,0,0,0,1.5.6c.133-.036.184-.226.3-.3l6.295-3.9c.3-.191.536-.247.6-.6a1.858,1.858,0,0,0-.3-1.2,1.368,1.368,0,0,0-1.5-.6,3.59,3.59,0,0,0-.6.3l-2.1,1.5a4.361,4.361,0,0,1-1.2.6,5.225,5.225,0,0,1-5.4-2.1,4.168,4.168,0,0,1-.6-3.3,4.429,4.429,0,0,1,1.8-3l5.995-3.9a4.348,4.348,0,0,1,1.2-.6,5.225,5.225,0,0,1,5.4,2.1,4.168,4.168,0,0,1,.6,3.3c-.036.194.062.413,0,.6v.3h-.3a7.913,7.913,0,0,0-2.4-1.2l-.3-.3h0a1.391,1.391,0,0,0-.3-.9,1.368,1.368,0,0,0-1.5-.6c-.133.036-.184-.074-.3,0l-6.295,3.9a1.4,1.4,0,0,0-.6.9,1.118,1.118,0,0,0,.3.9,1.368,1.368,0,0,0,1.5.6c.133-.036.184.074.3,0l2.4-1.5a4.348,4.348,0,0,1,1.2-.6,5.225,5.225,0,0,1,5.4,2.1,4.168,4.168,0,0,1,.6,3.3,3.832,3.832,0,0,1-1.8,2.7l-5.995,3.9a6.289,6.289,0,0,1-1.5.6" transform="translate(-32.5 -31.757)" fill="#fc3e01"/>
    </g>
  </g>
</svg>
