<svg xmlns="http://www.w3.org/2000/svg" width="281" height="128" viewBox="0 0 281 128">
  <g id="swagger" transform="translate(-232 -163)">
    <rect id="box" width="281" height="128" rx="10" transform="translate(232 163)" fill="#49a32b"/>
    <g id="swagger-2" data-name="swagger" transform="translate(322 176.355)">
      <path id="Path_236" data-name="Path 236" d="M49.953,100.643C23.137,100.458-.18,78.2,0,49.928A50.614,50.614,0,0,1,50.759,0c27.189.181,50.127,22.749,49.884,50.4C100.868,77.8,77.816,100.837,49.953,100.643Zm0,0C23.137,100.458-.18,78.2,0,49.928A50.614,50.614,0,0,1,50.759,0c27.189.181,50.127,22.749,49.884,50.4C100.868,77.8,77.816,100.837,49.953,100.643Z" transform="translate(0 0)" fill="#fff"/>
      <path id="Path_237" data-name="Path 237" d="M60.318,104.277C37.063,104.116,16.844,84.817,17,60.3A43.892,43.892,0,0,1,61.017,17c23.577.157,43.469,19.728,43.259,43.7C104.471,84.464,84.482,104.445,60.318,104.277Zm0,0C37.063,104.116,16.844,84.817,17,60.3A43.892,43.892,0,0,1,61.017,17c23.577.157,43.469,19.728,43.259,43.7C104.471,84.464,84.482,104.445,60.318,104.277Z" transform="translate(-10.317 -10.317)" fill="#49a32b"/>
      <path id="Path_238" data-name="Path 238" d="M96.913,87.93c-.112,2.08-1.929,3.807-3.72,3.505h-.027a3.591,3.591,0,0,1-3.6-3.587,3.673,3.673,0,0,1,7.342.081ZM65.019,108.084c.748.022,1.5.006,2.359.006v5.42c-5.36.906-9.776-.616-10.859-5.147a30.076,30.076,0,0,1-.683-5.066c-.115-1.805.084-3.631-.054-5.433C55.4,92.906,54.758,91.213,50,90.979V84.808a8.907,8.907,0,0,1,1.035-.178c2.609-.128,3.708-.928,4.292-3.5A29.317,29.317,0,0,0,55.8,76.76c.207-2.837.133-5.721.606-8.512.683-4.036,3.189-6,7.328-6.217,1.178-.063,2.359-.01,3.694-.01v5.54c-.549.039-1.052.119-1.552.1-3.373-.1-3.548,1.046-3.794,3.838-.154,1.751.058,3.532-.061,5.289a42.111,42.111,0,0,1-.7,5.207,9.659,9.659,0,0,1-4.142,5.918C61.3,90.6,61.765,94.767,62.033,99c.144,2.274.078,4.564.309,6.827C62.522,107.583,63.2,108.031,65.019,108.084Zm3.474-23.758h.064a3.569,3.569,0,0,1,3.51,3.627c0,.065,0,.129-.006.193a3.493,3.493,0,0,1-3.688,3.286c-.078,0-.155,0-.232,0a3.556,3.556,0,1,1,.353-7.1Zm12.28,0a3.345,3.345,0,0,1,3.6,3.511,3.305,3.305,0,0,1-3.487,3.6,3.345,3.345,0,0,1-3.623-3.486q-.01-.162,0-.324A3.409,3.409,0,0,1,80.773,84.326Zm25.711-2.7c.573,2.141,1.69,2.894,3.944,3,.369.017.737.08,1.244.136v6.169a5.262,5.262,0,0,1-.84.2c-3.021.188-4.4,1.427-4.7,4.456-.195,1.934-.179,3.889-.313,5.829a49.457,49.457,0,0,1-.58,6.361c-.771,3.815-3.153,5.718-7.088,5.95-1.267.075-2.542.012-3.908.012v-5.514c.735-.046,1.384-.108,2.034-.124,2.351-.056,3.183-.814,3.3-3.149.127-2.565.183-5.134.3-7.7.166-3.709,1.182-7.022,4.637-9.335-1.977-1.41-3.564-3.117-3.975-5.419-.5-2.79-.658-5.642-.926-8.471-.132-1.414-.126-2.841-.264-4.254-.149-1.526-1.2-2.054-2.586-2.088-.8-.019-1.594,0-2.611,0V62.3c6.49-1.078,10.974,1.082,11.39,7.292.175,2.608.149,5.228.316,7.835A21.7,21.7,0,0,0,106.484,81.627Z" transform="translate(-30.343 -37.625)" fill="#fff"/>
    </g>
  </g>
</svg>
