<svg xmlns="http://www.w3.org/2000/svg" width="84" height="38" viewBox="0 0 84 38">
  <g id="swagger" transform="translate(-0.011 -0.347)">
    <rect id="box" width="84" height="38" rx="10" transform="translate(0.011 0.347)" fill="#49a32b"/>
    <g id="swagger-2" data-name="swagger" transform="translate(26.207 3.625)">
      <path id="Path_236" data-name="Path 236" d="M14.973,30.168A15.188,15.188,0,0,1,0,14.966a15.084,15.084,0,1,1,14.973,15.2Zm0,0A15.188,15.188,0,0,1,0,14.966a15.084,15.084,0,1,1,14.973,15.2Z" transform="translate(0 0)" fill="#fff"/>
      <path id="Path_237" data-name="Path 237" d="M29.985,43.161A13.081,13.081,0,1,1,43.161,30.1,13.17,13.17,0,0,1,29.985,43.161Zm0,0A13.081,13.081,0,1,1,43.161,30.1,13.17,13.17,0,0,1,29.985,43.161Z" transform="translate(-14.997 -14.997)" fill="#49a32b"/>
      <path id="Path_238" data-name="Path 238" d="M64.062,69.772a1.065,1.065,0,0,1-1.115,1.051h-.008a1.076,1.076,0,0,1-1.078-1.075,1.1,1.1,0,0,1,2.2.024ZM54.5,75.814c.224.007.449,0,.707,0V77.44c-1.607.272-2.93-.185-3.255-1.543a9.015,9.015,0,0,1-.2-1.519c-.035-.541.025-1.088-.016-1.628-.114-1.486-.307-1.994-1.733-2.064v-1.85a2.667,2.667,0,0,1,.31-.053c.782-.039,1.112-.278,1.286-1.049a8.788,8.788,0,0,0,.141-1.311c.062-.85.04-1.715.182-2.551a2.082,2.082,0,0,1,2.2-1.864c.353-.019.707,0,1.107,0v1.661c-.165.012-.315.036-.465.031-1.011-.031-1.063.313-1.137,1.15-.046.525.017,1.059-.018,1.585a12.621,12.621,0,0,1-.21,1.561,2.9,2.9,0,0,1-1.242,1.774c1.235.8,1.376,2.053,1.456,3.322.043.682.023,1.368.093,2.046C53.753,75.663,53.958,75.8,54.5,75.814Zm1.041-7.121h.019a1.07,1.07,0,0,1,1.052,1.087c0,.019,0,.039,0,.058a1.047,1.047,0,0,1-1.105.985h-.07a1.066,1.066,0,0,1,.106-2.129Zm3.681,0A1,1,0,0,1,60.3,69.745a.991.991,0,0,1-1.045,1.078,1,1,0,0,1-1.086-1.045q0-.049,0-.1A1.022,1.022,0,0,1,59.224,68.692Zm7.707-.809a1.077,1.077,0,0,0,1.182.9c.111.005.221.024.373.041v1.849a1.579,1.579,0,0,1-.252.06,1.288,1.288,0,0,0-1.41,1.336c-.058.58-.054,1.166-.094,1.747a14.822,14.822,0,0,1-.174,1.907,2.059,2.059,0,0,1-2.125,1.784c-.38.022-.762,0-1.171,0V75.856c.22-.014.415-.032.61-.037.7-.017.954-.244.988-.944.038-.769.055-1.539.089-2.308a3.244,3.244,0,0,1,1.39-2.8,2.62,2.62,0,0,1-1.192-1.624c-.149-.836-.2-1.691-.277-2.539-.04-.424-.038-.852-.079-1.275-.045-.457-.359-.616-.775-.626-.238-.006-.478,0-.783,0V62.089c1.946-.323,3.289.324,3.414,2.186.052.782.045,1.567.095,2.349A6.5,6.5,0,0,0,66.931,67.883Z" transform="translate(-44.108 -54.694)" fill="#fff"/>
    </g>
  </g>
</svg>
