<svg xmlns="http://www.w3.org/2000/svg" width="122" height="54" viewBox="0 0 122 54">
  <g id="swagger" transform="translate(-0.434 -0.481)">
    <rect id="box" width="122" height="54" rx="10" transform="translate(0.434 0.481)" fill="#49a32b"/>
    <g id="swagger-2" data-name="swagger" transform="translate(39.221 5.217)">
      <path id="Path_236" data-name="Path 236" d="M21.608,43.535A21.918,21.918,0,0,1,0,21.6,21.768,21.768,0,1,1,21.608,43.535Zm0,0A21.918,21.918,0,0,1,0,21.6,21.768,21.768,0,1,1,21.608,43.535Z" transform="translate(0 0)" fill="#fff"/>
      <path id="Path_237" data-name="Path 237" d="M35.738,54.753A18.877,18.877,0,1,1,54.753,35.906,19.007,19.007,0,0,1,35.738,54.753Zm0,0A18.877,18.877,0,1,1,54.753,35.906,19.007,19.007,0,0,1,35.738,54.753Z" transform="translate(-14.109 -14.109)" fill="#49a32b"/>
      <path id="Path_238" data-name="Path 238" d="M70.293,73.217a1.537,1.537,0,0,1-1.609,1.516h-.012a1.553,1.553,0,0,1-1.555-1.552,1.589,1.589,0,0,1,3.176.035ZM56.5,81.935c.324.009.647,0,1.02,0v2.344c-2.319.392-4.229-.266-4.7-2.226a13.01,13.01,0,0,1-.3-2.191c-.05-.781.036-1.571-.023-2.35-.165-2.145-.443-2.877-2.5-2.979V71.866a3.854,3.854,0,0,1,.448-.077c1.128-.056,1.6-.4,1.857-1.513a12.682,12.682,0,0,0,.2-1.892c.089-1.227.058-2.475.262-3.682a3,3,0,0,1,3.17-2.689c.509-.027,1.021,0,1.6,0v2.4c-.238.017-.455.051-.672.045-1.459-.045-1.535.452-1.641,1.66-.066.757.025,1.528-.026,2.288a18.216,18.216,0,0,1-.3,2.253,4.178,4.178,0,0,1-1.792,2.56c1.783,1.16,1.986,2.963,2.1,4.794.062.984.034,1.974.134,2.953C55.417,81.718,55.712,81.912,56.5,81.935ZM58,71.658h.028a1.544,1.544,0,0,1,1.518,1.569c0,.028,0,.056,0,.084a1.511,1.511,0,0,1-1.6,1.422c-.034,0-.067,0-.1,0A1.538,1.538,0,0,1,58,71.658Zm5.312,0a1.447,1.447,0,0,1,1.556,1.519,1.43,1.43,0,0,1-1.508,1.556,1.447,1.447,0,0,1-1.567-1.508q0-.07,0-.14A1.475,1.475,0,0,1,63.311,71.658ZM74.433,70.49a1.554,1.554,0,0,0,1.706,1.3c.16.007.319.035.538.059v2.669a2.276,2.276,0,0,1-.364.087,1.859,1.859,0,0,0-2.034,1.928c-.084.836-.077,1.682-.135,2.522a21.393,21.393,0,0,1-.251,2.752,2.972,2.972,0,0,1-3.066,2.574c-.548.032-1.1.005-1.69.005V82c.318-.02.6-.047.88-.053,1.017-.024,1.377-.352,1.426-1.362.055-1.11.079-2.221.129-3.331a4.681,4.681,0,0,1,2.006-4.038,3.781,3.781,0,0,1-1.72-2.344c-.215-1.207-.285-2.441-.4-3.664-.057-.612-.054-1.229-.114-1.84-.064-.66-.518-.888-1.118-.9-.344-.008-.69,0-1.13,0V62.128c2.808-.466,4.747.468,4.927,3.154.076,1.128.064,2.261.137,3.389A9.384,9.384,0,0,0,74.433,70.49Z" transform="translate(-41.497 -51.456)" fill="#fff"/>
    </g>
  </g>
</svg>
