<svg xmlns="http://www.w3.org/2000/svg" width="84" height="38" viewBox="0 0 84 38">
  <g id="symfony" transform="translate(-0.011 0.057)">
    <rect id="box" width="84" height="38" rx="10" transform="translate(0.011 -0.057)" fill="#1a171b"/>
    <g id="symfony-2" data-name="symfony" transform="translate(26.888 3.841)">
      <circle id="Ellipse_3" data-name="Ellipse 3" cx="14.5" cy="14.5" r="14.5" transform="translate(0.122 0.102)" fill="#fff"/>
      <path id="Path_145" data-name="Path 145" d="M58.072,48.54a4.841,4.841,0,0,0-3.6,1.8,12.389,12.389,0,0,0-2.1,4.2c-.891-.73-1.568-1.686-3-2.1a4.221,4.221,0,0,0-3.6.6,2.8,2.8,0,0,0-.9,1.5,3.193,3.193,0,0,0,.9,3l.9.9a1.532,1.532,0,0,1-1.8,2.4c-.412-.126-1.032-.467-.9-.9a6.649,6.649,0,0,1,.3-.6c.062-.131.281-.242.3-.3.169-.551-.31-1.017-.9-1.2-.55-.169-.981-.109-1.2.6-.247.8.036,2.361,2.1,3a3.607,3.607,0,0,0,4.8-2.4,3.6,3.6,0,0,0-1.2-3l-.6-.6a1.4,1.4,0,0,1-.3-1.8,1.555,1.555,0,0,1,1.8-.6c1.3.354,2.027,1.368,3,2.1-.4,1.315-.662,2.714-.9,3.9l-.3.6c-.694,3.639-1.022,5.747-2.4,6.894a2.021,2.021,0,0,1-1.2.6c-.313.01-.6-.206-.6-.3a.906.906,0,0,1,.3-.6c.184-.1.618-.066.6-.6a1.444,1.444,0,0,0-1.5-1.2,1.338,1.338,0,0,0-1.2,1.5,2.089,2.089,0,0,0,2.4,1.8c.755-.026,2.235-.422,3.9-2.4a15.112,15.112,0,0,0,3-6.894l.3-2.4c.252.03.606-.007.9,0,2.409.051,3.579-1.191,3.6-2.1a.842.842,0,0,0-.9-.9c-.373.011-.787.083-.9.6s.685,1.055,0,1.5a3.308,3.308,0,0,1-2.4.3v-1.2c.456-2.342,1.164-5.325,3.3-5.4a.7.7,0,0,1,.6.6c0,.126.147.012,0,.3-.15.224-.307.38-.3.6.021.6.542.923,1.2.9a1.194,1.194,0,0,0,1.2-1.2c-.035-1.034-1.254-1.546-2.7-1.5Z" transform="translate(-37.472 -42.46)" fill="#1a171b"/>
    </g>
  </g>
</svg>
