<svg xmlns="http://www.w3.org/2000/svg" width="281" height="128" viewBox="0 0 281 128">
  <g id="symfony" transform="translate(-232 -163)">
    <rect id="box" width="281" height="128" rx="10" transform="translate(232 163)" fill="#1a171b"/>
    <g id="symfony-2" data-name="symfony" transform="translate(325 179.301)">
      <circle id="Ellipse_3" data-name="Ellipse 3" cx="47.5" cy="47.5" r="47.5" transform="translate(0 0.699)" fill="#fff"/>
      <path id="Path_145" data-name="Path 145" d="M94.661,48.547a16.152,16.152,0,0,0-12,6c-3.466,4.027-5.338,9.124-7,14-2.972-2.436-5.232-5.625-10-7a14.083,14.083,0,0,0-12,2,9.332,9.332,0,0,0-3,5c-1.431,4.651,1.667,8.514,3,10l3,3a5.481,5.481,0,0,1,1,5c-.764,2.49-3.921,3.95-7,3-1.375-.419-3.443-1.558-3-3a22.185,22.185,0,0,1,1-2c.208-.438.937-.807,1-1,.563-1.837-1.033-3.394-3-4-1.835-.563-3.272-.363-4,2-.826,2.684.119,7.878,7,10,8.062,2.477,15.033-2.275,16-8,.609-3.586-1.034-6.573-4-10l-2-2c-1.464-1.463-2.515-4.084-1-6a5.187,5.187,0,0,1,6-2c4.353,1.182,6.762,4.564,10,7-1.337,4.385-2.209,9.053-3,13l-1,2c-2.315,12.141-3.409,19.173-8,23-.925.658-2.007,1.931-4,2-1.045.032-1.985-.687-2-1a3.023,3.023,0,0,1,1-2c.614-.335,2.063-.222,2-2-.067-2.1-2.484-4.083-5-4-1.885.064-4.108,1.753-4,5,.113,3.354,3.287,6.159,8,6,2.519-.086,7.456-1.409,13-8,6.453-7.555,8.642-16.661,10-23l1-8c.842.1,2.021-.023,3,0,8.037.17,11.94-3.972,12-7a2.808,2.808,0,0,0-3-3c-1.245.035-2.624.279-3,2-.367,1.689,2.285,3.52,0,5-1.624,1.051-3.9,1.6-8,1v-4c1.521-7.812,3.882-17.766,11-18a2.341,2.341,0,0,1,2,2c.013.419.491.04,0,1-.5.748-1.023,1.268-1,2,.069,1.995,1.807,3.079,4,3a3.982,3.982,0,0,0,4-4c-.118-3.45-4.185-5.158-9-5Z" transform="translate(-26.661 -29.848)" fill="#1a171b"/>
    </g>
  </g>
</svg>
