<svg xmlns="http://www.w3.org/2000/svg" width="122" height="55" viewBox="0 0 122 55">
  <g id="symfony" transform="translate(-0.434 -0.448)">
    <rect id="box" width="122" height="55" rx="10" transform="translate(0.434 0.448)" fill="#1a171b"/>
    <g id="symfony-2" data-name="symfony" transform="translate(40.646 7.39)">
      <ellipse id="Ellipse_3" data-name="Ellipse 3" cx="20.5" cy="21" rx="20.5" ry="21" transform="translate(-0.212 0.058)" fill="#fff"/>
      <path id="Path_145" data-name="Path 145" d="M65.013,48.542a6.987,6.987,0,0,0-5.191,2.6,17.879,17.879,0,0,0-3.028,6.056c-1.286-1.054-2.263-2.433-4.326-3.028a6.092,6.092,0,0,0-5.191.865,4.037,4.037,0,0,0-1.3,2.163,4.608,4.608,0,0,0,1.3,4.326l1.3,1.3a2.21,2.21,0,0,1-2.6,3.461c-.595-.181-1.489-.674-1.3-1.3a9.593,9.593,0,0,1,.433-.865c.09-.19.405-.349.433-.433.243-.795-.447-1.468-1.3-1.73-.794-.243-1.415-.157-1.73.865-.357,1.161.051,3.408,3.028,4.326,3.487,1.071,6.5-.984,6.921-3.461.264-1.551-.447-2.843-1.73-4.326l-.865-.865a2.015,2.015,0,0,1-.433-2.6,2.244,2.244,0,0,1,2.6-.865c1.883.511,2.925,1.974,4.326,3.028-.578,1.9-.956,3.916-1.3,5.623l-.433.865c-1,5.252-1.474,8.294-3.461,9.949a2.916,2.916,0,0,1-1.73.865c-.452.014-.859-.3-.865-.433a1.308,1.308,0,0,1,.433-.865c.265-.145.892-.1.865-.865a2.084,2.084,0,0,0-2.163-1.73,1.931,1.931,0,0,0-1.73,2.163c.049,1.451,1.422,2.664,3.461,2.6,1.09-.037,3.225-.61,5.623-3.461,2.791-3.268,3.738-7.207,4.326-9.949l.433-3.461c.364.044.874-.01,1.3,0,3.477.073,5.165-1.718,5.191-3.028a1.214,1.214,0,0,0-1.3-1.3c-.539.015-1.135.12-1.3.865s.989,1.523,0,2.163a4.774,4.774,0,0,1-3.461.433v-1.73c.658-3.379,1.679-7.685,4.758-7.786a1.012,1.012,0,0,1,.865.865c.006.181.212.017,0,.433-.216.324-.443.548-.433.865.03.863.781,1.332,1.73,1.3a1.723,1.723,0,0,0,1.73-1.73c-.051-1.492-1.81-2.231-3.893-2.163Z" transform="translate(-35.725 -40.745)" fill="#1a171b"/>
    </g>
  </g>
</svg>
