<svg xmlns="http://www.w3.org/2000/svg" width="122" height="56" viewBox="0 0 122 56">
  <g id="tailwindcss" transform="translate(-0.434 -0.437)">
    <rect id="box" width="122" height="56" rx="10" transform="translate(0.434 0.437)" fill="#1fb4b9"/>
    <g id="tailwindcss-icon" transform="translate(32.732 11.163)">
      <path id="Path_92" data-name="Path 92" d="M28.2-.182c-7.538,0-12.39,3.709-14.275,11.247C16.751,7.3,20.1,6.229,23.873,7.171c2.15.538,3.49,1.734,5.191,3.461,2.771,2.813,5.971,6.056,12.977,6.056,7.538,0,12.39-3.709,14.275-11.247-2.827,3.769-6.18,5.268-9.949,4.326-2.15-.538-3.49-2.166-5.191-3.893C38.4,3.06,35.205-.182,28.2-.182ZM13.924,16.688c-7.538,0-12.39,4.141-14.275,11.679C2.476,24.6,5.829,23.1,9.6,24.041c2.15.538,3.922,2.166,5.623,3.893,2.771,2.813,5.971,6.056,12.977,6.056,7.538,0,11.958-4.141,13.842-11.679-2.827,3.769-5.748,5.268-9.517,4.326-2.15-.538-3.922-2.166-5.623-3.893C24.13,19.931,20.93,16.688,13.924,16.688Z" transform="translate(0.351 0.182)" fill="#fff"/>
    </g>
  </g>
</svg>
