<svg xmlns="http://www.w3.org/2000/svg" width="281" height="128" viewBox="0 0 281 128">
  <g id="tailwindcss" transform="translate(-232 -163)">
    <rect id="box" width="281" height="128" rx="10" transform="translate(232 163)" fill="#1fb4b9"/>
    <g id="tailwindcss-icon" transform="translate(307.351 188.182)">
      <path id="Path_92" data-name="Path 92" d="M65.649-.182c-17.426,0-28.643,8.574-33,26,6.535-8.713,14.287-11.178,23-9,4.971,1.243,8.067,4.008,12,8,6.407,6.5,13.8,14,30,14,17.426,0,28.643-8.574,33-26-6.535,8.713-14.287,12.178-23,10-4.971-1.243-8.067-5.008-12-9C89.242,7.314,81.846-.182,65.649-.182Zm-33,39c-17.426,0-28.643,9.574-33,27,6.535-8.713,14.287-12.178,23-10,4.971,1.243,9.067,5.008,13,9,6.407,6.5,13.8,14,30,14,17.426,0,27.643-9.574,32-27-6.535,8.713-13.287,12.178-22,10-4.971-1.243-9.067-5.008-13-9C56.242,46.314,48.846,38.818,32.649,38.818Z" transform="translate(0 0)" fill="#fff"/>
    </g>
  </g>
</svg>
