<svg xmlns="http://www.w3.org/2000/svg" width="84" height="40" viewBox="0 0 84 40">
  <g id="tailwindcss" transform="translate(-0.011 0.436)">
    <rect id="box" width="84" height="40" rx="10" transform="translate(0.011 -0.436)" fill="#1fb4b9"/>
    <g id="tailwindcss-icon" transform="translate(21.71 8.116)">
      <path id="Path_92" data-name="Path 92" d="M19.433-.182c-5.223,0-8.586,2.57-9.892,7.793C11.5,5,13.823,4.26,16.435,4.913a7.41,7.41,0,0,1,3.6,2.4c1.92,1.949,4.138,4.2,8.992,4.2,5.223,0,8.586-2.57,9.892-7.793-1.959,2.612-4.282,3.65-6.894,3-1.49-.373-2.418-1.5-3.6-2.7C26.5,2.065,24.287-.182,19.433-.182ZM9.541,11.508c-5.223,0-8.586,2.87-9.892,8.093,1.959-2.612,4.282-3.65,6.894-3a8.91,8.91,0,0,1,3.9,2.7c1.92,1.949,4.138,4.2,8.992,4.2,5.223,0,8.286-2.87,9.592-8.093-1.959,2.612-3.983,3.65-6.594,3a8.91,8.91,0,0,1-3.9-2.7C16.613,13.755,14.4,11.508,9.541,11.508Z" transform="translate(0.351 0.182)" fill="#fff"/>
    </g>
  </g>
</svg>
