<svg xmlns="http://www.w3.org/2000/svg" width="122" height="54" viewBox="0 0 122 54">
  <g id="typescript" transform="translate(-0.434 -0.481)">
    <rect id="box" width="122" height="54" rx="10" transform="translate(0.434 0.481)" fill="#147acc"/>
    <g id="typescript-icon" transform="translate(43.546 9.685)">
      <path id="Path_131" data-name="Path 131" d="M0-238.265v17.735H35.471V-256H0Z" transform="translate(0 256)" fill="#fff"/>
      <path id="Path_132" data-name="Path 132" d="M12.467,14.547l.011-1.45H7.869V0H4.609V13.1H0v1.422A13.934,13.934,0,0,0,.039,15.98c.017.022,2.822.034,6.222.028l6.188-.017Z" transform="translate(20.298 32.37) rotate(180)" fill="#147acc"/>
      <path id="Path_133" data-name="Path 133" d="M160.59-234.89a4.293,4.293,0,0,1,2.163,1.3c.326.348.826.713.865.865.011.045-1.662,1.151-2.6,1.73-.034.022.152-.208,0-.433a1.984,1.984,0,0,0-1.73-.865c-1.074-.073-1.736.359-1.73,1.3,0,.275-.112.64,0,.865.236.489.786.7,2.163,1.3,2.535,1.09,3.651,2.005,4.326,3.028a5.162,5.162,0,0,1,.433,4.326c-.562,1.473-1.931,2.264-3.893,2.6a13.635,13.635,0,0,1-3.028,0,5.938,5.938,0,0,1-3.461-1.73,5.482,5.482,0,0,1-.865-1.3,2.337,2.337,0,0,1,.433-.433c.157-.09.736-.539,1.3-.865l.865-.433.433.433a4.667,4.667,0,0,0,1.3,1.3,3.32,3.32,0,0,0,3.461-.433.93.93,0,0,0,.433-.865c0-.41-.219-.556-.433-.865a3.984,3.984,0,0,0-2.163-1.73c-1.827-.787-2.741-.955-3.461-1.73a4.3,4.3,0,0,1-.865-1.73,9.687,9.687,0,0,1-.433-2.6c.377-1.765,1.971-2.663,3.893-3.028A8.373,8.373,0,0,1,160.59-234.89Z" transform="translate(-132.04 251.328)" fill="#147acc"/>
    </g>
  </g>
</svg>
