<svg xmlns="http://www.w3.org/2000/svg" width="281" height="128" viewBox="0 0 281 128">
  <g id="typescript" transform="translate(-232 -163)">
    <rect id="box" width="281" height="128" rx="10" transform="translate(232 163)" fill="#147acc"/>
    <g id="typescript-icon" transform="translate(332 186)">
      <path id="Path_131" data-name="Path 131" d="M0-215v41H82v-82H0Z" transform="translate(0 256)" fill="#fff"/>
      <path id="Path_132" data-name="Path 132" d="M28.82,33.628l.026-3.352H18.191V0H10.655V30.276H0v3.287a32.213,32.213,0,0,0,.091,3.378c.039.052,6.523.078,14.384.065l14.306-.039Z" transform="translate(46.923 74.83) rotate(180)" fill="#147acc"/>
      <path id="Path_133" data-name="Path 133" d="M170.239-234.757a9.925,9.925,0,0,1,5,3c.754.806,1.909,1.649,2,2,.026.1-3.843,2.662-6,4-.078.052.351-.48,0-1a4.587,4.587,0,0,0-4-2c-2.482-.169-4.013.83-4,3,0,.637-.26,1.48,0,2,.546,1.13,1.816,1.623,5,3,5.86,2.521,8.441,4.635,10,7a11.933,11.933,0,0,1,1,10c-1.3,3.4-4.465,5.233-9,6a31.519,31.519,0,0,1-7,0,13.728,13.728,0,0,1-8-4,12.674,12.674,0,0,1-2-3,5.4,5.4,0,0,1,1-1c.364-.208,1.7-1.246,3-2l2-1,1,1a10.79,10.79,0,0,0,3,3,7.676,7.676,0,0,0,8-1,2.149,2.149,0,0,0,1-2c0-.949-.506-1.285-1-2-.637-.91-1.31-2.4-5-4-4.223-1.819-6.337-2.207-8-4a9.932,9.932,0,0,1-2-4c-.312-1.156-1.247-4.831-1-6,.871-4.08,4.556-6.155,9-7A19.356,19.356,0,0,1,170.239-234.757Z" transform="translate(-104.239 272.757)" fill="#147acc"/>
    </g>
  </g>
</svg>
