<svg xmlns="http://www.w3.org/2000/svg" width="84" height="40" viewBox="0 0 84 40">
  <g id="typescript" transform="translate(-0.011 0.266)">
    <rect id="box" width="84" height="40" rx="10" transform="translate(0.011 -0.266)" fill="#147acc"/>
    <g id="typescript-icon" transform="translate(29.204 7.401)">
      <path id="Path_131" data-name="Path 131" d="M0-243.71v12.29H24.579V-256H0Z" transform="translate(0 256)" fill="#fff"/>
      <path id="Path_132" data-name="Path 132" d="M8.639,10.08l.008-1H5.453V0H3.194V9.075H0v.985a9.656,9.656,0,0,0,.027,1.013c.012.016,1.955.023,4.312.019l4.288-.012Z" transform="translate(14.065 22.43) rotate(180)" fill="#147acc"/>
      <path id="Path_133" data-name="Path 133" d="M158.331-234.921a2.975,2.975,0,0,1,1.5.9c.226.242.572.494.6.6.008.031-1.152.8-1.8,1.2-.023.016.105-.144,0-.3a1.375,1.375,0,0,0-1.2-.6c-.744-.051-1.2.249-1.2.9,0,.191-.078.444,0,.6.164.339.544.486,1.5.9a6.2,6.2,0,0,1,3,2.1,3.577,3.577,0,0,1,.3,3,3.136,3.136,0,0,1-2.7,1.8,9.448,9.448,0,0,1-2.1,0,4.115,4.115,0,0,1-2.4-1.2,3.8,3.8,0,0,1-.6-.9,1.621,1.621,0,0,1,.3-.3c.109-.062.51-.374.9-.6l.6-.3.3.3a3.234,3.234,0,0,0,.9.9,2.3,2.3,0,0,0,2.4-.3.644.644,0,0,0,.3-.6c0-.284-.152-.385-.3-.6a2.761,2.761,0,0,0-1.5-1.2c-1.266-.545-1.9-.661-2.4-1.2a2.977,2.977,0,0,1-.6-1.2,6.712,6.712,0,0,1-.3-1.8c.261-1.223,1.366-1.845,2.7-2.1A5.8,5.8,0,0,1,158.331-234.921Z" transform="translate(-138.548 246.311)" fill="#147acc"/>
    </g>
  </g>
</svg>
