<svg xmlns="http://www.w3.org/2000/svg" width="84" height="38" viewBox="0 0 84 38">
  <g id="vim" transform="translate(0.087 -0.347)">
    <rect id="box" width="84" height="38" rx="10" transform="translate(-0.087 0.347)" fill="#179833"/>
    <g id="vim-2" data-name="vim" transform="translate(28.51 4.533)">
      <path id="Path_240" data-name="Path 240" d="M15.826,1.952,1.945,15.788l13.881,13.9,13.817-13.9L15.826,1.952" transform="translate(-1.731 -1.738)" fill="#179833"/>
      <path id="Path_241" data-name="Path 241" d="M16.561,4.053V2.885L2.774,16.621H3.955L16.561,4.053" transform="translate(-2.469 -2.568)" fill="#fff"/>
      <path id="Path_242" data-name="Path 242" d="M128.264,4.053V2.885l13.83,13.736h-1.278L128.264,4.053" transform="translate(-114.172 -2.568)" fill="#fff"/>
      <path id="Path_243" data-name="Path 243" fill="#45fe02"/>
      <path id="Path_244" data-name="Path 244" d="M16.561,140.535v1.293L2.774,127.908H3.955l12.606,12.627" transform="translate(-2.469 -113.855)" fill="#fff"/>
      <path id="Path_245" data-name="Path 245" d="M128.264,140.535v1.293l13.83-13.92h-1.278l-12.552,12.627" transform="translate(-114.172 -113.855)" fill="#fff"/>
      <path id="Path_246" data-name="Path 246" d="M22.659,35.19H19.986l-1.044-1.017V14.75h-.828l-.709-.71V11.869l.735-.8h9.347l.84.841v2.061l-.7.851h-.706v6.565l6.645-6.565H33.2l-.773-.834V11.807l.759-.7h9.434l.747.748v2.067L22.659,35.19" transform="translate(-15.493 -9.856)" fill="#fff"/>
      <path id="Path_248" data-name="Path 248" d="M31.455,17l.415-.268-.424-.44H22.455L22,16.75v1.73l.506.507.242-.507-.318-.318v-1.22l.238-.212,8.489.01.3.26" transform="translate(-19.581 -14.503)" fill="#fefefe"/>
      <path id="Path_249" data-name="Path 249" d="M37.064,35.833V56.085l.285.271-.228.431-.6-.59V36.358l.542-.525" transform="translate(-32.509 -31.896)" fill="#fefefe"/>
      <path id="Path_251" data-name="Path 251" d="M98.868,18.79l-.38-.268V17.435l.4-.4h8.289l.318.424.452-.357-.466-.425H98.568l-.444.444v1.744l.467.423m-7.209,8.384-.866,2.1,9.772-9.812-.048-1.187-8.859,8.9" transform="translate(-80.572 -14.847)" fill="#fefefe"/>
      <path id="Path_252" data-name="Path 252" d="M92.453,20.561l.435-.26v1.706l-.5.5h-.964L91.409,30.9,90.547,33V22.007h1.611l.3-.244,0-1.2" transform="translate(-80.599 -18.071)" fill="#fff"/>
      <path id="Path_255" data-name="Path 255" d="M40.988,19.79l-.318.318v1.167l.278.278h1.469v1.128L32.7,32.545V21.567h1.615l.331-.332V20.054l-.306-.237h-8.5l-.278.279V21.3l.283.283h1.478V41.8l.278.278h1.68L49.648,21.036v-.928l-.318-.318H40.988" transform="translate(-22.754 -17.616)" fill="#179833"/>
      <path id="Path_256" data-name="Path 256" d="M29.076,41.889h-1.7l-.294-.294v-20.2H25.616l-.3-.3V19.867l.294-.294h8.52l.324.25v1.205l-.347.348h-1.6V32.262l9.665-9.81v-1.09H40.721l-.294-.294V19.879l.333-.334h8.365l.333.334v.95l-.007.008L29.076,41.889Zm-1.68-.054h1.658L49.4,20.807V19.9l-.3-.3h-8.32l-.3.3v1.145l.262.263h1.485v1.166l-.008.008-9.765,9.911V21.323h1.631l.316-.316V19.85l-.288-.223h-8.48l-.262.263v1.184l.267.267h1.494V41.572l.262.263Z" transform="translate(-22.536 -17.398)" fill="gray"/>
      <path id="Path_257" data-name="Path 257" d="M106.816,143.815a.092.092,0,0,0-.042.021l-.394.339a.092.092,0,0,0-.025.039l-.394,1.1a.092.092,0,0,0,.021.1l.3.3a.092.092,0,0,0,.065.026h1.217a.091.091,0,0,0,.065-.026l.318-.32a.092.092,0,0,0,.023-.039l.338-1.163a.092.092,0,0,0-.023-.09l-.262-.262a.091.091,0,0,0-.065-.025h-1.143Zm-2.229,3.114a.092.092,0,0,0-.07.067l-.151.6a.092.092,0,0,0,.067.111l.021,0h.716l-1.775,5.075a.092.092,0,0,0,.058.116.091.091,0,0,0,.028,0h2.584a.092.092,0,0,0,.088-.063l.169-.545a.091.091,0,0,0-.088-.118h-.584l1.757-5.128a.092.092,0,0,0-.086-.121h-2.734Zm8.222.019a.092.092,0,0,0-.051.03l-.538.608h-.855l-.57-.592a.091.091,0,0,0-.065-.028h-2.042a.091.091,0,0,0-.086.06l-.188.562a.092.092,0,0,0,.058.116.094.094,0,0,0,.028,0h.547l-1.7,5.019a.092.092,0,0,0,.058.116.094.094,0,0,0,.028,0h2.174a.092.092,0,0,0,.086-.06l.167-.49a.091.091,0,0,0-.086-.121h-.38l1.085-3.418h1.963l-1.237,3.97a.091.091,0,0,0,.061.114.092.092,0,0,0,.027,0h2.1a.092.092,0,0,0,.083-.056l.188-.45a.091.091,0,0,0-.083-.125h-.38l1.1-3.476h1.868l-1.256,3.989a.092.092,0,0,0,.088.118h2.3a.092.092,0,0,0,.086-.058l.188-.49a.091.091,0,0,0-.054-.117.088.088,0,0,0-.031-.006h-.457l1.388-4.513a.092.092,0,0,0-.014-.084l-.431-.58a.091.091,0,0,0-.074-.035h-1.648a.091.091,0,0,0-.067.028l-.519.571h-.908l-.538-.589a.091.091,0,0,0-.067-.028h-1.346Z" transform="translate(-92.032 -128.014)" fill="#179833"/>
      <path id="Path_258" data-name="Path 258" d="M125.175,144.13a.3.3,0,0,0,.209.086H126.6a.3.3,0,0,0,.221-.089l.317-.32a.306.306,0,0,0,.078-.131l.338-1.162a.306.306,0,0,0-.077-.3l-.265-.265a.3.3,0,0,0-.214-.086h-1.116a.3.3,0,0,0-.048,0l-.023,0a.3.3,0,0,0-.138.068l-.394.339,0,0a.307.307,0,0,0-.084.128l-.393,1.1a.309.309,0,0,0,.071.319l.3.3Zm1.775-1.84.173.173-.309,1.063-.258.26h-1.117l-.208-.209.358-1,.331-.285Z" transform="translate(-111.072 -126.274)" fill="#fff"/>
      <path id="Path_259" data-name="Path 259" d="M148.851,171.093l-.431-.58,0,0a.307.307,0,0,0-.244-.116h-1.642a.3.3,0,0,0-.225.093l-.46.505h-.719l-.474-.519,0,0a.31.31,0,0,0-.221-.093h-1.32a.3.3,0,0,0-.048,0l-.022,0a.305.305,0,0,0-.168.1l-.474.535h-.667l-.507-.526a.309.309,0,0,0-.219-.093h-2.042a.307.307,0,0,0-.287.2l-.189.566a.307.307,0,0,0,.193.388.311.311,0,0,0,.1.016h.247l-1.605,4.736a.307.307,0,0,0,.193.388.311.311,0,0,0,.1.016h2.174a.308.308,0,0,0,.288-.206l.167-.491a.306.306,0,0,0-.289-.4h-.087l.948-2.988h1.514l-1.151,3.693a.307.307,0,0,0,.2.382.34.34,0,0,0,.091.014h2.1a.306.306,0,0,0,.28-.188l.189-.454a.306.306,0,0,0-.283-.419h-.087l.967-3.047h1.418l-1.169,3.712a.307.307,0,0,0,.2.382.3.3,0,0,0,.089.014h2.3a.309.309,0,0,0,.288-.2l.189-.493a.306.306,0,0,0-.287-.411h-.166l1.3-4.232a.306.306,0,0,0-.046-.278Zm-1.837,4.94h.568l-.092.241h-2.052l1.293-4.107h-2.318l-1.239,3.906h.487l-.084.2h-1.847L143,172.185h-2.412l-1.221,3.847h.5l-.082.241h-1.912l1.742-5.14h-.674l.1-.313h1.9l.6.62h1.043l.564-.638h1.221l.563.617h1.1l.544-.6h1.535l.356.479-1.456,4.733Z" transform="translate(-122.303 -151.654)" fill="#fff"/>
      <path id="Path_260" data-name="Path 260" d="M104.585,175.466a.331.331,0,0,0-.091-.014h-.283l1.66-4.845a.306.306,0,0,0-.289-.4h-2.708a.306.306,0,0,0-.048,0l-.023,0a.3.3,0,0,0-.233.225l-.151.6a.306.306,0,0,0,.3.38h.413l-1.676,4.792a.307.307,0,0,0,.193.388.31.31,0,0,0,.1.016h2.585a.306.306,0,0,0,.292-.214l.169-.546a.307.307,0,0,0-.2-.382Zm-2.669.713,1.817-5.2h-.86l.088-.35h2.446l-1.8,5.249h.718l-.092.3Z" transform="translate(-90.292 -151.504)" fill="#fff"/>
    </g>
  </g>
</svg>
