<svg xmlns="http://www.w3.org/2000/svg" width="281" height="128" viewBox="0 0 281 128">
  <g id="vim" transform="translate(-232 -163)">
    <rect id="box" width="281" height="128" rx="10" transform="translate(232 163)" fill="#179833"/>
    <g id="vim-2" data-name="vim" transform="translate(328.215 179.385)">
      <path id="Path_240" data-name="Path 240" d="M48.253,1.952,1.945,48.11,48.253,94.482l46.1-46.372L48.253,1.952" transform="translate(-1.232 -1.237)" fill="#179833"/>
      <path id="Path_241" data-name="Path 241" d="M48.77,6.782v-3.9l-46,45.825H6.715L48.77,6.782" transform="translate(-1.757 -1.828)" fill="#fff"/>
      <path id="Path_242" data-name="Path 242" d="M128.264,6.782v-3.9L174.4,48.71h-4.265L128.264,6.782" transform="translate(-81.251 -1.828)" fill="#fff"/>
      <path id="Path_243" data-name="Path 243" fill="#45fe02"/>
      <path id="Path_244" data-name="Path 244" d="M48.77,170.033v4.314l-46-46.438H6.715L48.77,170.033" transform="translate(-1.757 -81.026)" fill="#fff"/>
      <path id="Path_245" data-name="Path 245" d="M128.264,170.033v4.314L174.4,127.908h-4.265l-41.874,42.125" transform="translate(-81.251 -81.026)" fill="#fff"/>
      <path id="Path_246" data-name="Path 246" d="M34.933,91.532H26.017l-3.482-3.393v-64.8H19.771l-2.366-2.369V13.73l2.451-2.658H51.039l2.8,2.807v6.875l-2.33,2.84H49.156V45.5l22.17-21.9H70.089L67.51,20.812v-7.29L70.044,11.2h31.475l2.491,2.494v6.894L34.933,91.532" transform="translate(-11.026 -7.014)" fill="#fff"/>
      <path id="Path_248" data-name="Path 248" d="M53.548,18.657l1.385-.895-1.415-1.469h-30L22,17.819v5.773l1.69,1.692.806-1.692-1.06-1.062v-4.07l.8-.708,28.32.035,1,.869" transform="translate(-13.935 -10.321)" fill="#fefefe"/>
      <path id="Path_249" data-name="Path 249" d="M38.331,35.833V103.4l.95.9-.761,1.439-2-1.968V37.585l1.809-1.752" transform="translate(-23.136 -22.699)" fill="#fefefe"/>
      <path id="Path_251" data-name="Path 251" d="M118.378,23.723l-1.267-.9V19.2l1.325-1.327h27.654l1.06,1.416,1.509-1.191-1.553-1.419H117.376l-1.48,1.482v5.817l1.558,1.41M93.4,53.358l-2.888,7.017,32.6-32.734-.159-3.96L93.4,53.358" transform="translate(-57.34 -10.566)" fill="#fefefe"/>
      <path id="Path_252" data-name="Path 252" d="M96.906,21.17l1.45-.869v5.693L96.7,27.652H93.484l-.06,28-2.877,7V25.994H95.92l1-.813-.013-4.011" transform="translate(-57.359 -12.86)" fill="#fff"/>
      <path id="Path_255" data-name="Path 255" d="M77.027,19.79l-1.059,1.06v3.894l.928.929h4.9v3.762L49.373,62.344V25.72h5.388l1.105-1.107V20.672l-1.02-.79H26.49l-.928.929v4.025l.943.945h4.932V93.224l.928.929h5.6l67.947-70.206v-3.1l-1.059-1.06H77.027" transform="translate(-16.193 -12.536)" fill="#179833"/>
      <path id="Path_256" data-name="Path 256" d="M37.854,94.087h-5.68l-.98-.982V25.716h-4.88l-1-1v-4.1l.98-.981H54.723l1.079.835v4.022l-1.158,1.159H49.308V61.97L81.553,29.243V25.608H76.7l-.98-.982V20.658l1.111-1.113H104.74l1.112,1.113v3.17l-.025.026L37.854,94.087Zm-5.606-.179h5.53l67.9-70.153V20.732l-1.007-1.008H76.909L75.9,20.732v3.82l.875.876h4.954v3.889l-.026.026L49.129,62.407V25.475H54.57l1.053-1.055V20.561l-.961-.744H26.372l-.875.877v3.951l.891.892h4.984V93.031l.876.877Z" transform="translate(-16.038 -12.381)" fill="gray"/>
      <path id="Path_257" data-name="Path 257" d="M114.817,143.816a.306.306,0,0,0-.139.07l-1.314,1.13a.308.308,0,0,0-.085.132l-1.314,3.685a.306.306,0,0,0,.07.317l1.005,1.006a.306.306,0,0,0,.217.085h4.059a.3.3,0,0,0,.216-.085l1.059-1.068a.306.306,0,0,0,.077-.132l1.129-3.879a.306.306,0,0,0-.077-.3l-.874-.875a.3.3,0,0,0-.216-.085h-3.75a.292.292,0,0,0-.062,0ZM107.38,154.2a.306.306,0,0,0-.232.225l-.5,2a.305.305,0,0,0,.222.37.313.313,0,0,0,.071.009h2.389l-5.922,16.93a.305.305,0,0,0,.192.387.3.3,0,0,0,.094.016h8.62a.306.306,0,0,0,.294-.209l.564-1.819a.3.3,0,0,0-.294-.395h-1.948l5.86-17.108a.305.305,0,0,0-.192-.387.3.3,0,0,0-.094-.016h-9.061a.346.346,0,0,0-.062,0Zm27.429.062a.306.306,0,0,0-.17.1l-1.793,2.028h-2.853l-1.9-1.974a.3.3,0,0,0-.216-.093h-6.811a.305.305,0,0,0-.286.2l-.626,1.874a.306.306,0,0,0,.192.387.316.316,0,0,0,.094.016h1.825l-5.675,16.744a.306.306,0,0,0,.192.387.313.313,0,0,0,.094.016h7.251a.305.305,0,0,0,.286-.2l.556-1.634a.3.3,0,0,0-.286-.4h-1.268l3.618-11.4h6.548l-4.128,13.246a.3.3,0,0,0,.2.381.309.309,0,0,0,.091.014h7a.306.306,0,0,0,.279-.186l.626-1.5a.305.305,0,0,0-.171-.4.309.309,0,0,0-.107-.022H136.1l3.68-11.6h6.231l-4.19,13.308a.305.305,0,0,0,.2.381.31.31,0,0,0,.092.014H149.8a.306.306,0,0,0,.286-.194l.626-1.634a.305.305,0,0,0-.182-.391.3.3,0,0,0-.1-.019H148.9l4.631-15.057a.306.306,0,0,0-.047-.279l-1.438-1.935a.3.3,0,0,0-.247-.116h-5.5a.3.3,0,0,0-.224.093l-1.732,1.9h-3.03l-1.793-1.966a.3.3,0,0,0-.224-.093h-4.43a.346.346,0,0,0-.062,0Z" transform="translate(-65.495 -91.102)" fill="#179833"/>
      <path id="Path_258" data-name="Path 258" d="M126.093,149.434a1.007,1.007,0,0,0,.7.286h4.063a1.01,1.01,0,0,0,.738-.3l1.057-1.066a1.021,1.021,0,0,0,.259-.438l1.129-3.878a1.021,1.021,0,0,0-.258-1.009l-.883-.884a.994.994,0,0,0-.714-.286h-3.724a1.009,1.009,0,0,0-.16,0l-.075.012a1.017,1.017,0,0,0-.459.227l-1.314,1.13-.015.014a1.026,1.026,0,0,0-.28.428l-1.311,3.677a1.03,1.03,0,0,0,.237,1.066l1.015,1.016Zm5.921-6.14.577.578-1.032,3.547-.86.868h-3.727l-.7-.7,1.194-3.346,1.1-.95Z" transform="translate(-79.045 -89.864)" fill="#fff"/>
      <path id="Path_259" data-name="Path 259" d="M175.605,172.777l-1.438-1.935-.013-.016a1.024,1.024,0,0,0-.816-.389H167.86a1.013,1.013,0,0,0-.751.311l-1.534,1.686h-2.4L161.6,170.7l-.015-.016a1.033,1.033,0,0,0-.739-.311h-4.4a1.009,1.009,0,0,0-.16,0l-.074.011a1.019,1.019,0,0,0-.56.327l-1.58,1.786h-2.225l-1.692-1.756a1.03,1.03,0,0,0-.731-.311H142.6a1.025,1.025,0,0,0-.957.673L141.016,173a1.023,1.023,0,0,0,.644,1.294,1.035,1.035,0,0,0,.321.053h.825l-5.355,15.8a1.024,1.024,0,0,0,.644,1.293,1.038,1.038,0,0,0,.322.053h7.254a1.029,1.029,0,0,0,.962-.686l.558-1.637a1.022,1.022,0,0,0-.965-1.347h-.289l3.164-9.97h5.05l-3.84,12.319a1.023,1.023,0,0,0,.677,1.276,1.136,1.136,0,0,0,.3.045h7a1.023,1.023,0,0,0,.934-.626l.631-1.514a1.022,1.022,0,0,0-.945-1.4h-.289l3.225-10.164h4.73l-3.9,12.382a1.023,1.023,0,0,0,.677,1.275,1.009,1.009,0,0,0,.3.045h7.685a1.032,1.032,0,0,0,.96-.654l.63-1.644a1.022,1.022,0,0,0-.959-1.373h-.553l4.342-14.118a1.022,1.022,0,0,0-.152-.928Zm-6.13,16.479h1.895l-.309.8h-6.845l4.315-13.7H160.8l-4.134,13.029h1.624l-.28.673h-6.163l4.251-13.64h-8.046l-4.073,12.836h1.669l-.274.8h-6.38l5.811-17.147h-2.249l.349-1.044h6.336l1.991,2.067h3.48l1.882-2.129h4.074l1.878,2.06h3.664l1.816-2h5.12l1.186,1.6-4.856,15.79Z" transform="translate(-87.038 -107.926)" fill="#fff"/>
      <path id="Path_260" data-name="Path 260" d="M111.941,187.761a1.1,1.1,0,0,0-.3-.045h-.946l5.537-16.164a1.021,1.021,0,0,0-.965-1.347H106.23a1.02,1.02,0,0,0-.16,0l-.078.012a1.015,1.015,0,0,0-.776.75l-.5,2a1.021,1.021,0,0,0,.989,1.269h1.379l-5.591,15.986a1.023,1.023,0,0,0,.644,1.294,1.039,1.039,0,0,0,.322.053h8.624a1.022,1.022,0,0,0,.974-.713l.565-1.822a1.023,1.023,0,0,0-.677-1.276Zm-8.9,2.378,6.063-17.333h-2.868l.294-1.168h8.16l-6,17.511h2.395l-.307.99Z" transform="translate(-64.257 -107.819)" fill="#fff"/>
    </g>
  </g>
</svg>
