<svg xmlns="http://www.w3.org/2000/svg" width="121" height="54" viewBox="0 0 121 54">
  <g id="vim" transform="translate(-0.301 -0.481)">
    <rect id="box" width="121" height="54" rx="10" transform="translate(0.301 0.481)" fill="#179833"/>
    <g id="vim-2" data-name="vim" transform="translate(41.19 6.527)">
      <path id="Path_240" data-name="Path 240" d="M21.976,1.952,1.945,21.919,21.976,41.978,41.916,21.919,21.976,1.952" transform="translate(-1.637 -1.643)" fill="#179833"/>
      <path id="Path_241" data-name="Path 241" d="M22.671,4.571V2.885L2.774,22.707h1.7L22.671,4.571" transform="translate(-2.334 -2.428)" fill="#fff"/>
      <path id="Path_242" data-name="Path 242" d="M128.264,4.571V2.885l19.958,19.822h-1.845L128.264,4.571" transform="translate(-107.928 -2.428)" fill="#fff"/>
      <path id="Path_243" data-name="Path 243" fill="#45fe02"/>
      <path id="Path_244" data-name="Path 244" d="M22.671,146.13V148l-19.9-20.088h1.7L22.671,146.13" transform="translate(-2.334 -107.628)" fill="#fff"/>
      <path id="Path_245" data-name="Path 245" d="M128.264,146.13V148l19.958-20.088h-1.845L128.264,146.13" transform="translate(-107.928 -107.628)" fill="#fff"/>
      <path id="Path_246" data-name="Path 246" d="M24.987,45.877H21.13l-1.506-1.468V16.38h-1.2l-1.023-1.025V12.222l1.06-1.15H31.954l1.213,1.214V15.26l-1.008,1.228H31.14v9.475l9.59-9.475h-.535l-1.115-1.2V12.132l1.1-1.006H53.79l1.078,1.079v2.982L24.987,45.877" transform="translate(-14.645 -9.317)" fill="#fff"/>
      <path id="Path_248" data-name="Path 248" d="M35.646,17.315l.6-.387-.612-.635H22.657l-.659.66v2.5l.731.732.349-.732-.459-.459v-1.76l.344-.306,12.25.015.432.376" transform="translate(-18.51 -13.71)" fill="#fefefe"/>
      <path id="Path_249" data-name="Path 249" d="M37.3,35.833V65.059l.411.391-.329.622-.864-.851V36.591l.783-.758" transform="translate(-30.731 -30.152)" fill="#fefefe"/>
      <path id="Path_251" data-name="Path 251" d="M102.569,19.726l-.548-.387V17.77l.573-.574h11.963l.459.612.653-.515L115,16.679H102.136l-.64.641v2.516l.674.61m-10.4,12.1-1.249,3.035,14.1-14.16-.069-1.713L91.766,32.545" transform="translate(-76.165 -14.035)" fill="#fefefe"/>
      <path id="Path_252" data-name="Path 252" d="M93.3,20.677l.627-.376v2.463l-.716.717H91.817l-.026,12.112-1.244,3.028V22.764h2.324l.432-.352L93.3,20.677" transform="translate(-76.191 -17.082)" fill="#fff"/>
      <path id="Path_255" data-name="Path 255" d="M47.824,19.79l-.458.459v1.684l.4.4h2.12v1.628L35.862,38.2V22.355h2.331l.478-.479v-1.7l-.441-.342H25.963l-.4.4v1.741l.408.409H28.1V51.555l.4.4h2.425L60.321,21.588V20.249l-.458-.459H47.824" transform="translate(-21.509 -16.652)" fill="#179833"/>
      <path id="Path_256" data-name="Path 256" d="M30.741,51.79H28.284l-.424-.425V22.214H25.749l-.431-.431V20.01l.424-.424h12.3l.467.361v1.74l-.5.5H35.7V37.9L49.643,23.74V22.168h-2.1l-.424-.425V20.027l.481-.482H59.674l.481.482V21.4l-.011.011L30.741,51.79Zm-2.425-.078h2.392l29.37-30.346V20.059l-.436-.436H47.635l-.436.436v1.652l.379.379h2.143v1.682l-.011.011-14.092,14.3V22.11h2.354l.456-.456V19.985l-.416-.322H25.774l-.379.379v1.709l.385.386h2.156v29.2l.379.379Z" transform="translate(-21.304 -16.446)" fill="gray"/>
      <path id="Path_257" data-name="Path 257" d="M108.334,143.815a.132.132,0,0,0-.06.03l-.568.489a.133.133,0,0,0-.037.057l-.569,1.594a.132.132,0,0,0,.03.137l.435.435a.132.132,0,0,0,.094.037h1.756a.132.132,0,0,0,.094-.037l.458-.462a.132.132,0,0,0,.033-.057l.488-1.678a.132.132,0,0,0-.033-.13l-.378-.378a.131.131,0,0,0-.094-.037h-1.649Zm-3.217,4.494a.132.132,0,0,0-.1.1l-.217.864a.132.132,0,0,0,.1.16.135.135,0,0,0,.031,0h1.033l-2.562,7.323a.132.132,0,0,0,.083.167.13.13,0,0,0,.041.007h3.729a.132.132,0,0,0,.127-.091l.244-.787a.132.132,0,0,0-.088-.165.131.131,0,0,0-.039-.006h-.843l2.535-7.4a.132.132,0,0,0-.124-.174h-3.946Zm11.865.027a.132.132,0,0,0-.074.044l-.776.877H114.9l-.823-.854a.131.131,0,0,0-.094-.04h-2.946a.132.132,0,0,0-.124.087l-.271.811a.132.132,0,0,0,.083.167.136.136,0,0,0,.041.007h.789l-2.455,7.243a.132.132,0,0,0,.083.167.134.134,0,0,0,.041.007h3.137a.132.132,0,0,0,.124-.087l.241-.707a.132.132,0,0,0-.124-.174h-.548l1.565-4.933h2.833l-1.786,5.73a.132.132,0,0,0,.127.171h3.026a.132.132,0,0,0,.121-.08l.271-.65a.132.132,0,0,0-.074-.171.134.134,0,0,0-.046-.009h-.548l1.592-5.016h2.7l-1.813,5.756a.132.132,0,0,0,.127.171h3.324a.132.132,0,0,0,.124-.084l.271-.707a.132.132,0,0,0-.079-.169.128.128,0,0,0-.045-.008h-.659l2-6.513a.133.133,0,0,0-.02-.121l-.622-.837a.132.132,0,0,0-.107-.05h-2.378a.131.131,0,0,0-.1.04l-.749.824H119.8l-.776-.85a.132.132,0,0,0-.1-.04h-1.943Z" transform="translate(-86.998 -121.013)" fill="#179833"/>
      <path id="Path_258" data-name="Path 258" d="M125.349,145.136a.436.436,0,0,0,.3.124h1.758a.437.437,0,0,0,.319-.128l.457-.461a.442.442,0,0,0,.112-.189l.488-1.677a.442.442,0,0,0-.112-.436l-.382-.383a.43.43,0,0,0-.309-.124h-1.611a.439.439,0,0,0-.069,0l-.032.005a.44.44,0,0,0-.2.1l-.569.489-.007.006a.444.444,0,0,0-.121.185l-.567,1.59a.446.446,0,0,0,.1.461l.439.439Zm2.561-2.656.25.25-.446,1.534-.372.375h-1.612l-.3-.3.516-1.448.478-.411Z" transform="translate(-104.997 -119.368)" fill="#fff"/>
      <path id="Path_259" data-name="Path 259" d="M153.926,171.413l-.622-.837-.006-.007a.443.443,0,0,0-.353-.168h-2.37a.438.438,0,0,0-.325.134l-.663.729H148.55l-.684-.749-.006-.007a.447.447,0,0,0-.32-.134h-1.905a.436.436,0,0,0-.069,0l-.032,0a.441.441,0,0,0-.242.142l-.683.773h-.963l-.732-.759a.446.446,0,0,0-.316-.135H139.65a.443.443,0,0,0-.414.291l-.273.817a.443.443,0,0,0,.278.56.448.448,0,0,0,.139.023h.357l-2.316,6.835a.443.443,0,0,0,.279.559.449.449,0,0,0,.139.023h3.138a.445.445,0,0,0,.416-.3l.241-.708a.442.442,0,0,0-.418-.583h-.125l1.368-4.313h2.185l-1.661,5.329a.443.443,0,0,0,.293.552.491.491,0,0,0,.131.019h3.029a.442.442,0,0,0,.4-.271l.273-.655a.442.442,0,0,0-.409-.6h-.125l1.4-4.4h2.046l-1.686,5.356a.443.443,0,0,0,.293.551.438.438,0,0,0,.128.019h3.324a.447.447,0,0,0,.415-.283l.273-.711a.442.442,0,0,0-.415-.594h-.239l1.878-6.107a.442.442,0,0,0-.066-.4Zm-2.651,7.128h.82l-.133.348H149l1.866-5.927h-3.345l-1.788,5.636h.7l-.121.291h-2.666l1.839-5.9h-3.481l-1.762,5.552h.722l-.119.348h-2.76l2.514-7.417h-.973l.151-.452h2.741l.861.894h1.505l.814-.921h1.762l.812.891h1.585l.786-.864h2.215l.513.691-2.1,6.83Z" transform="translate(-115.614 -143.36)" fill="#fff"/>
      <path id="Path_260" data-name="Path 260" d="M105.98,177.8a.478.478,0,0,0-.131-.02h-.409l2.4-6.992a.442.442,0,0,0-.418-.583H103.51a.441.441,0,0,0-.069,0l-.034.005a.439.439,0,0,0-.336.324l-.218.865a.441.441,0,0,0,.428.549h.6l-2.419,6.915a.443.443,0,0,0,.278.56.449.449,0,0,0,.139.023h3.731a.442.442,0,0,0,.421-.309l.244-.788a.443.443,0,0,0-.293-.552Zm-3.852,1.029,2.623-7.5H103.51l.127-.505h3.53l-2.595,7.575h1.036l-.133.428Z" transform="translate(-85.353 -143.218)" fill="#fff"/>
    </g>
  </g>
</svg>
