<svg xmlns="http://www.w3.org/2000/svg" xmlns:xlink="http://www.w3.org/1999/xlink" width="122" height="56" viewBox="0 0 122 56">
  <defs>
    <linearGradient id="linear-gradient" x1="0.5" x2="0.5" y2="1" gradientUnits="objectBoundingBox">
      <stop offset="0" stop-color="#fff" stop-opacity="0.251"/>
      <stop offset="1" stop-color="#fff" stop-opacity="0"/>
    </linearGradient>
  </defs>
  <g id="visual-studio-code" transform="translate(-0.434 -0.426)">
    <rect id="box" width="122" height="56" rx="10" transform="translate(0.434 0.426)" fill="#35a6f1"/>
    <g id="visual-studio-code-2" data-name="visual-studio-code" transform="translate(39.06 6.407)">
      <path id="Path_13" data-name="Path 13" d="M41.749,4.44,32.665.114a2.587,2.587,0,0,0-3.028.433L.222,27.366a1.716,1.716,0,0,0,0,2.6l2.6,2.6a1.605,1.605,0,0,0,2.163,0L40.451,5.738a1.856,1.856,0,0,1,3.028,1.3h0A3.123,3.123,0,0,0,41.749,4.44Z" transform="translate(0.371 0.184)" fill="#fff"/>
      <path id="Path_14" data-name="Path 14" d="M41.749,89.17,32.665,93.5a2.588,2.588,0,0,1-3.028-.433L.222,66.244a1.716,1.716,0,0,1,0-2.6l2.6-2.163c.647-.588,1.466-.961,2.163-.433L40.451,87.872a1.856,1.856,0,0,0,3.028-1.3h0A3.123,3.123,0,0,1,41.749,89.17Z" transform="translate(0.371 -50.372)" fill="#fff"/>
      <path id="Path_15" data-name="Path 15" d="M178.089,42.948a2.588,2.588,0,0,1-3.028-.433,1.87,1.87,0,0,0,3.028-1.3V1.853a1.87,1.87,0,0,0-3.028-1.3,2.588,2.588,0,0,1,3.028-.433l9.084,4.326a3.121,3.121,0,0,1,1.73,2.6V36.027a3.121,3.121,0,0,1-1.73,2.6Z" transform="translate(-145.053 0.176)" fill="#fff"/>
      <path id="Path_16" data-name="Path 16" d="M30.5,43.053a2.709,2.709,0,0,0,2.163,0l9.084-4.326a3.122,3.122,0,0,0,1.73-2.6V7.149a3.122,3.122,0,0,0-1.73-2.6L32.665.228a2.45,2.45,0,0,0-2.6.433c-.114.083-.331-.1-.433,0L12.767,16.666,4.981,10.61c-.7-.529-1.516-.156-2.163.433l-2.6,2.163a1.717,1.717,0,0,0,0,2.6l6.489,6.056L.222,27.48a1.717,1.717,0,0,0,0,2.6l2.6,2.6a1.605,1.605,0,0,0,2.163,0l7.786-5.623L29.637,42.62A2.035,2.035,0,0,0,30.5,43.053Zm2.163-31.145-13.41,9.949,13.41,9.517Z" transform="translate(0.371 0.071)" fill="url(#linear-gradient)"/>
    </g>
  </g>
</svg>
