<svg xmlns="http://www.w3.org/2000/svg" xmlns:xlink="http://www.w3.org/1999/xlink" width="84" height="39" viewBox="0 0 84 39">
  <defs>
    <linearGradient id="linear-gradient" x1="0.5" x2="0.5" y2="1" gradientUnits="objectBoundingBox">
      <stop offset="0" stop-color="#fff" stop-opacity="0.251"/>
      <stop offset="1" stop-color="#fff" stop-opacity="0"/>
    </linearGradient>
  </defs>
  <g id="visual-studio-code" transform="translate(-0.011 -0.225)">
    <rect id="box" width="84" height="39" rx="10" transform="translate(0.011 0.225)" fill="#35a6f1"/>
    <g id="visual-studio-code-2" data-name="visual-studio-code" transform="translate(26.095 4.842)">
      <path id="Path_13" data-name="Path 13" d="M28.815,3.02l-6.295-3a1.793,1.793,0,0,0-2.1.3L.04,18.907a1.189,1.189,0,0,0,0,1.8l1.8,1.8a1.112,1.112,0,0,0,1.5,0L27.916,3.919a1.286,1.286,0,0,1,2.1.9h0A2.164,2.164,0,0,0,28.815,3.02Z" transform="translate(0.371 0.184)" fill="#fff"/>
      <path id="Path_14" data-name="Path 14" d="M28.815,80.458l-6.295,3a1.793,1.793,0,0,1-2.1-.3L.04,64.572a1.189,1.189,0,0,1,0-1.8l1.8-1.5c.448-.408,1.016-.666,1.5-.3L27.916,79.559a1.286,1.286,0,0,0,2.1-.9h0A2.164,2.164,0,0,1,28.815,80.458Z" transform="translate(0.371 -53.574)" fill="#fff"/>
      <path id="Path_15" data-name="Path 15" d="M177.159,29.706a1.793,1.793,0,0,1-2.1-.3,1.3,1.3,0,0,0,2.1-.9V1.23a1.3,1.3,0,0,0-2.1-.9,1.793,1.793,0,0,1,2.1-.3l6.295,3a2.163,2.163,0,0,1,1.2,1.8V24.91a2.163,2.163,0,0,1-1.2,1.8Z" transform="translate(-154.267 0.176)" fill="#fff"/>
      <path id="Path_16" data-name="Path 16" d="M21.022,29.838a1.878,1.878,0,0,0,1.5,0l6.295-3a2.163,2.163,0,0,0,1.2-1.8V4.959a2.164,2.164,0,0,0-1.2-1.8l-6.295-3a1.7,1.7,0,0,0-1.8.3c-.079.057-.229-.071-.3,0L8.733,11.554l-5.4-4.2c-.482-.366-1.051-.108-1.5.3l-1.8,1.5a1.19,1.19,0,0,0,0,1.8l4.5,4.2-4.5,3.9a1.19,1.19,0,0,0,0,1.8l1.8,1.8a1.112,1.112,0,0,0,1.5,0l5.4-3.9,11.69,10.791A1.41,1.41,0,0,0,21.022,29.838Zm1.5-21.582-9.292,6.894,9.292,6.594Z" transform="translate(0.371 0.044)" fill="url(#linear-gradient)"/>
    </g>
  </g>
</svg>
