<svg xmlns="http://www.w3.org/2000/svg" width="85" height="40" viewBox="0 0 85 40">
  <g id="webpack" transform="translate(0.087 0.436)">
    <rect id="box" width="85" height="40" rx="10" transform="translate(-0.087 -0.436)" fill="#1c78c0"/>
    <g id="webpack-2" data-name="webpack" transform="translate(29.345 4.819)">
      <path id="Path_94" data-name="Path 94" d="M13.489.171,26.677,7.665V22.652L13.489,30.446,0,22.652V7.665Z" transform="translate(0 -0.171)" fill="#fff"/>
      <path id="Path_95" data-name="Path 95" d="M37.922,40.514,27.431,46.509v-4.8l6.594-3.6Zm.9-.6V27.325l-3.9,2.1v8.093Zm-22.781.6,10.491,5.995v-4.8l-6.594-3.6-3.9,2.4Zm-.9-.6V27.325l3.9,2.1v8.093l-3.9,2.4Zm.6-13.489,10.791-5.995v4.5l-6.894,3.9h0l-3.9-2.4Zm22.481,0L27.431,20.431v4.5l6.894,3.9h0l3.9-2.4Z" transform="translate(-13.643 -18.332)" fill="#8ed6fb"/>
      <path id="Path_96" data-name="Path 96" d="M67.593,86.457,61,82.86V75.666l6.594,3.9v6.894Zm.9,0,6.594-3.6V75.666l-6.594,3.9ZM61.6,74.766l6.295-3.3,6.594,3.3-6.594,3.9-6.295-3.9Z" transform="translate(-54.704 -63.976)" fill="#1c78c0"/>
    </g>
  </g>
</svg>
