<svg xmlns="http://www.w3.org/2000/svg" width="121" height="56" viewBox="0 0 121 56">
  <g id="webpack" transform="translate(-0.378 -0.437)">
    <rect id="box" width="121" height="56" rx="10" transform="translate(0.378 0.437)" fill="#1c78c0"/>
    <g id="webpack-2" data-name="webpack" transform="translate(41.471 6.404)">
      <path id="Path_94" data-name="Path 94" d="M19.466.171,38.5,10.985V32.614L19.466,43.861,0,32.614V10.985Z" transform="translate(0 -0.171)" fill="#fff"/>
      <path id="Path_95" data-name="Path 95" d="M48.017,49.413l-15.14,8.651V51.143l9.517-5.191Zm1.3-.865V30.38l-5.623,3.028V45.087Zm-32.875.865,15.14,8.651V51.143l-9.517-5.191-5.623,3.461Zm-1.3-.865V30.38l5.623,3.028V45.087l-5.623,3.461Zm.865-19.466,15.573-8.651v6.489L21.63,32.543h0l-5.623-3.461Zm32.443,0L32.877,20.431v6.489l9.949,5.623h0l5.623-3.461Z" transform="translate(-12.979 -17.403)" fill="#8ed6fb"/>
      <path id="Path_96" data-name="Path 96" d="M70.516,93.1,61,87.907V77.525l9.517,5.623V93.1Zm1.3,0,9.517-5.191V77.525l-9.517,5.623Zm-9.949-16.87,9.084-4.758,9.517,4.758-9.517,5.623-9.084-5.623Z" transform="translate(-51.915 -60.655)" fill="#1c78c0"/>
    </g>
  </g>
</svg>
